<?xml version="1.0" encoding="utf-8"?>
<!-- Generator: Adobe Illustrator 16.0.0, SVG Export Plug-In . SVG Version: 6.00 Build 0)  -->
<!DOCTYPE svg PUBLIC "-//W3C//DTD SVG 1.1//EN" "http://www.w3.org/Graphics/SVG/1.1/DTD/svg11.dtd">
<svg version="1.1" id="Layer_1" xmlns="http://www.w3.org/2000/svg" xmlns:xlink="http://www.w3.org/1999/xlink" x="0px" y="0px"
	 width="163.5px" height="187.5px" viewBox="0 0 163.5 187.5" enable-background="new 0 0 163.5 187.5" xml:space="preserve">
<rect x="4" y="5" fill-rule="evenodd" clip-rule="evenodd" fill="#FFFFFF" stroke="#058C45" stroke-width="2" stroke-miterlimit="10" width="155" height="177"/>
<rect x="5" y="125" fill-rule="evenodd" clip-rule="evenodd" fill="#058C45" width="155" height="56"/>
<g>
	<path fill="#FFFFFF" d="M101.318,146.956c-0.317,0-0.564-0.095-0.741-0.285s-0.266-0.507-0.266-0.95v-1.349
		c0-0.608,0.107-1.042,0.323-1.302c0.215-0.26,0.563-0.389,1.045-0.389h0.798v3.077
		C102.363,146.557,101.977,146.956,101.318,146.956z M100.539,148.855c0.443,0,0.814-0.102,1.112-0.303
		c0.297-0.203,0.561-0.514,0.788-0.932h0.038c0.025,0.418,0.088,0.767,0.19,1.045h2.09c-0.102-0.229-0.165-0.459-0.19-0.693
		c-0.026-0.234-0.038-0.541-0.038-0.922v-4.369h0.589v-1.9h-0.589v-1.482h-2.052v1.482h-0.817c-0.418,0-0.731-0.107-0.94-0.323
		s-0.313-0.576-0.313-1.083v-0.816c0-0.457,0.092-0.785,0.275-0.988s0.447-0.305,0.789-0.305h2.356v-1.899h-2.394
		c-1.039,0-1.818,0.278-2.337,0.836c-0.52,0.558-0.779,1.374-0.779,2.45v0.248c0,0.709,0.117,1.289,0.351,1.738
		s0.599,0.775,1.093,0.979v0.037c-0.545,0.217-0.938,0.559-1.178,1.027s-0.361,1.051-0.361,1.748v1.387
		c0,0.988,0.196,1.741,0.589,2.261S99.779,148.855,100.539,148.855z M90.963,148.855c1.026,0,1.808-0.291,2.346-0.873
		c0.539-0.583,0.808-1.419,0.808-2.508c0-0.836-0.165-1.564-0.494-2.186c-0.329-0.621-0.931-1.311-1.805-2.071
		c-0.684-0.595-1.156-1.102-1.416-1.52c-0.26-0.419-0.39-0.868-0.39-1.349c0-0.85,0.348-1.273,1.045-1.273
		c0.342,0,0.602,0.104,0.779,0.313c0.177,0.209,0.266,0.542,0.266,0.997v0.684h1.976v-0.551c0-1.076-0.256-1.902-0.77-2.479
		c-0.513-0.576-1.27-0.865-2.271-0.865c-1.013,0-1.786,0.289-2.318,0.865c-0.532,0.576-0.798,1.39-0.798,2.441
		c0,0.772,0.171,1.466,0.513,2.08c0.342,0.615,0.943,1.302,1.805,2.062c0.684,0.596,1.152,1.105,1.406,1.529
		c0.253,0.425,0.38,0.915,0.38,1.473c0,0.469-0.092,0.808-0.275,1.017c-0.184,0.209-0.453,0.313-0.808,0.313
		c-0.722,0-1.083-0.431-1.083-1.292v-0.912h-1.976v0.76c0,1.077,0.259,1.903,0.779,2.48
		C89.184,148.568,89.95,148.855,90.963,148.855z M78.024,148.666h1.824v-10.07h0.038l1.52,10.07h1.748l1.52-10.07h0.038v10.07h1.976
		v-13.3h-2.983l-1.33,9.519h-0.038l-1.33-9.519h-2.983V148.666z M72.458,148.666h2.09v-5.662l2.527-7.638h-2.033l-1.425,4.883
		h-0.038l-1.425-4.883h-2.223l2.527,7.638V148.666z M66.359,148.855c1.013,0,1.786-0.287,2.318-0.863
		c0.532-0.577,0.798-1.403,0.798-2.48v-4.351h-3.021v1.899h1.045v2.604c0,0.861-0.361,1.292-1.083,1.292
		c-0.722,0-1.083-0.431-1.083-1.292v-7.277c0-0.873,0.361-1.311,1.083-1.311c0.722,0,1.083,0.438,1.083,1.311v1.273h1.976v-1.141
		c0-1.076-0.266-1.902-0.798-2.479c-0.532-0.576-1.305-0.865-2.318-0.865c-1.014,0-1.786,0.289-2.318,0.865
		c-0.532,0.576-0.798,1.402-0.798,2.479v6.992c0,1.077,0.266,1.903,0.798,2.48C64.573,148.568,65.345,148.855,66.359,148.855z"/>
	<path fill="#FFFFFF" d="M128.972,167.656c1.026,0,1.808-0.291,2.347-0.875c0.538-0.582,0.807-1.418,0.807-2.508
		c0-0.836-0.164-1.564-0.494-2.185c-0.328-0.62-0.93-1.312-1.805-2.071c-0.684-0.596-1.156-1.102-1.415-1.52
		c-0.26-0.418-0.39-0.867-0.39-1.35c0-0.848,0.348-1.272,1.045-1.272c0.342,0,0.602,0.104,0.779,0.313s0.266,0.541,0.266,0.998
		v0.684h1.977v-0.551c0-1.077-0.257-1.903-0.77-2.48c-0.514-0.576-1.271-0.864-2.271-0.864c-1.013,0-1.785,0.288-2.317,0.864
		c-0.532,0.577-0.798,1.391-0.798,2.441c0,0.773,0.171,1.467,0.514,2.081c0.342,0.614,0.943,1.302,1.805,2.062
		c0.684,0.596,1.152,1.105,1.406,1.529c0.252,0.425,0.379,0.916,0.379,1.473c0,0.469-0.092,0.808-0.275,1.017
		s-0.453,0.313-0.807,0.313c-0.723,0-1.084-0.431-1.084-1.292v-0.912h-1.976v0.761c0,1.076,0.259,1.902,0.778,2.479
		S127.958,167.656,128.972,167.656z M121.676,165.756c-0.722,0-1.083-0.438-1.083-1.311v-7.258c0-0.875,0.361-1.312,1.083-1.312
		c0.723,0,1.083,0.437,1.083,1.312v7.258C122.759,165.318,122.398,165.756,121.676,165.756z M121.676,167.656
		c1.026,0,1.812-0.291,2.355-0.875c0.545-0.582,0.818-1.405,0.818-2.469v-6.992c0-1.064-0.273-1.888-0.818-2.471
		c-0.544-0.582-1.329-0.874-2.355-0.874c-1.026,0-1.812,0.292-2.356,0.874c-0.544,0.583-0.817,1.406-0.817,2.471v6.992
		c0,1.063,0.272,1.887,0.817,2.469C119.864,167.365,120.65,167.656,121.676,167.656z M115.007,167.466h2.09v-13.3h-2.09V167.466z
		 M109.383,165.566v-9.5h1.064c0.342,0,0.604,0.102,0.789,0.303c0.183,0.203,0.275,0.533,0.275,0.988v6.916
		c0,0.457-0.092,0.786-0.275,0.988c-0.184,0.203-0.447,0.305-0.789,0.305H109.383z M107.293,167.466h3.192
		c1.038,0,1.817-0.278,2.337-0.836c0.519-0.558,0.779-1.374,0.779-2.451v-6.726c0-1.076-0.26-1.894-0.779-2.451
		c-0.52-0.557-1.299-0.836-2.337-0.836h-3.192V167.466z M102.695,167.656c1.013,0,1.786-0.289,2.318-0.865
		c0.532-0.576,0.798-1.402,0.798-2.479v-10.146h-2.014v10.298c0,0.456-0.092,0.786-0.275,0.987
		c-0.184,0.203-0.446,0.305-0.789,0.305c-0.342,0-0.605-0.102-0.789-0.305c-0.184-0.201-0.275-0.531-0.275-0.987v-10.298h-2.09
		v10.146c0,1.076,0.266,1.902,0.798,2.479C100.91,167.367,101.682,167.656,102.695,167.656z M94.374,167.466h2.09v-11.399h2.185
		v-1.9h-6.46v1.9h2.185V167.466z M88.389,167.656c1.026,0,1.808-0.291,2.346-0.875c0.539-0.582,0.808-1.418,0.808-2.508
		c0-0.836-0.165-1.564-0.494-2.185c-0.329-0.62-0.931-1.312-1.805-2.071c-0.684-0.596-1.156-1.102-1.416-1.52
		c-0.26-0.418-0.39-0.867-0.39-1.35c0-0.848,0.348-1.272,1.045-1.272c0.342,0,0.602,0.104,0.779,0.313
		c0.177,0.209,0.266,0.541,0.266,0.998v0.684h1.976v-0.551c0-1.077-0.256-1.903-0.77-2.48c-0.513-0.576-1.27-0.864-2.271-0.864
		c-1.013,0-1.786,0.288-2.318,0.864c-0.532,0.577-0.798,1.391-0.798,2.441c0,0.773,0.171,1.467,0.513,2.081
		c0.342,0.614,0.943,1.302,1.805,2.062c0.684,0.596,1.152,1.105,1.406,1.529c0.253,0.425,0.38,0.916,0.38,1.473
		c0,0.469-0.092,0.808-0.275,1.017c-0.184,0.209-0.453,0.313-0.808,0.313c-0.722,0-1.083-0.431-1.083-1.292v-0.912h-1.976v0.761
		c0,1.076,0.259,1.902,0.779,2.479S87.375,167.656,88.389,167.656z M78.281,167.656c1.026,0,1.808-0.291,2.346-0.875
		c0.539-0.582,0.808-1.418,0.808-2.508c0-0.836-0.165-1.564-0.494-2.185c-0.329-0.62-0.931-1.312-1.805-2.071
		c-0.684-0.596-1.156-1.102-1.416-1.52c-0.26-0.418-0.39-0.867-0.39-1.35c0-0.848,0.348-1.272,1.045-1.272
		c0.342,0,0.602,0.104,0.779,0.313c0.177,0.209,0.266,0.541,0.266,0.998v0.684h1.976v-0.551c0-1.077-0.256-1.903-0.77-2.48
		c-0.513-0.576-1.27-0.864-2.271-0.864c-1.013,0-1.786,0.288-2.318,0.864c-0.532,0.577-0.798,1.391-0.798,2.441
		c0,0.773,0.171,1.467,0.513,2.081c0.342,0.614,0.943,1.302,1.805,2.062c0.684,0.596,1.152,1.105,1.406,1.529
		c0.253,0.425,0.38,0.916,0.38,1.473c0,0.469-0.092,0.808-0.275,1.017c-0.184,0.209-0.453,0.313-0.808,0.313
		c-0.722,0-1.083-0.431-1.083-1.292v-0.912h-1.976v0.761c0,1.076,0.259,1.902,0.779,2.479S77.267,167.656,78.281,167.656z
		 M71.213,167.656c1.026,0,1.808-0.291,2.346-0.875c0.539-0.582,0.808-1.418,0.808-2.508c0-0.836-0.165-1.564-0.494-2.185
		c-0.329-0.62-0.931-1.312-1.805-2.071c-0.684-0.596-1.156-1.102-1.416-1.52c-0.26-0.418-0.39-0.867-0.39-1.35
		c0-0.848,0.348-1.272,1.045-1.272c0.342,0,0.602,0.104,0.779,0.313c0.177,0.209,0.266,0.541,0.266,0.998v0.684h1.976v-0.551
		c0-1.077-0.256-1.903-0.77-2.48c-0.513-0.576-1.27-0.864-2.271-0.864c-1.013,0-1.786,0.288-2.318,0.864
		c-0.532,0.577-0.798,1.391-0.798,2.441c0,0.773,0.171,1.467,0.513,2.081c0.342,0.614,0.943,1.302,1.805,2.062
		c0.684,0.596,1.152,1.105,1.406,1.529c0.253,0.425,0.38,0.916,0.38,1.473c0,0.469-0.092,0.808-0.275,1.017
		c-0.184,0.209-0.453,0.313-0.808,0.313c-0.722,0-1.083-0.431-1.083-1.292v-0.912h-1.976v0.761c0,1.076,0.259,1.902,0.779,2.479
		S70.199,167.656,71.213,167.656z M61.561,167.466h5.7v-1.899h-3.61v-4.086h2.869v-1.899h-2.869v-3.515h3.61v-1.9h-5.7V167.466z
		 M53.448,167.466h1.862v-9.709h0.038l2.508,9.709h2.147v-13.3h-1.862v7.961h-0.038l-2.033-7.961h-2.622V167.466z M48.167,167.466
		h2.09v-11.399h2.185v-1.9h-6.46v1.9h2.185V167.466z M42.884,167.466h2.09v-13.3h-2.09V167.466z M36.349,167.466h2.09v-5.795h2.698
		v-1.899h-2.698v-3.705h3.439v-1.9h-5.529V167.466z"/>
</g>
<g>
	<path fill-rule="evenodd" clip-rule="evenodd" fill="#058C45" d="M88.631,68.599c-0.713-0.192-1.145,0.07-1.586,0.514
		c-3.799,3.817-7.619,7.611-11.432,11.413c-0.662,0.659-0.668,1.428-0.017,2.076c2.899,2.887,5.813,5.758,8.69,8.666
		c1.441,1.455,1.911,3.229,1.343,5.206c-0.569,1.98-1.917,3.223-3.923,3.663c-1.82,0.399-3.46-0.056-4.796-1.371
		c-4.14-4.074-8.26-8.167-12.39-12.251c-0.392-0.388-0.805-0.754-1.185-1.152c-2.128-2.235-2.092-5.397,0.09-7.576
		c3.75-3.745,7.501-7.488,11.263-11.222c0.308-0.306,0.446-0.609,0.445-1.052c-0.014-5.639-0.013-11.278,0.001-16.918
		c0.001-0.438-0.125-0.744-0.435-1.052c-4.242-4.213-8.477-8.433-12.704-12.66c-2.502-2.504-4.99-5.021-7.479-7.539
		c-1.715-1.735-1.776-4.49-0.149-6.273c1.574-1.726,4.37-1.904,6.224-0.392c0.279,0.228,0.537,0.48,0.792,0.735
		c5.571,5.58,11.142,11.159,16.702,16.751c0.327,0.329,0.649,0.458,1.111,0.457c5.3-0.016,10.6-0.016,15.9,0.002
		c0.467,0.001,0.781-0.147,1.104-0.47c5.648-5.655,11.305-11.301,16.965-16.943c1.791-1.786,4.215-2.072,6.119-0.742
		c2.195,1.531,2.557,4.833,0.646,6.757c-5.496,5.536-11.032,11.031-16.553,16.543c-1.306,1.304-2.623,2.595-3.899,3.926
		c-0.198,0.207-0.288,0.597-0.29,0.902c-0.016,6.976-0.012,13.95-0.012,20.925c0,12.614,0.003,25.229-0.002,37.842
		c-0.002,2.722-1.91,4.855-4.66,5.249c-2.477,0.354-4.952-1.254-5.657-3.72c-0.154-0.541-0.216-1.126-0.216-1.69
		c-0.012-12.614-0.01-25.228-0.01-37.842C88.631,69.109,88.631,68.858,88.631,68.599z"/>
	<path fill-rule="evenodd" clip-rule="evenodd" fill="#058C45" d="M76.651,26.635c0-5.801,4.736-10.526,10.518-10.494
		c5.819,0.033,10.505,4.731,10.501,10.529c-0.004,5.804-4.722,10.491-10.535,10.468C81.284,37.115,76.651,32.473,76.651,26.635z"/>
</g>
</svg>
