<?xml version="1.0" encoding="utf-8"?>
<!-- Generator: Adobe Illustrator 16.0.0, SVG Export Plug-In . SVG Version: 6.00 Build 0)  -->
<!DOCTYPE svg PUBLIC "-//W3C//DTD SVG 1.1//EN" "http://www.w3.org/Graphics/SVG/1.1/DTD/svg11.dtd">
<svg version="1.1" id="Layer_1" xmlns="http://www.w3.org/2000/svg" xmlns:xlink="http://www.w3.org/1999/xlink" x="0px" y="0px"
	 width="163.5px" height="187.5px" viewBox="0 0 163.5 187.5" enable-background="new 0 0 163.5 187.5" xml:space="preserve">
<rect x="4" y="6" fill-rule="evenodd" clip-rule="evenodd" fill="#FFFFFF" stroke="#068C45" stroke-width="2" stroke-miterlimit="10" width="155" height="177"/>
<rect x="5" y="126" fill-rule="evenodd" clip-rule="evenodd" fill="#058C45" width="155" height="56"/>
<g>
	<path fill="#FFFFFF" d="M131.809,153.42c0.918,0,1.618-0.261,2.1-0.781c0.482-0.521,0.723-1.27,0.723-2.244
		c0-0.748-0.146-1.4-0.441-1.955c-0.295-0.556-0.834-1.174-1.615-1.854c-0.612-0.533-1.034-0.986-1.267-1.359
		c-0.232-0.375-0.349-0.777-0.349-1.207c0-0.76,0.312-1.14,0.936-1.14c0.306,0,0.537,0.094,0.697,0.28
		c0.158,0.188,0.237,0.484,0.237,0.893v0.612h1.769v-0.493c0-0.963-0.23-1.703-0.689-2.219s-1.136-0.773-2.031-0.773
		c-0.906,0-1.598,0.258-2.074,0.773c-0.476,0.516-0.713,1.244-0.713,2.186c0,0.691,0.152,1.311,0.459,1.861
		c0.305,0.549,0.844,1.164,1.614,1.844c0.612,0.533,1.031,0.989,1.259,1.369c0.227,0.379,0.34,0.818,0.34,1.316
		c0,0.42-0.083,0.723-0.247,0.91c-0.165,0.188-0.405,0.281-0.723,0.281c-0.646,0-0.969-0.386-0.969-1.156v-0.816h-1.769v0.68
		c0,0.964,0.232,1.703,0.697,2.219S130.902,153.42,131.809,153.42z M124.652,153.25h1.869v-10.2h1.955v-1.7h-5.779v1.7h1.955V153.25
		z M115.931,153.25h1.666v-8.688h0.034l2.244,8.688h1.921v-11.9h-1.667v7.123h-0.034l-1.819-7.123h-2.346V153.25z M111.817,153.42
		c0.907,0,1.598-0.258,2.074-0.773c0.476-0.516,0.714-1.255,0.714-2.219v-9.078h-1.802v9.215c0,0.408-0.082,0.702-0.246,0.884
		c-0.165,0.181-0.4,0.272-0.706,0.272c-0.306,0-0.542-0.092-0.706-0.272c-0.165-0.182-0.247-0.476-0.247-0.884v-9.215h-1.87v9.078
		c0,0.964,0.238,1.703,0.714,2.219C110.219,153.162,110.911,153.42,111.817,153.42z M105,151.721c-0.646,0-0.969-0.392-0.969-1.174
		v-6.494c0-0.781,0.323-1.173,0.969-1.173s0.969,0.392,0.969,1.173v6.494C105.97,151.329,105.646,151.721,105,151.721z M105,153.42
		c0.918,0,1.621-0.261,2.108-0.781c0.487-0.521,0.731-1.259,0.731-2.211v-6.256c0-0.951-0.244-1.688-0.731-2.21
		c-0.487-0.521-1.19-0.782-2.108-0.782s-1.621,0.262-2.108,0.782c-0.487,0.521-0.731,1.259-0.731,2.21v6.256
		c0,0.952,0.244,1.689,0.731,2.211C103.38,153.159,104.083,153.42,105,153.42z M98.388,153.42c0.895,0,1.578-0.255,2.048-0.766
		c0.47-0.51,0.706-1.229,0.706-2.158v-1.684h-1.768v1.819c0,0.726-0.312,1.089-0.935,1.089c-0.623,0-0.935-0.363-0.935-1.089v-6.647
		c0-0.736,0.312-1.104,0.935-1.104c0.624,0,0.935,0.368,0.935,1.104v1.377h1.768v-1.258c0-0.929-0.235-1.648-0.706-2.158
		s-1.153-0.766-2.048-0.766c-0.896,0-1.579,0.256-2.048,0.766c-0.471,0.51-0.706,1.229-0.706,2.158v6.393
		c0,0.93,0.235,1.648,0.706,2.158C96.809,153.165,97.492,153.42,98.388,153.42z M91.843,153.42c0.895,0,1.578-0.255,2.048-0.766
		c0.47-0.51,0.706-1.229,0.706-2.158v-1.684h-1.768v1.819c0,0.726-0.312,1.089-0.935,1.089c-0.623,0-0.935-0.363-0.935-1.089v-6.647
		c0-0.736,0.312-1.104,0.935-1.104c0.624,0,0.935,0.368,0.935,1.104v1.377h1.768v-1.258c0-0.929-0.235-1.648-0.706-2.158
		s-1.153-0.766-2.048-0.766c-0.896,0-1.579,0.256-2.048,0.766c-0.471,0.51-0.706,1.229-0.706,2.158v6.393
		c0,0.93,0.235,1.648,0.706,2.158C90.264,153.165,90.947,153.42,91.843,153.42z M84.227,149.307l0.816-5.883h0.034l0.833,5.883
		H84.227z M81.932,153.25h1.734l0.34-2.329h2.125v-0.034l0.34,2.363h1.87l-1.938-11.9H83.87L81.932,153.25z M74.724,153.25h1.87
		v-5.066l2.261-6.834h-1.819l-1.275,4.369h-0.034l-1.275-4.369h-1.989l2.261,6.834V153.25z M65.748,153.25h1.666v-8.688h0.034
		l2.244,8.688h1.921v-11.9h-1.666v7.123h-0.034l-1.819-7.123h-2.346V153.25z M60.733,149.307l0.816-5.883h0.034l0.833,5.883H60.733z
		 M58.438,153.25h1.734l0.34-2.329h2.125v-0.034l0.34,2.363h1.87l-1.938-11.9h-2.533L58.438,153.25z M54.834,146.705v-3.655h0.884
		c0.306,0,0.535,0.085,0.688,0.255c0.153,0.17,0.229,0.459,0.229,0.867v1.411c0,0.408-0.077,0.696-0.229,0.867
		c-0.153,0.17-0.383,0.255-0.688,0.255H54.834z M52.964,153.25h1.87v-4.846h0.884c0.929,0,1.626-0.248,2.091-0.747
		c0.464-0.499,0.697-1.229,0.697-2.193v-1.173c0-0.963-0.232-1.694-0.697-2.193c-0.465-0.498-1.162-0.748-2.091-0.748h-2.754V153.25
		z M43.818,153.25h1.632v-9.01h0.034l1.36,9.01h1.564l1.36-9.01h0.034v9.01h1.768v-11.9h-2.669l-1.19,8.518h-0.034l-1.19-8.518
		h-2.669V153.25z M39.722,151.721c-0.646,0-0.969-0.392-0.969-1.174v-6.494c0-0.781,0.323-1.173,0.969-1.173
		s0.969,0.392,0.969,1.173v6.494C40.691,151.329,40.368,151.721,39.722,151.721z M39.722,153.42c0.918,0,1.621-0.261,2.108-0.781
		c0.487-0.521,0.731-1.259,0.731-2.211v-6.256c0-0.951-0.244-1.688-0.731-2.21c-0.487-0.521-1.19-0.782-2.108-0.782
		s-1.621,0.262-2.108,0.782c-0.487,0.521-0.731,1.259-0.731,2.21v6.256c0,0.952,0.244,1.689,0.731,2.211
		C38.101,153.159,38.804,153.42,39.722,153.42z M33.109,153.42c0.895,0,1.578-0.255,2.048-0.766c0.47-0.51,0.706-1.229,0.706-2.158
		v-1.684h-1.768v1.819c0,0.726-0.312,1.089-0.935,1.089c-0.623,0-0.935-0.363-0.935-1.089v-6.647c0-0.736,0.312-1.104,0.935-1.104
		c0.624,0,0.935,0.368,0.935,1.104v1.377h1.768v-1.258c0-0.929-0.235-1.648-0.706-2.158s-1.153-0.766-2.048-0.766
		c-0.896,0-1.579,0.256-2.048,0.766c-0.471,0.51-0.706,1.229-0.706,2.158v6.393c0,0.93,0.235,1.648,0.706,2.158
		C31.53,153.165,32.213,153.42,33.109,153.42z"/>
	<path fill="#FFFFFF" d="M129.039,166.088c0.186-0.955,0.279-1.934,0.279-2.936c0-0.935-0.078-1.834-0.234-2.699
		c-0.155-0.864-0.367-1.615-0.637-2.253h-0.826c0.279,0.666,0.498,1.438,0.657,2.315c0.159,0.877,0.239,1.788,0.239,2.733
		c0,1.021-0.104,2.011-0.314,2.97c-0.209,0.96-0.491,1.8-0.846,2.52h0.87C128.582,167.926,128.853,167.042,129.039,166.088z
		 M125.606,158.2c-0.261,0-0.484,0.055-0.669,0.164c-0.184,0.108-0.314,0.253-0.392,0.433c-0.077,0.179-0.116,0.478-0.116,0.896
		v0.913h-0.768v0.649h0.768v5.194h0.752l0.005-5.194h1.22v-0.649h-1.219v-0.79c0-0.332,0.013-0.537,0.037-0.614
		c0.025-0.077,0.086-0.146,0.184-0.204c0.096-0.06,0.218-0.089,0.365-0.089c0.196,0,0.433,0.06,0.709,0.177v-0.735
		C126.142,158.25,125.85,158.2,125.606,158.2z M122.152,158.2c-0.261,0-0.484,0.055-0.668,0.164
		c-0.185,0.108-0.315,0.253-0.393,0.433c-0.076,0.179-0.115,0.478-0.115,0.896v0.913h-0.768v0.649h0.768v5.194h0.752l0.004-5.194
		h1.221v-0.649h-1.22l0.001-0.79c0-0.332,0.012-0.537,0.037-0.614s0.086-0.146,0.183-0.204c0.097-0.06,0.218-0.089,0.365-0.089
		c0.196,0,0.433,0.06,0.709,0.177v-0.735C122.688,158.25,122.396,158.2,122.152,158.2z M117.569,161.862
		c0.445,0.454,0.668,1.02,0.668,1.695c0,0.444-0.099,0.843-0.298,1.196c-0.198,0.354-0.482,0.635-0.85,0.843
		c-0.369,0.208-0.758,0.312-1.169,0.312c-0.408,0-0.79-0.105-1.146-0.314c-0.356-0.209-0.64-0.502-0.851-0.877
		s-0.316-0.77-0.316-1.181c0-0.415,0.104-0.808,0.314-1.181c0.209-0.371,0.491-0.66,0.845-0.865
		c0.354-0.206,0.741-0.309,1.159-0.309C116.576,161.182,117.124,161.408,117.569,161.862z M118.189,160.606v1.074
		c-0.293-0.408-0.635-0.714-1.023-0.919c-0.389-0.203-0.823-0.306-1.303-0.306c-0.831,0-1.542,0.299-2.132,0.897
		c-0.591,0.598-0.886,1.317-0.886,2.158c0,0.859,0.293,1.59,0.878,2.189c0.586,0.6,1.292,0.899,2.119,0.899
		c0.465,0,0.895-0.097,1.286-0.29c0.393-0.193,0.746-0.481,1.061-0.865v1.005h0.741v-5.844H118.189z M110.036,160.606h-1.026v0.649
		h1.026v5.194h0.752v-5.194h1.192v-0.649h-1.192v-2.17h-0.752V160.606z M106.424,160.456c-0.463,0-0.846,0.147-1.149,0.44
		s-0.455,0.662-0.455,1.106c0,0.341,0.095,0.643,0.285,0.907c0.19,0.266,0.549,0.534,1.077,0.807
		c0.492,0.25,0.807,0.458,0.947,0.623c0.14,0.168,0.21,0.359,0.21,0.574c0,0.262-0.106,0.488-0.318,0.682
		c-0.211,0.193-0.468,0.291-0.77,0.291c-0.431,0-0.838-0.217-1.222-0.65l-0.473,0.537c0.201,0.258,0.455,0.46,0.761,0.607
		c0.307,0.146,0.628,0.22,0.966,0.22c0.505,0,0.927-0.167,1.264-0.499c0.337-0.334,0.506-0.74,0.506-1.22
		c0-0.341-0.099-0.646-0.296-0.919c-0.201-0.268-0.582-0.547-1.141-0.838c-0.459-0.236-0.761-0.441-0.904-0.617
		c-0.144-0.172-0.215-0.353-0.215-0.543c0-0.215,0.087-0.402,0.261-0.563c0.174-0.161,0.383-0.241,0.627-0.241
		c0.384,0,0.777,0.195,1.179,0.585l0.483-0.499C107.503,160.719,106.961,160.456,106.424,160.456z M98.472,166.45h0.768v-1.977
		c0-1.013,0.046-1.687,0.14-2.02c0.122-0.433,0.299-0.753,0.532-0.959s0.475-0.309,0.725-0.309c0.107,0,0.24,0.034,0.397,0.103
		l0.392-0.635c-0.236-0.132-0.458-0.198-0.666-0.198c-0.276,0-0.541,0.083-0.795,0.25c-0.254,0.166-0.496,0.418-0.725,0.755v-0.854
		h-0.768V166.45z M91.973,163.421c0,0.831,0.094,1.453,0.282,1.866c0.188,0.414,0.473,0.736,0.854,0.967
		c0.382,0.231,0.857,0.347,1.426,0.347s1.043-0.115,1.42-0.347c0.378-0.23,0.661-0.551,0.849-0.959
		c0.188-0.408,0.282-1.015,0.282-1.82v-2.868h-0.768v2.729c0,0.73-0.038,1.208-0.113,1.435c-0.111,0.329-0.313,0.595-0.605,0.797
		c-0.292,0.203-0.648,0.304-1.067,0.304c-0.42,0-0.781-0.104-1.084-0.312c-0.303-0.207-0.508-0.49-0.616-0.849
		c-0.072-0.251-0.107-0.709-0.107-1.375v-2.729h-0.752V163.421z M89.239,161.885c0.451,0.462,0.676,1.021,0.676,1.676
		c0,0.422-0.103,0.816-0.307,1.182c-0.205,0.365-0.481,0.647-0.83,0.846c-0.349,0.199-0.731,0.299-1.148,0.299
		c-0.417,0-0.799-0.1-1.148-0.299c-0.349-0.198-0.625-0.48-0.83-0.846c-0.205-0.365-0.307-0.76-0.307-1.182
		c0-0.655,0.225-1.214,0.674-1.676s0.986-0.693,1.611-0.693C88.252,161.191,88.788,161.423,89.239,161.885z M85.389,161.439
		c-0.538,0.594-0.807,1.296-0.807,2.105c0,0.816,0.284,1.529,0.853,2.14c0.568,0.61,1.301,0.916,2.198,0.916
		c0.893,0,1.624-0.306,2.192-0.916c0.569-0.61,0.853-1.323,0.853-2.14c0-0.813-0.269-1.518-0.807-2.111
		c-0.592-0.652-1.338-0.978-2.238-0.978C86.729,160.456,85.981,160.783,85.389,161.439z M80.739,166.008l-1.125,2.58h0.794
		l3.486-7.981h-0.8l-1.95,4.5l-2.008-4.5h-0.795L80.739,166.008z M72.331,166.45h0.768v-1.977c0-1.013,0.046-1.687,0.14-2.02
		c0.122-0.433,0.299-0.753,0.532-0.959s0.475-0.309,0.725-0.309c0.107,0,0.24,0.034,0.397,0.103l0.392-0.635
		c-0.236-0.132-0.458-0.198-0.666-0.198c-0.276,0-0.541,0.083-0.795,0.25c-0.254,0.166-0.496,0.418-0.725,0.755v-0.854h-0.768
		V166.45z M69.785,161.885c0.451,0.462,0.676,1.021,0.676,1.676c0,0.422-0.103,0.816-0.307,1.182
		c-0.205,0.365-0.481,0.647-0.83,0.846c-0.349,0.199-0.731,0.299-1.148,0.299c-0.417,0-0.799-0.1-1.148-0.299
		c-0.349-0.198-0.625-0.48-0.83-0.846c-0.205-0.365-0.307-0.76-0.307-1.182c0-0.655,0.225-1.214,0.674-1.676
		s0.986-0.693,1.611-0.693C68.798,161.191,69.334,161.423,69.785,161.885z M65.935,161.439c-0.538,0.594-0.807,1.296-0.807,2.105
		c0,0.816,0.284,1.529,0.853,2.14c0.568,0.61,1.301,0.916,2.198,0.916c0.893,0,1.624-0.306,2.192-0.916
		c0.569-0.61,0.853-1.323,0.853-2.14c0-0.813-0.269-1.518-0.807-2.111c-0.592-0.652-1.338-0.978-2.238-0.978
		C67.275,160.456,66.527,160.783,65.935,161.439z M63.49,158.2c-0.261,0-0.484,0.055-0.668,0.164
		c-0.185,0.108-0.315,0.253-0.393,0.433c-0.077,0.179-0.115,0.478-0.115,0.896v0.913h-0.768v0.649h0.768v5.194h0.752l0.004-5.194
		h1.22v-0.649h-1.22l0-0.79c0-0.332,0.013-0.537,0.038-0.614s0.086-0.146,0.183-0.204c0.097-0.06,0.218-0.089,0.365-0.089
		c0.197,0,0.433,0.06,0.709,0.177v-0.735C64.025,158.25,63.733,158.2,63.49,158.2z M55.841,160.606h-1.026v0.649h1.026v5.194h0.752
		v-5.194h1.192v-0.649h-1.192v-2.17h-0.752V160.606z M52.229,160.456c-0.463,0-0.846,0.147-1.149,0.44s-0.455,0.662-0.455,1.106
		c0,0.341,0.095,0.643,0.285,0.907c0.19,0.266,0.549,0.534,1.077,0.807c0.492,0.25,0.807,0.458,0.947,0.623
		c0.14,0.168,0.21,0.359,0.21,0.574c0,0.262-0.106,0.488-0.318,0.682c-0.211,0.193-0.468,0.291-0.77,0.291
		c-0.431,0-0.838-0.217-1.222-0.65l-0.473,0.537c0.201,0.258,0.455,0.46,0.761,0.607c0.307,0.146,0.628,0.22,0.966,0.22
		c0.505,0,0.927-0.167,1.264-0.499c0.337-0.334,0.506-0.74,0.506-1.22c0-0.341-0.099-0.646-0.296-0.919
		c-0.201-0.268-0.582-0.547-1.141-0.838c-0.459-0.236-0.761-0.441-0.904-0.617c-0.144-0.172-0.215-0.353-0.215-0.543
		c0-0.215,0.087-0.402,0.261-0.563c0.174-0.161,0.383-0.241,0.627-0.241c0.384,0,0.777,0.195,1.179,0.585l0.483-0.499
		C53.309,160.719,52.767,160.456,52.229,160.456z M44.132,163.421c0,0.831,0.094,1.453,0.282,1.866
		c0.188,0.414,0.473,0.736,0.854,0.967c0.381,0.231,0.856,0.347,1.426,0.347s1.043-0.115,1.421-0.347
		c0.377-0.23,0.66-0.551,0.849-0.959c0.188-0.408,0.282-1.015,0.282-1.82v-2.868h-0.768v2.729c0,0.73-0.038,1.208-0.113,1.435
		c-0.111,0.329-0.313,0.595-0.605,0.797c-0.292,0.203-0.648,0.304-1.068,0.304c-0.419,0-0.781-0.104-1.083-0.312
		c-0.303-0.207-0.508-0.49-0.616-0.849c-0.072-0.251-0.107-0.709-0.107-1.375v-2.729h-0.752V163.421z M41.64,163.855
		c0,0.648-0.037,1.086-0.11,1.311c-0.074,0.227-0.203,0.406-0.388,0.543c-0.185,0.137-0.39,0.204-0.616,0.204
		c-0.172,0-0.348-0.04-0.527-0.118c-0.272-0.118-0.615-0.322-1.028-0.612l-0.419,0.628c0.376,0.313,0.719,0.529,1.028,0.653
		c0.31,0.123,0.624,0.185,0.943,0.185c0.422,0,0.782-0.096,1.08-0.287s0.509-0.447,0.637-0.768c0.127-0.32,0.19-0.891,0.19-1.711
		v-5.334h-0.79V163.855z M35.743,160.851c-0.186,0.954-0.279,1.935-0.279,2.94c0,0.936,0.079,1.834,0.236,2.697
		c0.158,0.862,0.369,1.613,0.634,2.25h0.827c-0.279-0.666-0.499-1.438-0.658-2.314c-0.16-0.878-0.239-1.789-0.239-2.734
		c0-1.021,0.105-2.011,0.317-2.971c0.211-0.959,0.492-1.799,0.843-2.519h-0.87C36.199,159.014,35.929,159.896,35.743,160.851z"/>
</g>
<g>
	<g>
		<path fill-rule="evenodd" clip-rule="evenodd" fill="#058C45" d="M121.166,48.69c-0.799,2.198-1.536,4.236-2.314,6.382
			c-0.785-1.448-1.359-2.51-1.936-3.571c-0.501,1.108-1.004,2.218-1.65,3.644c-0.866-2.246-1.687-4.37-2.583-6.693
			c-2.43,1.312-4.663,2.401-6.753,3.722c-0.579,0.364-1.107,1.468-1.007,2.133c0.481,3.202,1.185,6.374,1.836,9.696
			c6.481,0,12.604,0.053,18.723-0.069c0.722-0.015,1.837-0.826,2.073-1.51c2.879-8.317,2.344-9.585-5.351-13.511
			C122.018,48.817,121.783,48.817,121.166,48.69z M130.832,57.366c4.94,0,9.342,0.078,13.733-0.084
			c0.659-0.021,1.813-1.147,1.823-1.778c0.056-3.331,3.273-6.77,0.499-9.847c-1.613-1.787-4.374-2.544-6.788-3.855
			c-0.948,2.443-1.729,4.459-2.557,6.594c-0.69-1.391-1.225-2.463-1.76-3.539c-0.557,1.098-1.114,2.199-1.807,3.564
			c-0.84-2.25-1.635-4.379-2.509-6.723c-2.944,1.68-5.503,3.136-8.203,4.676C126.653,49.896,134.226,49.585,130.832,57.366z
			 M98.334,44.67c-0.389,0.206-0.779,0.412-1.168,0.614c-0.049,1.001-0.097,2.002-0.145,3.003c-0.201,0.017-0.4,0.036-0.602,0.053
			c-0.773-2.06-1.547-4.12-2.459-6.552c-2.498,1.354-4.821,2.474-6.992,3.836c-1.372,0.858,0.174,10.905,1.685,11.584
			c0.198,0.089,0.442,0.105,0.666,0.105c4.502,0.006,9.004,0.003,13.964,0.003c-3.482-7.989,4.477-7.392,7.506-11.025
			c-2.782-1.54-5.403-2.991-8.279-4.581c-0.885,2.421-1.672,4.567-2.549,6.963C99.313,47.075,98.824,45.874,98.334,44.67z
			 M116.896,33.971c-3.708,0.063-6.368,2.796-6.317,6.491c0.049,3.538,3.025,6.436,6.541,6.365c3.504-0.069,6.424-3.082,6.381-6.594
			C123.455,36.664,120.549,33.906,116.896,33.971z M97.979,40.125c3.662,0.078,6.616-2.713,6.676-6.308
			c0.061-3.633-2.752-6.558-6.367-6.619c-3.468-0.061-6.583,3.033-6.558,6.508C91.756,37.106,94.625,40.056,97.979,40.125z
			 M135.723,40.111c3.621,0.039,6.504-2.83,6.479-6.449c-0.025-3.522-2.697-6.291-6.189-6.408c-3.57-0.119-6.622,2.73-6.73,6.28
			C129.176,37.001,132.186,40.072,135.723,40.111z"/>
		<path fill-rule="evenodd" clip-rule="evenodd" fill="#058C45" d="M121.166,48.69c0.617,0.127,0.852,0.127,1.038,0.222
			c7.694,3.926,8.229,5.193,5.351,13.511c-0.236,0.684-1.352,1.495-2.073,1.51c-6.118,0.122-12.241,0.069-18.723,0.069
			c-0.651-3.322-1.354-6.494-1.836-9.696c-0.101-0.665,0.428-1.769,1.007-2.133c2.09-1.32,4.323-2.41,6.753-3.722
			c0.896,2.323,3.732,4.158,4.233,3.05C117.492,52.563,120.367,50.889,121.166,48.69z"/>
		<path fill-rule="evenodd" clip-rule="evenodd" fill="#058C45" d="M130.832,57.366c3.394-7.781-4.179-7.47-7.567-10.992
			c2.7-1.54,5.259-2.996,8.203-4.676c0.874,2.344,1.669,4.473,2.509,6.723c0.692-1.365,1.25-2.467,1.807-3.564
			c0.535,1.076,1.069,2.148,1.76,3.539c0.827-2.135,1.608-4.15,2.557-6.594c2.414,1.312,5.175,2.068,6.788,3.855
			c2.774,3.077-0.443,6.516-0.499,9.847c-0.01,0.631-1.164,1.757-1.823,1.778C140.174,57.444,135.772,57.366,130.832,57.366z"/>
		<path fill-rule="evenodd" clip-rule="evenodd" fill="#058C45" d="M98.334,44.67c0.49,1.204,0.979,2.405,1.627,4.003
			c0.877-2.396,1.664-4.542,2.549-6.963c2.876,1.59,5.497,3.041,8.279,4.581c-3.029,3.634-10.988,3.036-7.506,11.025
			c-4.96,0-9.462,0.003-13.964-0.003c-0.224,0-0.468-0.017-0.666-0.105c-1.511-0.679-3.057-10.726-1.685-11.584
			c2.171-1.362,4.494-2.482,6.992-3.836c0.912,2.432,1.686,4.492,2.459,6.552c0.201-0.017,0.4-0.036,0.602-0.053
			c0.048-1.001,0.096-2.002,0.145-3.003C97.555,45.082,97.945,44.876,98.334,44.67z"/>
		<path fill-rule="evenodd" clip-rule="evenodd" fill="#058C45" d="M116.896,33.971c3.653-0.064,6.56,2.693,6.604,6.263
			c0.043,3.512-2.877,6.524-6.381,6.594c-3.516,0.07-6.492-2.827-6.541-6.365C110.527,36.767,113.188,34.034,116.896,33.971z"/>
		<path fill-rule="evenodd" clip-rule="evenodd" fill="#058C45" d="M97.979,40.125c-3.354-0.069-6.223-3.019-6.249-6.419
			c-0.025-3.475,3.09-6.568,6.558-6.508c3.615,0.062,6.428,2.986,6.367,6.619C104.595,37.412,101.641,40.203,97.979,40.125z"/>
		<path fill-rule="evenodd" clip-rule="evenodd" fill="#058C45" d="M135.723,40.111c-3.537-0.039-6.547-3.11-6.441-6.577
			c0.108-3.55,3.16-6.399,6.73-6.28c3.492,0.117,6.164,2.886,6.189,6.408C142.227,37.281,139.344,40.15,135.723,40.111z"/>
	</g>
	<g>
		<path fill-rule="evenodd" clip-rule="evenodd" fill="#058C45" d="M121.166,95.024c-0.799,2.198-1.536,4.236-2.314,6.382
			c-0.785-1.448-1.359-2.51-1.936-3.571c-0.501,1.108-1.004,2.218-1.65,3.644c-0.866-2.246-1.687-4.37-2.583-6.693
			c-2.43,1.312-4.663,2.401-6.753,3.722c-0.579,0.364-1.107,1.468-1.007,2.133c0.481,3.202,1.185,6.374,1.836,9.696
			c6.481,0,12.604,0.053,18.723-0.069c0.722-0.015,1.837-0.826,2.073-1.51c2.879-8.317,2.344-9.585-5.351-13.511
			C122.018,95.151,121.783,95.151,121.166,95.024z M130.832,103.7c4.94,0,9.342,0.078,13.733-0.084
			c0.659-0.021,1.813-1.147,1.823-1.778c0.056-3.331,3.273-6.77,0.499-9.847c-1.613-1.787-4.374-2.544-6.788-3.855
			c-0.948,2.443-1.729,4.459-2.557,6.594c-0.69-1.391-1.225-2.463-1.76-3.539c-0.557,1.098-1.114,2.199-1.807,3.564
			c-0.84-2.25-1.635-4.379-2.509-6.723c-2.944,1.68-5.503,3.136-8.203,4.676C126.653,96.23,134.226,95.919,130.832,103.7z
			 M98.334,91.004c-0.389,0.206-0.779,0.412-1.168,0.614c-0.049,1.001-0.097,2.002-0.145,3.003c-0.201,0.017-0.4,0.036-0.602,0.053
			c-0.773-2.06-1.547-4.12-2.459-6.552c-2.498,1.354-4.821,2.474-6.992,3.836c-1.372,0.858,0.174,10.905,1.685,11.584
			c0.198,0.089,0.442,0.105,0.666,0.105c4.502,0.006,9.004,0.003,13.964,0.003c-3.482-7.989,4.477-7.392,7.506-11.025
			c-2.782-1.54-5.403-2.991-8.279-4.581c-0.885,2.421-1.672,4.567-2.549,6.963C99.313,93.409,98.824,92.208,98.334,91.004z
			 M116.896,80.305c-3.708,0.063-6.368,2.796-6.317,6.491c0.049,3.538,3.025,6.436,6.541,6.365c3.504-0.069,6.424-3.082,6.381-6.594
			C123.455,82.998,120.549,80.24,116.896,80.305z M97.979,86.459c3.662,0.078,6.616-2.713,6.676-6.308
			c0.061-3.633-2.752-6.558-6.367-6.619c-3.468-0.061-6.583,3.033-6.558,6.508C91.756,83.44,94.625,86.39,97.979,86.459z
			 M135.723,86.445c3.621,0.039,6.504-2.83,6.479-6.449c-0.025-3.522-2.697-6.291-6.189-6.408c-3.57-0.119-6.622,2.73-6.73,6.28
			C129.176,83.335,132.186,86.406,135.723,86.445z"/>
		<path fill-rule="evenodd" clip-rule="evenodd" fill="#058C45" d="M121.166,95.024c0.617,0.127,0.852,0.127,1.038,0.222
			c7.694,3.926,8.229,5.193,5.351,13.511c-0.236,0.684-1.352,1.495-2.073,1.51c-6.118,0.122-12.241,0.069-18.723,0.069
			c-0.651-3.322-1.354-6.494-1.836-9.696c-0.101-0.665,0.428-1.769,1.007-2.133c2.09-1.32,4.323-2.41,6.753-3.722
			C113.579,97.108,120.367,97.223,121.166,95.024z"/>
		<path fill-rule="evenodd" clip-rule="evenodd" fill="#058C45" d="M130.832,103.7c3.394-7.781-4.179-7.47-7.567-10.992
			c2.7-1.54,5.259-2.996,8.203-4.676c0.874,2.344,3.759,4.256,4.315,3.158c0.535,1.076,3.368-0.611,4.316-3.055
			c2.414,1.312,5.175,2.068,6.788,3.855c2.774,3.077-0.443,6.516-0.499,9.847c-0.01,0.631-1.164,1.757-1.823,1.778
			C140.174,103.778,135.772,103.7,130.832,103.7z"/>
		<path fill-rule="evenodd" clip-rule="evenodd" fill="#058C45" d="M98.334,91.004c0.49,1.204,0.979,2.405,1.627,4.003
			c0.877-2.396,1.664-4.542,2.549-6.963c2.876,1.59,5.497,3.041,8.279,4.581c-3.029,3.634-10.988,3.036-7.506,11.025
			c-4.96,0-9.462,0.003-13.964-0.003c-0.224,0-0.468-0.017-0.666-0.105c-1.511-0.679-3.057-10.726-1.685-11.584
			c2.171-1.362,4.494-2.482,6.992-3.836c0.912,2.432,1.686,4.492,2.459,6.552c0.201-0.017,0.4-0.036,0.602-0.053
			c0.048-1.001,0.096-2.002,0.145-3.003C97.555,91.416,97.945,91.21,98.334,91.004z"/>
		<path fill-rule="evenodd" clip-rule="evenodd" fill="#058C45" d="M116.896,80.305c3.653-0.064,6.56,2.693,6.604,6.263
			c0.043,3.512-2.877,6.524-6.381,6.594c-3.516,0.07-6.492-2.827-6.541-6.365C110.527,83.101,113.188,80.368,116.896,80.305z"/>
		<path fill-rule="evenodd" clip-rule="evenodd" fill="#058C45" d="M97.979,86.459c-3.354-0.069-6.223-3.019-6.249-6.419
			c-0.025-3.475,3.09-6.568,6.558-6.508c3.615,0.062,6.428,2.986,6.367,6.619C104.595,83.746,101.641,86.537,97.979,86.459z"/>
		<path fill-rule="evenodd" clip-rule="evenodd" fill="#058C45" d="M135.723,86.445c-3.537-0.039-6.547-3.11-6.441-6.577
			c0.108-3.55,3.16-6.399,6.73-6.28c3.492,0.117,6.164,2.886,6.189,6.408C142.227,83.615,139.344,86.484,135.723,86.445z"/>
	</g>
	<g>
		<path fill-rule="evenodd" clip-rule="evenodd" fill="#058C45" d="M52.802,48.69c-0.798,2.198-1.536,4.236-2.314,6.382
			c-0.786-1.448-1.359-2.51-1.935-3.571c-0.501,1.108-1.005,2.218-1.651,3.644c-0.866-2.246-1.686-4.37-2.583-6.693
			c-2.43,1.312-4.663,2.401-6.753,3.722c-0.579,0.364-1.106,1.468-1.006,2.133c0.481,3.202,1.184,6.374,1.836,9.696
			c6.481,0,12.604,0.053,18.723-0.069c0.721-0.015,1.837-0.826,2.074-1.51c2.878-8.317,2.343-9.585-5.351-13.511
			C53.654,48.817,53.419,48.817,52.802,48.69z M62.469,57.366c4.94,0,9.342,0.078,13.733-0.084c0.659-0.021,1.814-1.147,1.823-1.778
			c0.056-3.331,3.273-6.77,0.499-9.847c-1.613-1.787-4.374-2.544-6.788-3.855c-0.948,2.443-1.729,4.459-2.556,6.594
			c-0.691-1.391-1.225-2.463-1.76-3.539c-0.558,1.098-1.115,2.199-1.807,3.564c-0.839-2.25-1.634-4.379-2.509-6.723
			c-2.944,1.68-5.503,3.136-8.203,4.676C58.29,49.896,65.862,49.585,62.469,57.366z M29.971,44.67
			c-0.389,0.206-0.78,0.412-1.169,0.614c-0.049,1.001-0.096,2.002-0.145,3.003c-0.2,0.017-0.4,0.036-0.601,0.053
			c-0.774-2.06-1.547-4.12-2.46-6.552c-2.498,1.354-4.821,2.474-6.992,3.836c-1.372,0.858,0.174,10.905,1.685,11.584
			c0.199,0.089,0.442,0.105,0.666,0.105c4.502,0.006,9.004,0.003,13.963,0.003c-3.482-7.989,4.477-7.392,7.507-11.025
			c-2.783-1.54-5.404-2.991-8.28-4.581c-0.885,2.421-1.672,4.567-2.549,6.963C30.949,47.075,30.46,45.874,29.971,44.67z
			 M48.532,33.971c-3.708,0.063-6.369,2.796-6.317,6.491c0.048,3.538,3.024,6.436,6.541,6.365c3.504-0.069,6.423-3.082,6.38-6.594
			C55.091,36.664,52.185,33.906,48.532,33.971z M29.615,40.125c3.663,0.078,6.616-2.713,6.676-6.308
			c0.06-3.633-2.752-6.558-6.367-6.619c-3.468-0.061-6.583,3.033-6.558,6.508C23.392,37.106,26.261,40.056,29.615,40.125z
			 M67.359,40.111c3.621,0.039,6.503-2.83,6.479-6.449c-0.025-3.522-2.697-6.291-6.189-6.408c-3.571-0.119-6.622,2.73-6.73,6.28
			C60.812,37.001,63.821,40.072,67.359,40.111z"/>
		<path fill-rule="evenodd" clip-rule="evenodd" fill="#058C45" d="M52.802,48.69c0.617,0.127,0.852,0.127,1.039,0.222
			c7.694,3.926,8.229,5.193,5.351,13.511c-0.236,0.684-1.353,1.495-2.074,1.51c-6.119,0.122-12.241,0.069-18.723,0.069
			c-0.652-3.322-1.355-6.494-1.836-9.696c-0.1-0.665,0.428-1.769,1.006-2.133c2.09-1.32,4.324-2.41,6.753-3.722
			c0.896,2.323,1.717,4.447,2.583,6.693c0.646-1.426,1.15-2.535,1.651-3.644c0.576,1.062,1.149,2.123,1.935,3.571
			C51.266,52.927,52.004,50.889,52.802,48.69z"/>
		<path fill-rule="evenodd" clip-rule="evenodd" fill="#058C45" d="M62.469,57.366c3.393-7.781-4.179-7.47-7.568-10.992
			c2.7-1.54,5.259-2.996,8.203-4.676c0.875,2.344,1.669,4.473,2.509,6.723c0.692-1.365,1.25-2.467,1.807-3.564
			c0.535,1.076,1.069,2.148,1.76,3.539c0.827-2.135,1.608-4.15,2.556-6.594c2.414,1.312,5.175,2.068,6.788,3.855
			c2.774,3.077-0.443,6.516-0.499,9.847c-0.009,0.631-1.165,1.757-1.823,1.778C71.811,57.444,67.409,57.366,62.469,57.366z"/>
		<path fill-rule="evenodd" clip-rule="evenodd" fill="#058C45" d="M34.146,41.71c2.876,1.59,5.497,3.041,8.28,4.581
			c-3.03,3.634-10.989,3.036-7.507,11.025c-4.959,0-9.461,0.003-13.963-0.003c-0.224,0-0.467-0.017-0.666-0.105
			c-1.511-0.679-3.057-10.726-1.685-11.584c2.171-1.362,4.494-2.482,6.992-3.836C26.51,44.22,33.261,44.131,34.146,41.71z"/>
		<path fill-rule="evenodd" clip-rule="evenodd" fill="#058C45" d="M48.532,33.971c3.653-0.064,6.56,2.693,6.604,6.263
			c0.043,3.512-2.876,6.524-6.38,6.594c-3.517,0.07-6.493-2.827-6.541-6.365C42.163,36.767,44.824,34.034,48.532,33.971z"/>
		<path fill-rule="evenodd" clip-rule="evenodd" fill="#058C45" d="M29.615,40.125c-3.354-0.069-6.223-3.019-6.249-6.419
			c-0.025-3.475,3.09-6.568,6.558-6.508c3.615,0.062,6.427,2.986,6.367,6.619C36.231,37.412,33.277,40.203,29.615,40.125z"/>
		<path fill-rule="evenodd" clip-rule="evenodd" fill="#058C45" d="M67.359,40.111c-3.538-0.039-6.547-3.11-6.441-6.577
			c0.108-3.55,3.16-6.399,6.73-6.28c3.493,0.117,6.164,2.886,6.189,6.408C73.862,37.281,70.979,40.15,67.359,40.111z"/>
	</g>
	<g>
		<path fill-rule="evenodd" clip-rule="evenodd" fill="#058C45" d="M52.802,95.024c-0.798,2.198-1.536,4.236-2.314,6.382
			c-0.786-1.448-1.359-2.51-1.935-3.571c-0.501,1.108-1.005,2.218-1.651,3.644c-0.866-2.246-1.686-4.37-2.583-6.693
			c-2.43,1.312-4.663,2.401-6.753,3.722c-0.579,0.364-1.106,1.468-1.006,2.133c0.481,3.202,1.184,6.374,1.836,9.696
			c6.481,0,12.604,0.053,18.723-0.069c0.721-0.015,1.837-0.826,2.074-1.51c2.878-8.317,2.343-9.585-5.351-13.511
			C53.654,95.151,53.419,95.151,52.802,95.024z M62.469,103.7c4.94,0,9.342,0.078,13.733-0.084c0.659-0.021,1.814-1.147,1.823-1.778
			c0.056-3.331,3.273-6.77,0.499-9.847c-1.613-1.787-4.374-2.544-6.788-3.855c-0.948,2.443-1.729,4.459-2.556,6.594
			c-0.691-1.391-1.225-2.463-1.76-3.539c-0.558,1.098-1.115,2.199-1.807,3.564c-0.839-2.25-1.634-4.379-2.509-6.723
			c-2.944,1.68-5.503,3.136-8.203,4.676C58.29,96.23,65.862,95.919,62.469,103.7z M29.971,91.004
			c-0.389,0.206-0.78,0.412-1.169,0.614c-0.049,1.001-0.096,2.002-0.145,3.003c-0.2,0.017-0.4,0.036-0.601,0.053
			c-0.774-2.06-1.547-4.12-2.46-6.552c-2.498,1.354-4.821,2.474-6.992,3.836c-1.372,0.858,0.174,10.905,1.685,11.584
			c0.199,0.089,0.442,0.105,0.666,0.105c4.502,0.006,9.004,0.003,13.963,0.003c-3.482-7.989,4.477-7.392,7.507-11.025
			c-2.783-1.54-5.404-2.991-8.28-4.581c-0.885,2.421-1.672,4.567-2.549,6.963C30.949,93.409,30.46,92.208,29.971,91.004z
			 M48.532,80.305c-3.708,0.063-6.369,2.796-6.317,6.491c0.048,3.538,3.024,6.436,6.541,6.365c3.504-0.069,6.423-3.082,6.38-6.594
			C55.091,82.998,52.185,80.24,48.532,80.305z M29.615,86.459c3.663,0.078,6.616-2.713,6.676-6.308
			c0.06-3.633-2.752-6.558-6.367-6.619c-3.468-0.061-6.583,3.033-6.558,6.508C23.392,83.44,26.261,86.39,29.615,86.459z
			 M67.359,86.445c3.621,0.039,6.503-2.83,6.479-6.449c-0.025-3.522-2.697-6.291-6.189-6.408c-3.571-0.119-6.622,2.73-6.73,6.28
			C60.812,83.335,63.821,86.406,67.359,86.445z"/>
		<path fill-rule="evenodd" clip-rule="evenodd" fill="#058C45" d="M52.802,95.024c0.617,0.127,0.852,0.127,1.039,0.222
			c7.694,3.926,8.229,5.193,5.351,13.511c-0.236,0.684-1.353,1.495-2.074,1.51c-6.119,0.122-12.241,0.069-18.723,0.069
			c-0.652-3.322-1.355-6.494-1.836-9.696c-0.1-0.665,0.428-1.769,1.006-2.133c2.09-1.32,4.324-2.41,6.753-3.722
			c0.896,2.323,3.732,4.158,4.234,3.05C49.128,98.896,52.004,97.223,52.802,95.024z"/>
		<path fill-rule="evenodd" clip-rule="evenodd" fill="#058C45" d="M62.469,103.7c3.393-7.781-4.179-7.47-7.568-10.992
			c2.7-1.54,5.259-2.996,8.203-4.676c0.875,2.344,1.669,4.473,2.509,6.723c0.692-1.365,1.25-2.467,1.807-3.564
			c0.535,1.076,1.069,2.148,1.76,3.539c0.827-2.135,1.608-4.15,2.556-6.594c2.414,1.312,5.175,2.068,6.788,3.855
			c2.774,3.077-0.443,6.516-0.499,9.847c-0.009,0.631-1.165,1.757-1.823,1.778C71.811,103.778,67.409,103.7,62.469,103.7z"/>
		<path fill-rule="evenodd" clip-rule="evenodd" fill="#058C45" d="M29.971,91.004c0.489,1.204,0.979,2.405,1.626,4.003
			c0.877-2.396,1.664-4.542,2.549-6.963c2.876,1.59,5.497,3.041,8.28,4.581c-3.03,3.634-10.989,3.036-7.507,11.025
			c-4.959,0-9.461,0.003-13.963-0.003c-0.224,0-0.467-0.017-0.666-0.105c-1.511-0.679-3.057-10.726-1.685-11.584
			c2.171-1.362,4.494-2.482,6.992-3.836c0.913,2.432,1.686,4.492,2.46,6.552c0.2-0.017,0.4-0.036,0.601-0.053
			c0.048-1.001,0.096-2.002,0.145-3.003C29.191,91.416,29.582,91.21,29.971,91.004z"/>
		<path fill-rule="evenodd" clip-rule="evenodd" fill="#058C45" d="M48.532,80.305c3.653-0.064,6.56,2.693,6.604,6.263
			c0.043,3.512-2.876,6.524-6.38,6.594c-3.517,0.07-6.493-2.827-6.541-6.365C42.163,83.101,44.824,80.368,48.532,80.305z"/>
		<path fill-rule="evenodd" clip-rule="evenodd" fill="#058C45" d="M29.615,86.459c-3.354-0.069-6.223-3.019-6.249-6.419
			c-0.025-3.475,3.09-6.568,6.558-6.508c3.615,0.062,6.427,2.986,6.367,6.619C36.231,83.746,33.277,86.537,29.615,86.459z"/>
		<path fill-rule="evenodd" clip-rule="evenodd" fill="#058C45" d="M67.359,86.445c-3.538-0.039-6.547-3.11-6.441-6.577
			c0.108-3.55,3.16-6.399,6.73-6.28c3.493,0.117,6.164,2.886,6.189,6.408C73.862,83.615,70.979,86.484,67.359,86.445z"/>
	</g>
</g>
</svg>
