<?xml version="1.0" encoding="utf-8"?>
<!-- Generator: Adobe Illustrator 16.0.0, SVG Export Plug-In . SVG Version: 6.00 Build 0)  -->
<!DOCTYPE svg PUBLIC "-//W3C//DTD SVG 1.1//EN" "http://www.w3.org/Graphics/SVG/1.1/DTD/svg11.dtd">
<svg version="1.1" id="Layer_1" xmlns="http://www.w3.org/2000/svg" xmlns:xlink="http://www.w3.org/1999/xlink" x="0px" y="0px"
	 width="163.5px" height="187.5px" viewBox="0 0 163.5 187.5" enable-background="new 0 0 163.5 187.5" xml:space="preserve">
<rect x="4" y="6" fill-rule="evenodd" clip-rule="evenodd" fill="#FFFFFF" stroke="#068C45" stroke-width="2" stroke-miterlimit="10" width="155" height="177"/>
<rect x="5" y="126" fill-rule="evenodd" clip-rule="evenodd" fill="#058C45" width="155" height="56"/>
<g>
	<path fill="#FFFFFF" d="M123.907,153.42c0.918,0,1.618-0.261,2.1-0.781c0.481-0.521,0.723-1.27,0.723-2.244
		c0-0.748-0.147-1.4-0.442-1.955c-0.295-0.556-0.833-1.174-1.615-1.854c-0.611-0.533-1.033-0.986-1.266-1.359
		c-0.232-0.375-0.35-0.777-0.35-1.207c0-0.76,0.313-1.14,0.936-1.14c0.307,0,0.538,0.094,0.697,0.28
		c0.158,0.188,0.238,0.484,0.238,0.893v0.612h1.768v-0.493c0-0.963-0.229-1.703-0.688-2.219s-1.136-0.773-2.032-0.773
		c-0.906,0-1.598,0.258-2.073,0.773s-0.714,1.244-0.714,2.186c0,0.691,0.152,1.311,0.459,1.861c0.306,0.549,0.844,1.164,1.615,1.844
		c0.611,0.533,1.031,0.989,1.258,1.369c0.227,0.379,0.34,0.818,0.34,1.316c0,0.42-0.082,0.723-0.246,0.91
		c-0.165,0.188-0.406,0.281-0.723,0.281c-0.646,0-0.969-0.386-0.969-1.156v-0.816h-1.769v0.68c0,0.964,0.231,1.703,0.696,2.219
		S123,153.42,123.907,153.42z M117.481,153.42c0.906,0,1.598-0.258,2.074-0.773s0.714-1.255,0.714-2.219v-3.893h-2.703v1.699h0.935
		v2.33c0,0.771-0.323,1.156-0.969,1.156s-0.969-0.386-0.969-1.156v-6.512c0-0.781,0.323-1.173,0.969-1.173s0.969,0.392,0.969,1.173
		v1.139h1.768v-1.02c0-0.963-0.238-1.703-0.714-2.219s-1.167-0.773-2.074-0.773c-0.907,0-1.598,0.258-2.074,0.773
		s-0.714,1.256-0.714,2.219v6.256c0,0.964,0.238,1.703,0.714,2.219S116.575,153.42,117.481,153.42z M109.849,146.45v-3.4h0.85
		c0.329,0,0.569,0.097,0.723,0.289c0.153,0.192,0.229,0.505,0.229,0.935v0.918c0,0.454-0.094,0.777-0.281,0.97
		s-0.467,0.289-0.841,0.289H109.849z M107.979,153.25h1.87v-5.1h0.646c0.431,0,0.734,0.107,0.91,0.322
		c0.175,0.216,0.264,0.596,0.264,1.139v2.177c0,0.442,0.011,0.748,0.034,0.918c0.022,0.17,0.068,0.352,0.136,0.544h1.904
		c-0.091-0.204-0.147-0.41-0.17-0.621c-0.023-0.209-0.034-0.484-0.034-0.824v-2.091c0-0.702-0.093-1.264-0.28-1.683
		c-0.187-0.42-0.507-0.697-0.96-0.833v-0.034c0.816-0.328,1.224-1.111,1.224-2.346v-0.731c0-0.929-0.221-1.618-0.663-2.065
		c-0.442-0.447-1.145-0.672-2.108-0.672h-2.771V153.25z M103.881,151.721c-0.646,0-0.969-0.392-0.969-1.174v-6.494
		c0-0.781,0.323-1.173,0.969-1.173s0.969,0.392,0.969,1.173v6.494C104.851,151.329,104.527,151.721,103.881,151.721z
		 M103.881,153.42c0.918,0,1.621-0.261,2.108-0.781c0.487-0.521,0.731-1.259,0.731-2.211v-6.256c0-0.951-0.244-1.688-0.731-2.21
		c-0.487-0.521-1.19-0.782-2.108-0.782s-1.621,0.262-2.108,0.782c-0.487,0.521-0.731,1.259-0.731,2.21v6.256
		c0,0.952,0.244,1.689,0.731,2.211C102.261,153.159,102.963,153.42,103.881,153.42z M93.733,153.25h1.87v-10.2h1.955v-1.7h-5.78v1.7
		h1.955V153.25z M89.007,153.25h1.87v-11.9h-1.87V153.25z M83.159,153.25h1.87v-5.186h2.414v-1.699h-2.414v-3.315h3.077v-1.7h-4.947
		V153.25z M79.062,151.721c-0.646,0-0.969-0.392-0.969-1.174v-6.494c0-0.781,0.323-1.173,0.969-1.173s0.969,0.392,0.969,1.173v6.494
		C80.031,151.329,79.708,151.721,79.062,151.721z M79.062,153.42c0.918,0,1.621-0.261,2.108-0.781
		c0.487-0.521,0.731-1.259,0.731-2.211v-6.256c0-0.951-0.244-1.688-0.731-2.21c-0.487-0.521-1.19-0.782-2.108-0.782
		s-1.621,0.262-2.108,0.782c-0.487,0.521-0.731,1.259-0.731,2.21v6.256c0,0.952,0.244,1.689,0.731,2.211
		C77.441,153.159,78.144,153.42,79.062,153.42z M71.378,146.45v-3.4h0.85c0.329,0,0.569,0.097,0.723,0.289
		c0.153,0.192,0.229,0.505,0.229,0.935v0.918c0,0.454-0.094,0.777-0.281,0.97s-0.467,0.289-0.841,0.289H71.378z M69.508,153.25h1.87
		v-5.1h0.646c0.431,0,0.734,0.107,0.91,0.322c0.175,0.216,0.264,0.596,0.264,1.139v2.177c0,0.442,0.011,0.748,0.034,0.918
		c0.022,0.17,0.068,0.352,0.136,0.544h1.904c-0.091-0.204-0.147-0.41-0.17-0.621c-0.023-0.209-0.034-0.484-0.034-0.824v-2.091
		c0-0.702-0.093-1.264-0.28-1.683c-0.187-0.42-0.507-0.697-0.96-0.833v-0.034c0.816-0.328,1.224-1.111,1.224-2.346v-0.731
		c0-0.929-0.221-1.618-0.663-2.065c-0.442-0.447-1.145-0.672-2.108-0.672h-2.771V153.25z M64.816,146.705v-3.655h0.884
		c0.306,0,0.535,0.085,0.688,0.255c0.153,0.17,0.229,0.459,0.229,0.867v1.411c0,0.408-0.077,0.696-0.229,0.867
		c-0.153,0.17-0.383,0.255-0.688,0.255H64.816z M62.946,153.25h1.87v-4.846h0.884c0.929,0,1.626-0.248,2.091-0.747
		c0.464-0.499,0.697-1.229,0.697-2.193v-1.173c0-0.963-0.232-1.694-0.697-2.193c-0.465-0.498-1.162-0.748-2.091-0.748h-2.754V153.25
		z M58.084,148.15h3.74v-1.7h-3.74V148.15z M51.098,153.25h1.666v-8.688h0.034l2.244,8.688h1.921v-11.9h-1.666v7.123h-0.034
		l-1.819-7.123h-2.346V153.25z M47.001,151.721c-0.646,0-0.969-0.392-0.969-1.174v-6.494c0-0.781,0.323-1.173,0.969-1.173
		s0.969,0.392,0.969,1.173v6.494C47.97,151.329,47.647,151.721,47.001,151.721z M47.001,153.42c0.918,0,1.621-0.261,2.108-0.781
		c0.487-0.521,0.731-1.259,0.731-2.211v-6.256c0-0.951-0.244-1.688-0.731-2.21c-0.487-0.521-1.19-0.782-2.108-0.782
		s-1.621,0.262-2.108,0.782c-0.487,0.521-0.731,1.259-0.731,2.21v6.256c0,0.952,0.244,1.689,0.731,2.211
		C45.38,153.159,46.083,153.42,47.001,153.42z M37.039,153.25h1.666v-8.688h0.034l2.244,8.688h1.921v-11.9h-1.666v7.123h-0.034
		l-1.819-7.123h-2.346V153.25z"/>
	<path fill="#FFFFFF" d="M122.736,164.92c0.169-0.867,0.254-1.756,0.254-2.668c0-0.85-0.071-1.668-0.213-2.453
		c-0.142-0.787-0.334-1.469-0.578-2.049h-0.752c0.254,0.605,0.453,1.307,0.598,2.104s0.217,1.626,0.217,2.485
		c0,0.928-0.095,1.828-0.285,2.7s-0.447,1.636-0.77,2.29h0.791C122.32,166.592,122.566,165.788,122.736,164.92z M119.616,157.75
		c-0.238,0-0.44,0.05-0.608,0.148c-0.167,0.1-0.287,0.23-0.356,0.394s-0.105,0.435-0.105,0.815v0.83h-0.698v0.591h0.698v4.722h0.684
		l0.004-4.722h1.109v-0.591h-1.109l0-0.718c0-0.303,0.011-0.489,0.034-0.56l0.166-0.186c0.088-0.053,0.199-0.08,0.332-0.08
		c0.179,0,0.394,0.054,0.645,0.161v-0.669C120.103,157.795,119.837,157.75,119.616,157.75z M116.476,157.75
		c-0.238,0-0.44,0.05-0.608,0.148c-0.167,0.1-0.287,0.23-0.356,0.394s-0.105,0.435-0.105,0.815v0.83h-0.698v0.591h0.698v4.722h0.684
		l0.004-4.722h1.109v-0.591h-1.109l0-0.718c0-0.303,0.011-0.489,0.034-0.56l0.166-0.186c0.088-0.053,0.199-0.08,0.332-0.08
		c0.179,0,0.394,0.054,0.645,0.161v-0.669C116.963,157.795,116.697,157.75,116.476,157.75z M112.309,161.08
		c0.405,0.412,0.607,0.926,0.607,1.541c0,0.402-0.09,0.766-0.271,1.087c-0.181,0.322-0.438,0.577-0.773,0.767
		c-0.335,0.188-0.689,0.282-1.063,0.282c-0.371,0-0.718-0.095-1.042-0.285c-0.323-0.19-0.581-0.456-0.773-0.798
		s-0.288-0.699-0.288-1.072c0-0.377,0.095-0.735,0.285-1.073c0.19-0.339,0.446-0.601,0.768-0.788c0.322-0.187,0.673-0.28,1.054-0.28
		C111.406,160.46,111.904,160.666,112.309,161.08z M112.873,159.938v0.977c-0.267-0.371-0.577-0.649-0.93-0.835
		s-0.748-0.278-1.184-0.278c-0.755,0-1.401,0.271-1.938,0.815s-0.806,1.198-0.806,1.963c0,0.781,0.266,1.444,0.798,1.989
		c0.532,0.546,1.174,0.818,1.926,0.818c0.423,0,0.813-0.088,1.169-0.264s0.678-0.438,0.964-0.786v0.913h0.674v-5.313H112.873z
		 M105.46,159.938h-0.933v0.591h0.933v4.722h0.684v-4.722h1.084v-0.591h-1.084v-1.973h-0.684V159.938z M102.177,159.801
		c-0.421,0-0.769,0.133-1.044,0.4c-0.275,0.268-0.413,0.602-0.413,1.006c0,0.309,0.086,0.584,0.259,0.825s0.499,0.485,0.979,0.732
		c0.447,0.228,0.734,0.417,0.861,0.566c0.127,0.153,0.191,0.327,0.191,0.522c0,0.238-0.096,0.444-0.289,0.62
		c-0.193,0.176-0.426,0.264-0.7,0.264c-0.392,0-0.762-0.196-1.111-0.591l-0.43,0.488c0.183,0.234,0.413,0.418,0.692,0.552
		s0.571,0.2,0.878,0.2c0.459,0,0.843-0.151,1.149-0.454c0.307-0.303,0.46-0.673,0.46-1.108c0-0.309-0.09-0.588-0.269-0.835
		c-0.183-0.244-0.528-0.498-1.038-0.762c-0.417-0.215-0.691-0.401-0.822-0.562c-0.13-0.156-0.196-0.32-0.196-0.493
		c0-0.195,0.079-0.366,0.237-0.513s0.349-0.22,0.57-0.22c0.349,0,0.707,0.177,1.072,0.532l0.439-0.454
		C103.158,160.04,102.666,159.801,102.177,159.801z M94.948,165.25h0.698v-1.797c0-0.922,0.042-1.533,0.127-1.836
		c0.111-0.395,0.272-0.685,0.483-0.871c0.211-0.188,0.431-0.281,0.659-0.281c0.098,0,0.218,0.031,0.361,0.093l0.356-0.576
		c-0.215-0.12-0.417-0.181-0.605-0.181c-0.25,0-0.492,0.076-0.723,0.227c-0.231,0.152-0.451,0.381-0.659,0.687v-0.776h-0.698V165.25
		z M89.04,162.496c0,0.756,0.085,1.32,0.256,1.697c0.171,0.375,0.43,0.668,0.776,0.879c0.347,0.209,0.779,0.314,1.296,0.314
		s0.948-0.105,1.292-0.314c0.343-0.211,0.601-0.501,0.771-0.872s0.256-0.923,0.256-1.655v-2.607H92.99v2.48
		c0,0.664-0.034,1.099-0.103,1.304c-0.101,0.3-0.285,0.541-0.55,0.726c-0.266,0.184-0.589,0.275-0.971,0.275
		s-0.71-0.094-0.985-0.283s-0.462-0.445-0.56-0.771c-0.065-0.229-0.098-0.645-0.098-1.25v-2.48H89.04V162.496z M86.554,161.1
		c0.41,0.42,0.615,0.928,0.615,1.523c0,0.385-0.093,0.742-0.279,1.074s-0.438,0.588-0.754,0.77c-0.317,0.18-0.665,0.271-1.044,0.271
		s-0.727-0.091-1.044-0.271c-0.317-0.182-0.568-0.438-0.754-0.77s-0.279-0.689-0.279-1.074c0-0.596,0.204-1.104,0.612-1.523
		c0.409-0.42,0.897-0.63,1.465-0.63C85.657,160.47,86.145,160.68,86.554,161.1z M83.055,160.694
		c-0.489,0.54-0.734,1.179-0.734,1.914c0,0.742,0.258,1.391,0.775,1.946c0.517,0.555,1.183,0.832,1.998,0.832
		c0.812,0,1.477-0.277,1.993-0.832c0.517-0.556,0.775-1.204,0.775-1.946c0-0.739-0.245-1.378-0.734-1.919
		c-0.538-0.592-1.216-0.889-2.035-0.889C84.272,159.801,83.593,160.099,83.055,160.694z M78.828,164.848l-1.023,2.346h0.722
		l3.169-7.256h-0.728l-1.773,4.091l-1.826-4.091h-0.723L78.828,164.848z M71.183,165.25h0.698v-1.797
		c0-0.922,0.042-1.533,0.127-1.836c0.111-0.395,0.272-0.685,0.483-0.871c0.211-0.188,0.431-0.281,0.659-0.281
		c0.098,0,0.218,0.031,0.361,0.093l0.356-0.576c-0.215-0.12-0.417-0.181-0.605-0.181c-0.25,0-0.492,0.076-0.723,0.227
		c-0.231,0.152-0.451,0.381-0.659,0.687v-0.776h-0.698V165.25z M68.869,161.1c0.41,0.42,0.615,0.928,0.615,1.523
		c0,0.385-0.093,0.742-0.279,1.074s-0.438,0.588-0.754,0.77c-0.317,0.18-0.665,0.271-1.044,0.271s-0.727-0.091-1.044-0.271
		c-0.317-0.182-0.568-0.438-0.754-0.77s-0.279-0.689-0.279-1.074c0-0.596,0.204-1.104,0.612-1.523c0.409-0.42,0.897-0.63,1.465-0.63
		C67.971,160.47,68.459,160.68,68.869,161.1z M65.369,160.694c-0.489,0.54-0.734,1.179-0.734,1.914c0,0.742,0.258,1.391,0.775,1.946
		c0.517,0.555,1.183,0.832,1.998,0.832c0.812,0,1.477-0.277,1.993-0.832c0.517-0.556,0.775-1.204,0.775-1.946
		c0-0.739-0.245-1.378-0.734-1.919c-0.538-0.592-1.216-0.889-2.035-0.889C66.587,159.801,65.907,160.099,65.369,160.694z
		 M63.146,157.75c-0.238,0-0.44,0.05-0.608,0.148c-0.167,0.1-0.287,0.23-0.356,0.394s-0.105,0.435-0.105,0.815v0.83h-0.698v0.591
		h0.698v4.722h0.684l0.004-4.722h1.109v-0.591h-1.109l0-0.718c0-0.303,0.011-0.489,0.034-0.56l0.166-0.186
		c0.088-0.053,0.199-0.08,0.332-0.08c0.179,0,0.394,0.054,0.645,0.161v-0.669C63.633,157.795,63.367,157.75,63.146,157.75z
		 M56.193,159.938H55.26v0.591h0.933v4.722h0.684v-4.722h1.084v-0.591h-1.084v-1.973h-0.684V159.938z M52.909,159.801
		c-0.421,0-0.769,0.133-1.044,0.4c-0.275,0.268-0.413,0.602-0.413,1.006c0,0.309,0.086,0.584,0.259,0.825s0.499,0.485,0.979,0.732
		c0.447,0.228,0.734,0.417,0.861,0.566c0.127,0.153,0.191,0.327,0.191,0.522c0,0.238-0.096,0.444-0.289,0.62
		c-0.193,0.176-0.426,0.264-0.7,0.264c-0.392,0-0.762-0.196-1.111-0.591l-0.43,0.488c0.183,0.234,0.413,0.418,0.692,0.552
		s0.571,0.2,0.878,0.2c0.459,0,0.843-0.151,1.149-0.454c0.307-0.303,0.46-0.673,0.46-1.108c0-0.309-0.09-0.588-0.269-0.835
		c-0.183-0.244-0.528-0.498-1.038-0.762c-0.417-0.215-0.691-0.401-0.822-0.562c-0.13-0.156-0.196-0.32-0.196-0.493
		c0-0.195,0.079-0.366,0.237-0.513s0.349-0.22,0.57-0.22c0.349,0,0.707,0.177,1.072,0.532l0.439-0.454
		C53.891,160.04,53.398,159.801,52.909,159.801z M45.548,162.496c0,0.756,0.085,1.32,0.256,1.697
		c0.171,0.375,0.43,0.668,0.776,0.879c0.347,0.209,0.779,0.314,1.296,0.314s0.948-0.105,1.292-0.314
		c0.343-0.211,0.601-0.501,0.771-0.872s0.256-0.923,0.256-1.655v-2.607h-0.698v2.48c0,0.664-0.034,1.099-0.103,1.304
		c-0.101,0.3-0.285,0.541-0.55,0.726c-0.266,0.184-0.589,0.275-0.971,0.275s-0.71-0.094-0.985-0.283s-0.462-0.445-0.56-0.771
		c-0.065-0.229-0.098-0.645-0.098-1.25v-2.48h-0.684V162.496z M43.522,165.851c0,0.31-0.028,0.513-0.083,0.61
		c-0.091,0.152-0.229,0.229-0.415,0.229c-0.146,0-0.311-0.048-0.493-0.142v0.615c0.29,0.111,0.55,0.166,0.781,0.166
		c0.28,0,0.5-0.102,0.662-0.305c0.161-0.204,0.242-0.529,0.242-0.975v-6.113h-0.693V165.851z M43.461,157.916
		c-0.109,0.111-0.164,0.244-0.164,0.4c0,0.152,0.055,0.285,0.164,0.396s0.242,0.166,0.398,0.166s0.289-0.056,0.398-0.166
		s0.164-0.243,0.164-0.396c0-0.156-0.055-0.289-0.164-0.4s-0.242-0.166-0.398-0.166S43.57,157.805,43.461,157.916z M40.709,160.16
		c-0.169,0.867-0.254,1.758-0.254,2.673c0,0.85,0.072,1.667,0.215,2.451s0.335,1.466,0.576,2.046h0.752
		c-0.254-0.605-0.453-1.307-0.598-2.104s-0.217-1.626-0.217-2.485c0-0.928,0.096-1.828,0.288-2.7s0.448-1.636,0.767-2.29h-0.791
		C41.125,158.488,40.879,159.292,40.709,160.16z"/>
</g>
<g>
	<g>
		<path fill-rule="evenodd" clip-rule="evenodd" fill="#058C45" d="M54.934,88.201c2.766-1.498,5.52-2.715,8.51-3.344
			c4.815-1.011,9.569-0.558,14.332,0.424c1.545,0.317,3.168,0.448,4.745,0.382c6.407-0.272,12.809-0.657,19.215-0.989
			c2.664-0.138,4.758,1.609,5.008,4.146c0.271,2.736-1.351,4.761-4.107,5.207c-6.806,1.104-13.607,2.228-20.41,3.349
			c-1.013,0.167-1.541,0.741-1.437,1.508c0.109,0.812,0.767,1.169,1.858,1.068c7.099-0.658,14.146-1.631,21.121-3.147
			c3.79-0.826,7.086-2.423,10.211-4.786c4.219-3.191,8.786-5.926,13.229-8.815c0.755-0.492,1.621-0.828,2.464-1.167
			c1.535-0.616,2.982-0.392,4.139,0.799c1.18,1.215,1.611,2.739,0.9,4.311c-0.41,0.908-1.061,1.85-1.859,2.418
			c-8.619,6.132-17.281,12.205-25.953,18.264c-3.23,2.259-6.84,3.384-10.802,3.449c-8.042,0.135-16.082,0.328-24.123,0.493
			c-4.2,0.087-8.399,0.178-12.6,0.23c-0.688,0.01-1.112,0.163-1.439,0.837c-0.624,1.284-1.742,2.018-3.144,2.217
			c-2.737,0.389-5.479,0.763-8.226,1.067c-2.947,0.329-5.25-1.58-5.654-4.534c-0.812-5.929-1.644-11.856-2.483-17.782
			c-0.487-3.435,1.217-5.829,4.594-6.361c2.346-0.369,4.71-0.626,7.043-1.058C52.065,86.015,53.667,86.503,54.934,88.201z
			 M51.862,108.7c0.02-1.48-1.272-2.791-2.784-2.822c-1.559-0.033-2.869,1.234-2.897,2.801c-0.025,1.477,1.259,2.787,2.778,2.831
			C50.486,111.556,51.842,110.243,51.862,108.7z"/>
		<path fill-rule="evenodd" clip-rule="evenodd" fill="#058C45" d="M111.477,89.124c-0.205-1.043-0.416-2.118-0.648-3.305
			c0.318-0.207,0.711-0.489,1.125-0.728c3.236-1.866,6.463-3.747,9.721-5.575c1.434-0.804,2.939-0.957,4.424-0.125
			c-2.489,1.556-4.996,3.044-7.42,4.658C116.248,85.667,113.9,87.409,111.477,89.124z"/>
		<path fill-rule="evenodd" clip-rule="evenodd" fill="#058C45" d="M108.49,83.047c-0.541-0.44-1.217-0.99-1.983-1.614
			c0.501-0.273,0.933-0.538,1.388-0.752c2.176-1.023,4.352-2.05,6.541-3.043c1.305-0.592,2.629-0.689,4.088,0.099
			C115.162,79.516,111.894,81.246,108.49,83.047z"/>
	</g>
</g>
<g>
	<path fill-rule="evenodd" clip-rule="evenodd" fill="#058C45" d="M85.412,81.126c-18.377,0.015-33.315-14.881-33.338-33.245
		C52.052,29.473,66.969,14.52,85.37,14.506c18.403-0.015,33.325,14.913,33.323,33.334C118.69,66.225,103.807,81.11,85.412,81.126z
		 M116.221,47.922c-0.245,0.139-0.405,0.181-0.49,0.284c-0.955,1.16-2.145,2.134-2.66,3.636c-0.367,1.074-0.847,1.139-1.664,0.302
		c-0.22-0.226-0.39-0.548-0.465-0.855c-0.128-0.52-0.166-1.063-0.235-1.597c-0.346-2.677-2.817-4.85-5.528-4.802
		c-0.67,0.013-1.203-0.172-1.668-0.623c-0.314-0.304-0.615-0.621-0.945-0.906c-0.113-0.099-0.295-0.117-0.446-0.172
		c0.171,0.617,0.485,1.06,0.688,1.549c0.311,0.744,0.805,1.06,1.603,0.921c0.761-0.133,1.339,0.236,1.858,0.729
		c0.849,0.807,0.708,1.405-0.342,1.906c-1.059,0.504-2.066,1.116-3.105,1.666c-0.678,0.358-1.362,0.708-2.06,1.028
		c-0.522,0.24-0.89,0.126-1.122-0.48c-0.455-1.198-0.94-2.388-1.486-3.547c-0.459-0.974-1.022-1.898-1.539-2.845
		c-0.095,0.033-0.189,0.066-0.283,0.1c0.027,0.367-0.024,0.764,0.097,1.097c0.323,0.889,0.683,1.769,1.097,2.618
		c0.734,1.505,1.604,2.969,0.789,4.769c1.842,0.544,3.053-0.928,4.643-1.16c-0.43,1.364-0.939,2.64-1.479,3.902
		c-0.098,0.225-0.306,0.414-0.494,0.585c-0.721,0.651-1.391,1.389-2.201,1.904c-0.93,0.594-1.053,1.361-0.898,2.308
		c0.046,0.278,0.068,0.561,0.113,0.84c0.172,1.044-0.136,1.933-0.887,2.662c-0.828,0.805-1.699,1.567-2.502,2.396
		c-0.585,0.603-1.239,1.21-1.598,1.945c-0.783,1.603-2.221,1.76-3.682,1.879c-0.369,0.03-0.869-0.196-1.127-0.474
		c-0.423-0.456-0.666-1.073-1.041-1.581c-1.36-1.846-2.135-3.76-0.831-5.97c0.325-0.553,0.192-1.058-0.084-1.6
		c-0.45-0.882-0.828-1.801-1.248-2.699c-0.304-0.647-0.576-1.318-0.96-1.916c-0.188-0.291-0.57-0.538-0.912-0.632
		c-0.959-0.265-1.917-0.224-2.866,0.16c-1.579,0.639-2.991,0.313-4.241-0.827c-0.53-0.484-1.041-1.017-1.647-1.385
		c-0.743-0.45-1.051-1.086-1.167-1.881c-0.304-2.086-0.162-4.154,0.317-6.195c0.093-0.396,0.379-0.777,0.658-1.092
		c0.775-0.876,1.579-1.727,2.402-2.557c0.273-0.275,0.614-0.525,0.971-0.667c0.554-0.218,1.153-0.319,1.724-0.496
		c0.672-0.209,1.322-0.523,2.007-0.65c0.854-0.157,1.737-0.156,2.605-0.248c1.13-0.12,1.271-0.024,1.477,1.095
		c0.028,0.151,0.063,0.301,0.104,0.449c0.351,1.291,0.763,1.545,2.067,1.268c0.2-0.043,0.392-0.137,0.593-0.163
		c0.52-0.07,1.048-0.201,1.561-0.156c1.731,0.152,3.439,0.525,5.203,0.171c1.574-0.316,1.588-0.249,1.275-1.841
		c-0.008-0.043-0.055-0.078-0.076-0.107c-0.748-0.079-1.486-0.23-2.222-0.214c-0.701,0.016-0.958-0.255-1.134-0.906
		c-0.442-1.638-0.395-1.756,1.295-1.704c1.23,0.038,2.459,0.166,3.689,0.18c0.781,0.009,1.033-0.378,0.731-1.104
		c-0.146-0.35-0.442-0.706-0.767-0.898c-0.613-0.363-1.271-0.702-1.954-0.89c-2.024-0.553-2.906-0.207-3.012,1.81
		c-0.011,0.199-0.278,0.537-0.446,0.548c-0.584,0.04-0.745,0.378-0.889,0.862c-0.26,0.876-0.752,1.211-1.434,1.071
		c-0.594-0.122-0.881-0.655-0.736-1.55c0.094-0.577-0.078-1.002-0.498-1.365c-0.271-0.236-0.541-0.473-0.809-0.713
		c-0.475-0.427-1.014-0.477-1.674-0.329c0.666,1.104,1.875,1.774,2.016,2.949c-0.67,0.322-1.23,0.592-1.879,0.904
		c-0.059-0.434-0.111-0.829-0.166-1.224c-0.117-0.845-0.572-1.453-1.273-1.925c-0.625-0.422-1.185-0.337-1.77,0.065
		c-0.133,0.091-0.352,0.104-0.521,0.082c-0.776-0.106-1.28,0.27-1.639,0.897c-0.292,0.51-0.525,1.056-0.846,1.544
		c-0.2,0.305-0.5,0.733-0.783,0.757c-0.904,0.074-1.823,0.01-2.731-0.063c-0.18-0.014-0.474-0.295-0.483-0.465
		c-0.047-0.935-0.022-1.872-0.022-2.8c1.25,0,2.288,0,3.322,0c0.194-1.434,0.188-1.414-1.116-1.822
		c-0.272-0.085-0.482-0.369-0.877-0.687c0.485-0.125,0.701-0.202,0.923-0.234c0.778-0.112,1.521-0.175,2.168-0.798
		c0.519-0.499,1.251-0.819,1.94-1.088c1.18-0.459,1.246-0.476,1.174-1.735c-0.035-0.621,0.215-1.014,0.945-1.253
		c0.365,1.738,1.672,1.572,2.955,1.466c0.307-0.025,0.627,0.029,0.921-0.038c0.216-0.049,0.526-0.199,0.575-0.369
		c0.271-0.93,0.896-1.432,1.771-1.755c0.203-0.075,0.424-0.491,0.387-0.707c-0.033-0.198-0.391-0.364-0.631-0.497
		c-0.211-0.116-0.465-0.151-0.688-0.25c-0.277-0.122-0.558-0.399-0.811-0.371c-0.193,0.022-0.406,0.39-0.504,0.645
		c-0.146,0.379-0.152,0.811-0.297,1.189c-0.265,0.693-1.119,1.08-1.851,0.9c-0.768-0.189-0.675-0.792-0.665-1.358
		c0.003-0.194,0-0.389,0-0.715c-0.576,0.897-1.362,1.161-2.241,1.023c-0.34-0.054-0.766-0.336-0.909-0.633
		c-0.127-0.261-0.027-0.775,0.17-1.021c0.406-0.511,0.918-0.951,1.434-1.359c0.59-0.466,1.178-1.082,1.861-1.251
		c1.938-0.479,3.91-0.953,5.891-1.075c2.277-0.14,4.162-1.398,6.451-1.68c-0.163-0.156-0.193-0.201-0.236-0.225
		c-0.113-0.061-0.229-0.116-0.346-0.168c-5.479-2.393-11.181-3.195-17.095-2.301c-4.909,0.743-9.377,2.6-13.405,5.507
		c-0.303,0.218-0.643,0.355-0.408,0.897c0.614,1.416,0.411,2.689-0.611,3.932c-1.069,1.301-1.955,2.75-2.928,4.129
		c-0.176,0.251-0.36,0.507-0.587,0.708c-0.654,0.577-1.336,0.396-1.482-0.456c-0.127-0.747-0.076-1.527-0.082-2.293
		c-0.003-0.33,0.047-0.66,0.074-0.99c-0.079-0.023-0.157-0.047-0.235-0.07c-0.842,1.313-1.628,2.667-2.544,3.927
		c-0.837,1.152-0.697,2.152,0.004,3.302c0.54,0.886,0.896,1.892,1.27,2.868c0.21,0.549-0.019,0.936-0.584,1.23
		c-1.25,0.652-2.472,1.362-3.663,2.117c-0.295,0.187-0.551,0.609-0.615,0.962c-0.62,3.424-0.488,6.842,0.077,10.269
		c0.195,1.18,0.577,2.074,1.764,2.501c0.282,0.102,0.509,0.346,0.776,0.497c0.908,0.515,1.507,1.248,1.839,2.256
		c0.313,0.948,0.777,1.845,1.118,2.785c0.201,0.556,0.501,0.894,1.095,1.037c1.536,0.373,2.924,1.075,4.242,1.949
		c0.456,0.304,0.634,0.557,0.457,1.107c-0.543,1.688-0.566,3.554-1.813,4.956c9.061,8.536,23.122,10.912,34.954,4.827
		c6.016-3.094,10.537-7.701,13.561-13.751C115.148,57.286,116.204,52.79,116.221,47.922z M103.387,35.311
		c0-0.278,0.037-0.401-0.006-0.479c-0.152-0.28-0.277-0.651-0.521-0.775c-0.155-0.079-0.534,0.18-0.756,0.357
		c-1.027,0.821-1.08,1.866-0.705,3.039c0.16,0.506,0.184,1.058,0.25,1.591c0.107,0.855,0.443,1.151,1.302,0.976
		c0.483-0.099,1.2-0.05,1.226-0.786c0.025-0.745,0.08-1.522-0.604-2.124c-0.217-0.19-0.249-0.644-0.274-0.982
		C103.272,35.801,103.367,35.467,103.387,35.311z"/>
	<path fill-rule="evenodd" clip-rule="evenodd" fill="#058C45" d="M103.387,35.311c-0.02,0.156-0.114,0.49-0.09,0.815
		c0.025,0.339,0.058,0.792,0.274,0.982c0.685,0.602,0.63,1.379,0.604,2.124c-0.025,0.736-0.742,0.688-1.226,0.786
		c-0.858,0.176-1.194-0.12-1.302-0.976c-0.066-0.533-0.09-1.085-0.25-1.591c-0.375-1.173-0.322-2.218,0.705-3.039
		c0.222-0.178,0.601-0.437,0.756-0.357c0.244,0.124,0.369,0.495,0.521,0.775C103.424,34.909,103.387,35.032,103.387,35.311z"/>
	<path fill-rule="evenodd" clip-rule="evenodd" fill="#058C45" d="M79.288,28.861c-1.12-0.027-1.601-0.471-1.788-1.526
		c-0.136-0.765-0.309-1.465,0.237-2.193c0.215-0.287,0.073-0.843,0.088-1.276c0.026-0.778,0.741-1.49,1.454-1.295
		c0.289,0.078,0.608,0.559,0.661,0.896c0.162,1.024,0.437,1.946,1.348,2.561c0.079,0.053,0.158,0.146,0.181,0.236
		C81.722,27.265,80.355,28.887,79.288,28.861z"/>
	<path fill-rule="evenodd" clip-rule="evenodd" fill="#058C45" d="M101.904,62.752c-0.229,0.57-0.454,1.144-0.691,1.712
		c-0.245,0.59-0.475,1.188-0.764,1.757c-0.211,0.418-0.414,0.989-1.037,0.826c-0.615-0.16-0.747-0.722-0.744-1.289
		c0.005-0.999,0.367-1.804,1.143-2.492c0.385-0.341,0.52-0.956,0.801-1.428c0.131-0.222,0.34-0.397,0.514-0.593
		c0.199,0.222,0.461,0.416,0.576,0.675c0.096,0.213,0.02,0.504,0.02,0.76C101.783,62.704,101.844,62.728,101.904,62.752z"/>
	<path fill-rule="evenodd" clip-rule="evenodd" fill="#058C45" d="M75.48,27.881c0.426-0.841,0.252-1.828,1.233-2.399
		c0.168,0.673,0.396,1.296,0.439,1.931c0.013,0.188-0.473,0.481-0.778,0.593C76.154,28.085,75.853,27.942,75.48,27.881z"/>
</g>
</svg>
