<?xml version="1.0" encoding="utf-8"?>
<!-- Generator: Adobe Illustrator 16.0.0, SVG Export Plug-In . SVG Version: 6.00 Build 0)  -->
<!DOCTYPE svg PUBLIC "-//W3C//DTD SVG 1.1//EN" "http://www.w3.org/Graphics/SVG/1.1/DTD/svg11.dtd">
<svg version="1.1" id="Layer_1" xmlns="http://www.w3.org/2000/svg" xmlns:xlink="http://www.w3.org/1999/xlink" x="0px" y="0px"
	 width="163.5px" height="187.5px" viewBox="0 0 163.5 187.5" enable-background="new 0 0 163.5 187.5" xml:space="preserve">
<rect x="5" y="5" fill-rule="evenodd" clip-rule="evenodd" fill="#FFFFFF" stroke="#068C45" stroke-width="2" stroke-miterlimit="10" width="155" height="177"/>
<rect x="5" y="126" fill-rule="evenodd" clip-rule="evenodd" fill="#058C45" width="155" height="56"/>
<g>
	<path fill="#FFFFFF" d="M130.507,152.421c0.918,0,1.618-0.261,2.1-0.782s0.723-1.27,0.723-2.244c0-0.748-0.147-1.398-0.442-1.955
		c-0.295-0.555-0.833-1.172-1.615-1.853c-0.611-0.532-1.033-0.985-1.266-1.36c-0.232-0.373-0.35-0.775-0.35-1.207
		c0-0.759,0.313-1.139,0.936-1.139c0.307,0,0.538,0.094,0.697,0.281c0.158,0.187,0.238,0.484,0.238,0.893v0.611h1.768v-0.493
		c0-0.963-0.229-1.702-0.688-2.218s-1.136-0.773-2.032-0.773c-0.906,0-1.598,0.258-2.073,0.773s-0.714,1.243-0.714,2.184
		c0,0.691,0.152,1.313,0.459,1.861c0.306,0.551,0.844,1.165,1.615,1.846c0.611,0.532,1.031,0.988,1.258,1.367
		c0.227,0.381,0.34,0.819,0.34,1.318c0,0.419-0.082,0.723-0.246,0.909c-0.165,0.187-0.406,0.28-0.723,0.28
		c-0.646,0-0.969-0.385-0.969-1.156v-0.815h-1.769v0.681c0,0.963,0.231,1.702,0.696,2.218S129.6,152.421,130.507,152.421z
		 M124.081,152.421c0.906,0,1.598-0.258,2.073-0.773c0.477-0.516,0.715-1.255,0.715-2.218v-3.894h-2.703v1.7h0.936v2.328
		c0,0.771-0.324,1.156-0.97,1.156s-0.969-0.385-0.969-1.156v-6.51c0-0.783,0.323-1.174,0.969-1.174s0.97,0.391,0.97,1.174v1.139
		h1.768v-1.021c0-0.963-0.238-1.702-0.715-2.218c-0.476-0.516-1.167-0.773-2.073-0.773c-0.907,0-1.599,0.258-2.074,0.773
		s-0.714,1.255-0.714,2.218v6.257c0,0.963,0.238,1.702,0.714,2.218S123.174,152.421,124.081,152.421z M116.448,145.451v-3.4h0.85
		c0.329,0,0.569,0.097,0.723,0.289c0.153,0.193,0.229,0.504,0.229,0.936v0.918c0,0.453-0.094,0.775-0.281,0.969
		s-0.467,0.289-0.841,0.289H116.448z M114.578,152.251h1.87v-5.101h0.646c0.431,0,0.734,0.108,0.91,0.324
		c0.175,0.215,0.264,0.594,0.264,1.139v2.176c0,0.441,0.011,0.748,0.034,0.918c0.022,0.17,0.068,0.352,0.136,0.544h1.904
		c-0.091-0.204-0.147-0.411-0.17-0.62c-0.023-0.21-0.034-0.484-0.034-0.824v-2.092c0-0.703-0.093-1.264-0.28-1.684
		c-0.187-0.418-0.507-0.696-0.96-0.832v-0.034c0.816-0.329,1.224-1.11,1.224-2.347v-0.73c0-0.93-0.221-1.617-0.663-2.065
		c-0.442-0.448-1.145-0.671-2.108-0.671h-2.771V152.251z M110.481,150.721c-0.646,0-0.969-0.391-0.969-1.173v-6.493
		c0-0.783,0.323-1.174,0.969-1.174s0.969,0.391,0.969,1.174v6.493C111.45,150.33,111.127,150.721,110.481,150.721z M110.481,152.421
		c0.918,0,1.621-0.261,2.108-0.782s0.731-1.258,0.731-2.209v-6.257c0-0.952-0.244-1.688-0.731-2.21s-1.19-0.781-2.108-0.781
		s-1.621,0.26-2.108,0.781s-0.731,1.258-0.731,2.21v6.257c0,0.951,0.244,1.688,0.731,2.209S109.563,152.421,110.481,152.421z
		 M100.333,152.251h1.87v-10.2h1.955v-1.699h-5.78v1.699h1.955V152.251z M91.611,152.251h1.666v-8.687h0.034l2.244,8.687h1.921
		v-11.899h-1.666v7.123h-0.034l-1.819-7.123h-2.346V152.251z M85.44,152.251h5.1v-1.7h-3.23v-3.654h2.567v-1.701h-2.567v-3.145h3.23
		v-1.699h-5.1V152.251z M76.294,152.251h1.632v-9.01h0.034l1.36,9.01h1.564l1.36-9.01h0.034v9.01h1.768v-11.899h-2.669l-1.19,8.517
		h-0.034l-1.19-8.517h-2.669V152.251z M69.036,152.251h1.666v-8.687h0.034l2.244,8.687h1.921v-11.899h-1.666v7.123h-0.034
		l-1.819-7.123h-2.346V152.251z M64.055,145.451v-3.4h0.85c0.329,0,0.569,0.097,0.723,0.289c0.153,0.193,0.229,0.504,0.229,0.936
		v0.918c0,0.453-0.094,0.775-0.281,0.969s-0.467,0.289-0.841,0.289H64.055z M62.185,152.251h1.87v-5.101h0.646
		c0.431,0,0.734,0.108,0.91,0.324c0.175,0.215,0.264,0.594,0.264,1.139v2.176c0,0.441,0.011,0.748,0.034,0.918
		c0.022,0.17,0.068,0.352,0.136,0.544h1.904c-0.091-0.204-0.147-0.411-0.17-0.62c-0.023-0.21-0.034-0.484-0.034-0.824v-2.092
		c0-0.703-0.093-1.264-0.28-1.684c-0.187-0.418-0.507-0.696-0.96-0.832v-0.034c0.816-0.329,1.224-1.11,1.224-2.347v-0.73
		c0-0.93-0.221-1.617-0.663-2.065c-0.442-0.448-1.145-0.671-2.108-0.671h-2.771V152.251z M56.014,152.251h5.1v-1.7h-3.23v-3.654
		h2.567v-1.701h-2.567v-3.145h3.23v-1.699h-5.1V152.251z M50.829,152.251h2.482l1.802-11.899h-1.717l-1.224,9.23h-0.034l-1.224-9.23
		h-1.887L50.829,152.251z M45.458,150.721c-0.646,0-0.969-0.391-0.969-1.173v-6.493c0-0.783,0.323-1.174,0.969-1.174
		s0.969,0.391,0.969,1.174v6.493C46.427,150.33,46.104,150.721,45.458,150.721z M45.458,152.421c0.918,0,1.621-0.261,2.108-0.782
		s0.731-1.258,0.731-2.209v-6.257c0-0.952-0.244-1.688-0.731-2.21s-1.19-0.781-2.108-0.781s-1.621,0.26-2.108,0.781
		s-0.731,1.258-0.731,2.21v6.257c0,0.951,0.244,1.688,0.731,2.209S44.54,152.421,45.458,152.421z M38.76,152.421
		c0.906,0,1.598-0.258,2.074-0.773s0.714-1.255,0.714-2.218v-3.894h-2.703v1.7h0.935v2.328c0,0.771-0.323,1.156-0.969,1.156
		s-0.969-0.385-0.969-1.156v-6.51c0-0.783,0.323-1.174,0.969-1.174s0.969,0.391,0.969,1.174v1.139h1.768v-1.021
		c0-0.963-0.238-1.702-0.714-2.218s-1.167-0.773-2.074-0.773c-0.907,0-1.598,0.258-2.074,0.773s-0.714,1.255-0.714,2.218v6.257
		c0,0.963,0.238,1.702,0.714,2.218S37.853,152.421,38.76,152.421z"/>
	<path fill="#FFFFFF" d="M125.57,163.922c0.169-0.868,0.254-1.758,0.254-2.669c0-0.85-0.071-1.667-0.213-2.454
		c-0.142-0.785-0.334-1.469-0.578-2.048h-0.752c0.254,0.605,0.453,1.308,0.598,2.104s0.217,1.626,0.217,2.485
		c0,0.928-0.095,1.827-0.285,2.7s-0.447,1.636-0.77,2.29h0.791C125.154,165.592,125.4,164.789,125.57,163.922z M122.449,156.751
		c-0.237,0-0.439,0.05-0.607,0.149c-0.168,0.099-0.287,0.23-0.356,0.393s-0.104,0.435-0.104,0.815v0.83h-0.699v0.591h0.699v4.722
		h0.684l0.004-4.722h1.109v-0.591h-1.109v-0.718c0-0.303,0.012-0.489,0.035-0.559l0.166-0.186c0.088-0.055,0.198-0.081,0.332-0.081
		c0.179,0,0.394,0.054,0.645,0.161v-0.669C122.937,156.797,122.671,156.751,122.449,156.751z M119.31,156.751
		c-0.238,0-0.44,0.05-0.608,0.149c-0.167,0.099-0.287,0.23-0.356,0.393s-0.105,0.435-0.105,0.815v0.83h-0.698v0.591h0.698v4.722
		h0.684l0.004-4.722h1.109v-0.591h-1.109l0-0.718c0-0.303,0.011-0.489,0.034-0.559l0.166-0.186c0.088-0.055,0.199-0.081,0.332-0.081
		c0.179,0,0.394,0.054,0.645,0.161v-0.669C119.797,156.797,119.531,156.751,119.31,156.751z M115.143,160.08
		c0.405,0.413,0.607,0.928,0.607,1.541c0,0.404-0.09,0.766-0.271,1.088c-0.181,0.322-0.438,0.577-0.773,0.766
		c-0.335,0.189-0.689,0.283-1.063,0.283c-0.371,0-0.718-0.096-1.042-0.285c-0.323-0.19-0.581-0.456-0.773-0.798
		c-0.192-0.341-0.288-0.698-0.288-1.073c0-0.377,0.095-0.734,0.285-1.072c0.19-0.338,0.446-0.602,0.768-0.788
		c0.322-0.187,0.673-0.28,1.054-0.28C114.24,159.461,114.738,159.668,115.143,160.08z M115.707,158.938v0.977
		c-0.267-0.371-0.577-0.649-0.93-0.835s-0.748-0.278-1.184-0.278c-0.755,0-1.401,0.272-1.938,0.815s-0.806,1.197-0.806,1.963
		c0,0.781,0.266,1.444,0.798,1.99c0.532,0.545,1.174,0.817,1.926,0.817c0.423,0,0.813-0.088,1.169-0.264s0.678-0.438,0.964-0.786
		v0.913h0.674v-5.313H115.707z M108.294,158.938h-0.933v0.591h0.933v4.722h0.684v-4.722h1.084v-0.591h-1.084v-1.973h-0.684V158.938z
		 M105.011,158.802c-0.421,0-0.769,0.134-1.044,0.4c-0.275,0.267-0.413,0.603-0.413,1.006c0,0.31,0.086,0.585,0.259,0.825
		s0.499,0.484,0.979,0.732c0.447,0.229,0.734,0.416,0.861,0.566c0.127,0.152,0.191,0.327,0.191,0.522
		c0,0.237-0.096,0.444-0.289,0.62c-0.193,0.176-0.426,0.264-0.7,0.264c-0.392,0-0.762-0.197-1.111-0.591l-0.43,0.488
		c0.183,0.234,0.413,0.419,0.692,0.552s0.571,0.2,0.878,0.2c0.459,0,0.843-0.151,1.149-0.454c0.307-0.303,0.46-0.672,0.46-1.108
		c0-0.31-0.09-0.587-0.269-0.835c-0.183-0.244-0.528-0.498-1.038-0.762c-0.417-0.215-0.691-0.402-0.822-0.562
		c-0.13-0.156-0.196-0.321-0.196-0.493c0-0.195,0.079-0.366,0.237-0.513s0.349-0.22,0.57-0.22c0.349,0,0.707,0.178,1.072,0.532
		l0.439-0.454C105.992,159.041,105.5,158.802,105.011,158.802z M97.782,164.251h0.698v-1.797c0-0.921,0.042-1.533,0.127-1.836
		c0.111-0.394,0.272-0.685,0.483-0.872c0.211-0.187,0.431-0.28,0.659-0.28c0.098,0,0.218,0.03,0.361,0.093l0.356-0.576
		c-0.215-0.121-0.417-0.181-0.605-0.181c-0.25,0-0.492,0.075-0.723,0.228c-0.231,0.15-0.451,0.379-0.659,0.686v-0.776h-0.698
		V164.251z M91.874,161.497c0,0.755,0.085,1.321,0.256,1.696c0.171,0.377,0.43,0.67,0.776,0.879
		c0.347,0.211,0.779,0.315,1.296,0.315s0.948-0.104,1.292-0.315c0.343-0.209,0.601-0.5,0.771-0.871s0.256-0.923,0.256-1.655v-2.607
		h-0.698v2.48c0,0.664-0.034,1.099-0.103,1.304c-0.101,0.299-0.285,0.541-0.55,0.725c-0.266,0.185-0.589,0.276-0.971,0.276
		s-0.71-0.095-0.985-0.283s-0.462-0.446-0.56-0.771c-0.065-0.228-0.098-0.645-0.098-1.25v-2.48h-0.684V161.497z M89.388,160.101
		c0.41,0.42,0.615,0.928,0.615,1.523c0,0.384-0.093,0.742-0.279,1.074s-0.438,0.589-0.754,0.769
		c-0.317,0.182-0.665,0.271-1.044,0.271s-0.727-0.09-1.044-0.271c-0.317-0.18-0.568-0.437-0.754-0.769s-0.279-0.69-0.279-1.074
		c0-0.596,0.204-1.104,0.612-1.523c0.409-0.42,0.897-0.63,1.465-0.63C88.491,159.471,88.979,159.681,89.388,160.101z
		 M85.889,159.695c-0.489,0.541-0.734,1.178-0.734,1.914c0,0.742,0.258,1.391,0.775,1.945c0.517,0.556,1.183,0.833,1.998,0.833
		c0.812,0,1.477-0.277,1.993-0.833c0.517-0.555,0.775-1.203,0.775-1.945c0-0.738-0.245-1.379-0.734-1.919
		c-0.538-0.593-1.216-0.889-2.035-0.889C87.106,158.802,86.427,159.1,85.889,159.695z M81.662,163.849l-1.023,2.346h0.722
		l3.169-7.256h-0.728l-1.773,4.091l-1.826-4.091h-0.723L81.662,163.849z M74.017,164.251h0.698v-1.797
		c0-0.921,0.042-1.533,0.127-1.836c0.111-0.394,0.272-0.685,0.483-0.872c0.211-0.187,0.431-0.28,0.659-0.28
		c0.098,0,0.218,0.03,0.361,0.093l0.356-0.576c-0.215-0.121-0.417-0.181-0.605-0.181c-0.25,0-0.492,0.075-0.723,0.228
		c-0.231,0.15-0.451,0.379-0.659,0.686v-0.776h-0.698V164.251z M71.703,160.101c0.41,0.42,0.615,0.928,0.615,1.523
		c0,0.384-0.093,0.742-0.279,1.074s-0.438,0.589-0.754,0.769c-0.317,0.182-0.665,0.271-1.044,0.271s-0.727-0.09-1.044-0.271
		c-0.317-0.18-0.568-0.437-0.754-0.769s-0.279-0.69-0.279-1.074c0-0.596,0.204-1.104,0.612-1.523c0.409-0.42,0.897-0.63,1.465-0.63
		C70.805,159.471,71.293,159.681,71.703,160.101z M68.203,159.695c-0.489,0.541-0.734,1.178-0.734,1.914
		c0,0.742,0.258,1.391,0.775,1.945c0.517,0.556,1.183,0.833,1.998,0.833c0.812,0,1.477-0.277,1.993-0.833
		c0.517-0.555,0.775-1.203,0.775-1.945c0-0.738-0.245-1.379-0.734-1.919c-0.538-0.593-1.216-0.889-2.035-0.889
		C69.421,158.802,68.741,159.1,68.203,159.695z M65.98,156.751c-0.238,0-0.44,0.05-0.608,0.149c-0.167,0.099-0.287,0.23-0.356,0.393
		s-0.105,0.435-0.105,0.815v0.83h-0.698v0.591h0.698v4.722h0.684l0.004-4.722h1.109v-0.591h-1.109l0-0.718
		c0-0.303,0.011-0.489,0.034-0.559l0.166-0.186c0.088-0.055,0.199-0.081,0.332-0.081c0.179,0,0.394,0.054,0.645,0.161v-0.669
		C66.467,156.797,66.201,156.751,65.98,156.751z M59.027,158.938h-0.933v0.591h0.933v4.722h0.684v-4.722h1.084v-0.591H59.71v-1.973
		h-0.684V158.938z M55.743,158.802c-0.421,0-0.769,0.134-1.044,0.4c-0.275,0.267-0.413,0.603-0.413,1.006
		c0,0.31,0.086,0.585,0.259,0.825s0.499,0.484,0.979,0.732c0.447,0.229,0.734,0.416,0.861,0.566
		c0.127,0.152,0.191,0.327,0.191,0.522c0,0.237-0.096,0.444-0.289,0.62c-0.193,0.176-0.426,0.264-0.7,0.264
		c-0.392,0-0.762-0.197-1.111-0.591l-0.43,0.488c0.183,0.234,0.413,0.419,0.692,0.552s0.571,0.2,0.878,0.2
		c0.459,0,0.843-0.151,1.149-0.454c0.307-0.303,0.46-0.672,0.46-1.108c0-0.31-0.09-0.587-0.269-0.835
		c-0.183-0.244-0.528-0.498-1.038-0.762c-0.417-0.215-0.691-0.402-0.822-0.562c-0.13-0.156-0.196-0.321-0.196-0.493
		c0-0.195,0.079-0.366,0.237-0.513s0.349-0.22,0.57-0.22c0.349,0,0.707,0.178,1.072,0.532l0.439-0.454
		C56.725,159.041,56.232,158.802,55.743,158.802z M48.382,161.497c0,0.755,0.085,1.321,0.256,1.696
		c0.171,0.377,0.43,0.67,0.776,0.879c0.347,0.211,0.779,0.315,1.296,0.315s0.948-0.104,1.292-0.315
		c0.343-0.209,0.601-0.5,0.771-0.871s0.256-0.923,0.256-1.655v-2.607h-0.698v2.48c0,0.664-0.034,1.099-0.103,1.304
		c-0.101,0.299-0.285,0.541-0.55,0.725c-0.266,0.185-0.589,0.276-0.971,0.276s-0.71-0.095-0.985-0.283s-0.462-0.446-0.56-0.771
		c-0.065-0.228-0.098-0.645-0.098-1.25v-2.48h-0.684V161.497z M46.356,164.852c0,0.309-0.028,0.513-0.083,0.61
		c-0.091,0.153-0.229,0.229-0.415,0.229c-0.146,0-0.311-0.047-0.493-0.142v0.615c0.29,0.11,0.55,0.166,0.781,0.166
		c0.28,0,0.5-0.102,0.662-0.306c0.161-0.203,0.242-0.527,0.242-0.974v-6.113h-0.693V164.852z M46.295,156.917
		c-0.109,0.11-0.164,0.244-0.164,0.4c0,0.153,0.055,0.284,0.164,0.396s0.242,0.166,0.398,0.166s0.289-0.055,0.398-0.166
		s0.164-0.242,0.164-0.396c0-0.156-0.055-0.29-0.164-0.4s-0.242-0.166-0.398-0.166S46.404,156.807,46.295,156.917z M43.543,159.16
		c-0.169,0.868-0.254,1.76-0.254,2.674c0,0.85,0.072,1.666,0.215,2.451s0.335,1.467,0.576,2.046h0.752
		c-0.254-0.605-0.453-1.308-0.598-2.104s-0.217-1.626-0.217-2.485c0-0.928,0.096-1.827,0.288-2.7s0.448-1.636,0.767-2.29h-0.791
		C43.958,157.49,43.713,158.293,43.543,159.16z"/>
</g>
<g>
	<path fill-rule="evenodd" clip-rule="evenodd" fill="#058C45" d="M132.47,118.19c-30.046-0.018-60.093-0.036-90.14-0.054
		c-1.007-0.001-2.015,0-3.479,0c1.508-2.659,2.763-5.109,4.286-7.381c0.354-0.528,1.622-0.613,2.469-0.614
		c21.16-0.033,42.32-0.025,63.48-0.025c5.332,0,10.666,0.059,15.996-0.038c1.518-0.027,2.47,0.383,3.312,1.678
		c1.229,1.89,2.706,3.621,4.076,5.419C132.47,117.513,132.47,117.853,132.47,118.19z"/>
	<path fill-rule="evenodd" clip-rule="evenodd" fill="#058C45" d="M114.7,104.224c3.271,0.328,6.056,0.456,8.767,0.979
		c0.732,0.142,1.232,1.483,2.217,2.766c-4.949-0.36-9.404,0.821-13.809-1.063c-8.225-3.517-16.538-6.824-24.771-10.322
		c-1.601-0.68-2.933-0.746-4.546-0.063c-6.839,2.897-13.857,5.401-20.562,8.573c-5.488,2.596-11.054,3.403-17.058,2.681
		c0.542-2.225,1.695-3.349,4.323-3.301c5.449,0.097,5.452-0.052,5.452-5.57c0-3.555,0.105-7.114-0.044-10.665
		c-0.073-1.726,0.557-2.86,2.056-3.326c5.215-1.619,10.381-3.602,15.725-4.557c11.991-2.139,23.914-1.208,35.588,2.323
		c6.666,2.016,6.65,2.075,6.662,8.983C114.706,95.871,114.7,100.077,114.7,104.224z M78.56,89.467c0-1.683,0.176-3.394-0.078-5.036
		c-0.119-0.771-1.07-1.413-1.645-2.114c-0.592,0.674-1.658,1.319-1.697,2.023c-0.183,3.272-0.183,6.566-0.003,9.839
		c0.041,0.737,1.061,1.421,1.63,2.13c0.597-0.682,1.577-1.297,1.709-2.06C78.745,92.697,78.556,91.065,78.56,89.467z M98.926,90.737
		c0,1.693-0.182,3.415,0.08,5.066c0.121,0.757,1.113,1.375,1.709,2.057c0.561-0.637,1.57-1.251,1.602-1.914
		c0.166-3.378,0.166-6.77,0.006-10.147c-0.031-0.646-1.045-1.243-1.605-1.861c-0.598,0.658-1.586,1.251-1.713,1.989
		C98.738,87.489,98.924,89.13,98.926,90.737z M91.054,89.202c0.004,0,0.007,0,0.011,0c0,1.773-0.135,3.562,0.076,5.31
		c0.07,0.579,1.039,1.468,1.582,1.456c0.562-0.011,1.561-0.924,1.584-1.475c0.146-3.539,0.16-7.092-0.006-10.631
		c-0.027-0.6-1.129-1.15-1.734-1.723c-0.504,0.581-1.371,1.121-1.443,1.752C90.923,85.642,91.054,87.429,91.054,89.202z
		 M70.521,90.841c0-1.687,0.152-3.393-0.074-5.049c-0.092-0.673-1.006-1.236-1.547-1.849c-0.562,0.593-1.579,1.163-1.609,1.781
		c-0.161,3.365-0.174,6.746,0,10.109c0.036,0.698,1.08,1.342,1.659,2.011c0.524-0.731,1.382-1.413,1.503-2.208
		C70.692,94.071,70.523,92.443,70.521,90.841z M86.368,88.422c0-1.604,0.162-3.232-0.077-4.799
		c-0.102-0.655-1.057-1.179-1.623-1.764c-0.516,0.55-1.453,1.084-1.479,1.655c-0.144,3.285-0.158,6.585,0.006,9.867
		c0.03,0.622,1.061,1.192,1.631,1.787c0.516-0.646,1.376-1.242,1.477-1.947C86.527,91.65,86.373,90.024,86.368,88.422z
		 M62.511,93.565c0-1.516,0.161-3.057-0.072-4.536c-0.107-0.683-0.984-1.245-1.511-1.862c-0.56,0.584-1.57,1.147-1.604,1.761
		c-0.164,3.106-0.164,6.231,0.002,9.338c0.031,0.598,1.062,1.141,1.631,1.708c0.519-0.619,1.379-1.188,1.485-1.872
		C62.673,96.62,62.514,95.08,62.511,93.565z M110.21,93.549c0-1.516,0.159-3.055-0.071-4.532c-0.105-0.679-0.979-1.239-1.502-1.852
		c-0.544,0.594-1.525,1.164-1.558,1.783c-0.161,3.104-0.16,6.228,0.003,9.332c0.031,0.592,1.055,1.131,1.62,1.694
		c0.501-0.543,1.358-1.04,1.436-1.64C110.342,96.763,110.207,95.146,110.21,93.549z"/>
	<path fill-rule="evenodd" clip-rule="evenodd" fill="#058C45" d="M103.438,55.458c-6.234-0.811-12.619-2.295-19.002-2.284
		c-6.4,0.008-12.798,1.508-19.1,2.343c0.077-6.687,6.948-16.72,13.753-19.248c4.863-1.806,9.468-1.086,13.714,1.829
		C97.895,41.595,102.693,49.7,103.438,55.458z"/>
	<path fill-rule="evenodd" clip-rule="evenodd" fill="#058C45" d="M64.299,74.267c-1.904,0.585-3.588,1.1-5.518,1.691
		c0-2.271-0.185-4.389,0.086-6.446c0.118-0.893,1.011-2.099,1.837-2.414c4.854-1.854,9.676-4.065,14.726-5.067
		c9.176-1.817,18.326-0.881,27.188,2.292c0.635,0.227,1.277,0.44,1.894,0.713c5.954,2.612,6.53,3.606,5.909,10.488
		c-1.938-0.534-3.825-1.058-5.837-1.614c0-1.601,0.109-3.13-0.06-4.626c-0.061-0.528-0.802-0.979-1.232-1.465
		c-0.449,0.477-1.203,0.905-1.287,1.438c-0.191,1.234-0.061,2.52-0.061,4.01c-1.155-0.178-2.174-0.335-3.516-0.541
		c0-1.501,0.148-3.021-0.059-4.492c-0.115-0.822-0.82-1.563-1.26-2.339c-0.467,0.738-1.199,1.43-1.337,2.226
		c-0.224,1.291-0.061,2.651-0.061,4.16c-1.35-0.197-2.405-0.351-3.659-0.533c0-1.865,0.096-3.642-0.057-5.396
		c-0.049-0.551-0.767-1.044-1.178-1.563c-0.504,0.53-1.371,1.015-1.44,1.597c-0.198,1.647-0.069,3.336-0.069,5.069
		c-1.27,0-2.26,0-3.531,0c0-1.936,0.113-3.781-0.066-5.599c-0.057-0.576-0.896-1.073-1.377-1.607
		c-0.404,0.524-1.107,1.022-1.155,1.577c-0.149,1.759-0.056,3.539-0.056,5.533c-1.121,0.15-2.154,0.289-3.522,0.471
		c0-1.901,0.124-3.588-0.063-5.237c-0.071-0.631-0.852-1.181-1.31-1.768c-0.475,0.558-1.188,1.048-1.368,1.688
		c-0.242,0.864-0.079,1.845-0.083,2.775c-0.012,3.04-0.159,3.167-3.59,2.866c0-1.493,0.131-3.025-0.062-4.513
		c-0.082-0.629-0.846-1.169-1.3-1.748c-0.452,0.597-1.218,1.157-1.294,1.8c-0.189,1.582-0.062,3.202-0.062,5.101
		c-1.093,0.246-2.166,0.486-3.51,0.788c0-1.652,0.128-3.014-0.063-4.329c-0.076-0.523-0.858-0.944-1.318-1.412
		c-0.426,0.493-1.165,0.953-1.22,1.486C64.195,70.913,64.299,72.527,64.299,74.267z"/>
	<path fill-rule="evenodd" clip-rule="evenodd" fill="#058C45" d="M61.034,107.805c7.738-3.171,14.901-6.151,22.115-9.006
		c0.909-0.358,2.203-0.375,3.105-0.017c7.213,2.861,14.374,5.852,22.085,9.022C92.396,107.805,77.006,107.805,61.034,107.805z"/>
	<path fill-rule="evenodd" clip-rule="evenodd" fill="#058C45" d="M117.673,84.171c-21.768-9.552-43.252-9.638-64.893-0.095
		c-0.69-1.83,0.533-2.926,2.229-3.854c5.952-3.253,12.475-4.641,19.071-5.586c11.876-1.701,23.585-0.733,35.011,2.983
		c2.229,0.727,4.321,1.872,6.459,2.861C117.31,81.297,118.094,82.632,117.673,84.171z"/>
	<path fill-rule="evenodd" clip-rule="evenodd" fill="#058C45" d="M56.85,66.459c-0.148-1.97,0.805-3.547,2.696-4.764
		c6.285-4.041,13.356-5.665,20.606-6.346c8.623-0.812,17.007,0.664,24.996,4.055c1.694,0.72,3.252,1.775,4.832,2.745
		c1.754,1.076,2.59,2.592,2.065,4.349C93.633,56.229,75.335,56.282,56.85,66.459z"/>
	<path fill-rule="evenodd" clip-rule="evenodd" fill="#058C45" d="M88.346,33.151c-2.633,0-4.883,0-7.385,0
		c0-2.49-0.226-4.948,0.067-7.344c0.269-2.198,2.273-2.199,3.969-2.102c1.476,0.087,3.255,0.05,3.331,2.221
		C88.408,28.276,88.346,30.632,88.346,33.151z"/>
	<path fill-rule="evenodd" clip-rule="evenodd" fill="#058C45" d="M85.916,21.992c-1.131,0-1.773,0-2.857,0
		c0.318-3.735,0.628-7.376,0.938-11.015c0.28-0.007,0.562-0.012,0.842-0.02C85.188,14.533,85.536,18.108,85.916,21.992z"/>
</g>
</svg>
