<?xml version="1.0" encoding="utf-8"?>
<!-- Generator: Adobe Illustrator 16.0.0, SVG Export Plug-In . SVG Version: 6.00 Build 0)  -->
<!DOCTYPE svg PUBLIC "-//W3C//DTD SVG 1.1//EN" "http://www.w3.org/Graphics/SVG/1.1/DTD/svg11.dtd">
<svg version="1.1" id="Layer_1" xmlns="http://www.w3.org/2000/svg" xmlns:xlink="http://www.w3.org/1999/xlink" x="0px" y="0px"
	 width="163.5px" height="187.5px" viewBox="0 0 163.5 187.5" enable-background="new 0 0 163.5 187.5" xml:space="preserve">
<rect x="5" y="6" fill-rule="evenodd" clip-rule="evenodd" fill="#FFFFFF" stroke="#068C45" stroke-width="2" stroke-miterlimit="10" width="155" height="177"/>
<rect x="6" y="126" fill-rule="evenodd" clip-rule="evenodd" fill="#058C45" width="155" height="56"/>
<g>
	<path fill="#FFFFFF" d="M96.244,151.594h2.09v-11.4h2.185v-1.899h-6.46v1.899h2.185V151.594z M89.081,143.994v-3.801h0.95
		c0.367,0,0.637,0.108,0.808,0.323c0.171,0.216,0.256,0.563,0.256,1.045v1.026c0,0.507-0.104,0.867-0.313,1.083
		s-0.522,0.323-0.94,0.323H89.081z M86.991,151.594h2.09v-5.7h0.722c0.481,0,0.82,0.12,1.017,0.361s0.294,0.665,0.294,1.272v2.433
		c0,0.493,0.013,0.836,0.038,1.026c0.025,0.189,0.076,0.393,0.152,0.607h2.128c-0.102-0.229-0.165-0.459-0.19-0.693
		s-0.038-0.541-0.038-0.922v-2.337c0-0.785-0.104-1.412-0.313-1.881c-0.209-0.468-0.567-0.778-1.074-0.931v-0.038
		c0.912-0.368,1.368-1.241,1.368-2.622v-0.817c0-1.038-0.247-1.808-0.741-2.308c-0.494-0.501-1.279-0.751-2.356-0.751h-3.097
		V151.594z M82.412,149.884c-0.722,0-1.083-0.437-1.083-1.312v-7.258c0-0.873,0.361-1.311,1.083-1.311
		c0.722,0,1.083,0.438,1.083,1.311v7.258C83.495,149.447,83.134,149.884,82.412,149.884z M82.412,151.783
		c1.026,0,1.812-0.291,2.356-0.873c0.545-0.583,0.817-1.406,0.817-2.471v-6.992c0-1.063-0.272-1.887-0.817-2.47
		c-0.544-0.582-1.33-0.874-2.356-0.874c-1.026,0-1.812,0.292-2.356,0.874c-0.544,0.583-0.817,1.406-0.817,2.47v6.992
		c0,1.064,0.272,1.888,0.817,2.471C80.601,151.492,81.386,151.783,82.412,151.783z M74.147,144.279v-4.086h0.988
		c0.342,0,0.599,0.096,0.77,0.285c0.171,0.19,0.256,0.514,0.256,0.969v1.578c0,0.455-0.085,0.778-0.256,0.969
		c-0.171,0.189-0.427,0.285-0.77,0.285H74.147z M72.057,151.594h2.09v-5.415h0.988c1.039,0,1.817-0.278,2.337-0.836
		s0.779-1.374,0.779-2.451v-1.312c0-1.076-0.26-1.893-0.779-2.45s-1.298-0.836-2.337-0.836h-3.078V151.594z M67.707,151.783
		c1.026,0,1.808-0.291,2.346-0.873c0.539-0.583,0.808-1.419,0.808-2.508c0-0.836-0.165-1.564-0.494-2.186
		c-0.329-0.621-0.931-1.311-1.805-2.071c-0.684-0.595-1.156-1.102-1.416-1.52c-0.26-0.419-0.39-0.868-0.39-1.349
		c0-0.85,0.348-1.273,1.045-1.273c0.342,0,0.602,0.104,0.779,0.313c0.177,0.209,0.266,0.542,0.266,0.997v0.684h1.976v-0.551
		c0-1.076-0.256-1.902-0.77-2.479c-0.513-0.576-1.27-0.865-2.271-0.865c-1.013,0-1.786,0.289-2.318,0.865
		c-0.532,0.576-0.798,1.39-0.798,2.441c0,0.772,0.171,1.466,0.513,2.08c0.342,0.615,0.943,1.302,1.805,2.062
		c0.684,0.596,1.152,1.105,1.406,1.529c0.253,0.425,0.38,0.915,0.38,1.473c0,0.469-0.092,0.808-0.275,1.017
		c-0.184,0.209-0.453,0.313-0.808,0.313c-0.722,0-1.083-0.431-1.083-1.292v-0.912h-1.976v0.76c0,1.077,0.259,1.903,0.779,2.48
		C65.927,151.496,66.693,151.783,67.707,151.783z"/>
	<path fill="#FFFFFF" d="M123.423,170.584c1.026,0,1.808-0.291,2.347-0.875c0.538-0.582,0.807-1.418,0.807-2.508
		c0-0.836-0.164-1.564-0.494-2.185c-0.328-0.62-0.93-1.312-1.805-2.071c-0.684-0.596-1.156-1.102-1.415-1.52
		c-0.26-0.418-0.39-0.867-0.39-1.35c0-0.848,0.348-1.272,1.045-1.272c0.342,0,0.602,0.104,0.779,0.313s0.266,0.541,0.266,0.998
		v0.684h1.977v-0.551c0-1.077-0.257-1.903-0.77-2.48c-0.514-0.576-1.271-0.864-2.271-0.864c-1.013,0-1.785,0.288-2.317,0.864
		c-0.532,0.577-0.798,1.391-0.798,2.441c0,0.773,0.171,1.467,0.513,2.081s0.944,1.302,1.805,2.062
		c0.684,0.596,1.152,1.105,1.406,1.529c0.252,0.425,0.379,0.916,0.379,1.473c0,0.469-0.092,0.808-0.275,1.017
		s-0.453,0.313-0.807,0.313c-0.723,0-1.084-0.431-1.084-1.292v-0.912h-1.976v0.761c0,1.076,0.259,1.902,0.778,2.479
		C121.643,170.295,122.409,170.584,123.423,170.584z M112.593,170.394h1.862v-9.709h0.038l2.508,9.709h2.147v-13.3h-1.862v7.961
		h-0.038l-2.033-7.961h-2.622V170.394z M108.014,168.684c-0.722,0-1.083-0.438-1.083-1.311v-7.258c0-0.875,0.361-1.312,1.083-1.312
		c0.722,0,1.083,0.437,1.083,1.312v7.258C109.097,168.246,108.736,168.684,108.014,168.684z M108.014,170.584
		c1.026,0,1.812-0.291,2.356-0.875c0.545-0.582,0.817-1.405,0.817-2.469v-6.992c0-1.064-0.272-1.888-0.817-2.471
		c-0.544-0.582-1.33-0.874-2.356-0.874c-1.026,0-1.812,0.292-2.356,0.874c-0.544,0.583-0.817,1.406-0.817,2.471v6.992
		c0,1.063,0.272,1.887,0.817,2.469C106.202,170.293,106.988,170.584,108.014,170.584z M101.345,170.394h2.09v-13.3h-2.09V170.394z
		 M96.063,170.394h2.09v-11.399h2.185v-1.9h-6.46v1.9h2.185V170.394z M89.698,165.985l0.912-6.573h0.038l0.931,6.573H89.698z
		 M87.133,170.394h1.938l0.38-2.603h2.375v-0.039l0.38,2.642h2.09l-2.166-13.3h-2.831L87.133,170.394z M80.388,170.394h6.118v-1.899
		H82.63l3.876-9.539v-1.861h-5.928v1.9h3.686l-3.876,9.537V170.394z M77.158,170.394h2.09v-13.3h-2.09V170.394z M69.045,170.394
		h1.862v-9.709h0.038l2.508,9.709h2.147v-13.3h-1.862v7.961h-0.038l-2.033-7.961h-2.622V170.394z M63.441,165.985l0.912-6.573h0.038
		l0.931,6.573H63.441z M60.876,170.394h1.938l0.38-2.603h2.375v-0.039l0.38,2.642h2.09l-2.166-13.3h-2.831L60.876,170.394z
		 M56.962,170.584c1.013,0,1.786-0.289,2.318-0.865c0.532-0.576,0.798-1.402,0.798-2.479v-4.352h-3.021v1.9h1.045v2.603
		c0,0.861-0.361,1.292-1.083,1.292c-0.722,0-1.083-0.431-1.083-1.292v-7.276c0-0.875,0.361-1.312,1.083-1.312
		c0.722,0,1.083,0.437,1.083,1.312v1.272h1.976v-1.14c0-1.077-0.266-1.903-0.798-2.48c-0.532-0.576-1.305-0.864-2.318-0.864
		c-1.014,0-1.786,0.288-2.318,0.864c-0.532,0.577-0.798,1.403-0.798,2.48v6.992c0,1.076,0.266,1.902,0.798,2.479
		C55.176,170.295,55.949,170.584,56.962,170.584z M48.432,162.793v-3.799h0.95c0.367,0,0.637,0.107,0.808,0.322
		c0.171,0.216,0.256,0.564,0.256,1.045v1.026c0,0.507-0.104,0.868-0.313,1.083s-0.522,0.322-0.94,0.322H48.432z M46.341,170.394
		h2.09v-5.7h0.722c0.481,0,0.82,0.121,1.017,0.361s0.294,0.665,0.294,1.273v2.432c0,0.494,0.013,0.836,0.038,1.025
		c0.025,0.19,0.076,0.393,0.152,0.608h2.128c-0.102-0.228-0.165-0.459-0.19-0.693s-0.038-0.542-0.038-0.922v-2.337
		c0-0.785-0.104-1.412-0.313-1.881s-0.567-0.779-1.074-0.932v-0.037c0.912-0.367,1.368-1.242,1.368-2.622v-0.817
		c0-1.038-0.247-1.808-0.741-2.309c-0.494-0.5-1.279-0.75-2.356-0.75h-3.097V170.394z M41.762,168.684
		c-0.722,0-1.083-0.438-1.083-1.311v-7.258c0-0.875,0.361-1.312,1.083-1.312c0.722,0,1.083,0.437,1.083,1.312v7.258
		C42.845,168.246,42.484,168.684,41.762,168.684z M41.762,170.584c1.026,0,1.812-0.291,2.356-0.875
		c0.545-0.582,0.817-1.405,0.817-2.469v-6.992c0-1.064-0.272-1.888-0.817-2.471c-0.544-0.582-1.33-0.874-2.356-0.874
		c-1.026,0-1.812,0.292-2.356,0.874c-0.544,0.583-0.817,1.406-0.817,2.471v6.992c0,1.063,0.272,1.887,0.817,2.469
		C39.951,170.293,40.736,170.584,41.762,170.584z"/>
</g>
<g>
	<g>
		<path fill-rule="evenodd" clip-rule="evenodd" fill="#058C45" d="M91.771,42.224c2.423,0.929,4.803,1.77,7.123,2.75
			c2.506,1.06,4.809,2.47,6.732,4.437c2.758,2.819,3.91,6.294,4.094,10.142c0.074,1.557,0.043,3.119,0.025,4.679
			c-0.003,0.249-0.137,0.532-0.291,0.739c-5.513,7.349-12.789,11.807-21.957,12.64c-12.069,1.099-21.681-3.516-28.816-13.295
			c-0.202-0.275-0.318-0.68-0.323-1.027c-0.031-2.486-0.044-4.971,0.412-7.438c0.795-4.307,3.066-7.547,6.885-9.7
			c3.337-1.882,6.984-2.886,10.717-3.829c2.03,4.771,4.045,9.502,6.059,14.233c0.038-0.005,0.076-0.006,0.113-0.008
			c0.017-0.137,0.047-0.27,0.048-0.404c0.012-1.955,0.045-3.911,0.01-5.864c-0.009-0.515-0.217-1.032-0.373-1.535
			c-0.178-0.577-0.399-1.143-0.621-1.771c1.888,0,3.678,0,5.564,0c-0.274,0.766-0.548,1.476-0.78,2.201
			c-0.107,0.333-0.184,0.689-0.186,1.035c-0.018,2.129-0.009,4.258,0.133,6.429C88.127,51.894,89.915,47.15,91.771,42.224z"/>
		<path fill-rule="evenodd" clip-rule="evenodd" fill="#058C45" d="M54.876,74.444c-1.782,1.415-3.458,2.73-5.108,4.078
			c-0.136,0.112-0.175,0.458-0.126,0.664c1.01,4.253-6.464-6.632-3.52-4.788c0.459,0.288,0.717,0.242,1.113-0.077
			c2.627-2.12,5.276-4.215,7.918-6.315c0.153-0.121,0.312-0.236,0.499-0.378c7.085,9.612,16.51,14.958,28.493,14.969
			c11.989,0.01,21.42-5.325,28.544-14.963c0.17,0.125,0.344,0.243,0.508,0.375c2.705,2.149,5.413,4.296,8.105,6.461
			c0.372,0.299-2.207,4.519-2.188,4.447c-1.874-1.486-3.715-2.949-5.653-4.487c-1.005,1.035-1.921,2.101-2.96,3.031
			c-6.642,5.938-14.418,9.264-23.297,9.997c-0.438,0.035-0.615,0.132-0.607,0.613c0.029,1.776,0.025,3.555,0.002,5.331
			c-0.004,0.405,0.133,0.574,0.506,0.722c3.541,1.396-9.16,1.508-5.9,0.108c0.404-0.174,0.562-0.37,0.555-0.82
			c-0.027-1.777-0.021-3.554-0.004-5.332c0.004-0.406-0.078-0.578-0.539-0.618c-10.244-0.854-18.884-5.046-25.941-12.511
			C55.142,74.809,55.032,74.643,54.876,74.444z"/>
		<path fill-rule="evenodd" clip-rule="evenodd" fill="#058C45" d="M72.934,28.662c0.069-3.86,1.232-7.36,4.055-10.179
			c4.165-4.158,10.298-4.164,14.466-0.013c2.694,2.684,3.987,6.018,4.023,9.767c0.054,5.281-1.734,9.943-5.212,13.923
			c-0.616,0.705-1.362,1.327-2.137,1.857c-2.567,1.753-5.281,1.727-7.856-0.013c-1.839-1.242-3.188-2.932-4.297-4.822
			C74.084,35.954,73.027,32.479,72.934,28.662z"/>
	</g>
	<g>
		<path fill-rule="evenodd" clip-rule="evenodd" fill="#058C45" d="M83.213,92.211c7.396,0.003,13.357,5.999,13.344,13.423
			c-0.014,7.263-6.023,13.22-13.315,13.22c-7.276,0-13.347-5.911-13.327-13.398C69.934,98.199,75.943,92.208,83.213,92.211z
			 M87.256,94.16c0.021-0.01,0.045-0.021,0.068-0.035c0.002-0.002,0-0.012,0-0.018C87.301,94.124,87.277,94.142,87.256,94.16
			c0.675,0.52,1.071,1.251,1.442,1.983c0.917,1.811,1.431,3.741,1.591,5.765c0.008,0.117-0.044,0.268,0.088,0.336
			c0.146,0.078,0.27-0.033,0.369-0.12c0.25-0.217,0.522-0.399,0.721-0.69c0.711-1.047,0.879-2.261,1.125-3.455
			c0.037-0.175-0.05-0.291-0.154-0.409c-1.35-1.536-2.97-2.688-4.881-3.423C87.449,94.105,87.352,94.084,87.256,94.16z
			 M86.553,117.246c2.168-0.601,3.994-1.767,5.565-3.359c0.205-0.208,0.327-0.439,0.356-0.715c0.098-0.952,0.134-1.903-0.082-2.844
			c-0.256-1.12-0.721-2.119-1.682-2.82c-0.203-0.146-0.33-0.217-0.361,0.138c-0.08,0.927-0.223,1.845-0.387,2.763
			c-0.282,1.598-0.825,3.078-1.646,4.464c-0.504,0.848-1.176,1.566-1.826,2.302c-0.027,0.022-0.056,0.047-0.084,0.07
			C86.454,117.296,86.502,117.272,86.553,117.246z M81.841,105.214c-1.376,0.049-3.033,0.089-4.69,0.167
			c-1.886,0.089-3.768,0.225-5.637,0.509c-0.326,0.049-0.458,0.152-0.431,0.521c0.183,2.392,1,4.539,2.433,6.452
			c0.32,0.426,0.624,0.882,1.078,1.182c0.734,0.487,1.516,0.383,2.301,0.129c1.534-0.495,2.887-1.333,4.227-2.2
			c2.087-1.352,3.925-2.992,5.675-4.748c0.611-0.611,1.33-1.092,2.229-1.203c0.324-0.04,0.256-0.267,0.272-0.477
			c0.022-0.267-0.146-0.245-0.321-0.255c-0.382-0.019-0.764-0.07-1.146-0.071C85.929,105.21,84.025,105.214,81.841,105.214z
			 M71.092,104.498c-0.054,0.229,0.011,0.343,0.385,0.269c1.131-0.223,2.283-0.305,3.43-0.386c4.003-0.287,8.012-0.354,12.024-0.279
			c0.704,0.013,1.407,0.039,2.11,0.067c0.164,0.006,0.282-0.024,0.242-0.218c-0.036-0.17,0.13-0.418-0.178-0.493
			c-0.902-0.219-1.646-0.716-2.316-1.334c-1.071-0.989-2.113-2.01-3.303-2.862c-1.811-1.297-3.756-2.321-5.892-2.964
			c-1.03-0.312-2.075-0.169-2.822,0.531C72.594,98.866,71.413,101.438,71.092,104.498z M76.3,115.475
			c0.042,0.072,0.05,0.105,0.073,0.122c2.25,1.515,4.73,2.229,7.444,2.107c0.153-0.006,0.301-0.021,0.431-0.126
			c1.012-0.812,1.959-1.68,2.717-2.739c1.602-2.237,2.093-4.806,2.265-7.478c0.019-0.269-0.093-0.23-0.268-0.177
			c-0.609,0.182-1.101,0.553-1.524,0.997c-1.923,2.011-4.061,3.75-6.424,5.213C79.549,114.3,78.055,115.147,76.3,115.475z
			 M89.197,102.271c-0.074-1.215-0.269-2.347-0.585-3.456c-0.603-2.114-1.623-3.942-3.587-5.101
			c-0.252-0.148-0.502-0.303-0.803-0.323c-2.32-0.15-4.527,0.262-6.596,1.343c-0.147,0.077-0.334,0.116-0.431,0.305
			c0.722,0.142,1.394,0.357,2.05,0.615c3.036,1.188,5.657,2.999,7.959,5.295C87.76,101.504,88.369,101.987,89.197,102.271z
			 M93.702,111.723c0.936-1.465,1.577-3.596,1.682-5.3c0.024-0.397-0.094-0.525-0.459-0.593c-1.331-0.244-2.675-0.357-4.023-0.438
			c-0.146-0.008-0.419-0.171-0.445,0.13c-0.022,0.254-0.126,0.547,0.286,0.711c0.791,0.313,1.376,0.899,1.844,1.608
			C93.342,108.994,93.617,110.285,93.702,111.723z M93.541,99.044c-0.113,0.465-0.191,0.869-0.31,1.259
			c-0.409,1.354-1.044,2.546-2.479,3.052c-0.38,0.133-0.334,0.362-0.327,0.633c0.008,0.328,0.266,0.242,0.441,0.255
			c1.422,0.111,2.85,0.187,4.251,0.48c0.293,0.06,0.259-0.108,0.246-0.28c-0.063-0.861-0.241-1.702-0.496-2.523
			C94.559,100.927,94.125,99.987,93.541,99.044z"/>
		<path fill-rule="evenodd" clip-rule="evenodd" fill="#FFFFFF" d="M81.841,105.214c2.185,0,4.088-0.004,5.99,0.005
			c0.382,0.001,0.764,0.053,1.146,0.071c0.176,0.01,0.344-0.012,0.321,0.255c-0.017,0.21,0.052,0.437-0.272,0.477
			c-0.898,0.111-1.617,0.592-2.229,1.203c-1.75,1.756-3.588,3.396-5.675,4.748c-1.34,0.867-2.692,1.705-4.227,2.2
			c-0.785,0.254-1.567,0.358-2.301-0.129c-0.454-0.3-0.758-0.756-1.078-1.182c-1.433-1.913-2.25-4.061-2.433-6.452
			c-0.027-0.368,0.105-0.472,0.431-0.521c1.869-0.284,3.75-0.42,5.637-0.509C78.808,105.303,80.465,105.263,81.841,105.214z"/>
		<path fill-rule="evenodd" clip-rule="evenodd" fill="#FFFFFF" d="M71.092,104.498c0.321-3.06,1.502-5.632,3.68-7.669
			c0.747-0.7,1.792-0.843,2.822-0.531c2.136,0.643,4.082,1.667,5.892,2.964c1.189,0.853,2.231,1.873,3.303,2.862
			c0.67,0.618,1.414,1.115,2.316,1.334c0.308,0.075,0.142,0.323,0.178,0.493c0.04,0.193-0.078,0.224-0.242,0.218
			c-0.703-0.028-1.406-0.055-2.11-0.067c-4.012-0.074-8.021-0.008-12.024,0.279c-1.146,0.081-2.299,0.163-3.43,0.386
			C71.103,104.841,71.039,104.727,71.092,104.498z"/>
		<path fill-rule="evenodd" clip-rule="evenodd" fill="#FFFFFF" d="M76.3,115.475c1.755-0.327,3.249-1.175,4.713-2.08
			c2.364-1.463,4.501-3.202,6.424-5.213c0.424-0.444,0.915-0.815,1.524-0.997c0.175-0.054,0.286-0.092,0.268,0.177
			c-0.172,2.672-0.663,5.24-2.265,7.478c-0.758,1.06-1.705,1.928-2.717,2.739c-0.13,0.105-0.277,0.12-0.431,0.126
			c-2.714,0.121-5.194-0.593-7.444-2.107C76.351,115.58,76.342,115.547,76.3,115.475z"/>
		<path fill-rule="evenodd" clip-rule="evenodd" fill="#FFFFFF" d="M89.197,102.271c-0.828-0.283-1.438-0.767-1.992-1.322
			c-2.302-2.296-4.923-4.106-7.959-5.295c-0.657-0.258-1.328-0.474-2.05-0.615c0.097-0.188,0.284-0.228,0.431-0.305
			c2.069-1.081,4.276-1.493,6.596-1.343c0.301,0.021,0.551,0.175,0.803,0.323c1.964,1.158,2.984,2.986,3.587,5.101
			C88.929,99.924,89.123,101.056,89.197,102.271z"/>
		<path fill-rule="evenodd" clip-rule="evenodd" fill="#FFFFFF" d="M86.49,117.174c0.65-0.735,1.322-1.454,1.826-2.302
			c0.821-1.386,1.364-2.866,1.646-4.464c0.164-0.918,0.307-1.836,0.387-2.763c0.031-0.354,0.158-0.284,0.361-0.138
			c0.961,0.701,1.426,1.7,1.682,2.82c0.216,0.94,0.18,1.892,0.082,2.844c-0.029,0.275-0.151,0.507-0.356,0.715
			c-1.571,1.593-3.397,2.759-5.565,3.359C86.53,117.221,86.51,117.196,86.49,117.174z"/>
		<path fill-rule="evenodd" clip-rule="evenodd" fill="#FFFFFF" d="M87.256,94.162c0.096-0.078,0.193-0.057,0.301-0.016
			c1.911,0.735,3.531,1.887,4.881,3.423c0.104,0.118,0.191,0.234,0.154,0.409c-0.246,1.194-0.414,2.408-1.125,3.455
			c-0.198,0.291-0.471,0.474-0.721,0.69c-0.1,0.087-0.223,0.198-0.369,0.12c-0.132-0.068-0.08-0.219-0.088-0.336
			c-0.16-2.023-0.674-3.954-1.591-5.765c-0.371-0.732-0.768-1.464-1.442-1.984V94.162z"/>
		<path fill-rule="evenodd" clip-rule="evenodd" fill="#FFFFFF" d="M93.702,111.723c-0.085-1.438-0.36-2.729-1.116-3.881
			c-0.468-0.709-1.053-1.295-1.844-1.608c-0.412-0.164-0.309-0.457-0.286-0.711c0.026-0.301,0.3-0.138,0.445-0.13
			c1.349,0.08,2.692,0.193,4.023,0.438c0.365,0.067,0.483,0.195,0.459,0.593C95.279,108.127,94.638,110.258,93.702,111.723z"/>
		<path fill-rule="evenodd" clip-rule="evenodd" fill="#FFFFFF" d="M93.541,99.044c0.584,0.943,1.018,1.883,1.327,2.875
			c0.255,0.821,0.434,1.662,0.496,2.523c0.013,0.172,0.047,0.34-0.246,0.28c-1.401-0.294-2.829-0.369-4.251-0.48
			c-0.176-0.013-0.434,0.073-0.441-0.255c-0.007-0.271-0.053-0.5,0.327-0.633c1.435-0.506,2.069-1.698,2.479-3.052
			C93.35,99.913,93.428,99.509,93.541,99.044z"/>
		<path fill-rule="evenodd" clip-rule="evenodd" fill="#FFFFFF" d="M87.256,94.159c0.021-0.018,0.045-0.035,0.068-0.052
			c0,0.006,0.002,0.016,0,0.018C87.301,94.139,87.277,94.15,87.256,94.159C87.256,94.162,87.256,94.159,87.256,94.159z"/>
		<path fill-rule="evenodd" clip-rule="evenodd" fill="#FFFFFF" d="M86.553,117.246c-0.051,0.026-0.099,0.05-0.146-0.002
			c0.028-0.023,0.057-0.048,0.084-0.07C86.51,117.196,86.53,117.221,86.553,117.246z"/>
	</g>
	<g>
		<path fill-rule="evenodd" clip-rule="evenodd" fill="#058C45" d="M51.661,84.166c-0.043-7.469-5.986-13.347-13.511-13.255
			c-7.23,0.088-12.979,5.931-13.023,13.194c-0.045,7.168,5.752,13.726,14.145,13.271C46.157,97.003,51.597,91.308,51.661,84.166z"/>
		<path fill-rule="evenodd" clip-rule="evenodd" fill="#333333" d="M26.908,86.525c0.042,0.306,0.057,0.577,0.125,0.828
			c0.109,0.401,0.224,0.808,0.397,1.185c1.465,3.193,3.745,5.521,7.104,6.73c1.664,0.6,3.376,0.787,5.106,0.595
			c1.705-0.188,3.326-0.731,4.807-1.635c0.413-0.251,0.421-0.427,0.007-0.707c-0.471-0.321-1.008-0.322-1.552-0.29
			c-0.435,0.024-0.833,0.211-1.267,0.309c0.254-1.353,2.035-2.448,3.478-2.163c0.694,0.136,1.234,0.467,1.308,1.27
			c2.692-2.226,4.344-6.75,3.504-10.495c-0.171,0.145-0.265,0.369-0.492,0.424c-0.384-2.256-1.535-3.015-3.746-2.445
			c-0.006-0.66,0.156-1.254,0.563-1.77c0.458-0.58,1.084-0.817,1.865-0.794c-0.575-0.854-1.22-1.56-1.934-2.206
			c-0.181-0.162-0.235-0.103-0.302,0.113c-0.143,0.469-0.442,0.818-0.884,1.037c-0.099-0.306-0.162-0.603-0.287-0.87
			c-0.649-1.384-2.182-2.008-3.609-1.558c-0.458,0.146-0.431-0.013-0.368-0.35c0.065-0.364,0.27-0.659,0.447-0.977
			c-3.992-1.049-8.426,0.314-11.231,3.193c1.222,0.397,1.704,1.295,1.589,2.498c-0.09,0.937-0.543,1.696-1.41,2.308
			c0.035-0.391-0.025-0.655-0.098-0.912c-0.208-0.743-0.655-1.282-1.395-1.558c-0.248-0.094-0.395-0.059-0.533,0.193
			c-0.86,1.563-1.322,3.239-1.458,5.011c-0.019,0.253,0.052,0.377,0.307,0.484c1.089,0.457,1.717,1.313,1.931,2.459
			c0.113,0.595,0.032,1.172-0.381,1.687C27.892,87.186,27.599,86.892,26.908,86.525z"/>
		<path fill-rule="evenodd" clip-rule="evenodd" fill="#FFFFFF" d="M26.908,86.525c0.691,0.366,0.984,0.66,1.59,1.595
			c0.413-0.515,0.494-1.092,0.381-1.687c-0.214-1.146-0.842-2.002-1.931-2.459c-0.255-0.107-0.326-0.231-0.307-0.484
			c0.136-1.771,0.598-3.447,1.458-5.011c0.138-0.252,0.286-0.287,0.533-0.193c0.74,0.275,1.187,0.814,1.395,1.558
			c0.073,0.257,0.133,0.521,0.098,0.912c0.867-0.611,1.32-1.371,1.41-2.308c0.115-1.203-0.367-2.101-1.589-2.498
			c2.805-2.879,7.24-4.242,11.231-3.193c-0.178,0.317-0.382,0.612-0.447,0.977c-0.063,0.337-0.09,0.495,0.368,0.35
			c1.427-0.45,2.96,0.174,3.609,1.558c0.125,0.268,0.188,0.564,0.287,0.87c0.441-0.219,0.741-0.568,0.884-1.037
			c0.066-0.216,0.121-0.275,0.302-0.113c0.714,0.646,1.358,1.353,1.934,2.206c-0.781-0.023-1.407,0.214-1.865,0.794
			c-0.407,0.516-0.569,1.109-0.563,1.77c2.211-0.569,3.362,0.189,3.746,2.445c0.228-0.055,0.321-0.279,0.492-0.424
			c0.84,3.745-0.812,8.27-3.504,10.495c-0.073-0.803-0.613-1.134-1.308-1.27c-1.442-0.285-3.223,0.811-3.478,2.163
			c0.434-0.098,0.832-0.284,1.267-0.309c0.543-0.032,1.081-0.031,1.552,0.29c0.414,0.28,0.406,0.456-0.007,0.707
			c-1.48,0.903-3.102,1.447-4.807,1.635c-1.73,0.192-3.442,0.005-5.106-0.595c-3.358-1.21-5.639-3.537-7.104-6.73
			c-0.173-0.377-0.288-0.783-0.397-1.185C26.964,87.103,26.95,86.831,26.908,86.525z M42.43,84.345
			c1.182-0.625,1.7-2.211,1.164-3.576c-0.527-1.35-2.081-2.127-3.495-1.744c-1.508,0.407-2.264,1.87-2.101,2.805
			C40.231,80.858,42.2,82.162,42.43,84.345z M34.577,86.562c1.21-0.656,1.705-2.198,1.172-3.558
			c-0.521-1.325-1.971-2.115-3.287-1.785c-1.32,0.33-2.253,1.577-2.096,2.806C32.401,83.063,34.342,84.501,34.577,86.562z
			 M41.369,90.923c1.204-0.632,1.722-1.92,1.306-3.159c-0.408-1.22-1.813-1.984-3.179-1.73c-1.388,0.26-2.408,1.444-2.384,2.772
			C39.67,88.205,41.12,88.916,41.369,90.923z M33.351,75.761c1.876-0.941,3.982-0.115,4.24,2.187
			c0.839-0.513,1.327-1.223,1.383-2.189c0.054-0.96-0.361-1.709-1.186-2.166c-1.056-0.585-2.131-0.495-3.151,0.128
			C33.899,74.17,33.434,74.811,33.351,75.761z M33.878,92.613c0.738-0.379,1.135-0.946,1.182-1.734
			c0.115-1.972-2.161-3.581-3.985-2.826c-0.917,0.378-1.423,1.269-1.27,2.23C31.771,89.799,33.394,90.709,33.878,92.613z
			 M47.936,88.971c0.506-0.304,0.79-0.713,1.019-1.163c0.604-1.172,0.277-2.75-0.702-3.369c-0.742-0.475-1.523-0.484-2.295-0.084
			c-0.907,0.465-1.411,1.233-1.594,2.225c-0.031,0.177,0.016,0.222,0.204,0.168c0.269-0.075,0.549-0.111,0.824-0.157
			C46.66,86.387,47.986,87.153,47.936,88.971z M37.317,92.858c-0.635,0.012-1.148,0.104-1.62,0.342
			c-0.546,0.272-0.963,0.659-1.051,1.309c-0.029,0.218,0.026,0.291,0.255,0.192c0.638-0.274,1.311-0.212,1.958-0.086
			c0.591,0.115,1.224,0.229,1.57,0.837c0.069,0.122,0.155,0.062,0.244,0.036c0.478-0.144,0.805-0.457,0.917-0.935
			c0.105-0.446-0.142-0.787-0.489-1.048C38.541,93.086,37.889,92.93,37.317,92.858z"/>
		<path fill-rule="evenodd" clip-rule="evenodd" fill="#058C45" d="M42.43,84.345c-0.229-2.183-2.198-3.486-4.433-2.516
			c-0.163-0.935,0.593-2.397,2.101-2.805c1.414-0.383,2.968,0.395,3.495,1.744C44.129,82.134,43.612,83.72,42.43,84.345z"/>
		<path fill-rule="evenodd" clip-rule="evenodd" fill="#058C45" d="M34.577,86.562c-0.234-2.061-2.176-3.499-4.21-2.537
			c-0.157-1.229,0.775-2.476,2.096-2.806c1.315-0.33,2.766,0.46,3.287,1.785C36.282,84.363,35.787,85.905,34.577,86.562z"/>
		<path fill-rule="evenodd" clip-rule="evenodd" fill="#058C45" d="M41.369,90.923c-0.249-2.007-1.698-2.718-4.257-2.117
			c-0.023-1.328,0.997-2.513,2.384-2.772c1.366-0.254,2.771,0.511,3.179,1.73C43.091,89.003,42.572,90.291,41.369,90.923z"/>
		<path fill-rule="evenodd" clip-rule="evenodd" fill="#058C45" d="M33.351,75.761c0.083-0.95,0.549-1.591,1.286-2.041
			c1.021-0.623,2.095-0.713,3.151-0.128c0.825,0.457,1.24,1.206,1.186,2.166c-0.057,0.967-0.544,1.677-1.383,2.189
			C37.333,75.646,35.227,74.819,33.351,75.761z"/>
		<path fill-rule="evenodd" clip-rule="evenodd" fill="#058C45" d="M33.878,92.613c-0.484-1.904-2.107-2.814-4.073-2.33
			c-0.153-0.962,0.353-1.853,1.27-2.23c1.824-0.755,4.1,0.854,3.985,2.826C35.013,91.667,34.616,92.234,33.878,92.613z"/>
		<path fill-rule="evenodd" clip-rule="evenodd" fill="#058C45" d="M47.936,88.971c0.05-1.817-1.276-2.584-2.544-2.381
			c-0.275,0.046-0.556,0.082-0.824,0.157c-0.188,0.054-0.235,0.009-0.204-0.168c0.183-0.991,0.687-1.76,1.594-2.225
			c0.771-0.4,1.553-0.391,2.295,0.084c0.979,0.619,1.307,2.197,0.702,3.369C48.726,88.258,48.442,88.667,47.936,88.971z"/>
		<path fill-rule="evenodd" clip-rule="evenodd" fill="#058C45" d="M37.317,92.858c0.572,0.071,1.224,0.228,1.784,0.647
			c0.347,0.261,0.594,0.602,0.489,1.048c-0.111,0.478-0.438,0.791-0.917,0.935c-0.089,0.025-0.174,0.086-0.244-0.036
			c-0.346-0.608-0.979-0.722-1.57-0.837c-0.647-0.126-1.319-0.188-1.958,0.086c-0.229,0.099-0.284,0.025-0.255-0.192
			c0.087-0.649,0.504-1.036,1.051-1.309C36.169,92.963,36.682,92.87,37.317,92.858z"/>
	</g>
	<g>
		<path fill-rule="evenodd" clip-rule="evenodd" fill="#058C45" d="M146.533,84.8c0.093,8.139-6.568,14.939-14.702,15.014
			c-8.368,0.078-15.134-6.479-15.226-14.752c-0.091-8.33,6.499-15.083,14.805-15.17C139.748,69.805,146.439,76.401,146.533,84.8z
			 M132.535,82.96c-0.278-1.467-0.559-2.934-0.83-4.402c-0.039-0.207-0.211-0.211-0.342-0.25c-1.219-0.359-2.443-0.705-3.665-1.061
			c-0.207-0.061-0.365-0.068-0.551,0.1c-0.985,0.883-1.985,1.752-2.984,2.621c-0.149,0.131-0.233,0.254-0.222,0.473
			c0.065,1.342,0.248,2.67,0.425,4c0.026,0.195,0.119,0.299,0.296,0.369c1.265,0.488,2.529,0.982,3.793,1.477
			c0.188,0.074,0.345,0.074,0.513-0.07c1.119-0.965,2.245-1.918,3.373-2.871C132.466,83.237,132.568,83.14,132.535,82.96z
			 M138.48,89.896c-0.162-1.283-0.32-2.428-0.438-3.578c-0.035-0.352-0.154-0.535-0.494-0.65c-1.283-0.443-2.56-0.904-3.827-1.385
			c-0.233-0.088-0.36-0.055-0.531,0.092c-1.085,0.926-2.171,1.852-3.27,2.76c-0.245,0.203-0.303,0.416-0.239,0.707
			c0.273,1.26,0.544,2.52,0.809,3.783c0.049,0.238,0.154,0.367,0.405,0.447c1.243,0.402,2.503,0.746,3.771,1.059
			c0.203,0.051,0.344,0.014,0.505-0.119c0.979-0.816,1.961-1.627,2.957-2.422C138.414,90.362,138.561,90.122,138.48,89.896z
			 M131.775,70.86c-0.451,0.01-1.083-0.134-1.574,0.164c-0.854,0.517-1.631,1.156-2.442,1.742c-0.138,0.101-0.196,0.229-0.183,0.395
			c0.066,0.875,0.081,1.756,0.233,2.625c0.034,0.199,0.102,0.283,0.298,0.336c1.245,0.334,2.487,0.676,3.725,1.033
			c0.207,0.059,0.346,0.025,0.509-0.102c1.007-0.777,2.019-1.549,3.032-2.316c0.166-0.126,0.227-0.236,0.15-0.466
			c-0.289-0.868-0.559-1.743-0.803-2.626c-0.087-0.314-0.272-0.424-0.558-0.488C133.416,70.989,132.661,70.888,131.775,70.86z
			 M145.584,85.31c-0.029-0.285-0.088-0.605-0.092-0.924c-0.002-0.205-0.077-0.309-0.246-0.391
			c-0.852-0.416-1.703-0.832-2.547-1.264c-0.215-0.111-0.355-0.094-0.533,0.076c-0.904,0.871-1.818,1.73-2.742,2.582
			c-0.17,0.156-0.215,0.297-0.186,0.527c0.15,1.244,0.289,2.494,0.404,3.742c0.025,0.266,0.104,0.387,0.361,0.449
			c0.757,0.186,1.508,0.393,2.26,0.594c0.298,0.078,0.538,0.041,0.771-0.205c0.606-0.641,1.242-1.254,1.868-1.873
			c0.111-0.109,0.208-0.219,0.246-0.375C145.381,87.29,145.48,86.313,145.584,85.31z M117.537,85.337
			c0,0.295-0.049,0.674,0.347,0.902c0.751,0.43,1.503,0.857,2.245,1.301c0.217,0.131,0.344,0.096,0.518-0.08
			c0.773-0.787,1.557-1.564,2.354-2.328c0.188-0.178,0.215-0.34,0.183-0.582c-0.163-1.211-0.327-2.424-0.357-3.646
			c-0.009-0.35-0.104-0.523-0.433-0.621c-0.713-0.213-1.42-0.447-2.127-0.678c-0.161-0.053-0.292-0.045-0.414,0.088
			c-0.612,0.66-1.232,1.311-1.836,1.979c-0.094,0.104-0.129,0.273-0.157,0.42C117.653,83.14,117.572,84.2,117.537,85.337z
			 M131.572,98.835c0.58,0.121,1.182-0.139,1.745-0.564c0.432-0.33,0.886-0.631,1.347-0.914c0.227-0.143,0.284-0.301,0.242-0.549
			c-0.123-0.736-0.239-1.473-0.341-2.213c-0.038-0.268-0.175-0.354-0.425-0.41c-1.223-0.287-2.44-0.588-3.631-0.99
			c-0.229-0.078-0.402-0.051-0.605,0.102c-0.883,0.664-1.775,1.313-2.68,1.941c-0.219,0.152-0.234,0.281-0.148,0.502
			c0.307,0.791,0.605,1.586,0.893,2.385c0.079,0.219,0.207,0.305,0.434,0.355C129.4,98.704,130.408,98.825,131.572,98.835z
			 M135.95,71.601c0.294,0.937,0.569,1.8,0.832,2.666c0.059,0.192,0.218,0.19,0.354,0.24c1.078,0.398,2.163,0.79,3.181,1.322
			c0.511,0.266,0.839,0.177,1.229-0.193c0.255-0.243,0.235-0.349,0.007-0.58c-0.994-1.011-2.122-1.841-3.36-2.52
			C137.506,72.159,136.794,71.825,135.95,71.601z M145.357,82.714c-0.236-2.047-1.324-4.672-2.523-6.145
			c-0.063-0.076-0.129-0.184-0.212-0.205c-0.212-0.057-0.851,0.725-0.784,0.961c0.358,1.254,0.631,2.529,0.879,3.809
			c0.037,0.186,0.111,0.303,0.279,0.387C143.768,81.905,144.535,82.298,145.357,82.714z M117.861,87.524
			c0.021,0.141,0.026,0.205,0.04,0.268c0.405,1.902,1.175,3.643,2.329,5.209c0.104,0.141,0.15,0.531,0.445,0.311
			c0.229-0.17,0.621-0.271,0.443-0.775c-0.399-1.129-0.696-2.295-0.944-3.469c-0.039-0.184-0.13-0.291-0.292-0.381
			C119.232,88.323,118.592,87.946,117.861,87.524z M121.321,94.358c1.495,1.611,3.262,2.803,5.395,3.609
			c-0.284-0.75-0.548-1.416-0.784-2.092c-0.086-0.248-0.229-0.375-0.465-0.479c-0.915-0.396-1.823-0.807-2.725-1.232
			C121.969,93.796,121.977,93.784,121.321,94.358z M125.562,72.239c1.05,0.238,1.832-0.143,2.522-0.924
			C127.19,71.54,126.375,71.823,125.562,72.239z M144.356,90.524c-0.804,0.6-1.407,1.199-1.27,2.25
			C143.582,92.075,143.98,91.364,144.356,90.524z M118.637,79.579c0.771-0.516,1.104-1.193,1.065-2.109
			C119.27,78.147,118.922,78.813,118.637,79.579z M136.836,97.802c-0.854-0.197-1.518,0.043-2.1,0.674
			C135.471,98.313,136.137,98.099,136.836,97.802z"/>
	</g>
</g>
</svg>
