<?xml version="1.0" encoding="utf-8"?>
<!-- Generator: Adobe Illustrator 16.0.0, SVG Export Plug-In . SVG Version: 6.00 Build 0)  -->
<!DOCTYPE svg PUBLIC "-//W3C//DTD SVG 1.1//EN" "http://www.w3.org/Graphics/SVG/1.1/DTD/svg11.dtd">
<svg version="1.1" id="Layer_1" xmlns="http://www.w3.org/2000/svg" xmlns:xlink="http://www.w3.org/1999/xlink" x="0px" y="0px"
	 width="163.5px" height="187.5px" viewBox="0 0 163.5 187.5" enable-background="new 0 0 163.5 187.5" xml:space="preserve">
<rect x="4" y="5" fill-rule="evenodd" clip-rule="evenodd" fill="#FFFFFF" stroke="#068C45" stroke-width="2" stroke-miterlimit="10" width="155" height="177"/>
<rect x="5" y="124" fill-rule="evenodd" clip-rule="evenodd" fill="#058C45" width="155" height="57"/>
<g>
	<path fill="#FFFFFF" d="M131.64,150.594h2.09v-11.4h2.185v-1.899h-6.459v1.899h2.185V150.594z M121.893,150.594h1.862v-9.709h0.038
		l2.508,9.709h2.146v-13.3h-1.861v7.961h-0.038l-2.033-7.961h-2.622V150.594z M114.996,150.594h5.7v-1.9h-3.61v-4.084h2.869v-1.9
		h-2.869v-3.516h3.61v-1.899h-5.7V150.594z M104.774,150.594h1.824v-10.07h0.038l1.52,10.07h1.748l1.52-10.07h0.038v10.07h1.976
		v-13.3h-2.983l-1.33,9.519h-0.038l-1.33-9.519h-2.983V150.594z M99.53,143.279v-4.086h0.988c0.342,0,0.599,0.096,0.77,0.285
		c0.171,0.19,0.256,0.514,0.256,0.969v1.578c0,0.455-0.085,0.778-0.256,0.969c-0.171,0.189-0.427,0.285-0.77,0.285H99.53z
		 M97.44,150.594h2.09v-5.415h0.988c1.039,0,1.817-0.278,2.337-0.836s0.779-1.374,0.779-2.451v-1.312c0-1.076-0.26-1.893-0.779-2.45
		s-1.298-0.836-2.337-0.836H97.44V150.594z M93.792,150.594h2.09v-13.3h-2.09V150.594z M89.195,150.783
		c1.013,0,1.786-0.287,2.318-0.863c0.532-0.577,0.798-1.403,0.798-2.48v-10.146h-2.014v10.298c0,0.456-0.092,0.785-0.275,0.988
		s-0.446,0.304-0.789,0.304c-0.342,0-0.605-0.101-0.789-0.304s-0.275-0.532-0.275-0.988v-10.298h-2.09v10.146
		c0,1.077,0.266,1.903,0.798,2.48C87.409,150.496,88.182,150.783,89.195,150.783z M81.576,148.884c-0.722,0-1.083-0.437-1.083-1.312
		v-7.258c0-0.873,0.361-1.311,1.083-1.311c0.722,0,1.083,0.438,1.083,1.311v7.258C82.659,148.447,82.298,148.884,81.576,148.884z
		 M84.711,151.828h0.551v-1.899h-0.323c-0.216,0-0.38-0.019-0.494-0.058c-0.114-0.037-0.209-0.119-0.285-0.246
		c0.393-0.57,0.589-1.299,0.589-2.186v-6.992c0-1.063-0.272-1.887-0.817-2.47c-0.544-0.582-1.33-0.874-2.356-0.874
		c-1.026,0-1.812,0.292-2.356,0.874c-0.544,0.583-0.817,1.406-0.817,2.47v6.992c0,1.064,0.272,1.888,0.817,2.471
		c0.544,0.582,1.33,0.873,2.356,0.873c0.532,0,0.995-0.076,1.387-0.228C83.178,151.404,83.761,151.828,84.711,151.828z
		 M71.658,150.594h5.7v-1.9h-3.61v-4.084h2.869v-1.9h-2.869v-3.516h3.61v-1.899h-5.7V150.594z M63.336,150.594h2.09v-11.4h2.185
		v-1.899h-6.46v1.899h2.185V150.594z M56.173,142.994v-3.801h0.95c0.367,0,0.637,0.108,0.808,0.323
		c0.171,0.216,0.256,0.563,0.256,1.045v1.026c0,0.507-0.104,0.867-0.313,1.083s-0.522,0.323-0.94,0.323H56.173z M54.083,150.594
		h2.09v-5.7h0.722c0.481,0,0.82,0.12,1.017,0.361s0.294,0.665,0.294,1.272v2.433c0,0.493,0.013,0.836,0.038,1.026
		c0.025,0.189,0.076,0.393,0.152,0.607h2.128c-0.102-0.229-0.165-0.459-0.19-0.693s-0.038-0.541-0.038-0.922v-2.337
		c0-0.785-0.104-1.412-0.313-1.881c-0.209-0.468-0.567-0.778-1.074-0.931v-0.038c0.912-0.368,1.368-1.241,1.368-2.622v-0.817
		c0-1.038-0.247-1.808-0.741-2.308c-0.494-0.501-1.279-0.751-2.356-0.751h-3.097V150.594z M49.504,148.884
		c-0.722,0-1.083-0.437-1.083-1.312v-7.258c0-0.873,0.361-1.311,1.083-1.311c0.722,0,1.083,0.438,1.083,1.311v7.258
		C50.587,148.447,50.227,148.884,49.504,148.884z M49.504,150.783c1.026,0,1.812-0.291,2.356-0.873
		c0.545-0.583,0.817-1.406,0.817-2.471v-6.992c0-1.063-0.272-1.887-0.817-2.47c-0.544-0.582-1.33-0.874-2.356-0.874
		c-1.026,0-1.812,0.292-2.356,0.874c-0.544,0.583-0.817,1.406-0.817,2.47v6.992c0,1.064,0.272,1.888,0.817,2.471
		C47.693,150.492,48.479,150.783,49.504,150.783z M41.24,143.279v-4.086h0.988c0.342,0,0.599,0.096,0.77,0.285
		c0.171,0.19,0.256,0.514,0.256,0.969v1.578c0,0.455-0.085,0.778-0.256,0.969c-0.171,0.189-0.427,0.285-0.77,0.285H41.24z
		 M39.149,150.594h2.09v-5.415h0.988c1.039,0,1.817-0.278,2.337-0.836s0.779-1.374,0.779-2.451v-1.312
		c0-1.076-0.26-1.893-0.779-2.45s-1.298-0.836-2.337-0.836h-3.078V150.594z M34.799,150.783c1.026,0,1.808-0.291,2.346-0.873
		c0.539-0.583,0.808-1.419,0.808-2.508c0-0.836-0.165-1.564-0.494-2.186c-0.329-0.621-0.931-1.311-1.805-2.071
		c-0.684-0.595-1.156-1.102-1.416-1.52c-0.26-0.419-0.39-0.868-0.39-1.349c0-0.85,0.348-1.273,1.045-1.273
		c0.342,0,0.602,0.104,0.779,0.313c0.177,0.209,0.266,0.542,0.266,0.997v0.684h1.976v-0.551c0-1.076-0.256-1.902-0.77-2.479
		c-0.513-0.576-1.27-0.865-2.271-0.865c-1.013,0-1.786,0.289-2.318,0.865c-0.532,0.576-0.798,1.39-0.798,2.441
		c0,0.772,0.171,1.466,0.513,2.08c0.342,0.615,0.943,1.302,1.805,2.062c0.684,0.596,1.152,1.105,1.406,1.529
		c0.253,0.425,0.38,0.915,0.38,1.473c0,0.469-0.092,0.808-0.275,1.017c-0.184,0.209-0.453,0.313-0.808,0.313
		c-0.722,0-1.083-0.431-1.083-1.292v-0.912h-1.976v0.76c0,1.077,0.259,1.903,0.779,2.48
		C33.019,150.496,33.785,150.783,34.799,150.783z"/>
	<path fill="#FFFFFF" d="M103.074,169.584c1.026,0,1.808-0.291,2.346-0.875c0.539-0.582,0.808-1.418,0.808-2.508
		c0-0.836-0.165-1.564-0.494-2.185c-0.329-0.62-0.931-1.312-1.805-2.071c-0.684-0.596-1.156-1.102-1.416-1.52
		c-0.26-0.418-0.39-0.867-0.39-1.35c0-0.848,0.348-1.272,1.045-1.272c0.342,0,0.602,0.104,0.779,0.313
		c0.177,0.209,0.266,0.541,0.266,0.998v0.684h1.976v-0.551c0-1.077-0.256-1.903-0.77-2.48c-0.513-0.576-1.27-0.864-2.271-0.864
		c-1.013,0-1.786,0.288-2.318,0.864c-0.532,0.577-0.798,1.391-0.798,2.441c0,0.773,0.171,1.467,0.513,2.081
		c0.342,0.614,0.943,1.302,1.805,2.062c0.684,0.596,1.152,1.105,1.406,1.529c0.253,0.425,0.38,0.916,0.38,1.473
		c0,0.469-0.092,0.808-0.275,1.017c-0.184,0.209-0.453,0.313-0.808,0.313c-0.722,0-1.083-0.431-1.083-1.292v-0.912h-1.976v0.761
		c0,1.076,0.259,1.902,0.779,2.479S102.061,169.584,103.074,169.584z M94.733,167.494v-9.5h1.064c0.342,0,0.604,0.102,0.789,0.303
		c0.183,0.203,0.275,0.533,0.275,0.988v6.916c0,0.457-0.092,0.786-0.275,0.988c-0.184,0.203-0.447,0.305-0.789,0.305H94.733z
		 M92.643,169.394h3.192c1.038,0,1.817-0.278,2.337-0.836c0.519-0.558,0.779-1.374,0.779-2.451v-6.726
		c0-1.076-0.26-1.894-0.779-2.451c-0.52-0.557-1.299-0.836-2.337-0.836h-3.192V169.394z M84.53,169.394h1.862v-9.709h0.038
		l2.508,9.709h2.147v-13.3h-1.862v7.961h-0.038l-2.033-7.961H84.53V169.394z M78.926,164.985l0.912-6.573h0.038l0.931,6.573H78.926z
		 M76.361,169.394h1.938l0.38-2.603h2.375v-0.039l0.38,2.642h2.09l-2.166-13.3h-2.831L76.361,169.394z M71.345,161.793v-3.799h0.95
		c0.367,0,0.637,0.107,0.808,0.322c0.171,0.216,0.256,0.564,0.256,1.045v1.026c0,0.507-0.104,0.868-0.313,1.083
		s-0.522,0.322-0.94,0.322H71.345z M69.254,169.394h2.09v-5.7h0.722c0.481,0,0.82,0.121,1.017,0.361s0.294,0.665,0.294,1.273v2.432
		c0,0.494,0.013,0.836,0.038,1.025c0.025,0.19,0.076,0.393,0.152,0.608h2.128c-0.102-0.228-0.165-0.459-0.19-0.693
		s-0.038-0.542-0.038-0.922v-2.337c0-0.785-0.104-1.412-0.313-1.881s-0.567-0.779-1.074-0.932v-0.037
		c0.912-0.367,1.368-1.242,1.368-2.622v-0.817c0-1.038-0.247-1.808-0.741-2.309c-0.494-0.5-1.279-0.75-2.356-0.75h-3.097V169.394z
		 M63.669,167.494v-4.086H64.6c0.481,0,0.827,0.117,1.036,0.352s0.313,0.656,0.313,1.264v1.159c0,0.481-0.089,0.82-0.266,1.017
		s-0.45,0.295-0.817,0.295H63.669z M63.669,161.509v-3.515h1.007c0.367,0,0.637,0.107,0.808,0.322
		c0.171,0.216,0.256,0.564,0.256,1.045v0.741c0,0.507-0.104,0.868-0.313,1.083s-0.522,0.323-0.94,0.323H63.669z M61.579,169.394
		h3.287c1.039,0,1.827-0.269,2.366-0.808c0.538-0.538,0.807-1.32,0.807-2.346V165.1c0-1.494-0.52-2.42-1.558-2.773v-0.039
		c0.456-0.189,0.794-0.5,1.016-0.931s0.333-0.987,0.333-1.672v-0.532c0-1.038-0.247-1.808-0.741-2.309
		c-0.494-0.5-1.28-0.75-2.356-0.75h-3.154V169.394z"/>
</g>
<g>
	<path fill-rule="evenodd" clip-rule="evenodd" fill="#058C45" d="M152.916,41.768c0,6.222,0,12.444,0,18.665
		c-0.002,1.56-0.952,2.566-2.507,2.641c-3.688,0.178-7.378,0.047-11.069,0.071c-1.737,0.013-3.479-0.094-5.217-0.058
		c-6.888,0.146-13.771,0.02-20.66,0.063c-0.132,0-0.267,0-0.4,0c-2.084-0.015-3.076-1.011-3.076-3.083
		c0-12.349,0.02-24.697-0.027-37.045c-0.006-1.473,1.235-2.859,2.813-2.827c4.28,0.083,8.561,0.061,12.842,0.014
		c1.918-0.021,3.839-0.036,5.75-0.019c3.859,0.036,7.723,0,11.583,0.029c2.452,0.02,4.902,0,7.353,0.007
		c1.625,0.003,2.615,1.008,2.615,2.647c0.004,6.298,0.002,12.597,0.002,18.894C152.916,41.768,152.916,41.768,152.916,41.768z
		 M119.193,33.554c-1.232,1.506-2.375,4.462-2.572,6.824c-0.407,4.861,1.122,9.014,4.628,12.428
		c0.296,0.285,0.451,0.309,0.765,0.013c1.518-1.425,3.259-2.501,5.256-3.103c5.007-1.504,9.412-0.324,13.262,3.113
		c0.432,0.385,0.639,0.395,1.058-0.008c4.631-4.453,5.979-10.979,3.444-16.867c-0.4-0.934-0.885-1.824-1.526-2.636
		c-2.927,4.351-6.729,7.208-12.122,7.253C125.998,40.617,122.143,37.835,119.193,33.554z M131.365,27.065
		c-3.698,0.057-6.963,1.285-9.781,3.717c-0.306,0.264-0.35,0.454-0.133,0.797c1.023,1.622,2.242,3.034,3.841,4.143
		c1.159,0.804,2.415,1.436,3.745,1.708c1.546,0.317,3.17,0.326,4.738-0.097c3.306-0.891,5.644-2.996,7.391-5.865
		c0.266-0.439,0.154-0.638-0.186-0.918C138.191,28.249,134.991,27.104,131.365,27.065z M138.528,55.04
		c-3.969-4.039-10.573-3.889-14.396-0.107C128.924,57.427,133.696,57.443,138.528,55.04z"/>
	<path fill-rule="evenodd" clip-rule="evenodd" fill="#058C45" d="M35.47,68.42c6.241,0,12.48,0,18.72,0
		c1.732,0,2.792,1.048,2.792,2.759c0,9.987-0.002,19.975-0.002,29.961c0,2.375,0.013,4.75-0.002,7.125
		c-0.003,0.661-0.043,1.324-0.435,1.915c-0.502,0.762-1.206,1.149-2.102,1.163c-1.312,0.018-2.625,0.005-3.937,0.005
		c-11.148,0.003-22.296,0.005-33.445,0.005c-2.087-0.002-3.083-0.982-3.075-3.082c0.012-2.871,0.043-5.745,0.023-8.614
		c-0.042-5.975,0.003-11.946-0.029-17.918c-0.017-3.215-0.003-6.432,0.006-9.646c0.001-0.53,0.027-1.067,0.094-1.593
		c0.154-1.203,1.219-2.071,2.56-2.072c4.166-0.01,8.33-0.002,12.497-0.002c2.112,0,4.223,0,6.335,0
		C35.47,68.422,35.47,68.422,35.47,68.42z M33.344,96.712c-0.007,0.141-0.099,0.18-0.176,0.232c-0.424,0.3-1.067,0.291-1.454-0.106
		c-0.317-0.323-0.534-0.339-0.783,0.03c-0.304,0.444-0.61,0.49-0.931,0.01c-0.207-0.311-0.39-0.295-0.657-0.013
		c-0.663,0.704-1.356,1.382-2.056,2.049c-0.21,0.201-0.183,0.317,0.009,0.497c0.415,0.388,0.835,0.775,1.215,1.199
		c1.277,1.429,2.54,2.867,3.8,4.313c0.187,0.214,0.34,0.271,0.631,0.187c1.498-0.443,2.953-0.994,4.356-1.674
		c6.836-3.316,11.125-8.761,13.311-15.959c0.089-0.302,0.062-0.469-0.185-0.677c-1.905-1.593-3.755-3.247-5.508-5.007
		c-0.193-0.193-0.284-0.219-0.485-0.011c-0.632,0.658-1.266,1.317-1.947,1.922c-0.413,0.368-0.377,0.62,0.025,0.921
		c0.227,0.172,0.368,0.316,0.069,0.605c-0.598,0.576-0.577,0.597,0.031,1.201c0.029,0.027,0.057,0.051,0.079,0.082
		c0.125,0.179,0.468,0.264,0.378,0.509c-0.094,0.263-0.424,0.296-0.681,0.348c-0.294,0.058-0.625-0.009-0.801-0.21
		c-0.466-0.524-0.772-0.268-1.092,0.135c-0.082,0.103-0.185,0.189-0.279,0.285c-0.678,0.689-0.673,0.685,0.032,1.373
		c0.152,0.149,0.486,0.267,0.386,0.502c-0.125,0.289-0.475,0.358-0.783,0.364c-0.269,0.005-0.576-0.036-0.743-0.234
		c-0.417-0.499-0.706-0.274-1.008,0.104c-0.083,0.103-0.185,0.19-0.28,0.284c-0.717,0.722-0.714,0.72-0.009,1.421
		c0.155,0.152,0.473,0.303,0.394,0.504c-0.102,0.268-0.453,0.322-0.732,0.367c-0.292,0.045-0.616-0.041-0.793-0.244
		c-0.429-0.497-0.713-0.241-1.02,0.108c-0.099,0.114-0.208,0.223-0.315,0.331c-0.68,0.686-0.678,0.682,0.017,1.381
		c0.155,0.156,0.478,0.28,0.389,0.506c-0.106,0.27-0.45,0.311-0.73,0.35c-0.232,0.033-0.512,0-0.649-0.16
		c-0.602-0.7-0.962-0.199-1.353,0.231c-0.166,0.183-0.332,0.37-0.521,0.526c-0.229,0.191-0.244,0.339-0.007,0.541
		c0.245,0.207,0.461,0.451,0.688,0.68C33.241,96.583,33.297,96.655,33.344,96.712z M20.142,92.372
		c-0.063,0.326,0.012,0.433,0.166,0.56c1.902,1.578,3.736,3.233,5.482,4.981c0.278,0.277,0.4,0.245,0.647-0.018
		c0.597-0.639,1.215-1.262,1.864-1.848c0.395-0.354,0.402-0.604-0.029-0.903c-0.232-0.161-0.372-0.317-0.072-0.608
		c0.592-0.573,0.57-0.596-0.023-1.199c-0.026-0.026-0.054-0.055-0.076-0.085c-0.129-0.19-0.494-0.292-0.368-0.556
		c0.112-0.234,0.442-0.262,0.711-0.293c0.278-0.033,0.581,0.012,0.748,0.203c0.503,0.568,0.807,0.209,1.132-0.18
		c0.06-0.072,0.133-0.133,0.201-0.202c0.696-0.703,0.687-0.696,0.012-1.419c-0.147-0.157-0.518-0.266-0.355-0.557
		c0.144-0.252,0.48-0.297,0.765-0.299c0.227,0,0.499,0.008,0.643,0.185c0.487,0.591,0.828,0.284,1.174-0.144
		c0.07-0.088,0.157-0.164,0.238-0.246c0.666-0.662,0.66-0.658,0.006-1.336c-0.162-0.169-0.503-0.338-0.411-0.548
		c0.136-0.305,0.521-0.349,0.851-0.353c0.212-0.002,0.45,0.041,0.579,0.197c0.494,0.595,0.834,0.258,1.181-0.156
		c0.061-0.072,0.133-0.135,0.201-0.201c0.724-0.715,0.719-0.712,0.004-1.424c-0.154-0.152-0.466-0.303-0.387-0.506
		c0.105-0.271,0.444-0.314,0.736-0.332c0.274-0.016,0.575,0,0.751,0.201c0.454,0.518,0.766,0.301,1.083-0.135
		c0.078-0.107,0.189-0.188,0.283-0.281c0.672-0.666,0.664-0.658,0.018-1.34c-0.164-0.172-0.536-0.309-0.389-0.594
		c0.145-0.279,0.515-0.283,0.824-0.281c0.297,0,0.579,0.075,0.771,0.309c0.287,0.346,0.517,0.268,0.736-0.057
		c0.332-0.49,0.656-0.439,0.972,0.008c0.214,0.307,0.38,0.241,0.615-0.006c0.642-0.672,1.302-1.331,1.979-1.97
		c0.271-0.255,0.26-0.401-0.002-0.663c-1.458-1.473-2.861-2.994-4.209-4.568c-0.996-1.16-1.002-1.179-2.447-0.689
		c-7.821,2.646-13.165,7.847-16.02,15.595C20.497,91.239,20.306,91.875,20.142,92.372z M29.228,105.936
		c-0.055-0.1-0.078-0.175-0.125-0.227c-1.246-1.407-2.51-2.796-3.819-4.146c-0.236-0.242-0.371-0.28-0.623-0.02
		c-1.156,1.182-2.32,2.354-3.504,3.504c-0.348,0.34-0.173,0.438,0.142,0.574c0.883,0.38,1.823,0.518,2.765,0.582
		C25.773,106.325,27.478,106.249,29.228,105.936z M51.464,83.794c0.362-2.927,0.567-5.707-0.551-8.585
		c-1.401,1.431-2.686,2.747-3.976,4.056c-0.144,0.145-0.125,0.25,0.007,0.38C48.382,81.046,49.839,82.427,51.464,83.794z
		 M19.92,104.423c1.273-1.275,2.51-2.531,3.766-3.767c0.282-0.274,0.286-0.447-0.002-0.709c-0.885-0.802-1.744-1.632-2.625-2.438
		c-0.543-0.496-1.108-0.966-1.69-1.471C18.822,98.702,18.829,102.785,19.92,104.423z M41.459,73.804
		c1.407,1.619,2.74,3.072,4.122,4.483c0.162,0.166,0.26,0.22,0.45,0.028c1.291-1.287,2.592-2.563,3.986-3.935
		C47.185,73.14,44.395,73.498,41.459,73.804z"/>
	<path fill-rule="evenodd" clip-rule="evenodd" fill="#058C45" d="M152.916,89.891c0,6.222-0.029,12.442,0.021,18.665
		c0.012,1.488-1.116,2.813-2.819,2.809c-12.423-0.033-24.848-0.017-37.271-0.017c-1.863,0-2.858-0.987-2.858-2.858
		c-0.001-11.682,0-23.363,0-35.045c0-0.78-0.008-1.56,0-2.34c0.014-1.605,1.086-2.678,2.702-2.68
		c5.479-0.008,10.957-0.003,16.438-0.003c7.021,0,14.04-0.002,21.06,0c1.28,0,2.109,0.554,2.595,1.683
		c0.141,0.328,0.135,0.666,0.135,1.008C152.916,77.372,152.916,83.63,152.916,89.891z M147.277,90.755
		c-0.051-8.983-7.199-16.054-16.25-15.943c-8.695,0.105-15.61,7.135-15.663,15.87c-0.054,8.62,6.917,16.508,17.013,15.962
		C140.658,106.194,147.201,99.344,147.277,90.755z"/>
	<path fill-rule="evenodd" clip-rule="evenodd" fill="#058C45" d="M104.951,41.603c0,6.184-0.034,12.367,0.023,18.55
		c0.013,1.55-0.883,3.034-2.936,2.998c-0.152-0.003-0.303,0-0.456,0c-10.807,0-21.615,0.003-32.42-0.004
		c-1.492,0-2.985-0.05-4.478-0.07c-1.672-0.021-2.665-1.034-2.665-2.733c0-3.501,0-7,0-10.502c0-8.96,0-17.92-0.001-26.881
		c0-1.721,0.999-2.732,2.714-2.736c3.14-0.005,6.279-0.001,9.418,0c5.858,0,11.715,0.018,17.571-0.011
		c1.898-0.01,3.799-0.002,5.697-0.021c1.746-0.018,3.498-0.022,5.246,0.042c1.25,0.046,2.275,1.159,2.281,2.475
		c0.012,3.082,0.006,6.165,0.006,9.247C104.951,35.173,104.951,38.386,104.951,41.603z M83.293,25.748
		c-8.997-0.004-16.436,7.411-16.46,16.393c-0.024,9.268,7.49,16.583,16.496,16.583c9.026,0,16.464-7.373,16.48-16.362
		C99.826,33.173,92.448,25.753,83.293,25.748z"/>
	<path fill-rule="evenodd" clip-rule="evenodd" fill="#058C45" d="M83.49,111.348c-6.183,0-12.368,0.003-18.55,0
		c-1.939,0-2.92-0.981-2.92-2.911c0-12.384,0-24.769,0-37.153c0-1.853,1.003-2.861,2.851-2.861
		c8.885-0.005,17.77-0.009,26.655-0.009c3.519,0,7.039,0.004,10.558,0.009c1.858,0.003,2.862,0.993,2.862,2.856
		c0.007,12.464,0.007,24.924,0.004,37.386c-0.001,1.624-1.07,2.684-2.683,2.684C96.009,111.351,89.75,111.351,83.49,111.348z
		 M67.106,90.104c-0.035,9.122,7.472,16.714,16.856,16.562c8.97-0.147,16.231-7.579,16.241-16.522
		c0.011-9.101-7.382-16.564-16.453-16.579C74.515,73.55,67.113,80.911,67.106,90.104z"/>
	<path fill-rule="evenodd" clip-rule="evenodd" fill="#058C45" d="M36.404,63.15c-7.285,0-13.298,0.003-19.308-0.003
		c-0.868,0-1.706-0.096-2.34-0.814c-0.432-0.49-0.701-1.017-0.701-1.688c0.007-3.919-0.004-7.839-0.005-11.757
		c-0.001-5.799-0.001-11.598,0-17.397c0.001-2.89,0.059-5.779-0.018-8.665c-0.035-1.377,1.24-2.682,2.687-2.623
		c2.185,0.086,4.375,0.05,6.563,0.014c1.898-0.031,3.799-0.046,5.694-0.026c3.519,0.037,7.037,0.014,10.554,0.028
		c4.849,0.021,9.697,0.053,14.543-0.02c1.709-0.025,2.931,1.125,2.918,2.893c-0.022,3.119-0.009,6.238-0.006,9.359
		c0.002,1.312,0.019,2.625,0.017,3.938c-0.004,7.967-0.015,15.934-0.013,23.899c0,1.528-0.923,2.751-2.573,2.795
		C47.987,63.251,41.559,63.077,36.404,63.15z M52.239,41.591c-0.105-9.399-7.594-16.783-16.926-16.686
		c-9.296,0.098-16.672,7.656-16.57,16.979c0.103,9.26,7.675,16.598,17.042,16.511C44.888,58.312,52.343,50.7,52.239,41.591z"/>
	<path fill-rule="evenodd" clip-rule="evenodd" fill="#FFFFFF" d="M119.193,33.554c2.949,4.281,6.805,7.063,12.191,7.018
		c5.393-0.045,9.195-2.902,12.122-7.253c0.642,0.812,1.126,1.702,1.526,2.636c2.534,5.889,1.187,12.414-3.444,16.867
		c-0.419,0.402-0.626,0.393-1.058,0.008c-3.85-3.438-8.255-4.617-13.262-3.113c-1.997,0.602-3.738,1.678-5.256,3.103
		c-0.313,0.296-0.469,0.272-0.765-0.013c-3.506-3.414-5.035-7.566-4.628-12.428C116.819,38.016,117.961,35.06,119.193,33.554z"/>
	<path fill-rule="evenodd" clip-rule="evenodd" fill="#FFFFFF" d="M131.365,27.065c3.626,0.038,6.826,1.184,9.615,3.484
		c0.34,0.28,0.451,0.479,0.186,0.918c-1.747,2.869-4.085,4.975-7.391,5.865c-1.568,0.423-3.192,0.414-4.738,0.097
		c-1.33-0.272-2.586-0.904-3.745-1.708c-1.599-1.108-2.817-2.521-3.841-4.143c-0.217-0.343-0.173-0.533,0.133-0.797
		C124.402,28.351,127.667,27.122,131.365,27.065z"/>
	<path fill-rule="evenodd" clip-rule="evenodd" fill="#FFFFFF" d="M138.528,55.04c-4.832,2.403-9.604,2.387-14.396-0.107
		C127.955,51.151,134.56,51.001,138.528,55.04z"/>
	<path fill-rule="evenodd" clip-rule="evenodd" fill="#FFFFFF" d="M33.344,96.712c-0.047-0.057-0.104-0.129-0.168-0.195
		c-0.227-0.229-0.443-0.473-0.688-0.68c-0.236-0.202-0.222-0.35,0.007-0.541c0.189-0.156,0.355-0.344,0.521-0.526
		c0.391-0.431,0.751-0.932,1.353-0.231c0.138,0.16,0.417,0.193,0.649,0.16c0.28-0.039,0.624-0.08,0.73-0.35
		c0.089-0.226-0.234-0.35-0.389-0.506c-0.695-0.699-0.697-0.695-0.017-1.381c0.107-0.108,0.216-0.217,0.315-0.331
		c0.307-0.35,0.591-0.605,1.02-0.108c0.177,0.203,0.501,0.289,0.793,0.244c0.28-0.045,0.631-0.1,0.732-0.367
		c0.08-0.201-0.238-0.352-0.394-0.504c-0.705-0.701-0.708-0.699,0.009-1.421c0.095-0.094,0.197-0.182,0.28-0.284
		c0.302-0.379,0.59-0.604,1.008-0.104c0.167,0.198,0.474,0.239,0.743,0.234c0.308-0.006,0.658-0.075,0.783-0.364
		c0.101-0.235-0.234-0.353-0.386-0.502c-0.705-0.688-0.709-0.684-0.032-1.373c0.094-0.096,0.197-0.183,0.279-0.285
		c0.32-0.402,0.626-0.659,1.092-0.135c0.177,0.201,0.507,0.268,0.801,0.21c0.257-0.052,0.587-0.085,0.681-0.348
		c0.09-0.245-0.253-0.33-0.378-0.509c-0.022-0.031-0.05-0.055-0.079-0.082c-0.608-0.604-0.629-0.625-0.031-1.201
		c0.299-0.289,0.158-0.434-0.069-0.605c-0.402-0.301-0.438-0.553-0.025-0.921c0.681-0.604,1.315-1.264,1.947-1.922
		c0.201-0.208,0.292-0.183,0.485,0.011c1.753,1.76,3.603,3.414,5.508,5.007c0.247,0.208,0.274,0.375,0.185,0.677
		c-2.186,7.198-6.475,12.643-13.311,15.959c-1.403,0.68-2.859,1.23-4.356,1.674c-0.291,0.085-0.444,0.027-0.631-0.187
		c-1.26-1.446-2.523-2.885-3.8-4.313c-0.38-0.424-0.8-0.812-1.215-1.199c-0.191-0.18-0.219-0.296-0.009-0.497
		c0.7-0.667,1.393-1.345,2.056-2.049c0.267-0.282,0.451-0.298,0.657,0.013c0.321,0.48,0.627,0.435,0.931-0.01
		c0.249-0.369,0.466-0.354,0.783-0.03c0.387,0.397,1.029,0.406,1.454,0.106C33.245,96.892,33.337,96.853,33.344,96.712z"/>
	<path fill-rule="evenodd" clip-rule="evenodd" fill="#FFFFFF" d="M20.142,92.372c0.164-0.497,0.355-1.133,0.585-1.757
		c2.855-7.748,8.199-12.948,16.02-15.595c1.445-0.489,1.452-0.471,2.447,0.689c1.348,1.574,2.751,3.096,4.209,4.568
		c0.262,0.262,0.273,0.408,0.002,0.663c-0.678,0.639-1.338,1.298-1.979,1.97c-0.235,0.247-0.401,0.313-0.615,0.006
		c-0.316-0.447-0.641-0.498-0.972-0.008c-0.219,0.324-0.449,0.402-0.736,0.057c-0.191-0.233-0.474-0.309-0.771-0.309
		c-0.31-0.002-0.679,0.002-0.824,0.281c-0.146,0.285,0.225,0.422,0.389,0.594c0.646,0.682,0.654,0.674-0.018,1.34
		c-0.094,0.094-0.206,0.174-0.283,0.281c-0.317,0.436-0.629,0.652-1.083,0.135c-0.176-0.201-0.477-0.217-0.751-0.201
		c-0.292,0.018-0.631,0.062-0.736,0.332c-0.079,0.203,0.233,0.354,0.387,0.506c0.715,0.712,0.719,0.709-0.004,1.424
		c-0.068,0.066-0.14,0.129-0.201,0.201c-0.347,0.414-0.687,0.751-1.181,0.156c-0.129-0.156-0.367-0.199-0.579-0.197
		c-0.33,0.004-0.715,0.048-0.851,0.353c-0.092,0.21,0.25,0.379,0.411,0.548c0.654,0.678,0.659,0.674-0.006,1.336
		c-0.081,0.082-0.168,0.158-0.238,0.246c-0.346,0.428-0.687,0.734-1.174,0.144c-0.145-0.177-0.417-0.185-0.643-0.185
		c-0.285,0.002-0.622,0.047-0.765,0.299c-0.163,0.291,0.208,0.399,0.355,0.557c0.674,0.723,0.684,0.716-0.012,1.419
		c-0.068,0.069-0.141,0.13-0.201,0.202c-0.326,0.389-0.629,0.748-1.132,0.18c-0.167-0.191-0.47-0.236-0.748-0.203
		c-0.269,0.031-0.599,0.059-0.711,0.293c-0.126,0.264,0.239,0.365,0.368,0.556c0.022,0.03,0.049,0.059,0.076,0.085
		c0.593,0.604,0.615,0.626,0.023,1.199c-0.3,0.291-0.16,0.447,0.072,0.608c0.432,0.299,0.424,0.55,0.029,0.903
		c-0.648,0.586-1.267,1.209-1.864,1.848c-0.247,0.263-0.369,0.295-0.647,0.018c-1.747-1.748-3.581-3.403-5.482-4.981
		C20.154,92.805,20.08,92.698,20.142,92.372z"/>
	<path fill-rule="evenodd" clip-rule="evenodd" fill="#FFFFFF" d="M29.228,105.936c-1.75,0.313-3.455,0.39-5.165,0.269
		c-0.942-0.064-1.882-0.202-2.765-0.582c-0.315-0.136-0.49-0.234-0.142-0.574c1.185-1.15,2.349-2.322,3.504-3.504
		c0.252-0.261,0.387-0.223,0.623,0.02c1.309,1.35,2.573,2.738,3.819,4.146C29.15,105.761,29.173,105.836,29.228,105.936z"/>
	<path fill-rule="evenodd" clip-rule="evenodd" fill="#FFFFFF" d="M51.464,83.794c-1.625-1.367-3.082-2.748-4.52-4.149
		c-0.131-0.13-0.151-0.235-0.007-0.38c1.29-1.309,2.574-2.625,3.976-4.056C52.032,78.087,51.826,80.867,51.464,83.794z"/>
	<path fill-rule="evenodd" clip-rule="evenodd" fill="#FFFFFF" d="M19.92,104.423c-1.091-1.638-1.098-5.721-0.552-8.385
		c0.582,0.505,1.146,0.975,1.69,1.471c0.881,0.807,1.74,1.637,2.625,2.438c0.289,0.262,0.284,0.435,0.002,0.709
		C22.43,101.892,21.193,103.147,19.92,104.423z"/>
	<path fill-rule="evenodd" clip-rule="evenodd" fill="#FFFFFF" d="M41.459,73.804c2.936-0.306,5.726-0.664,8.558,0.577
		c-1.395,1.372-2.695,2.647-3.986,3.935c-0.19,0.191-0.288,0.138-0.45-0.028C44.199,76.876,42.866,75.423,41.459,73.804z"/>
	<path fill-rule="evenodd" clip-rule="evenodd" fill="#058C45" d="M147.277,90.755c-0.076,8.589-6.619,15.439-14.9,15.889
		c-10.096,0.546-17.066-7.342-17.013-15.962c0.053-8.735,6.968-15.765,15.663-15.87C140.078,74.701,147.227,81.771,147.277,90.755z
		 M117.506,93.593c0.051,0.368,0.068,0.692,0.151,0.996c0.131,0.482,0.269,0.971,0.478,1.424c1.762,3.841,4.504,6.64,8.545,8.096
		c2,0.721,4.061,0.945,6.141,0.715c2.051-0.227,4-0.879,5.781-1.967c0.496-0.302,0.506-0.512,0.009-0.85
		c-0.567-0.386-1.214-0.387-1.866-0.35c-0.524,0.031-1.003,0.253-1.524,0.371c0.306-1.625,2.448-2.944,4.183-2.602
		c0.836,0.164,1.484,0.563,1.573,1.526c3.236-2.677,5.224-8.116,4.214-12.622c-0.205,0.176-0.318,0.443-0.593,0.51
		c-0.462-2.713-1.845-3.626-4.505-2.939c-0.008-0.795,0.188-1.51,0.678-2.13c0.551-0.698,1.305-0.983,2.244-0.954
		c-0.691-1.027-1.469-1.876-2.326-2.652c-0.218-0.197-0.283-0.126-0.362,0.135c-0.171,0.563-0.533,0.982-1.063,1.247
		c-0.119-0.366-0.194-0.724-0.346-1.046c-0.781-1.664-2.624-2.416-4.342-1.873c-0.551,0.174-0.518-0.018-0.441-0.421
		c0.078-0.438,0.324-0.794,0.537-1.175c-4.801-1.262-10.135,0.378-13.508,3.841c1.469,0.478,2.049,1.558,1.911,3.005
		c-0.108,1.125-0.653,2.039-1.696,2.773c0.041-0.468-0.031-0.786-0.118-1.096c-0.251-0.894-0.788-1.541-1.678-1.873
		c-0.298-0.113-0.476-0.071-0.642,0.232c-1.035,1.88-1.59,3.896-1.754,6.025c-0.023,0.307,0.063,0.454,0.37,0.582
		c1.311,0.553,2.064,1.58,2.322,2.959c0.137,0.716,0.039,1.41-0.457,2.029C118.69,94.388,118.338,94.032,117.506,93.593z"/>
	<path fill-rule="evenodd" clip-rule="evenodd" fill="#058C45" d="M83.293,25.748c9.155,0.005,16.533,7.425,16.517,16.613
		c-0.017,8.989-7.455,16.362-16.48,16.362c-9.006,0-16.52-7.315-16.496-16.583C66.857,33.159,74.296,25.744,83.293,25.748z
		 M88.298,28.161c0.026-0.014,0.056-0.027,0.084-0.044c0.002-0.002,0-0.015,0-0.022c-0.028,0.021-0.058,0.043-0.084,0.064
		c0.835,0.644,1.326,1.55,1.785,2.457c1.135,2.24,1.771,4.629,1.969,7.135c0.011,0.144-0.054,0.33,0.109,0.415
		c0.181,0.096,0.334-0.042,0.458-0.149c0.308-0.269,0.646-0.494,0.891-0.854c0.88-1.297,1.089-2.799,1.393-4.276
		c0.046-0.216-0.061-0.36-0.191-0.507c-1.67-1.9-3.675-3.326-6.041-4.236C88.537,28.093,88.417,28.065,88.298,28.161z
		 M87.427,56.733c2.683-0.742,4.944-2.186,6.889-4.156c0.253-0.258,0.406-0.545,0.441-0.885c0.122-1.18,0.165-2.356-0.102-3.521
		c-0.317-1.385-0.893-2.623-2.081-3.49c-0.251-0.182-0.41-0.268-0.448,0.171c-0.099,1.147-0.275,2.282-0.478,3.419
		c-0.35,1.978-1.022,3.809-2.039,5.525c-0.623,1.051-1.455,1.939-2.26,2.848c-0.034,0.029-0.069,0.059-0.104,0.088
		C87.305,56.796,87.366,56.767,87.427,56.733z M81.595,41.842c-1.703,0.061-3.754,0.11-5.805,0.206
		c-2.335,0.109-4.664,0.277-6.977,0.63c-0.403,0.061-0.566,0.189-0.534,0.646c0.227,2.959,1.237,5.617,3.011,7.985
		c0.397,0.526,0.773,1.091,1.334,1.462c0.909,0.604,1.877,0.474,2.849,0.16c1.898-0.613,3.573-1.65,5.231-2.724
		c2.583-1.672,4.858-3.704,7.024-5.876c0.756-0.758,1.647-1.353,2.758-1.49c0.402-0.049,0.317-0.33,0.337-0.589
		c0.028-0.329-0.18-0.305-0.396-0.315c-0.474-0.023-0.946-0.088-1.419-0.09C86.655,41.837,84.298,41.842,81.595,41.842z
		 M68.292,40.956c-0.066,0.283,0.013,0.423,0.477,0.332c1.399-0.275,2.826-0.377,4.245-0.479c4.955-0.354,9.917-0.437,14.882-0.345
		c0.871,0.017,1.741,0.05,2.611,0.083c0.203,0.008,0.35-0.029,0.299-0.27c-0.043-0.211,0.162-0.516-0.218-0.609
		c-1.117-0.271-2.039-0.886-2.867-1.65c-1.327-1.225-2.616-2.489-4.089-3.545c-2.241-1.604-4.649-2.873-7.292-3.668
		c-1.274-0.385-2.569-0.209-3.492,0.658C70.15,33.985,68.689,37.17,68.292,40.956z M74.738,54.542c0.051,0.09,0.063,0.131,0.09,0.15
		c2.785,1.875,5.855,2.758,9.214,2.609c0.19-0.008,0.373-0.025,0.534-0.156c1.251-1.005,2.424-2.08,3.363-3.391
		c1.982-2.769,2.589-5.949,2.803-9.255c0.023-0.333-0.115-0.285-0.331-0.22c-0.754,0.226-1.363,0.684-1.888,1.234
		c-2.379,2.489-5.024,4.643-7.951,6.453C78.759,53.089,76.91,54.137,74.738,54.542z M90.701,38.2
		c-0.092-1.506-0.333-2.906-0.725-4.279c-0.745-2.617-2.009-4.879-4.44-6.314c-0.311-0.184-0.621-0.373-0.993-0.398
		c-2.872-0.186-5.603,0.322-8.164,1.662c-0.181,0.096-0.413,0.143-0.533,0.377c0.894,0.175,1.725,0.441,2.538,0.761
		c3.758,1.472,7.002,3.713,9.85,6.554C88.922,37.249,89.675,37.849,90.701,38.2z M96.277,49.897
		c1.157-1.813,1.952-4.449,2.081-6.559c0.031-0.492-0.116-0.65-0.568-0.734c-1.647-0.302-3.311-0.442-4.98-0.541
		c-0.179-0.012-0.518-0.211-0.551,0.16c-0.027,0.314-0.156,0.677,0.354,0.88c0.979,0.388,1.703,1.113,2.281,1.991
		C95.831,46.521,96.172,48.119,96.277,49.897z M96.077,34.205c-0.14,0.575-0.236,1.075-0.382,1.56
		c-0.507,1.674-1.293,3.15-3.068,3.775c-0.47,0.166-0.413,0.449-0.404,0.784c0.01,0.405,0.329,0.3,0.545,0.315
		c1.761,0.137,3.527,0.231,5.262,0.594c0.363,0.074,0.321-0.133,0.305-0.347c-0.078-1.065-0.298-2.106-0.614-3.122
		C97.337,36.536,96.8,35.372,96.077,34.205z"/>
	<path fill-rule="evenodd" clip-rule="evenodd" fill="#058C45" d="M67.106,90.104c0.006-9.192,7.409-16.554,16.645-16.54
		c9.071,0.015,16.464,7.479,16.453,16.579c-0.01,8.943-7.271,16.375-16.241,16.522C74.578,106.817,67.071,99.226,67.106,90.104z
		 M74.266,102.313c-0.078,0.162,0.086,0.144,0.149,0.201c0.617,0.51,1.298,0.922,2,1.296c1.518,0.813,3.13,1.352,4.832,1.604
		c0.137,0.02,0.345,0.17,0.441-0.074c0.094-0.24-0.294-0.919-0.559-0.975c-2.265-0.477-4.498-1.061-6.648-1.932
		c-0.042-0.104-0.141-0.098-0.229-0.107c-0.023-0.051-0.051-0.091-0.111-0.054c-0.004,0.004,0.001,0.038,0.011,0.048
		C74.19,102.359,74.234,102.388,74.266,102.313z M81.839,96.728c0,0.553-0.017,1.104,0.001,1.656
		c0.066,2.283,0.193,4.557,0.927,6.752c0.124,0.367,0.292,0.5,0.676,0.498c1.899-0.012,3.745-0.326,5.538-0.952
		c0.249-0.087,0.405-0.251,0.531-0.478c0.775-1.419,1.065-2.966,1.139-4.553c0.176-3.832-0.58-7.519-1.814-11.126
		c-0.119-0.35-0.275-0.352-0.576-0.271c-1.668,0.436-3.372,0.598-5.088,0.534c-0.607-0.021-0.761,0.155-0.813,0.714
		C82.142,91.909,81.878,94.31,81.839,96.728z M77.638,86.896c0.151,0.052,0.253,0.098,0.362,0.125
		c2.941,0.796,5.921,0.962,8.917,0.432c2.358-0.418,4.604-1.164,6.465-2.766c2.002-1.721,2.228-3.828,0.657-5.94
		c-0.187-0.254-0.411-0.425-0.722-0.506c-2.305-0.604-4.551-0.402-6.754,0.464c-2.574,1.014-4.604,2.762-6.407,4.801
		C79.227,84.556,78.384,85.672,77.638,86.896z M70.639,81.694c-0.677,1.075-1.206,2.094-1.576,3.186
		c-0.433,1.279-0.917,2.58-0.771,3.94c0.199,1.869,1.171,3.412,2.512,4.679c2.69,2.536,6.074,3.402,9.617,3.838
		c0.357,0.044,0.353-0.141,0.36-0.391c0.058-2.549,0.245-5.09,0.577-7.617c0.079-0.586-0.142-0.64-0.604-0.697
		c-2.293-0.287-4.514-0.853-6.571-1.945c-1.693-0.896-2.856-2.234-3.335-4.121C70.786,82.315,70.728,82.067,70.639,81.694z
		 M90.942,103.754c1.493-0.718,3.276-2.147,4.443-3.524c0.501-0.592,1.023-1.168,1.193-1.959c0.237-1.113,0.466-2.23,0.466-3.377
		c0.001-3.314-1.279-6.203-3.004-8.94c-0.131-0.208-0.227-0.235-0.438-0.077c-1.083,0.821-2.288,1.42-3.57,1.859
		c-0.258,0.089-0.313,0.201-0.214,0.457c0.339,0.889,0.605,1.799,0.839,2.721C91.732,95.151,92.313,99.404,90.942,103.754z
		 M91.511,76.824c-1.439-0.919-2.973-1.604-4.652-1.851c-3.155-0.459-5.914,0.519-8.394,2.447c-2.261,1.758-4.032,3.955-5.745,6.213
		c-0.197,0.259-0.073,0.404,0.07,0.586c0.851,1.055,1.996,1.66,3.224,2.163c0.403,0.167,0.597,0.147,0.84-0.24
		c0.821-1.304,1.759-2.521,2.802-3.658c2.107-2.304,4.518-4.163,7.542-5.116C88.6,76.929,90.038,76.78,91.511,76.824z
		 M68.486,92.435c-0.228,0.105-0.11,0.244-0.092,0.361c0.284,1.781,0.906,3.447,1.819,5c0.363,0.614,0.642,1.315,1.256,1.735
		c2.841,1.938,6.03,3.005,9.367,3.694c0.281,0.059,0.355,0.008,0.3-0.305c-0.185-1.107-0.262-2.227-0.319-3.349
		c-0.055-1.1-0.07-1.098-1.187-1.271c-0.171-0.025-0.341-0.048-0.508-0.074c-2.823-0.453-5.513-1.258-7.873-2.955
		C70.156,94.486,69.295,93.476,68.486,92.435z M96.22,81.124c-0.042,1.313-0.433,2.48-1.281,3.463
		c-0.253,0.289-0.232,0.468-0.041,0.768c1.459,2.291,2.609,4.711,3.023,7.428c0.137,0.897,0.211,1.803,0.223,2.709
		C99.932,90.38,99.316,85.587,96.22,81.124z M80.181,75.067c-0.175-0.013-0.214-0.024-0.246-0.017
		c-3.243,0.835-5.944,2.541-8.135,5.063c-0.098,0.112-0.197,0.229-0.188,0.398c0.035,0.752,0.138,1.484,0.422,2.275
		C74.348,79.757,76.725,76.91,80.181,75.067z"/>
	<path fill-rule="evenodd" clip-rule="evenodd" fill="#058C45" d="M52.239,41.591c0.104,9.109-7.352,16.721-16.455,16.805
		c-9.366,0.087-16.938-7.251-17.042-16.511c-0.102-9.323,7.274-16.882,16.57-16.979C44.645,24.808,52.134,32.191,52.239,41.591z
		 M36.572,39.532c-0.312-1.643-0.625-3.284-0.929-4.928c-0.044-0.232-0.236-0.236-0.383-0.279c-1.364-0.402-2.734-0.789-4.102-1.188
		c-0.231-0.068-0.409-0.076-0.616,0.11c-1.103,0.989-2.222,1.962-3.34,2.936c-0.167,0.145-0.261,0.283-0.248,0.528
		c0.073,1.502,0.277,2.988,0.476,4.477c0.029,0.219,0.133,0.336,0.331,0.413c1.416,0.548,2.831,1.1,4.245,1.653
		c0.21,0.084,0.386,0.082,0.574-0.08c1.253-1.078,2.513-2.146,3.775-3.213C36.495,39.843,36.609,39.733,36.572,39.532z
		 M43.227,47.295c-0.182-1.437-0.359-2.718-0.49-4.005c-0.04-0.395-0.173-0.599-0.553-0.729c-1.436-0.495-2.865-1.011-4.284-1.55
		c-0.261-0.098-0.403-0.06-0.594,0.104c-1.214,1.037-2.43,2.072-3.66,3.088c-0.274,0.229-0.339,0.466-0.268,0.791
		c0.306,1.41,0.609,2.822,0.905,4.236c0.055,0.266,0.173,0.41,0.454,0.501c1.392,0.449,2.801,0.834,4.221,1.184
		c0.228,0.056,0.385,0.017,0.565-0.133c1.097-0.913,2.195-1.82,3.31-2.71C43.152,47.816,43.316,47.547,43.227,47.295z
		 M35.722,25.989C35.217,26,34.51,25.84,33.96,26.173c-0.956,0.578-1.826,1.295-2.734,1.951c-0.154,0.111-0.22,0.256-0.204,0.439
		c0.074,0.98,0.09,1.966,0.261,2.938c0.038,0.224,0.113,0.318,0.333,0.378c1.394,0.372,2.784,0.756,4.169,1.154
		c0.231,0.066,0.387,0.029,0.569-0.112c1.127-0.87,2.259-1.733,3.394-2.593c0.186-0.141,0.253-0.264,0.168-0.521
		c-0.323-0.971-0.625-1.951-0.898-2.939c-0.097-0.352-0.305-0.475-0.624-0.547C37.558,26.134,36.713,26.02,35.722,25.989z
		 M51.177,42.161c-0.033-0.32-0.098-0.678-0.103-1.034c-0.002-0.229-0.086-0.345-0.275-0.437c-0.953-0.467-1.906-0.932-2.851-1.415
		c-0.241-0.123-0.398-0.104-0.597,0.085c-1.012,0.975-2.036,1.938-3.069,2.891c-0.19,0.176-0.241,0.332-0.208,0.59
		c0.168,1.394,0.323,2.791,0.452,4.189c0.029,0.297,0.116,0.432,0.405,0.502c0.847,0.207,1.688,0.439,2.529,0.665
		c0.333,0.088,0.603,0.046,0.864-0.229c0.679-0.717,1.39-1.402,2.091-2.096c0.125-0.123,0.233-0.246,0.275-0.42
		C50.95,44.379,51.061,43.285,51.177,42.161z M19.786,42.192c0,0.329-0.055,0.754,0.388,1.009c0.84,0.481,1.682,0.96,2.513,1.458
		c0.243,0.146,0.385,0.105,0.579-0.092c0.866-0.88,1.742-1.75,2.634-2.604c0.211-0.199,0.24-0.38,0.205-0.651
		c-0.183-1.355-0.366-2.713-0.4-4.082c-0.01-0.391-0.117-0.586-0.484-0.695c-0.798-0.238-1.589-0.5-2.381-0.758
		c-0.18-0.059-0.327-0.051-0.463,0.098c-0.685,0.738-1.379,1.467-2.055,2.215c-0.105,0.115-0.145,0.307-0.176,0.47
		C19.916,39.731,19.825,40.921,19.786,42.192z M35.494,57.3c0.649,0.135,1.323-0.154,1.954-0.633
		c0.483-0.367,0.991-0.704,1.507-1.022c0.254-0.158,0.318-0.337,0.271-0.614c-0.138-0.823-0.268-1.648-0.382-2.477
		c-0.042-0.299-0.195-0.395-0.475-0.459c-1.369-0.32-2.731-0.657-4.064-1.108c-0.256-0.087-0.45-0.056-0.678,0.114
		c-0.988,0.742-1.987,1.468-2.999,2.173c-0.245,0.171-0.263,0.313-0.167,0.562c0.343,0.887,0.678,1.775,0.999,2.668
		c0.089,0.246,0.232,0.343,0.485,0.399C33.063,57.153,34.191,57.289,35.494,57.3z M40.395,26.817
		c0.329,1.049,0.637,2.016,0.931,2.984c0.065,0.215,0.244,0.213,0.396,0.27c1.207,0.445,2.421,0.884,3.56,1.479
		c0.572,0.299,0.939,0.199,1.376-0.216c0.286-0.272,0.264-0.39,0.008-0.648c-1.113-1.132-2.375-2.061-3.761-2.82
		C42.135,27.442,41.339,27.069,40.395,26.817z M50.923,39.255c-0.265-2.291-1.482-5.229-2.824-6.875
		c-0.071-0.087-0.145-0.205-0.237-0.23c-0.237-0.063-0.952,0.812-0.878,1.075c0.401,1.403,0.707,2.831,0.984,4.263
		c0.042,0.208,0.125,0.34,0.313,0.434C49.144,38.352,50.003,38.79,50.923,39.255z M20.148,44.64c0.024,0.159,0.03,0.23,0.045,0.3
		c0.454,2.13,1.315,4.077,2.607,5.831c0.116,0.156,0.168,0.594,0.498,0.347c0.256-0.19,0.695-0.304,0.497-0.867
		c-0.447-1.265-0.779-2.567-1.057-3.883c-0.044-0.206-0.146-0.325-0.327-0.427C21.683,45.535,20.966,45.112,20.148,44.64z
		 M24.021,52.288c1.673,1.805,3.651,3.138,6.038,4.042c-0.318-0.841-0.613-1.587-0.877-2.343c-0.096-0.277-0.256-0.42-0.521-0.535
		c-1.024-0.443-2.041-0.902-3.049-1.38C24.746,51.66,24.754,51.646,24.021,52.288z M28.767,27.532
		c1.175,0.268,2.05-0.159,2.823-1.033C30.59,26.75,29.677,27.067,28.767,27.532z M49.803,47.997c-0.9,0.672-1.575,1.344-1.421,2.52
		C48.936,49.735,49.382,48.938,49.803,47.997z M21.016,35.747c0.864-0.576,1.236-1.335,1.193-2.361
		C21.725,34.146,21.335,34.89,21.016,35.747z M41.386,56.144c-0.956-0.221-1.699,0.047-2.35,0.755
		C39.858,56.716,40.603,56.477,41.386,56.144z"/>
	<path fill-rule="evenodd" clip-rule="evenodd" fill="#FFFFFF" d="M117.506,93.593c0.832,0.439,1.184,0.795,1.914,1.918
		c0.496-0.619,0.594-1.313,0.457-2.029c-0.258-1.379-1.012-2.406-2.322-2.959c-0.307-0.128-0.393-0.275-0.37-0.582
		c0.164-2.13,0.719-4.146,1.754-6.025c0.166-0.304,0.344-0.346,0.642-0.232c0.89,0.332,1.427,0.979,1.678,1.873
		c0.087,0.31,0.159,0.628,0.118,1.096c1.043-0.734,1.588-1.648,1.696-2.773c0.138-1.447-0.442-2.527-1.911-3.005
		c3.373-3.463,8.707-5.103,13.508-3.841c-0.213,0.381-0.459,0.736-0.537,1.175c-0.076,0.403-0.109,0.595,0.441,0.421
		c1.718-0.543,3.561,0.209,4.342,1.873c0.151,0.322,0.227,0.68,0.346,1.046c0.53-0.265,0.893-0.684,1.063-1.247
		c0.079-0.261,0.145-0.332,0.362-0.135c0.857,0.776,1.635,1.625,2.326,2.652c-0.939-0.029-1.693,0.256-2.244,0.954
		c-0.489,0.62-0.686,1.335-0.678,2.13c2.66-0.687,4.043,0.227,4.505,2.939c0.274-0.066,0.388-0.334,0.593-0.51
		c1.01,4.506-0.978,9.945-4.214,12.622c-0.089-0.964-0.737-1.362-1.573-1.526c-1.734-0.343-3.877,0.977-4.183,2.602
		c0.521-0.118,1-0.34,1.524-0.371c0.652-0.037,1.299-0.036,1.866,0.35c0.497,0.338,0.487,0.548-0.009,0.85
		c-1.781,1.088-3.73,1.74-5.781,1.967c-2.08,0.23-4.141,0.006-6.141-0.715c-4.041-1.456-6.783-4.255-8.545-8.096
		c-0.208-0.453-0.346-0.941-0.478-1.424C117.574,94.285,117.558,93.961,117.506,93.593z M136.176,90.969
		c1.422-0.751,2.043-2.658,1.399-4.301c-0.634-1.622-2.503-2.56-4.204-2.098c-1.813,0.491-2.723,2.249-2.527,3.373
		C133.531,86.776,135.899,88.345,136.176,90.969z M126.73,93.637c1.455-0.79,2.051-2.646,1.408-4.28
		c-0.625-1.594-2.37-2.545-3.951-2.148c-1.589,0.399-2.71,1.899-2.521,3.376C124.113,89.427,126.448,91.157,126.73,93.637z
		 M134.899,98.88c1.447-0.759,2.071-2.308,1.571-3.799c-0.491-1.466-2.182-2.387-3.824-2.081c-1.668,0.312-2.895,1.736-2.867,3.335
		C132.857,95.612,134.6,96.468,134.899,98.88z M125.256,80.645c2.256-1.132,4.789-0.138,5.1,2.63c1.01-0.615,1.596-1.47,1.663-2.634
		c0.065-1.155-0.435-2.055-1.425-2.604c-1.271-0.703-2.564-0.597-3.791,0.153C125.916,78.731,125.355,79.503,125.256,80.645z
		 M125.89,100.914c0.888-0.456,1.365-1.138,1.421-2.085c0.139-2.372-2.6-4.307-4.793-3.4c-1.103,0.455-1.711,1.527-1.527,2.682
		C123.355,97.528,125.309,98.622,125.89,100.914z M142.798,96.532c0.608-0.365,0.95-0.855,1.226-1.396
		c0.727-1.412,0.333-3.309-0.844-4.055c-0.895-0.57-1.832-0.581-2.762-0.101c-1.091,0.56-1.697,1.485-1.916,2.677
		c-0.038,0.213,0.019,0.266,0.245,0.201c0.322-0.092,0.66-0.135,0.991-0.189C141.264,93.424,142.857,94.347,142.798,96.532z
		 M130.025,101.21c-0.764,0.012-1.38,0.126-1.947,0.411c-0.657,0.326-1.158,0.792-1.264,1.572c-0.035,0.264,0.031,0.351,0.307,0.232
		c0.768-0.331,1.576-0.256,2.355-0.104c0.71,0.139,1.472,0.275,1.889,1.007c0.082,0.147,0.186,0.075,0.293,0.044
		c0.574-0.172,0.968-0.551,1.102-1.123c0.127-0.538-0.171-0.946-0.588-1.261C131.498,101.481,130.715,101.294,130.025,101.21z"/>
	<path fill-rule="evenodd" clip-rule="evenodd" fill="#FFFFFF" d="M81.595,41.842c2.703,0,5.06-0.005,7.414,0.005
		c0.473,0.002,0.945,0.066,1.419,0.09c0.216,0.011,0.425-0.014,0.396,0.315c-0.021,0.259,0.064,0.54-0.337,0.589
		c-1.111,0.138-2.001,0.732-2.758,1.49c-2.166,2.172-4.441,4.204-7.024,5.876c-1.658,1.073-3.333,2.11-5.231,2.724
		c-0.972,0.313-1.94,0.443-2.849-0.16c-0.562-0.371-0.938-0.936-1.334-1.462c-1.774-2.368-2.785-5.026-3.011-7.985
		c-0.033-0.456,0.13-0.585,0.534-0.646c2.313-0.353,4.642-0.521,6.977-0.63C77.841,41.952,79.893,41.902,81.595,41.842z"/>
	<path fill-rule="evenodd" clip-rule="evenodd" fill="#FFFFFF" d="M68.292,40.956c0.397-3.786,1.859-6.971,4.556-9.492
		c0.923-0.867,2.218-1.043,3.492-0.658c2.644,0.795,5.052,2.064,7.292,3.668c1.473,1.056,2.762,2.32,4.089,3.545
		c0.829,0.765,1.75,1.379,2.867,1.65c0.38,0.094,0.175,0.398,0.218,0.609c0.05,0.24-0.096,0.277-0.299,0.27
		c-0.87-0.033-1.74-0.066-2.611-0.083c-4.965-0.092-9.928-0.009-14.882,0.345c-1.419,0.102-2.846,0.203-4.245,0.479
		C68.304,41.379,68.226,41.239,68.292,40.956z"/>
	<path fill-rule="evenodd" clip-rule="evenodd" fill="#FFFFFF" d="M74.738,54.542c2.172-0.405,4.021-1.453,5.833-2.574
		c2.926-1.811,5.571-3.964,7.951-6.453c0.524-0.551,1.133-1.009,1.888-1.234c0.216-0.065,0.354-0.113,0.331,0.22
		c-0.213,3.306-0.821,6.486-2.803,9.255c-0.938,1.311-2.111,2.386-3.363,3.391c-0.161,0.131-0.343,0.148-0.534,0.156
		c-3.359,0.148-6.429-0.734-9.214-2.609C74.8,54.673,74.789,54.632,74.738,54.542z"/>
	<path fill-rule="evenodd" clip-rule="evenodd" fill="#FFFFFF" d="M90.701,38.2c-1.026-0.352-1.779-0.951-2.467-1.639
		c-2.848-2.841-6.092-5.082-9.85-6.554c-0.813-0.319-1.644-0.586-2.538-0.761c0.12-0.234,0.352-0.281,0.533-0.377
		c2.561-1.34,5.292-1.848,8.164-1.662c0.373,0.025,0.682,0.215,0.993,0.398c2.431,1.436,3.695,3.697,4.44,6.314
		C90.368,35.294,90.609,36.694,90.701,38.2z"/>
	<path fill-rule="evenodd" clip-rule="evenodd" fill="#FFFFFF" d="M87.35,56.644c0.806-0.908,1.637-1.797,2.26-2.848
		c1.017-1.717,1.689-3.548,2.039-5.525c0.202-1.137,0.378-2.271,0.478-3.419c0.039-0.438,0.197-0.353,0.448-0.171
		c1.188,0.867,1.764,2.105,2.081,3.49c0.267,1.165,0.223,2.342,0.102,3.521c-0.036,0.34-0.188,0.627-0.441,0.885
		c-1.945,1.971-4.206,3.414-6.889,4.156C87.399,56.702,87.374,56.673,87.35,56.644z"/>
	<path fill-rule="evenodd" clip-rule="evenodd" fill="#FFFFFF" d="M88.298,28.163c0.119-0.098,0.239-0.07,0.372-0.02
		c2.366,0.91,4.371,2.336,6.041,4.236c0.13,0.146,0.237,0.291,0.191,0.507c-0.304,1.478-0.513,2.979-1.393,4.276
		c-0.245,0.359-0.583,0.585-0.891,0.854c-0.124,0.107-0.277,0.245-0.458,0.149c-0.163-0.085-0.099-0.271-0.109-0.415
		c-0.198-2.506-0.834-4.895-1.969-7.135c-0.459-0.907-0.95-1.813-1.785-2.457V28.163z"/>
	<path fill-rule="evenodd" clip-rule="evenodd" fill="#FFFFFF" d="M96.277,49.897c-0.105-1.778-0.446-3.377-1.383-4.803
		c-0.578-0.878-1.303-1.604-2.281-1.991c-0.51-0.203-0.381-0.565-0.354-0.88c0.033-0.371,0.372-0.172,0.551-0.16
		c1.669,0.099,3.333,0.239,4.98,0.541c0.453,0.084,0.599,0.242,0.568,0.734C98.229,45.448,97.434,48.084,96.277,49.897z"/>
	<path fill-rule="evenodd" clip-rule="evenodd" fill="#FFFFFF" d="M96.077,34.205c0.724,1.167,1.26,2.331,1.643,3.56
		c0.316,1.016,0.537,2.057,0.614,3.122c0.016,0.214,0.058,0.421-0.305,0.347c-1.734-0.362-3.501-0.457-5.262-0.594
		c-0.216-0.016-0.536,0.09-0.545-0.315c-0.009-0.335-0.065-0.618,0.404-0.784c1.775-0.625,2.561-2.102,3.068-3.775
		C95.841,35.28,95.937,34.78,96.077,34.205z"/>
	<path fill-rule="evenodd" clip-rule="evenodd" fill="#FFFFFF" d="M88.298,28.159c0.026-0.021,0.056-0.043,0.084-0.064
		c0,0.008,0.002,0.021,0,0.022c-0.028,0.017-0.058,0.03-0.084,0.044C88.298,28.163,88.298,28.159,88.298,28.159z"/>
	<path fill-rule="evenodd" clip-rule="evenodd" fill="#FFFFFF" d="M87.427,56.733c-0.061,0.033-0.122,0.063-0.18-0.002
		c0.035-0.029,0.07-0.059,0.104-0.088C87.374,56.673,87.399,56.702,87.427,56.733z"/>
	<path fill-rule="evenodd" clip-rule="evenodd" fill="#FFFFFF" d="M81.839,96.728c0.039-2.418,0.303-4.818,0.521-7.225
		c0.052-0.559,0.206-0.734,0.813-0.714c1.716,0.063,3.42-0.099,5.088-0.534c0.3-0.081,0.457-0.079,0.576,0.271
		c1.234,3.607,1.991,7.294,1.814,11.126c-0.073,1.587-0.364,3.134-1.139,4.553c-0.126,0.227-0.282,0.391-0.531,0.478
		c-1.793,0.626-3.639,0.94-5.538,0.952c-0.384,0.002-0.552-0.131-0.676-0.498c-0.733-2.195-0.86-4.469-0.927-6.752
		C81.823,97.832,81.839,97.28,81.839,96.728z"/>
	<path fill-rule="evenodd" clip-rule="evenodd" fill="#FFFFFF" d="M77.638,86.896c0.747-1.224,1.589-2.34,2.518-3.391
		c1.804-2.039,3.833-3.787,6.407-4.801c2.203-0.866,4.449-1.068,6.754-0.464c0.311,0.081,0.535,0.252,0.722,0.506
		c1.57,2.112,1.345,4.22-0.657,5.94c-1.861,1.602-4.106,2.348-6.465,2.766c-2.996,0.53-5.976,0.364-8.917-0.432
		C77.891,86.993,77.789,86.947,77.638,86.896z"/>
	<path fill-rule="evenodd" clip-rule="evenodd" fill="#FFFFFF" d="M70.639,81.694c0.088,0.373,0.146,0.621,0.208,0.871
		c0.479,1.887,1.642,3.226,3.335,4.121c2.057,1.093,4.278,1.658,6.571,1.945c0.462,0.058,0.683,0.111,0.604,0.697
		c-0.332,2.527-0.519,5.068-0.577,7.617c-0.007,0.25-0.002,0.435-0.36,0.391c-3.543-0.436-6.927-1.302-9.617-3.838
		c-1.34-1.267-2.313-2.81-2.512-4.679c-0.146-1.36,0.339-2.661,0.771-3.94C69.434,83.788,69.962,82.77,70.639,81.694z"/>
	<path fill-rule="evenodd" clip-rule="evenodd" fill="#FFFFFF" d="M90.942,103.754c1.372-4.35,0.79-8.603-0.284-12.841
		c-0.234-0.922-0.5-1.832-0.839-2.721c-0.099-0.256-0.044-0.368,0.214-0.457c1.282-0.439,2.487-1.038,3.57-1.859
		c0.211-0.158,0.306-0.131,0.438,0.077c1.726,2.737,3.006,5.626,3.004,8.94c0,1.146-0.229,2.264-0.466,3.377
		c-0.169,0.791-0.692,1.367-1.193,1.959C94.218,101.606,92.435,103.036,90.942,103.754z"/>
	<path fill-rule="evenodd" clip-rule="evenodd" fill="#FFFFFF" d="M91.511,76.824c-1.473-0.044-2.912,0.104-4.313,0.544
		c-3.024,0.953-5.435,2.813-7.542,5.116c-1.043,1.138-1.981,2.354-2.802,3.658c-0.244,0.388-0.437,0.407-0.84,0.24
		c-1.228-0.503-2.373-1.108-3.224-2.163c-0.143-0.182-0.267-0.327-0.07-0.586c1.713-2.258,3.484-4.455,5.745-6.213
		c2.48-1.929,5.239-2.906,8.394-2.447C88.538,75.22,90.072,75.905,91.511,76.824z"/>
	<path fill-rule="evenodd" clip-rule="evenodd" fill="#FFFFFF" d="M68.486,92.435c0.809,1.041,1.67,2.052,2.763,2.838
		c2.36,1.697,5.05,2.502,7.873,2.955c0.167,0.026,0.337,0.049,0.508,0.074c1.117,0.173,1.132,0.171,1.187,1.271
		c0.057,1.122,0.134,2.241,0.319,3.349c0.055,0.313-0.02,0.363-0.3,0.305c-3.337-0.689-6.526-1.756-9.367-3.694
		c-0.614-0.42-0.893-1.121-1.256-1.735c-0.913-1.553-1.535-3.219-1.819-5C68.375,92.679,68.258,92.54,68.486,92.435z"/>
	<path fill-rule="evenodd" clip-rule="evenodd" fill="#FFFFFF" d="M96.22,81.124c3.096,4.463,3.711,9.256,1.925,14.367
		c-0.012-0.906-0.086-1.812-0.223-2.709c-0.415-2.717-1.564-5.137-3.023-7.428c-0.191-0.3-0.213-0.479,0.041-0.768
		C95.787,83.604,96.178,82.437,96.22,81.124z"/>
	<path fill-rule="evenodd" clip-rule="evenodd" fill="#FFFFFF" d="M80.181,75.067c-3.456,1.843-5.833,4.689-8.147,7.721
		c-0.284-0.791-0.387-1.523-0.422-2.275c-0.009-0.17,0.09-0.286,0.188-0.398c2.191-2.522,4.893-4.229,8.135-5.063
		C79.967,75.043,80.006,75.055,80.181,75.067z"/>
	<path fill-rule="evenodd" clip-rule="evenodd" fill="#FFFFFF" d="M74.481,102.435c2.15,0.871,4.383,1.455,6.648,1.932
		c0.264,0.056,0.652,0.734,0.559,0.975c-0.096,0.244-0.304,0.094-0.441,0.074c-1.702-0.253-3.314-0.791-4.832-1.604
		c-0.702-0.374-1.383-0.786-2-1.296C74.436,102.488,74.459,102.461,74.481,102.435z"/>
	<path fill-rule="evenodd" clip-rule="evenodd" fill="#FFFFFF" d="M74.267,102.312c-0.033,0.076-0.076,0.048-0.116,0.01
		c-0.01-0.01-0.015-0.044-0.011-0.048c0.06-0.037,0.088,0.003,0.111,0.054L74.267,102.312z"/>
	<path fill-rule="evenodd" clip-rule="evenodd" fill="#FFFFFF" d="M74.251,102.327c0.088,0.01,0.187,0.003,0.229,0.107
		c-0.022,0.026-0.045,0.054-0.066,0.08c-0.063-0.058-0.227-0.039-0.148-0.201C74.267,102.312,74.251,102.327,74.251,102.327z"/>
	<path fill-rule="evenodd" clip-rule="evenodd" fill="#FFFFFF" d="M36.572,39.532c0.037,0.201-0.078,0.311-0.218,0.43
		c-1.262,1.066-2.522,2.135-3.775,3.213c-0.188,0.162-0.364,0.164-0.574,0.08c-1.414-0.554-2.83-1.105-4.245-1.653
		c-0.198-0.077-0.302-0.194-0.331-0.413c-0.198-1.488-0.402-2.975-0.476-4.477c-0.013-0.245,0.081-0.384,0.248-0.528
		c1.118-0.974,2.237-1.946,3.34-2.936c0.208-0.187,0.385-0.179,0.616-0.11c1.368,0.398,2.738,0.785,4.102,1.188
		c0.146,0.043,0.339,0.047,0.383,0.279C35.947,36.248,36.261,37.89,36.572,39.532z"/>
	<path fill-rule="evenodd" clip-rule="evenodd" fill="#FFFFFF" d="M43.227,47.295c0.089,0.252-0.075,0.521-0.394,0.776
		c-1.115,0.89-2.213,1.797-3.31,2.71c-0.18,0.149-0.337,0.188-0.565,0.133c-1.42-0.35-2.83-0.734-4.221-1.184
		c-0.281-0.091-0.399-0.235-0.454-0.501c-0.296-1.414-0.599-2.826-0.905-4.236c-0.071-0.325-0.007-0.563,0.268-0.791
		c1.229-1.016,2.445-2.051,3.66-3.088c0.191-0.163,0.333-0.201,0.594-0.104c1.419,0.539,2.848,1.055,4.284,1.55
		c0.38,0.131,0.514,0.335,0.553,0.729C42.868,44.577,43.045,45.858,43.227,47.295z"/>
	<path fill-rule="evenodd" clip-rule="evenodd" fill="#FFFFFF" d="M35.722,25.989c0.991,0.03,1.836,0.145,2.672,0.332
		c0.319,0.072,0.527,0.195,0.624,0.547c0.273,0.988,0.575,1.969,0.898,2.939c0.085,0.258,0.018,0.381-0.168,0.521
		c-1.135,0.859-2.267,1.723-3.394,2.593c-0.183,0.142-0.338,0.179-0.569,0.112c-1.385-0.398-2.775-0.782-4.169-1.154
		c-0.22-0.06-0.295-0.154-0.333-0.378c-0.171-0.973-0.187-1.958-0.261-2.938c-0.016-0.184,0.05-0.328,0.204-0.439
		c0.908-0.656,1.778-1.373,2.734-1.951C34.51,25.84,35.217,26,35.722,25.989z"/>
	<path fill-rule="evenodd" clip-rule="evenodd" fill="#FFFFFF" d="M51.177,42.161c-0.116,1.124-0.227,2.218-0.486,3.291
		c-0.042,0.174-0.151,0.297-0.275,0.42c-0.701,0.693-1.412,1.379-2.091,2.096c-0.261,0.275-0.53,0.317-0.864,0.229
		c-0.841-0.226-1.682-0.458-2.529-0.665c-0.289-0.07-0.376-0.205-0.405-0.502c-0.129-1.398-0.284-2.796-0.452-4.189
		c-0.033-0.258,0.017-0.414,0.208-0.59c1.034-0.952,2.057-1.916,3.069-2.891c0.199-0.188,0.356-0.208,0.597-0.085
		c0.944,0.483,1.897,0.948,2.851,1.415c0.189,0.092,0.273,0.208,0.275,0.437C51.079,41.483,51.144,41.841,51.177,42.161z"/>
	<path fill-rule="evenodd" clip-rule="evenodd" fill="#FFFFFF" d="M19.786,42.192c0.039-1.271,0.13-2.461,0.359-3.634
		c0.032-0.163,0.071-0.354,0.176-0.47c0.675-0.748,1.37-1.477,2.055-2.215c0.137-0.148,0.283-0.156,0.463-0.098
		c0.792,0.258,1.583,0.52,2.381,0.758c0.367,0.109,0.474,0.305,0.484,0.695c0.034,1.369,0.218,2.727,0.4,4.082
		c0.036,0.271,0.006,0.452-0.205,0.651c-0.892,0.854-1.769,1.725-2.634,2.604c-0.194,0.197-0.336,0.237-0.579,0.092
		c-0.831-0.498-1.672-0.977-2.513-1.458C19.731,42.946,19.786,42.521,19.786,42.192z"/>
	<path fill-rule="evenodd" clip-rule="evenodd" fill="#FFFFFF" d="M35.494,57.3c-1.303-0.011-2.431-0.146-3.548-0.397
		c-0.253-0.057-0.396-0.153-0.485-0.399c-0.321-0.893-0.656-1.781-0.999-2.668c-0.096-0.248-0.079-0.391,0.167-0.562
		c1.012-0.705,2.011-1.431,2.999-2.173c0.228-0.17,0.422-0.201,0.678-0.114c1.333,0.451,2.695,0.788,4.064,1.108
		c0.28,0.064,0.433,0.16,0.475,0.459c0.114,0.828,0.244,1.653,0.382,2.477c0.047,0.277-0.018,0.456-0.271,0.614
		c-0.516,0.318-1.024,0.655-1.507,1.022C36.817,57.146,36.144,57.435,35.494,57.3z"/>
	<path fill-rule="evenodd" clip-rule="evenodd" fill="#FFFFFF" d="M40.395,26.817c0.944,0.252,1.741,0.625,2.51,1.048
		c1.386,0.76,2.648,1.688,3.761,2.82c0.256,0.259,0.278,0.376-0.008,0.648c-0.437,0.415-0.804,0.515-1.376,0.216
		c-1.139-0.595-2.353-1.033-3.56-1.479c-0.153-0.057-0.331-0.055-0.396-0.27C41.032,28.833,40.723,27.866,40.395,26.817z"/>
	<path fill-rule="evenodd" clip-rule="evenodd" fill="#FFFFFF" d="M50.923,39.255c-0.92-0.465-1.779-0.903-2.643-1.334
		c-0.188-0.094-0.271-0.226-0.313-0.434c-0.277-1.432-0.583-2.859-0.984-4.263c-0.074-0.264,0.641-1.138,0.878-1.075
		c0.093,0.025,0.166,0.144,0.237,0.23C49.441,34.026,50.659,36.964,50.923,39.255z"/>
	<path fill-rule="evenodd" clip-rule="evenodd" fill="#FFFFFF" d="M20.148,44.64c0.817,0.473,1.535,0.896,2.263,1.301
		c0.181,0.102,0.283,0.221,0.327,0.427c0.278,1.315,0.61,2.618,1.057,3.883c0.199,0.563-0.241,0.677-0.497,0.867
		c-0.33,0.247-0.382-0.19-0.498-0.347c-1.292-1.754-2.153-3.701-2.607-5.831C20.178,44.87,20.172,44.799,20.148,44.64z"/>
	<path fill-rule="evenodd" clip-rule="evenodd" fill="#FFFFFF" d="M24.021,52.288c0.733-0.643,0.725-0.628,1.59-0.216
		c1.009,0.478,2.025,0.937,3.049,1.38c0.265,0.115,0.424,0.258,0.521,0.535c0.265,0.756,0.56,1.502,0.877,2.343
		C27.672,55.426,25.694,54.093,24.021,52.288z"/>
	<path fill-rule="evenodd" clip-rule="evenodd" fill="#FFFFFF" d="M28.767,27.532c0.91-0.465,1.823-0.782,2.823-1.033
		C30.817,27.373,29.942,27.8,28.767,27.532z"/>
	<path fill-rule="evenodd" clip-rule="evenodd" fill="#FFFFFF" d="M49.803,47.997c-0.421,0.941-0.867,1.738-1.421,2.52
		C48.228,49.341,48.903,48.669,49.803,47.997z"/>
	<path fill-rule="evenodd" clip-rule="evenodd" fill="#FFFFFF" d="M21.016,35.747c0.319-0.857,0.708-1.602,1.193-2.361
		C22.252,34.412,21.88,35.171,21.016,35.747z"/>
	<path fill-rule="evenodd" clip-rule="evenodd" fill="#FFFFFF" d="M41.386,56.144c-0.783,0.333-1.528,0.572-2.35,0.755
		C39.687,56.19,40.43,55.923,41.386,56.144z"/>
	<path fill-rule="evenodd" clip-rule="evenodd" fill="#058C45" d="M136.176,90.969c-0.276-2.624-2.645-4.192-5.332-3.025
		c-0.195-1.124,0.715-2.882,2.527-3.373c1.701-0.462,3.57,0.476,4.204,2.098C138.219,88.311,137.598,90.218,136.176,90.969z"/>
	<path fill-rule="evenodd" clip-rule="evenodd" fill="#058C45" d="M126.73,93.637c-0.282-2.479-2.617-4.21-5.064-3.053
		c-0.188-1.477,0.933-2.977,2.521-3.376c1.581-0.396,3.326,0.555,3.951,2.148C128.781,90.991,128.186,92.847,126.73,93.637z"/>
	<path fill-rule="evenodd" clip-rule="evenodd" fill="#058C45" d="M134.899,98.88c-0.3-2.412-2.042-3.268-5.12-2.545
		c-0.027-1.599,1.199-3.023,2.867-3.335c1.643-0.306,3.333,0.615,3.824,2.081C136.971,96.572,136.347,98.121,134.899,98.88z"/>
	<path fill-rule="evenodd" clip-rule="evenodd" fill="#058C45" d="M125.256,80.645c0.1-1.142,0.66-1.913,1.547-2.454
		c1.227-0.75,2.52-0.856,3.791-0.153c0.99,0.549,1.49,1.448,1.425,2.604c-0.067,1.164-0.653,2.019-1.663,2.634
		C130.045,80.507,127.512,79.513,125.256,80.645z"/>
	<path fill-rule="evenodd" clip-rule="evenodd" fill="#058C45" d="M125.89,100.914c-0.581-2.292-2.534-3.386-4.899-2.804
		c-0.184-1.154,0.425-2.227,1.527-2.682c2.193-0.906,4.932,1.028,4.793,3.4C127.255,99.776,126.777,100.458,125.89,100.914z"/>
	<path fill-rule="evenodd" clip-rule="evenodd" fill="#058C45" d="M142.798,96.532c0.06-2.186-1.534-3.108-3.06-2.863
		c-0.331,0.055-0.669,0.098-0.991,0.189c-0.227,0.064-0.283,0.012-0.245-0.201c0.219-1.191,0.825-2.117,1.916-2.677
		c0.93-0.48,1.867-0.47,2.762,0.101c1.177,0.746,1.57,2.643,0.844,4.055C143.748,95.677,143.406,96.167,142.798,96.532z"/>
	<path fill-rule="evenodd" clip-rule="evenodd" fill="#058C45" d="M130.025,101.21c0.689,0.084,1.473,0.271,2.146,0.778
		c0.417,0.314,0.715,0.723,0.588,1.261c-0.134,0.572-0.527,0.951-1.102,1.123c-0.107,0.031-0.211,0.104-0.293-0.044
		c-0.417-0.731-1.179-0.868-1.889-1.007c-0.779-0.151-1.588-0.227-2.355,0.104c-0.275,0.118-0.342,0.031-0.307-0.232
		c0.105-0.78,0.606-1.246,1.264-1.572C128.646,101.336,129.262,101.222,130.025,101.21z"/>
</g>
</svg>
