<?xml version="1.0" encoding="utf-8"?>
<!-- Generator: Adobe Illustrator 16.0.0, SVG Export Plug-In . SVG Version: 6.00 Build 0)  -->
<!DOCTYPE svg PUBLIC "-//W3C//DTD SVG 1.1//EN" "http://www.w3.org/Graphics/SVG/1.1/DTD/svg11.dtd">
<svg version="1.1" id="Layer_1" xmlns="http://www.w3.org/2000/svg" xmlns:xlink="http://www.w3.org/1999/xlink" x="0px" y="0px"
	 width="163.5px" height="187.5px" viewBox="0 0 163.5 187.5" enable-background="new 0 0 163.5 187.5" xml:space="preserve">
<rect x="4" y="4" fill-rule="evenodd" clip-rule="evenodd" fill="#FFFFFF" stroke="#068C45" stroke-width="2" stroke-miterlimit="10" width="155" height="177"/>
<rect x="5" y="124" fill-rule="evenodd" clip-rule="evenodd" fill="#058C45" width="155" height="56"/>
<g>
	<path fill="#FFFFFF" d="M119.399,149.783c1.026,0,1.808-0.291,2.346-0.873c0.538-0.583,0.808-1.419,0.808-2.508
		c0-0.836-0.164-1.564-0.494-2.186c-0.329-0.621-0.931-1.311-1.805-2.071c-0.684-0.595-1.156-1.102-1.416-1.52
		c-0.26-0.419-0.39-0.868-0.39-1.349c0-0.85,0.348-1.273,1.045-1.273c0.342,0,0.602,0.104,0.779,0.313
		c0.177,0.209,0.266,0.542,0.266,0.997v0.684h1.976v-0.551c0-1.076-0.257-1.902-0.77-2.479s-1.27-0.865-2.271-0.865
		c-1.013,0-1.786,0.289-2.318,0.865c-0.532,0.576-0.798,1.39-0.798,2.441c0,0.772,0.171,1.466,0.513,2.08
		c0.342,0.615,0.943,1.302,1.805,2.062c0.684,0.596,1.152,1.105,1.406,1.529c0.253,0.425,0.38,0.915,0.38,1.473
		c0,0.469-0.092,0.808-0.275,1.017c-0.184,0.209-0.453,0.313-0.808,0.313c-0.722,0-1.083-0.431-1.083-1.292v-0.912h-1.976v0.76
		c0,1.077,0.259,1.903,0.779,2.48C117.619,149.496,118.385,149.783,119.399,149.783z M110.146,149.594h5.529v-1.9h-3.439v-11.399
		h-2.09V149.594z M103.249,149.594h5.7v-1.9h-3.61v-4.084h2.869v-1.9h-2.869v-3.516h3.61v-1.899h-5.7V149.594z M97.967,149.594h2.09
		v-11.4h2.185v-1.899h-6.46v1.899h2.185V149.594z M91.83,147.884c-0.722,0-1.083-0.437-1.083-1.312v-7.258
		c0-0.873,0.361-1.311,1.083-1.311c0.722,0,1.083,0.438,1.083,1.311v7.258C92.913,147.447,92.552,147.884,91.83,147.884z
		 M91.83,149.783c1.026,0,1.812-0.291,2.356-0.873c0.545-0.583,0.817-1.406,0.817-2.471v-6.992c0-1.063-0.272-1.887-0.817-2.47
		c-0.544-0.582-1.33-0.874-2.356-0.874c-1.026,0-1.812,0.292-2.356,0.874c-0.544,0.583-0.817,1.406-0.817,2.47v6.992
		c0,1.064,0.272,1.888,0.817,2.471C90.019,149.492,90.804,149.783,91.83,149.783z M80.829,149.594h2.09v-5.984h2.242v5.984h2.09
		v-13.3h-2.09v5.415h-2.242v-5.415h-2.09V149.594z M72.508,149.594h2.09v-11.4h2.185v-1.899h-6.46v1.899h2.185V149.594z
		 M65.345,141.994v-3.801h0.95c0.367,0,0.637,0.108,0.808,0.323c0.171,0.216,0.256,0.563,0.256,1.045v1.026
		c0,0.507-0.104,0.867-0.313,1.083s-0.522,0.323-0.94,0.323H65.345z M63.254,149.594h2.09v-5.7h0.722c0.481,0,0.82,0.12,1.017,0.361
		s0.294,0.665,0.294,1.272v2.433c0,0.493,0.013,0.836,0.038,1.026c0.025,0.189,0.076,0.393,0.152,0.607h2.128
		c-0.102-0.229-0.165-0.459-0.19-0.693s-0.038-0.541-0.038-0.922v-2.337c0-0.785-0.104-1.412-0.313-1.881
		c-0.209-0.468-0.567-0.778-1.074-0.931v-0.038c0.912-0.368,1.368-1.241,1.368-2.622v-0.817c0-1.038-0.247-1.808-0.741-2.308
		c-0.494-0.501-1.279-0.751-2.356-0.751h-3.097V149.594z M58.676,147.884c-0.722,0-1.083-0.437-1.083-1.312v-7.258
		c0-0.873,0.361-1.311,1.083-1.311c0.722,0,1.083,0.438,1.083,1.311v7.258C59.759,147.447,59.398,147.884,58.676,147.884z
		 M58.676,149.783c1.026,0,1.812-0.291,2.356-0.873c0.545-0.583,0.817-1.406,0.817-2.471v-6.992c0-1.063-0.272-1.887-0.817-2.47
		c-0.544-0.582-1.33-0.874-2.356-0.874c-1.026,0-1.812,0.292-2.356,0.874c-0.544,0.583-0.817,1.406-0.817,2.47v6.992
		c0,1.064,0.272,1.888,0.817,2.471C56.864,149.492,57.65,149.783,58.676,149.783z M50.411,142.279v-4.086h0.988
		c0.342,0,0.599,0.096,0.77,0.285c0.171,0.19,0.256,0.514,0.256,0.969v1.578c0,0.455-0.085,0.778-0.256,0.969
		c-0.171,0.189-0.427,0.285-0.77,0.285H50.411z M48.321,149.594h2.09v-5.415h0.988c1.039,0,1.817-0.278,2.337-0.836
		s0.779-1.374,0.779-2.451v-1.312c0-1.076-0.26-1.893-0.779-2.45s-1.298-0.836-2.337-0.836h-3.078V149.594z M43.97,149.783
		c1.026,0,1.808-0.291,2.346-0.873c0.539-0.583,0.808-1.419,0.808-2.508c0-0.836-0.165-1.564-0.494-2.186
		c-0.329-0.621-0.931-1.311-1.805-2.071c-0.684-0.595-1.156-1.102-1.416-1.52c-0.26-0.419-0.39-0.868-0.39-1.349
		c0-0.85,0.348-1.273,1.045-1.273c0.342,0,0.602,0.104,0.779,0.313c0.177,0.209,0.266,0.542,0.266,0.997v0.684h1.976v-0.551
		c0-1.076-0.256-1.902-0.77-2.479c-0.513-0.576-1.27-0.865-2.271-0.865c-1.013,0-1.786,0.289-2.318,0.865
		c-0.532,0.576-0.798,1.39-0.798,2.441c0,0.772,0.171,1.466,0.513,2.08c0.342,0.615,0.943,1.302,1.805,2.062
		c0.684,0.596,1.152,1.105,1.406,1.529c0.253,0.425,0.38,0.915,0.38,1.473c0,0.469-0.092,0.808-0.275,1.017
		c-0.184,0.209-0.453,0.313-0.808,0.313c-0.722,0-1.083-0.431-1.083-1.292v-0.912h-1.976v0.76c0,1.077,0.259,1.903,0.779,2.48
		C42.19,149.496,42.957,149.783,43.97,149.783z"/>
	<path fill="#FFFFFF" d="M109.063,168.584c1.026,0,1.808-0.291,2.346-0.875c0.539-0.582,0.808-1.418,0.808-2.508
		c0-0.836-0.165-1.564-0.494-2.185c-0.329-0.62-0.931-1.312-1.805-2.071c-0.684-0.596-1.156-1.102-1.416-1.52
		c-0.26-0.418-0.39-0.867-0.39-1.35c0-0.848,0.348-1.272,1.045-1.272c0.342,0,0.602,0.104,0.779,0.313
		c0.177,0.209,0.266,0.541,0.266,0.998v0.684h1.976v-0.551c0-1.077-0.256-1.903-0.77-2.48c-0.513-0.576-1.27-0.864-2.271-0.864
		c-1.013,0-1.786,0.288-2.318,0.864c-0.532,0.577-0.798,1.391-0.798,2.441c0,0.773,0.171,1.467,0.513,2.081
		c0.342,0.614,0.943,1.302,1.805,2.062c0.684,0.596,1.152,1.105,1.406,1.529c0.253,0.425,0.38,0.916,0.38,1.473
		c0,0.469-0.092,0.808-0.275,1.017c-0.184,0.209-0.453,0.313-0.808,0.313c-0.722,0-1.083-0.431-1.083-1.292v-0.912h-1.976v0.761
		c0,1.076,0.259,1.902,0.779,2.479S108.05,168.584,109.063,168.584z M101.064,168.394h2.09v-11.399h2.185v-1.9h-6.46v1.9h2.185
		V168.394z M93.901,160.793v-3.799h0.95c0.367,0,0.637,0.107,0.808,0.322c0.171,0.216,0.256,0.564,0.256,1.045v1.026
		c0,0.507-0.104,0.868-0.313,1.083s-0.522,0.322-0.94,0.322H93.901z M91.811,168.394h2.09v-5.7h0.722
		c0.481,0,0.82,0.121,1.017,0.361s0.294,0.665,0.294,1.273v2.432c0,0.494,0.013,0.836,0.038,1.025
		c0.025,0.19,0.076,0.393,0.152,0.608h2.128c-0.102-0.228-0.165-0.459-0.19-0.693s-0.038-0.542-0.038-0.922v-2.337
		c0-0.785-0.104-1.412-0.313-1.881s-0.567-0.779-1.074-0.932v-0.037c0.912-0.367,1.368-1.242,1.368-2.622v-0.817
		c0-1.038-0.247-1.808-0.741-2.309c-0.494-0.5-1.279-0.75-2.356-0.75h-3.097V168.394z M87.232,166.684
		c-0.722,0-1.083-0.438-1.083-1.311v-7.258c0-0.875,0.361-1.312,1.083-1.312c0.722,0,1.083,0.437,1.083,1.312v7.258
		C88.315,166.246,87.955,166.684,87.232,166.684z M87.232,168.584c1.026,0,1.812-0.291,2.356-0.875
		c0.545-0.582,0.817-1.405,0.817-2.469v-6.992c0-1.064-0.272-1.888-0.817-2.471c-0.544-0.582-1.33-0.874-2.356-0.874
		c-1.026,0-1.812,0.292-2.356,0.874c-0.544,0.583-0.817,1.406-0.817,2.471v6.992c0,1.063,0.272,1.887,0.817,2.469
		C85.421,168.293,86.207,168.584,87.232,168.584z M79.86,168.584c1.026,0,1.808-0.291,2.346-0.875
		c0.539-0.582,0.808-1.418,0.808-2.508c0-0.836-0.165-1.564-0.494-2.185c-0.329-0.62-0.931-1.312-1.805-2.071
		c-0.684-0.596-1.156-1.102-1.416-1.52c-0.26-0.418-0.39-0.867-0.39-1.35c0-0.848,0.348-1.272,1.045-1.272
		c0.342,0,0.602,0.104,0.779,0.313c0.177,0.209,0.266,0.541,0.266,0.998v0.684h1.976v-0.551c0-1.077-0.256-1.903-0.77-2.48
		c-0.513-0.576-1.27-0.864-2.271-0.864c-1.013,0-1.786,0.288-2.318,0.864c-0.532,0.577-0.798,1.391-0.798,2.441
		c0,0.773,0.171,1.467,0.513,2.081c0.342,0.614,0.943,1.302,1.805,2.062c0.684,0.596,1.152,1.105,1.406,1.529
		c0.253,0.425,0.38,0.916,0.38,1.473c0,0.469-0.092,0.808-0.275,1.017c-0.184,0.209-0.453,0.313-0.808,0.313
		c-0.722,0-1.083-0.431-1.083-1.292v-0.912h-1.976v0.761c0,1.076,0.259,1.902,0.779,2.479S78.847,168.584,79.86,168.584z
		 M70.208,168.394h5.7v-1.899h-3.61v-4.086h2.869v-1.899h-2.869v-3.515h3.61v-1.9h-5.7V168.394z M64.642,160.793v-3.799h0.95
		c0.367,0,0.637,0.107,0.808,0.322c0.171,0.216,0.256,0.564,0.256,1.045v1.026c0,0.507-0.104,0.868-0.313,1.083
		s-0.522,0.322-0.94,0.322H64.642z M62.551,168.394h2.09v-5.7h0.722c0.481,0,0.82,0.121,1.017,0.361s0.294,0.665,0.294,1.273v2.432
		c0,0.494,0.013,0.836,0.038,1.025c0.025,0.19,0.076,0.393,0.152,0.608h2.128c-0.102-0.228-0.165-0.459-0.19-0.693
		s-0.038-0.542-0.038-0.922v-2.337c0-0.785-0.104-1.412-0.313-1.881s-0.567-0.779-1.074-0.932v-0.037
		c0.912-0.367,1.368-1.242,1.368-2.622v-0.817c0-1.038-0.247-1.808-0.741-2.309c-0.494-0.5-1.279-0.75-2.356-0.75h-3.097V168.394z
		 M54.553,166.684c-0.317,0-0.564-0.096-0.741-0.285s-0.266-0.506-0.266-0.949v-1.35c0-0.607,0.107-1.042,0.323-1.302
		c0.215-0.259,0.563-0.39,1.045-0.39h0.798v3.078C55.598,166.285,55.211,166.684,54.553,166.684z M53.774,168.584
		c0.443,0,0.814-0.102,1.112-0.305c0.297-0.202,0.561-0.513,0.788-0.931h0.038c0.025,0.418,0.088,0.767,0.19,1.045h2.09
		c-0.102-0.228-0.165-0.459-0.19-0.693c-0.026-0.234-0.038-0.542-0.038-0.922v-4.37h0.589v-1.899h-0.589v-1.482h-2.052v1.482h-0.817
		c-0.418,0-0.731-0.108-0.94-0.323s-0.313-0.576-0.313-1.083v-0.817c0-0.455,0.092-0.785,0.275-0.988
		c0.184-0.201,0.447-0.303,0.789-0.303h2.356v-1.9h-2.394c-1.039,0-1.818,0.279-2.337,0.836c-0.52,0.558-0.779,1.375-0.779,2.451
		v0.246c0,0.71,0.117,1.289,0.351,1.739s0.599,0.776,1.093,0.979v0.038c-0.545,0.215-0.938,0.557-1.178,1.025
		s-0.361,1.052-0.361,1.748v1.387c0,0.988,0.196,1.742,0.589,2.262S53.014,168.584,53.774,168.584z"/>
</g>
<g>
	<path fill-rule="evenodd" clip-rule="evenodd" fill="#058C45" d="M38.977,99.7c0,3.252,0,6.389,0,9.586c-2.511,0-4.95,0-7.501,0
		c0-3.165,0-6.326,0-9.585c-1.573,0-3.036,0-4.548,0c0-3.987,0-7.876,0-11.901c1.61,0,3.204-0.042,4.794,0.021
		c0.739,0.028,1.095-0.199,1.397-0.888c3.427-7.828,6.89-15.639,10.345-23.454c0.304-0.688,0.533-1.429,0.947-2.042
		c0.677-1.005,0.464-1.726-0.263-2.644c-3.24-4.089-6.395-8.245-9.576-12.382c-1.114-1.447-1.007-3.129,0.247-4.109
		c1.322-1.033,2.956-0.745,4.106,0.762c2.557,3.35,5.073,6.73,7.649,10.065c6.015,7.788,12.059,15.553,18.084,23.332
		c2.736,3.533,5.47,7.067,8.171,10.626c0.405,0.534,0.812,0.729,1.479,0.729c21.441-0.019,42.882-0.016,64.323-0.016
		c0.37,0,0.74,0,1.162,0c0,3.969,0,7.858,0,11.876c-1.807,0-3.635,0-5.514,0c0,3.26,0,6.391,0,9.596c-2.471,0-4.906,0-7.467,0
		c0-3.149,0-6.332,0-9.572C97.5,99.7,68.308,99.7,38.977,99.7z M47.653,63.393C44.02,71.62,40.469,79.66,36.901,87.739
		c9.903,0,19.638,0,29.514,0C60.14,79.597,53.948,71.562,47.653,63.393z"/>
	<path fill-rule="evenodd" clip-rule="evenodd" fill="#058C45" d="M133.799,86.298c-0.334,0-0.576,0-0.819,0
		c-3.81-0.001-7.618,0.009-11.427-0.018c-0.448-0.003-0.936-0.123-1.336-0.324c-6.031-3.041-12.059-6.093-18.067-9.179
		c-0.579-0.297-1.009-0.269-1.567-0.011c-6.673,3.087-13.356,6.15-20.038,9.218c-3.266,1.499-6.068,0.8-8.247-2.064
		c-5.446-7.162-10.892-14.326-16.331-21.495c-1.813-2.389-2.053-5.329-0.65-7.575c2.271-3.638,7.313-3.998,10.052-0.696
		c1.767,2.128,3.494,4.29,5.299,6.511c1.247-0.749,2.479-1.489,3.71-2.23c2.558-1.54,5.108-3.095,7.681-4.61
		c0.509-0.301,0.653-0.612,0.587-1.203c-0.32-2.906-0.584-5.816-0.875-8.8c3.263,0,6.455,0,9.787,0
		c-0.189,1.922-0.325,3.82-0.582,5.704c-0.148,1.092,0.022,1.894,0.835,2.766c1.954,2.095,1.546,4.883-0.799,6.629
		c-2.747,2.046-5.602,3.946-8.408,5.91c-2.002,1.403-4.001,2.811-6.064,4.259c0.972,1.281,1.872,2.528,2.856,3.703
		c0.157,0.188,0.738,0.176,1.048,0.058c6.195-2.343,12.402-4.657,18.554-7.112c2.172-0.866,3.939-0.717,5.889,0.663
		c6.34,4.487,12.771,8.849,19.203,13.205c0.914,0.619,2.001,1.021,3.056,1.382c1.989,0.679,4.005,1.278,6.026,1.854
		c0.504,0.144,0.652,0.354,0.635,0.842C133.777,84.522,133.799,85.364,133.799,86.298z"/>
	<path fill-rule="evenodd" clip-rule="evenodd" fill="#058C45" d="M52.773,52.286c-4.423-0.097-8.176-3.572-8.153-8.257
		c0.022-4.503,3.762-8.198,8.272-8.166c4.505,0.031,8.188,3.771,8.164,8.287C61.031,48.67,57.336,52.299,52.773,52.286z"/>
	<path fill-rule="evenodd" clip-rule="evenodd" fill="#058C45" d="M47.408,47.166c-0.506,0-0.875,0-1.37,0
		c0.287-1.451,0.562-2.847,0.834-4.23c1.262-0.178,1.369-0.069,1.142,1.07C47.808,45.047,47.614,46.089,47.408,47.166z"/>
	<polygon fill-rule="evenodd" clip-rule="evenodd" fill="#058C45" points="90.853,41 89.442,41 88.189,43 89.442,43 	"/>
</g>
</svg>
