<?xml version="1.0" encoding="utf-8"?>
<!-- Generator: Adobe Illustrator 16.0.0, SVG Export Plug-In . SVG Version: 6.00 Build 0)  -->
<!DOCTYPE svg PUBLIC "-//W3C//DTD SVG 1.1//EN" "http://www.w3.org/Graphics/SVG/1.1/DTD/svg11.dtd">
<svg version="1.1" id="Layer_1" xmlns="http://www.w3.org/2000/svg" xmlns:xlink="http://www.w3.org/1999/xlink" x="0px" y="0px"
	 width="163.5px" height="187.5px" viewBox="0 0 163.5 187.5" enable-background="new 0 0 163.5 187.5" xml:space="preserve">
<path fill-rule="evenodd" clip-rule="evenodd" fill="#010101" d="M91.09,162.654"/>
<rect x="5" y="5" fill-rule="evenodd" clip-rule="evenodd" fill="#FFFFFF" stroke="#068C45" stroke-width="2" stroke-miterlimit="10" width="154" height="177"/>
<rect x="6" y="125" fill-rule="evenodd" clip-rule="evenodd" fill="#058C45" width="154" height="56"/>
<g>
	<path fill="#FFFFFF" d="M119.437,148.884c-0.317,0-0.564-0.095-0.741-0.285s-0.266-0.507-0.266-0.95V146.3
		c0-0.608,0.107-1.042,0.323-1.302c0.215-0.26,0.563-0.389,1.045-0.389h0.798v3.077
		C120.481,148.484,120.095,148.884,119.437,148.884z M118.657,150.783c0.443,0,0.814-0.102,1.112-0.303
		c0.297-0.203,0.561-0.514,0.788-0.932h0.038c0.025,0.418,0.088,0.767,0.19,1.045h2.09c-0.102-0.229-0.164-0.459-0.189-0.693
		s-0.038-0.541-0.038-0.922v-4.369h0.589v-1.9h-0.589v-1.482h-2.052v1.482h-0.817c-0.418,0-0.731-0.107-0.94-0.323
		s-0.313-0.576-0.313-1.083v-0.816c0-0.457,0.092-0.785,0.275-0.988s0.447-0.305,0.789-0.305h2.356v-1.899h-2.394
		c-1.039,0-1.818,0.278-2.337,0.836c-0.52,0.558-0.779,1.374-0.779,2.45v0.248c0,0.709,0.117,1.289,0.351,1.738
		s0.599,0.775,1.093,0.979v0.037c-0.545,0.217-0.938,0.559-1.178,1.027s-0.361,1.051-0.361,1.748v1.387
		c0,0.988,0.196,1.741,0.589,2.261S117.897,150.783,118.657,150.783z M109.082,150.783c1.026,0,1.808-0.291,2.346-0.873
		c0.539-0.583,0.808-1.419,0.808-2.508c0-0.836-0.165-1.564-0.494-2.186c-0.329-0.621-0.931-1.311-1.805-2.071
		c-0.684-0.595-1.156-1.102-1.416-1.52c-0.26-0.419-0.39-0.868-0.39-1.349c0-0.85,0.348-1.273,1.045-1.273
		c0.342,0,0.602,0.104,0.779,0.313c0.177,0.209,0.266,0.542,0.266,0.997v0.684h1.976v-0.551c0-1.076-0.256-1.902-0.77-2.479
		c-0.513-0.576-1.27-0.865-2.271-0.865c-1.013,0-1.786,0.289-2.318,0.865c-0.532,0.576-0.798,1.39-0.798,2.441
		c0,0.772,0.171,1.466,0.513,2.08c0.342,0.615,0.943,1.302,1.805,2.062c0.684,0.596,1.152,1.105,1.406,1.529
		c0.253,0.425,0.38,0.915,0.38,1.473c0,0.469-0.092,0.808-0.275,1.017c-0.184,0.209-0.453,0.313-0.808,0.313
		c-0.722,0-1.083-0.431-1.083-1.292v-0.912h-1.976v0.76c0,1.077,0.259,1.903,0.779,2.48
		C107.302,150.496,108.068,150.783,109.082,150.783z M100.798,142.994v-3.801h0.95c0.367,0,0.637,0.108,0.808,0.323
		c0.171,0.216,0.256,0.563,0.256,1.045v1.026c0,0.507-0.104,0.867-0.313,1.083s-0.522,0.323-0.94,0.323H100.798z M98.708,150.594
		h2.09v-5.7h0.722c0.481,0,0.82,0.12,1.017,0.361s0.294,0.665,0.294,1.272v2.433c0,0.493,0.013,0.836,0.038,1.026
		c0.025,0.189,0.076,0.393,0.152,0.607h2.128c-0.102-0.229-0.165-0.459-0.19-0.693s-0.038-0.541-0.038-0.922v-2.337
		c0-0.785-0.104-1.412-0.313-1.881c-0.209-0.468-0.567-0.778-1.074-0.931v-0.038c0.912-0.368,1.368-1.241,1.368-2.622v-0.817
		c0-1.038-0.247-1.808-0.741-2.308c-0.494-0.501-1.279-0.751-2.356-0.751h-3.097V150.594z M93.103,146.186l0.912-6.574h0.038
		l0.931,6.574H93.103z M90.538,150.594h1.938l0.38-2.604h2.375v-0.037l0.38,2.641h2.09l-2.166-13.3h-2.831L90.538,150.594z
		 M85.503,148.693v-4.084h0.931c0.481,0,0.827,0.117,1.036,0.352s0.313,0.654,0.313,1.263v1.159c0,0.481-0.089,0.82-0.266,1.017
		s-0.45,0.294-0.817,0.294H85.503z M85.503,142.709v-3.516h1.007c0.367,0,0.637,0.108,0.808,0.323
		c0.171,0.216,0.256,0.563,0.256,1.045v0.741c0,0.507-0.104,0.867-0.313,1.083s-0.522,0.323-0.94,0.323H85.503z M83.413,150.594
		H86.7c1.039,0,1.827-0.27,2.366-0.808c0.538-0.538,0.807-1.32,0.807-2.347v-1.14c0-1.495-0.52-2.419-1.558-2.774v-0.037
		c0.456-0.19,0.794-0.501,1.016-0.932c0.222-0.43,0.333-0.988,0.333-1.672v-0.532c0-1.038-0.247-1.808-0.741-2.308
		c-0.494-0.501-1.28-0.751-2.356-0.751h-3.154V150.594z M75.091,150.594h2.09v-11.4h2.185v-1.899h-6.46v1.899h2.185V150.594z
		 M67.929,142.994v-3.801h0.95c0.367,0,0.637,0.108,0.808,0.323c0.171,0.216,0.256,0.563,0.256,1.045v1.026
		c0,0.507-0.104,0.867-0.313,1.083s-0.522,0.323-0.94,0.323H67.929z M65.838,150.594h2.09v-5.7h0.722c0.481,0,0.82,0.12,1.017,0.361
		s0.294,0.665,0.294,1.272v2.433c0,0.493,0.013,0.836,0.038,1.026c0.025,0.189,0.076,0.393,0.152,0.607h2.128
		c-0.102-0.229-0.165-0.459-0.19-0.693s-0.038-0.541-0.038-0.922v-2.337c0-0.785-0.104-1.412-0.313-1.881
		c-0.209-0.468-0.567-0.778-1.074-0.931v-0.038c0.912-0.368,1.368-1.241,1.368-2.622v-0.817c0-1.038-0.247-1.808-0.741-2.308
		c-0.494-0.501-1.279-0.751-2.356-0.751h-3.097V150.594z M61.259,148.884c-0.722,0-1.083-0.437-1.083-1.312v-7.258
		c0-0.873,0.361-1.311,1.083-1.311c0.722,0,1.083,0.438,1.083,1.311v7.258C62.342,148.447,61.981,148.884,61.259,148.884z
		 M61.259,150.783c1.026,0,1.812-0.291,2.356-0.873c0.545-0.583,0.817-1.406,0.817-2.471v-6.992c0-1.063-0.272-1.887-0.817-2.47
		c-0.544-0.582-1.33-0.874-2.356-0.874c-1.026,0-1.812,0.292-2.356,0.874c-0.544,0.583-0.817,1.406-0.817,2.47v6.992
		c0,1.064,0.272,1.888,0.817,2.471C59.448,150.492,60.233,150.783,61.259,150.783z M52.995,143.279v-4.086h0.988
		c0.342,0,0.599,0.096,0.77,0.285c0.171,0.19,0.256,0.514,0.256,0.969v1.578c0,0.455-0.085,0.778-0.256,0.969
		c-0.171,0.189-0.427,0.285-0.77,0.285H52.995z M50.904,150.594h2.09v-5.415h0.988c1.039,0,1.817-0.278,2.337-0.836
		s0.779-1.374,0.779-2.451v-1.312c0-1.076-0.26-1.893-0.779-2.45s-1.298-0.836-2.337-0.836h-3.078V150.594z M46.554,150.783
		c1.026,0,1.808-0.291,2.346-0.873c0.539-0.583,0.808-1.419,0.808-2.508c0-0.836-0.165-1.564-0.494-2.186
		c-0.329-0.621-0.931-1.311-1.805-2.071c-0.684-0.595-1.156-1.102-1.416-1.52c-0.26-0.419-0.39-0.868-0.39-1.349
		c0-0.85,0.348-1.273,1.045-1.273c0.342,0,0.602,0.104,0.779,0.313c0.177,0.209,0.266,0.542,0.266,0.997v0.684h1.976v-0.551
		c0-1.076-0.256-1.902-0.77-2.479c-0.513-0.576-1.27-0.865-2.271-0.865c-1.013,0-1.786,0.289-2.318,0.865
		c-0.532,0.576-0.798,1.39-0.798,2.441c0,0.772,0.171,1.466,0.513,2.08c0.342,0.615,0.943,1.302,1.805,2.062
		c0.684,0.596,1.152,1.105,1.406,1.529c0.253,0.425,0.38,0.915,0.38,1.473c0,0.469-0.092,0.808-0.275,1.017
		c-0.184,0.209-0.453,0.313-0.808,0.313c-0.722,0-1.083-0.431-1.083-1.292v-0.912h-1.976v0.76c0,1.077,0.259,1.903,0.779,2.48
		C44.774,150.496,45.54,150.783,46.554,150.783z"/>
	<path fill="#FFFFFF" d="M119.911,169.584c1.026,0,1.808-0.291,2.347-0.875c0.538-0.582,0.807-1.418,0.807-2.508
		c0-0.836-0.164-1.564-0.494-2.185c-0.328-0.62-0.93-1.312-1.804-2.071c-0.684-0.596-1.156-1.102-1.416-1.52
		c-0.26-0.418-0.39-0.867-0.39-1.35c0-0.848,0.348-1.272,1.045-1.272c0.342,0,0.602,0.104,0.779,0.313
		c0.177,0.209,0.266,0.541,0.266,0.998v0.684h1.977v-0.551c0-1.077-0.257-1.903-0.77-2.48c-0.514-0.576-1.271-0.864-2.271-0.864
		c-1.013,0-1.786,0.288-2.318,0.864c-0.532,0.577-0.798,1.391-0.798,2.441c0,0.773,0.171,1.467,0.513,2.081
		c0.342,0.614,0.943,1.302,1.805,2.062c0.684,0.596,1.152,1.105,1.406,1.529c0.253,0.425,0.38,0.916,0.38,1.473
		c0,0.469-0.092,0.808-0.275,1.017c-0.184,0.209-0.453,0.313-0.808,0.313c-0.722,0-1.083-0.431-1.083-1.292v-0.912h-1.976v0.761
		c0,1.076,0.259,1.902,0.779,2.479S118.897,169.584,119.911,169.584z M111.912,169.394h2.09v-11.399h2.185v-1.9h-6.46v1.9h2.185
		V169.394z M102.165,169.394h1.862v-9.709h0.038l2.508,9.709h2.147v-13.3h-1.862v7.961h-0.038l-2.033-7.961h-2.622V169.394z
		 M96.561,164.985l0.912-6.573h0.038l0.931,6.573H96.561z M93.996,169.394h1.938l0.38-2.603h2.375v-0.039l0.38,2.642h2.09
		l-2.166-13.3h-2.831L93.996,169.394z M88.98,161.793v-3.799h0.95c0.367,0,0.637,0.107,0.808,0.322
		c0.171,0.216,0.256,0.564,0.256,1.045v1.026c0,0.507-0.104,0.868-0.313,1.083s-0.522,0.322-0.94,0.322H88.98z M86.89,169.394h2.09
		v-5.7h0.722c0.481,0,0.82,0.121,1.017,0.361s0.294,0.665,0.294,1.273v2.432c0,0.494,0.013,0.836,0.038,1.025
		c0.025,0.19,0.076,0.393,0.152,0.608h2.128c-0.102-0.228-0.165-0.459-0.19-0.693s-0.038-0.542-0.038-0.922v-2.337
		c0-0.785-0.104-1.412-0.313-1.881s-0.567-0.779-1.074-0.932v-0.037c0.912-0.367,1.368-1.242,1.368-2.622v-0.817
		c0-1.038-0.247-1.808-0.741-2.309c-0.494-0.5-1.279-0.75-2.356-0.75H86.89V169.394z M82.292,169.584
		c1.013,0,1.786-0.289,2.318-0.865c0.532-0.576,0.798-1.402,0.798-2.479v-10.146h-2.014v10.298c0,0.456-0.092,0.786-0.275,0.987
		c-0.184,0.203-0.446,0.305-0.789,0.305c-0.342,0-0.605-0.102-0.789-0.305c-0.184-0.201-0.275-0.531-0.275-0.987v-10.298h-2.09
		v10.146c0,1.076,0.266,1.902,0.798,2.479C80.506,169.295,81.278,169.584,82.292,169.584z M73.685,164.985l0.912-6.573h0.038
		l0.931,6.573H73.685z M71.12,169.394h1.938l0.38-2.603h2.375v-0.039l0.38,2.642h2.09l-2.166-13.3h-2.831L71.12,169.394z
		 M67.263,169.394h2.09v-11.399h2.185v-1.9h-6.46v1.9h2.185V169.394z M61.278,169.584c1.026,0,1.808-0.291,2.346-0.875
		c0.539-0.582,0.808-1.418,0.808-2.508c0-0.836-0.165-1.564-0.494-2.185c-0.329-0.62-0.931-1.312-1.805-2.071
		c-0.684-0.596-1.156-1.102-1.416-1.52c-0.26-0.418-0.39-0.867-0.39-1.35c0-0.848,0.348-1.272,1.045-1.272
		c0.342,0,0.602,0.104,0.779,0.313c0.177,0.209,0.266,0.541,0.266,0.998v0.684h1.976v-0.551c0-1.077-0.256-1.903-0.77-2.48
		c-0.513-0.576-1.27-0.864-2.271-0.864c-1.013,0-1.786,0.288-2.318,0.864c-0.532,0.577-0.798,1.391-0.798,2.441
		c0,0.773,0.171,1.467,0.513,2.081c0.342,0.614,0.943,1.302,1.805,2.062c0.684,0.596,1.152,1.105,1.406,1.529
		c0.253,0.425,0.38,0.916,0.38,1.473c0,0.469-0.092,0.808-0.275,1.017c-0.184,0.209-0.453,0.313-0.808,0.313
		c-0.722,0-1.083-0.431-1.083-1.292v-0.912H58.2v0.761c0,1.076,0.259,1.902,0.779,2.479S60.264,169.584,61.278,169.584z
		 M51.626,169.394h5.7v-1.899h-3.61v-4.086h2.869v-1.899h-2.869v-3.515h3.61v-1.9h-5.7V169.394z M46.059,161.793v-3.799h0.95
		c0.367,0,0.637,0.107,0.808,0.322c0.171,0.216,0.256,0.564,0.256,1.045v1.026c0,0.507-0.104,0.868-0.313,1.083
		s-0.522,0.322-0.94,0.322H46.059z M43.969,169.394h2.09v-5.7h0.722c0.481,0,0.82,0.121,1.017,0.361s0.294,0.665,0.294,1.273v2.432
		c0,0.494,0.013,0.836,0.038,1.025c0.025,0.19,0.076,0.393,0.152,0.608h2.128c-0.102-0.228-0.165-0.459-0.19-0.693
		s-0.038-0.542-0.038-0.922v-2.337c0-0.785-0.104-1.412-0.313-1.881s-0.567-0.779-1.074-0.932v-0.037
		c0.912-0.367,1.368-1.242,1.368-2.622v-0.817c0-1.038-0.247-1.808-0.741-2.309c-0.494-0.5-1.279-0.75-2.356-0.75h-3.097V169.394z"
		/>
</g>
<g>
	<line fill="#058C45" x1="85.5" y1="22" x2="85.5" y2="115"/>
	<polyline fill="#068C45" points="84,22 84,115 87,115 87,22 	"/>
</g>
<g>
	<path fill-rule="evenodd" clip-rule="evenodd" fill="#058C45" d="M117.06,80.902c3.231-3.891,6.713-7.605,9.583-11.747
		c1.312-1.888,2.127-4.676,1.922-6.944c-0.443-4.892,0.869-9.082,3.593-12.908c3.134-4.404,6.452-8.679,9.751-12.967
		c0.513-0.669,1.339-1.098,2.711-1.073c-3.417,5.623-6.836,11.242-10.253,16.861c0.356,0.225,0.713,0.444,1.07,0.669
		c3.561-5.63,7.12-11.259,10.682-16.889c0.384,0.214,0.768,0.432,1.151,0.648c-3.268,5.799-6.534,11.599-9.803,17.401
		c0.347,0.207,0.693,0.41,1.039,0.618c3.418-5.738,6.835-11.479,10.252-17.218c0.386,0.203,0.771,0.41,1.156,0.617
		c-3.135,5.959-6.271,11.922-9.404,17.884c0.384,0.207,0.769,0.414,1.152,0.621c3.173-5.844,6.347-11.687,9.521-17.53
		c0.439,0.266,0.879,0.533,1.32,0.798c-4.434,9.521-5.56,20.848-16.607,26.719c-2.487,1.32-4.307,4.424-5.736,7.079
		c-2.069,3.854-3.222,8.199-5.273,12.06c-3.58,6.736-7.59,13.239-11.333,19.887c-1.471,2.611-3.377,3.745-6.119,2.126
		c-2.66-1.572-3.332-3.569-1.562-6.557c3.947-6.662,7.571-13.514,11.327-20.287L117.06,80.902z"/>
	<path fill-rule="evenodd" clip-rule="evenodd" fill="#058C45" d="M117.199,80.771c-3.365-1.361-8.201-1.752-9.836-4.248
		c-6.785-10.342-12.428-21.403-12.771-34.238c-0.055-2.099,0.688-4.224,2.036-6.451c1.457,2.428,2.948,4.835,4.363,7.287
		c4.859,8.409,9.461,16.979,14.629,25.192c2.641,4.194,4.259,8.007,1.436,12.59C117.06,80.902,117.199,80.771,117.199,80.771z
		 M107.649,57.485c-0.331,0.18-0.663,0.363-0.995,0.543c2.786,5.47,5.574,10.939,8.359,16.41c0.582-0.316,1.166-0.629,1.749-0.941
		C113.726,68.16,110.688,62.822,107.649,57.485z"/>
	<path fill-rule="evenodd" clip-rule="evenodd" fill="#058C45" d="M125.904,86.396c3.195,5.507,6.254,10.604,9.123,15.805
		c1.372,2.486-0.012,4.303-2.172,5.464c-2.033,1.09-4.016,1.12-5.367-1.229c-1.865-3.242-3.883-6.413-5.533-9.765
		c-0.488-0.988-0.295-2.632,0.182-3.711C123.081,90.827,124.443,88.882,125.904,86.396z"/>
	<path fill-rule="evenodd" clip-rule="evenodd" fill="#FFFFFF" d="M107.649,57.485c3.038,5.337,6.076,10.675,9.113,16.012
		c-0.583,0.313-1.167,0.625-1.749,0.941c-2.785-5.471-5.573-10.94-8.359-16.41C106.986,57.849,107.318,57.665,107.649,57.485z"/>
</g>
<g>
	<path fill-rule="evenodd" clip-rule="evenodd" fill="#058C45" d="M60.828,25.83c-0.146-0.069-0.292-0.123-0.423-0.202
		c-0.375-0.23-0.532-0.528-0.383-0.988c0.325-1.014,0.614-2.036,0.928-3.09c-0.237-0.027-0.431-0.052-0.616-0.074
		c-0.307-1.371,0.611-3.093,2.408-3.042c2.009,0.057,4.024,0.076,6.031-0.005c1.869-0.076,2.807,1.587,2.537,3.041
		c-0.184,0.022-0.38,0.045-0.628,0.074c0.291,0.982,0.572,1.94,0.858,2.896c0.237,0.791,0.063,1.119-0.78,1.357
		c0.088,1.188,0.173,2.389,0.268,3.587c0.172,2.223,0.352,4.445,0.525,6.668c0.18,2.301,0.334,4.603,0.542,6.9
		c0.108,1.185,0.253,2.371,0.483,3.538c0.361,1.833,1.17,3.513,2.095,5.116c2.347,4.066,3.486,8.438,3.483,13.122
		c-0.004,6.959-0.007,13.918-0.007,20.878c0,8.609,0.01,17.217,0.006,25.827c-0.001,1.309-0.505,2.358-1.758,2.914
		c-0.305,0.136-0.667,0.194-1.004,0.194c-6.378,0.012-12.757,0.01-19.135,0.007c-1.356-0.001-2.499-0.956-2.673-2.308
		c-0.102-0.789-0.111-1.594-0.112-2.392c-0.007-8.985-0.004-17.972-0.003-26.958c0-5.891-0.001-11.781,0.001-17.671
		c0.001-3.209,0.316-6.383,1.519-9.379c0.739-1.843,1.68-3.608,2.575-5.384c1.108-2.201,1.788-4.504,1.945-6.971
		c0.148-2.319,0.369-4.632,0.547-6.949c0.165-2.144,0.314-4.289,0.475-6.434c0.095-1.269,0.199-2.536,0.294-3.805
		C60.838,26.145,60.828,25.991,60.828,25.83z"/>
</g>
<g>
	<path fill-rule="evenodd" clip-rule="evenodd" fill="#058C45" d="M47.979,114.104c0.369-0.177,0.771-0.301,1.1-0.54
		c0.818-0.597,1.164-1.477,1.163-2.526c-0.002-3.473,0-6.945,0-10.418c0-6.16,0-12.32,0-18.479c0-0.178,0-0.354,0-0.556
		c-0.969,0-1.89,0-2.866,0c0,0.187,0.002,0.361,0,0.537c-0.021,1.72,0.056,3.449-0.087,5.158c-0.221,2.642-2.485,4.754-4.976,4.812
		c-2.618,0.061-4.893-1.887-5.31-4.572c-0.076-0.487-0.087-0.99-0.091-1.486c-0.011-1.476-0.004-2.95-0.004-4.45
		c-3.853,0-7.66,0-11.522,0c0,0.218,0,0.425,0,0.632c0,9.436,0,18.872,0,28.309c0,2.117,0.44,2.821,2.239,3.581
		C34.408,114.104,41.193,114.104,47.979,114.104z"/>
	<path fill-rule="evenodd" clip-rule="evenodd" fill="#058C45" d="M37.083,67.705c-0.256,0.067-0.513,0.13-0.768,0.205
		c-1.113,0.326-2.063,0.941-2.841,1.859c-0.807,0.953-1.48,1.086-2.543,0.495c-2.11-1.172-4.706-0.576-6.16,1.415
		c-1.47,2.012-1.408,4.853,0.138,6.759c0.227,0.279,0.459,0.414,0.825,0.412c4.39-0.016,8.781-0.011,13.171-0.011
		c0.165,0,0.33,0,0.535,0c0,0.214,0,0.376,0,0.538c0,2.387-0.015,4.771,0.009,7.157c0.011,1.194,0.559,2.079,1.57,2.575
		c1.012,0.495,1.984,0.342,2.845-0.409c0.689-0.6,0.978-1.414,0.977-2.356c-0.001-2.295,0-4.59,0-6.885c0-0.182,0-0.361,0-0.62
		c0.163,0,0.31,0,0.457,0c1.548,0,3.096-0.007,4.644,0.007c0.292,0.003,0.496-0.088,0.693-0.32c1.592-1.876,1.715-4.706,0.28-6.751
		c-1.427-2.034-4.007-2.692-6.127-1.563c-1.233,0.656-1.767,0.547-2.711-0.522c-0.91-1.029-2.017-1.669-3.326-1.901
		c-0.08-0.015-0.155-0.056-0.233-0.084C38.04,67.705,37.562,67.705,37.083,67.705z"/>
	<path fill-rule="evenodd" clip-rule="evenodd" fill="#058C45" d="M22.828,108.384c0-1.949,0-3.846,0-5.773
		c-0.248-0.015-0.485-0.012-0.717-0.045c-1.391-0.199-2.381-1.345-2.401-2.861c-0.028-2.159-0.032-4.319,0.001-6.479
		c0.025-1.657,1.188-2.836,2.744-2.867c0.112-0.002,0.223,0,0.366,0c0-1.936,0-3.845,0-5.751c-5.101-0.639-8.476,3.285-8.512,7.626
		c-0.023,2.823-0.04,5.648,0.004,8.472c0.067,4.354,3.221,7.651,7.283,7.678C21.989,108.386,22.382,108.384,22.828,108.384z"/>
</g>
</svg>
