<?xml version="1.0" encoding="utf-8"?>
<!-- Generator: Adobe Illustrator 16.0.0, SVG Export Plug-In . SVG Version: 6.00 Build 0)  -->
<!DOCTYPE svg PUBLIC "-//W3C//DTD SVG 1.1//EN" "http://www.w3.org/Graphics/SVG/1.1/DTD/svg11.dtd">
<svg version="1.1" id="Layer_1" xmlns="http://www.w3.org/2000/svg" xmlns:xlink="http://www.w3.org/1999/xlink" x="0px" y="0px"
	 width="163.5px" height="187.5px" viewBox="0 0 163.5 187.5" enable-background="new 0 0 163.5 187.5" xml:space="preserve">
<rect x="4" y="5" fill-rule="evenodd" clip-rule="evenodd" fill="#FFFFFF" stroke="#058C45" stroke-width="2" stroke-miterlimit="10" width="155" height="177"/>
<rect x="5" y="125" fill-rule="evenodd" clip-rule="evenodd" fill="#058C45" width="155" height="56"/>
<g>
	<path fill-rule="evenodd" clip-rule="evenodd" fill="#058C45" d="M74.844,63.064c1.116,3.684,0.045,6.232-3.738,7.527
		c-4.713,1.613-6.093,5.16-5.463,9.794c0.593,4.37,3.371,6.28,7.659,6.402c0,7.608,0,14.946,0,23.568
		c-4.517-1.665-9.112-2.34-12.361-4.796c-4.845-3.662-9.638-8.008-12.876-13.07C36.562,74.514,33.281,54.005,30.981,33.645
		c8.369-1.598,16.382-2.735,24.177-4.727c7.975-2.037,14.957-6.095,19.888-13.374C86.374,29.75,102.253,31.779,119.4,33.009
		c-1.406,8.421-2.787,16.69-4.402,26.364c-7.758-8.263-14.531-4.658-21.283-0.439c-4.354,2.725-9.002,4.2-14.244,3.633
		c-1.53-0.166-3.138,0.385-4.705,0.598c0.008-14.635,0.008-29.26,0.008-44.449C63.637,31.683,48.56,32.742,33.083,34.568
		c1.602,9.533,3.142,18.707,4.697,27.961c6.676,0,12.422-0.068,18.164,0.021C62.246,62.645,68.544,62.889,74.844,63.064z"/>
	<path fill-rule="evenodd" clip-rule="evenodd" fill="#058C45" d="M104.809,112.324c-7.673,0.002-15.35-0.1-23.02,0.045
		c-3.631,0.068-5.029-1.398-4.953-4.994c0.146-6.933-0.117-13.877,0.161-20.801c0.059-1.475,1.36-3.506,2.671-4.225
		c7.493-4.113,15.114-8.002,22.811-11.716c1.318-0.637,3.476-0.618,4.801,0.02c7.699,3.712,15.313,7.604,22.823,11.681
		c1.235,0.671,2.532,2.523,2.581,3.873c0.253,7.223,0.063,14.459,0.146,21.69c0.035,3.222-1.395,4.49-4.561,4.454
		C120.451,112.262,112.628,112.322,104.809,112.324z M115.185,100.367c0-2.064-0.137-4.141,0.028-6.191
		c0.305-3.76-1.213-5.484-5.068-5.313c-3.533,0.154-7.082,0.146-10.615,0.014c-3.83-0.145-5.355,1.545-5.066,5.331
		c0.202,2.638,0.037,5.306,0.037,7.962c0.004,9.271,0.004,9.289,9.477,9.27C116.443,111.412,115.131,112.631,115.185,100.367z"/>
	<path fill-rule="evenodd" clip-rule="evenodd" fill="#058C45" d="M140.703,77.092c0,6.004-1.611,6.982-5.77,4.861
		c-9.059-4.627-18.133-9.229-27.113-14.008c-2.197-1.171-3.883-1.107-6.05,0.046c-8.854,4.708-17.803,9.229-26.725,13.806
		c-1.941,0.998-4.282,2.7-5.551-0.406c-1.042-2.555-1.479-5.509,1.917-7.235c7.622-3.876,15.621-7.202,22.699-11.906
		c7.666-5.096,14.108-4.724,21.636,0.144c6.901,4.463,14.646,7.606,21.905,11.547C139.172,74.765,140.182,76.53,140.703,77.092z"/>
	<path fill-rule="evenodd" clip-rule="evenodd" fill="#FFFFFF" d="M74.844,63.064c-6.299-0.176-12.598-0.42-18.9-0.515
		c-5.742-0.089-11.488-0.021-18.164-0.021c-1.556-9.254-3.096-18.428-4.697-27.961c15.478-1.826,30.554-2.886,41.691-15.854
		c0,15.189,0,29.814-0.008,44.449C74.759,63.174,74.844,63.064,74.844,63.064z"/>
	<path fill-rule="evenodd" clip-rule="evenodd" fill="#FFFFFF" d="M115.185,100.367c-0.054,12.264,1.259,11.045-11.208,11.072
		c-9.473,0.02-9.473,0.002-9.477-9.27c0-2.656,0.165-5.324-0.037-7.962c-0.289-3.786,1.236-5.476,5.066-5.331
		c3.533,0.133,7.082,0.141,10.615-0.014c3.855-0.172,5.373,1.553,5.068,5.313C115.048,96.227,115.185,98.303,115.185,100.367z"/>
</g>
<g>
	<path fill="#FFFFFF" d="M119.11,162.455c1.026,0,1.808-0.291,2.347-0.875c0.538-0.582,0.807-1.418,0.807-2.508
		c0-0.836-0.164-1.564-0.494-2.185c-0.328-0.62-0.93-1.312-1.804-2.071c-0.684-0.596-1.156-1.102-1.416-1.52
		c-0.26-0.418-0.39-0.867-0.39-1.35c0-0.848,0.348-1.272,1.045-1.272c0.342,0,0.602,0.104,0.779,0.313
		c0.177,0.209,0.266,0.541,0.266,0.998v0.684h1.976v-0.551c0-1.077-0.257-1.903-0.77-2.48c-0.513-0.576-1.271-0.864-2.271-0.864
		c-1.013,0-1.786,0.288-2.318,0.864c-0.532,0.577-0.798,1.391-0.798,2.441c0,0.773,0.171,1.467,0.513,2.081
		c0.342,0.614,0.943,1.302,1.805,2.062c0.684,0.596,1.152,1.105,1.406,1.529c0.253,0.425,0.38,0.916,0.38,1.473
		c0,0.469-0.092,0.808-0.275,1.017c-0.184,0.209-0.453,0.313-0.808,0.313c-0.722,0-1.083-0.431-1.083-1.292v-0.912h-1.976v0.761
		c0,1.076,0.259,1.902,0.779,2.479S118.097,162.455,119.11,162.455z M110.808,160.365v-4.086h0.931c0.481,0,0.827,0.117,1.036,0.352
		s0.313,0.656,0.313,1.264v1.159c0,0.481-0.089,0.82-0.266,1.017s-0.45,0.295-0.817,0.295H110.808z M110.808,154.38v-3.515h1.007
		c0.367,0,0.637,0.107,0.808,0.322c0.171,0.216,0.256,0.564,0.256,1.045v0.741c0,0.507-0.104,0.868-0.313,1.083
		s-0.522,0.323-0.94,0.323H110.808z M108.717,162.265h3.287c1.039,0,1.827-0.269,2.366-0.808c0.538-0.538,0.807-1.32,0.807-2.346
		v-1.141c0-1.494-0.52-2.42-1.558-2.773v-0.039c0.456-0.189,0.794-0.5,1.016-0.931s0.333-0.987,0.333-1.672v-0.532
		c0-1.038-0.247-1.808-0.741-2.309c-0.494-0.5-1.28-0.75-2.356-0.75h-3.154V162.265z M104.12,162.455
		c1.013,0,1.786-0.289,2.318-0.865c0.532-0.576,0.798-1.402,0.798-2.479v-10.146h-2.014v10.298c0,0.456-0.092,0.786-0.275,0.987
		c-0.184,0.203-0.446,0.305-0.789,0.305c-0.342,0-0.605-0.102-0.789-0.305c-0.184-0.201-0.275-0.531-0.275-0.987v-10.298h-2.09
		v10.146c0,1.076,0.266,1.902,0.798,2.479C102.334,162.166,103.106,162.455,104.12,162.455z M94.543,162.265h5.529v-1.899h-3.439
		v-11.4h-2.09V162.265z M90.212,162.455c1,0,1.764-0.285,2.29-0.855c0.525-0.57,0.788-1.374,0.788-2.413v-1.881h-1.976v2.033
		c0,0.811-0.349,1.216-1.045,1.216c-0.696,0-1.045-0.405-1.045-1.216v-7.429c0-0.824,0.349-1.235,1.045-1.235
		c0.697,0,1.045,0.411,1.045,1.235v1.539h1.976v-1.406c0-1.039-0.263-1.844-0.788-2.413c-0.526-0.57-1.289-0.855-2.29-0.855
		c-1.001,0-1.764,0.285-2.29,0.855c-0.526,0.569-0.789,1.374-0.789,2.413v7.144c0,1.039,0.263,1.843,0.789,2.413
		C88.448,162.17,89.211,162.455,90.212,162.455z M78.945,162.265h2.09v-11.399h2.185v-1.9h-6.46v1.9h2.185V162.265z M71.782,154.664
		v-3.799h0.95c0.367,0,0.637,0.107,0.808,0.322c0.171,0.216,0.256,0.564,0.256,1.045v1.026c0,0.507-0.104,0.868-0.313,1.083
		s-0.522,0.322-0.94,0.322H71.782z M69.692,162.265h2.09v-5.7h0.722c0.481,0,0.82,0.121,1.017,0.361s0.294,0.665,0.294,1.273v2.432
		c0,0.494,0.013,0.836,0.038,1.025c0.025,0.19,0.076,0.393,0.152,0.608h2.128c-0.102-0.228-0.165-0.459-0.19-0.693
		s-0.038-0.542-0.038-0.922v-2.337c0-0.785-0.104-1.412-0.313-1.881s-0.567-0.779-1.074-0.932v-0.037
		c0.912-0.367,1.368-1.242,1.368-2.622v-0.817c0-1.038-0.247-1.808-0.741-2.309c-0.494-0.5-1.279-0.75-2.356-0.75h-3.097V162.265z
		 M65.113,160.555c-0.722,0-1.083-0.438-1.083-1.311v-7.258c0-0.875,0.361-1.312,1.083-1.312c0.722,0,1.083,0.437,1.083,1.312v7.258
		C66.196,160.117,65.835,160.555,65.113,160.555z M65.113,162.455c1.026,0,1.812-0.291,2.356-0.875
		c0.545-0.582,0.817-1.405,0.817-2.469v-6.992c0-1.064-0.272-1.888-0.817-2.471c-0.544-0.582-1.33-0.874-2.356-0.874
		c-1.026,0-1.812,0.292-2.356,0.874c-0.544,0.583-0.817,1.406-0.817,2.471v6.992c0,1.063,0.272,1.887,0.817,2.469
		C63.302,162.164,64.087,162.455,65.113,162.455z M56.849,154.949v-4.084h0.988c0.342,0,0.599,0.094,0.77,0.284
		s0.256,0.513,0.256,0.97v1.576c0,0.457-0.085,0.779-0.256,0.969c-0.171,0.19-0.427,0.285-0.77,0.285H56.849z M54.758,162.265h2.09
		v-5.415h0.988c1.039,0,1.817-0.278,2.337-0.836c0.52-0.557,0.779-1.374,0.779-2.451v-1.311c0-1.076-0.26-1.894-0.779-2.451
		c-0.52-0.557-1.298-0.836-2.337-0.836h-3.078V162.265z M50.408,162.455c1.026,0,1.808-0.291,2.346-0.875
		c0.539-0.582,0.808-1.418,0.808-2.508c0-0.836-0.165-1.564-0.494-2.185c-0.329-0.62-0.931-1.312-1.805-2.071
		c-0.684-0.596-1.156-1.102-1.416-1.52c-0.26-0.418-0.39-0.867-0.39-1.35c0-0.848,0.348-1.272,1.045-1.272
		c0.342,0,0.602,0.104,0.779,0.313c0.177,0.209,0.266,0.541,0.266,0.998v0.684h1.976v-0.551c0-1.077-0.256-1.903-0.77-2.48
		c-0.513-0.576-1.27-0.864-2.271-0.864c-1.013,0-1.786,0.288-2.318,0.864c-0.532,0.577-0.798,1.391-0.798,2.441
		c0,0.773,0.171,1.467,0.513,2.081c0.342,0.614,0.943,1.302,1.805,2.062c0.684,0.596,1.152,1.105,1.406,1.529
		c0.253,0.425,0.38,0.916,0.38,1.473c0,0.469-0.092,0.808-0.275,1.017c-0.184,0.209-0.453,0.313-0.808,0.313
		c-0.722,0-1.083-0.431-1.083-1.292v-0.912H47.33v0.761c0,1.076,0.259,1.902,0.779,2.479S49.394,162.455,50.408,162.455z"/>
</g>
</svg>
