<?xml version="1.0" encoding="utf-8"?>
<!-- Generator: Adobe Illustrator 16.0.0, SVG Export Plug-In . SVG Version: 6.00 Build 0)  -->
<!DOCTYPE svg PUBLIC "-//W3C//DTD SVG 1.1//EN" "http://www.w3.org/Graphics/SVG/1.1/DTD/svg11.dtd">
<svg version="1.1" id="Layer_1" xmlns="http://www.w3.org/2000/svg" xmlns:xlink="http://www.w3.org/1999/xlink" x="0px" y="0px"
	 width="163.5px" height="187.5px" viewBox="0 0 163.5 187.5" enable-background="new 0 0 163.5 187.5" xml:space="preserve">
<rect x="5" y="6" fill-rule="evenodd" clip-rule="evenodd" fill="#FFFFFF" stroke="#068C45" stroke-width="2" stroke-miterlimit="10" width="155" height="177"/>
<rect x="6" y="126" fill-rule="evenodd" clip-rule="evenodd" fill="#058C45" width="155" height="56"/>
<path fill-rule="evenodd" clip-rule="evenodd" fill="#010101" d="M71.667,23"/>
<g>
	<path fill-rule="evenodd" clip-rule="evenodd" fill="#058C45" d="M83.711,116.374c-6.887,0-13.773-0.028-20.659,0.026
		c-1.229,0.012-1.847-0.206-1.658-1.584c0.109-0.796,0.063-1.621,0.012-2.428c-0.129-2.049,0.202-3.718,1.741-5.448
		c2.954-3.321,2.483-8.312-0.696-11.486c-0.776-0.775-1.067-1.513-1.056-2.571c0.06-6.074,0.063-12.15,0.082-18.225
		c0.003-0.861,0.164-1.828-0.882-2.231c-0.943-0.364-1.495,0.374-2.072,0.923c-3.268,3.109-6.499,6.259-9.812,9.32
		c-0.898,0.83-0.743,1.305,0.048,2.045c3.802,3.555,7.554,7.162,11.342,10.734c3.497,3.296,3.875,8.275,0.842,11.44
		c-3.219,3.36-8.011,3.337-11.604-0.032c-4.598-4.313-9.26-8.559-13.802-12.928c-4.034-3.881-6.226-8.439-4.63-14.205
		c0.551-1.989,1.957-3.401,3.269-4.842c5.646-6.202,11.304-12.395,17.049-18.504c3.919-4.166,8.995-5.914,14.563-6.49
		c0.81-0.085,1.121,0.318,1.409,0.959c4.562,10.117,9.13,20.231,13.724,30.334c0.352,0.775,0.4,1.164-0.557,1.485
		c-1.214,0.405-3.058,0.125-3.459,1.457c-0.316,1.047,0.436,2.433,0.767,3.654c0.863,3.179,1.791,6.34,2.619,9.527
		c0.331,1.279,0.896,1.71,2.221,1.265c1.805-0.607,3.645-1.156,5.507-1.541c1.568-0.324,1.749-1.017,1.311-2.439
		c-1.071-3.479-1.954-7.016-2.978-10.51c-0.279-0.955-0.209-1.762,0.219-2.656c4.793-10.072,9.57-20.152,14.305-30.252
		c0.446-0.951,0.969-1.238,1.982-1.134c5.545,0.571,10.225,3.002,13.989,6.975c6.007,6.339,11.824,12.856,17.706,19.312
		c2.715,2.98,3.107,6.479,2.091,10.217c-0.778,2.862-2.38,5.246-4.538,7.264c-4.729,4.427-9.44,8.871-14.196,13.271
		c-3.5,3.24-8.321,3.081-11.454-0.31c-2.865-3.105-2.59-7.896,0.693-11.055c3.792-3.651,7.604-7.279,11.455-10.867
		c0.896-0.835,1.101-1.336,0.061-2.289c-3.284-3.006-6.449-6.143-9.675-9.213c-0.571-0.545-1.132-1.289-2.08-0.914
		c-1.028,0.406-0.911,1.354-0.907,2.226c0.018,6.076,0.014,12.15,0.068,18.226c0.008,1.053-0.255,1.826-1.02,2.604
		c-3.553,3.617-3.471,8.994,0.174,12.563c0.6,0.585,0.864,1.139,0.841,1.953c-0.048,1.619-0.091,3.244,0.01,4.857
		c0.077,1.217-0.317,1.557-1.536,1.547C97.598,116.345,90.654,116.374,83.711,116.374z"/>
	<path fill-rule="evenodd" clip-rule="evenodd" fill="#058C45" d="M85.212,11.073c9.801,0.01,17.669,7.886,17.605,17.627
		c-0.063,9.757-7.97,17.571-17.749,17.541c-9.755-0.028-17.625-7.936-17.603-17.685C67.489,18.803,75.343,11.064,85.212,11.073z"/>
	<path fill-rule="evenodd" clip-rule="evenodd" fill="#058C45" d="M96.828,49.951c-4.251,9.14-8.5,18.274-12.902,27.738
		c-0.784-1.737-1.435-3.171-2.077-4.607c-3.227-7.217-6.432-14.443-9.694-21.646c-0.555-1.225-0.658-1.712,1.016-1.697
		c7.278,0.063,14.558-0.011,21.836-0.018C95.561,49.722,96.145,49.565,96.828,49.951z"/>
	<path fill-rule="evenodd" clip-rule="evenodd" fill="#058C45" d="M85.148,82.049c-0.065,1.01-0.58,1.521-1.434,1.532
		c-0.954,0.012-1.513-0.567-1.488-1.528c0.023-0.859,0.525-1.409,1.419-1.414C84.625,80.632,85.084,81.217,85.148,82.049z"/>
</g>
<g>
	<path fill="#FFFFFF" d="M96.191,151.801h2.09v-11.4h2.185v-1.9h-6.46v1.9h2.185V151.801z M89.028,144.2v-3.8h0.95
		c0.367,0,0.637,0.107,0.808,0.322c0.171,0.217,0.256,0.564,0.256,1.045v1.027c0,0.506-0.104,0.867-0.313,1.082
		c-0.209,0.216-0.522,0.323-0.94,0.323H89.028z M86.938,151.801h2.09V146.1h0.722c0.481,0,0.82,0.121,1.017,0.361
		c0.196,0.241,0.294,0.666,0.294,1.273v2.432c0,0.494,0.013,0.836,0.038,1.026s0.076,0.393,0.152,0.608h2.128
		c-0.102-0.229-0.165-0.459-0.19-0.693s-0.038-0.542-0.038-0.922v-2.338c0-0.785-0.104-1.412-0.313-1.881
		c-0.209-0.468-0.567-0.778-1.074-0.931v-0.038c0.912-0.367,1.368-1.241,1.368-2.621v-0.818c0-1.037-0.247-1.807-0.741-2.308
		s-1.279-0.751-2.356-0.751h-3.097V151.801z M82.359,150.09c-0.722,0-1.083-0.437-1.083-1.311v-7.258
		c0-0.874,0.361-1.311,1.083-1.311c0.722,0,1.083,0.437,1.083,1.311v7.258C83.442,149.653,83.082,150.09,82.359,150.09z
		 M82.359,151.99c1.026,0,1.812-0.291,2.356-0.874c0.545-0.583,0.817-1.405,0.817-2.47v-6.992c0-1.064-0.272-1.887-0.817-2.471
		c-0.544-0.582-1.33-0.873-2.356-0.873c-1.026,0-1.812,0.291-2.356,0.873c-0.544,0.584-0.817,1.406-0.817,2.471v6.992
		c0,1.064,0.272,1.887,0.817,2.47S81.333,151.99,82.359,151.99z M74.095,144.485V140.4h0.988c0.342,0,0.599,0.095,0.77,0.285
		c0.171,0.189,0.256,0.513,0.256,0.969v1.577c0,0.456-0.085,0.778-0.256,0.969s-0.427,0.285-0.77,0.285H74.095z M72.004,151.801
		h2.09v-5.416h0.988c1.039,0,1.817-0.277,2.337-0.836c0.52-0.557,0.779-1.373,0.779-2.451v-1.311c0-1.076-0.26-1.893-0.779-2.451
		c-0.52-0.557-1.298-0.836-2.337-0.836h-3.078V151.801z M67.654,151.99c1.026,0,1.808-0.291,2.346-0.874
		c0.539-0.583,0.808-1.419,0.808-2.508c0-0.836-0.165-1.564-0.494-2.185c-0.329-0.621-0.931-1.312-1.805-2.072
		c-0.684-0.595-1.156-1.102-1.416-1.52c-0.26-0.418-0.39-0.867-0.39-1.349c0-0.849,0.348-1.272,1.045-1.272
		c0.342,0,0.602,0.104,0.779,0.313c0.177,0.209,0.266,0.542,0.266,0.998v0.684h1.976v-0.551c0-1.076-0.256-1.902-0.77-2.479
		c-0.513-0.576-1.27-0.864-2.271-0.864c-1.013,0-1.786,0.288-2.318,0.864c-0.532,0.577-0.798,1.39-0.798,2.441
		c0,0.772,0.171,1.466,0.513,2.081c0.342,0.614,0.943,1.301,1.805,2.061c0.684,0.596,1.152,1.105,1.406,1.529
		c0.253,0.426,0.38,0.916,0.38,1.473c0,0.469-0.092,0.809-0.275,1.018c-0.184,0.209-0.453,0.313-0.808,0.313
		c-0.722,0-1.083-0.43-1.083-1.291v-0.912h-1.976v0.76c0,1.076,0.259,1.902,0.779,2.479C65.874,151.702,66.64,151.99,67.654,151.99z
		"/>
	<path fill="#FFFFFF" d="M117.595,170.79c1.026,0,1.808-0.291,2.346-0.874c0.539-0.582,0.808-1.418,0.808-2.508
		c0-0.836-0.165-1.564-0.494-2.186c-0.329-0.62-0.931-1.311-1.805-2.07c-0.684-0.596-1.156-1.102-1.416-1.52
		c-0.26-0.419-0.39-0.868-0.39-1.35c0-0.849,0.348-1.273,1.045-1.273c0.342,0,0.602,0.105,0.779,0.314
		c0.177,0.209,0.266,0.541,0.266,0.997v0.684h1.976v-0.551c0-1.077-0.256-1.903-0.77-2.479c-0.513-0.576-1.27-0.865-2.271-0.865
		c-1.013,0-1.786,0.289-2.318,0.865c-0.532,0.576-0.798,1.391-0.798,2.441c0,0.773,0.171,1.467,0.513,2.08
		c0.342,0.615,0.943,1.303,1.805,2.063c0.684,0.596,1.152,1.105,1.406,1.529c0.253,0.424,0.38,0.915,0.38,1.473
		c0,0.469-0.092,0.807-0.275,1.016c-0.184,0.209-0.453,0.314-0.808,0.314c-0.722,0-1.083-0.432-1.083-1.293v-0.912h-1.976v0.761
		c0,1.077,0.259,1.903,0.779,2.479S116.581,170.79,117.595,170.79z M109.311,163v-3.8h0.95c0.367,0,0.637,0.108,0.808,0.323
		s0.256,0.563,0.256,1.045v1.025c0,0.508-0.104,0.868-0.313,1.084c-0.209,0.215-0.522,0.322-0.94,0.322H109.311z M107.22,170.6h2.09
		V164.9h0.722c0.481,0,0.82,0.12,1.017,0.361c0.196,0.24,0.294,0.664,0.294,1.272v2.433c0,0.493,0.013,0.836,0.038,1.025
		s0.076,0.393,0.152,0.607h2.128c-0.102-0.228-0.165-0.459-0.19-0.693s-0.038-0.541-0.038-0.922v-2.336
		c0-0.785-0.104-1.412-0.313-1.881s-0.567-0.779-1.074-0.932v-0.037c0.912-0.368,1.368-1.242,1.368-2.623v-0.816
		c0-1.039-0.247-1.809-0.741-2.309s-1.279-0.75-2.356-0.75h-3.097V170.6z M102.642,168.891c-0.722,0-1.083-0.438-1.083-1.312v-7.258
		c0-0.874,0.361-1.312,1.083-1.312c0.722,0,1.083,0.438,1.083,1.312v7.258C103.725,168.453,103.364,168.891,102.642,168.891z
		 M102.642,170.79c1.026,0,1.812-0.291,2.356-0.874c0.545-0.582,0.817-1.406,0.817-2.47v-6.992c0-1.063-0.272-1.888-0.817-2.47
		c-0.544-0.582-1.33-0.875-2.356-0.875c-1.026,0-1.812,0.293-2.356,0.875s-0.817,1.406-0.817,2.47v6.992
		c0,1.063,0.272,1.888,0.817,2.47C100.83,170.499,101.616,170.79,102.642,170.79z M94.415,170.6h2.09V159.2h2.185v-1.899h-6.46
		v1.899h2.185V170.6z M88.449,170.79c1,0,1.764-0.285,2.29-0.854c0.525-0.57,0.788-1.375,0.788-2.414v-1.881h-1.976v2.033
		c0,0.811-0.349,1.217-1.045,1.217c-0.696,0-1.045-0.406-1.045-1.217v-7.429c0-0.823,0.349-1.235,1.045-1.235
		c0.697,0,1.045,0.412,1.045,1.235v1.539h1.976v-1.406c0-1.038-0.263-1.843-0.788-2.413c-0.526-0.57-1.289-0.855-2.29-0.855
		c-1.001,0-1.764,0.285-2.29,0.855c-0.526,0.57-0.789,1.375-0.789,2.413v7.144c0,1.039,0.263,1.844,0.789,2.414
		C86.685,170.505,87.448,170.79,88.449,170.79z M80.906,170.79c1.013,0,1.786-0.288,2.318-0.864
		c0.532-0.576,0.798-1.402,0.798-2.479v-10.146h-2.014v10.297c0,0.457-0.092,0.786-0.275,0.988
		c-0.184,0.203-0.446,0.305-0.789,0.305c-0.342,0-0.605-0.102-0.789-0.305c-0.184-0.202-0.275-0.531-0.275-0.988v-10.297h-2.09
		v10.146c0,1.077,0.266,1.903,0.798,2.479C79.12,170.502,79.893,170.79,80.906,170.79z M72.299,163v-3.8h0.95
		c0.367,0,0.637,0.108,0.808,0.323s0.256,0.563,0.256,1.045v1.025c0,0.508-0.104,0.868-0.313,1.084
		c-0.209,0.215-0.522,0.322-0.94,0.322H72.299z M70.208,170.6h2.09V164.9h0.722c0.481,0,0.82,0.12,1.017,0.361
		c0.196,0.24,0.294,0.664,0.294,1.272v2.433c0,0.493,0.013,0.836,0.038,1.025s0.076,0.393,0.152,0.607h2.128
		c-0.102-0.228-0.165-0.459-0.19-0.693s-0.038-0.541-0.038-0.922v-2.336c0-0.785-0.104-1.412-0.313-1.881s-0.567-0.779-1.074-0.932
		v-0.037c0.912-0.368,1.368-1.242,1.368-2.623v-0.816c0-1.039-0.247-1.809-0.741-2.309s-1.279-0.75-2.356-0.75h-3.097V170.6z
		 M64.927,170.6h2.09V159.2h2.185v-1.899h-6.46v1.899h2.185V170.6z M58.942,170.79c1.026,0,1.808-0.291,2.346-0.874
		c0.539-0.582,0.808-1.418,0.808-2.508c0-0.836-0.165-1.564-0.494-2.186c-0.329-0.62-0.931-1.311-1.805-2.07
		c-0.684-0.596-1.156-1.102-1.416-1.52c-0.26-0.419-0.39-0.868-0.39-1.35c0-0.849,0.348-1.273,1.045-1.273
		c0.342,0,0.602,0.105,0.779,0.314c0.177,0.209,0.266,0.541,0.266,0.997v0.684h1.976v-0.551c0-1.077-0.256-1.903-0.77-2.479
		c-0.513-0.576-1.27-0.865-2.271-0.865c-1.013,0-1.786,0.289-2.318,0.865c-0.532,0.576-0.798,1.391-0.798,2.441
		c0,0.773,0.171,1.467,0.513,2.08c0.342,0.615,0.943,1.303,1.805,2.063c0.684,0.596,1.152,1.105,1.406,1.529
		c0.253,0.424,0.38,0.915,0.38,1.473c0,0.469-0.092,0.807-0.275,1.016c-0.184,0.209-0.453,0.314-0.808,0.314
		c-0.722,0-1.083-0.432-1.083-1.293v-0.912h-1.976v0.761c0,1.077,0.259,1.903,0.779,2.479S57.928,170.79,58.942,170.79z
		 M48.112,170.6h1.862v-9.709h0.038l2.508,9.709h2.147v-13.299h-1.862v7.961h-0.038l-2.033-7.961h-2.622V170.6z M44.464,170.6h2.09
		v-13.299h-2.09V170.6z"/>
</g>
</svg>
