<?xml version="1.0" encoding="utf-8"?>
<!-- Generator: Adobe Illustrator 16.0.0, SVG Export Plug-In . SVG Version: 6.00 Build 0)  -->
<!DOCTYPE svg PUBLIC "-//W3C//DTD SVG 1.1//EN" "http://www.w3.org/Graphics/SVG/1.1/DTD/svg11.dtd">
<svg version="1.1" id="Layer_1" xmlns="http://www.w3.org/2000/svg" xmlns:xlink="http://www.w3.org/1999/xlink" x="0px" y="0px"
	 width="163.5px" height="187.5px" viewBox="0 0 163.5 187.5" enable-background="new 0 0 163.5 187.5" xml:space="preserve">
<rect x="4" y="7" fill-rule="evenodd" clip-rule="evenodd" fill="#FFFFFF" stroke="#068C45" stroke-width="2" stroke-miterlimit="10" width="155" height="177"/>
<rect x="5" y="127" fill-rule="evenodd" clip-rule="evenodd" fill="#058C45" width="155" height="56"/>
<g>
	<path fill="#FFFFFF" d="M119.856,164.49c1.026,0,1.808-0.291,2.347-0.873c0.538-0.583,0.807-1.419,0.807-2.508
		c0-0.836-0.164-1.564-0.494-2.186c-0.328-0.621-0.93-1.311-1.804-2.071c-0.684-0.595-1.156-1.102-1.416-1.52
		c-0.26-0.419-0.39-0.868-0.39-1.349c0-0.85,0.348-1.273,1.045-1.273c0.342,0,0.602,0.104,0.779,0.313
		c0.177,0.209,0.266,0.542,0.266,0.997v0.684h1.976v-0.551c0-1.076-0.257-1.902-0.77-2.479c-0.514-0.576-1.271-0.865-2.271-0.865
		c-1.013,0-1.786,0.289-2.318,0.865c-0.532,0.576-0.798,1.39-0.798,2.441c0,0.772,0.171,1.466,0.513,2.08
		c0.342,0.615,0.943,1.302,1.805,2.062c0.684,0.596,1.152,1.105,1.406,1.529c0.253,0.425,0.38,0.915,0.38,1.473
		c0,0.469-0.092,0.808-0.275,1.017c-0.184,0.209-0.453,0.313-0.808,0.313c-0.722,0-1.083-0.431-1.083-1.292v-0.912h-1.976v0.76
		c0,1.077,0.259,1.903,0.779,2.48C118.077,164.203,118.843,164.49,119.856,164.49z M110.205,164.301h5.7v-1.9h-3.61v-4.084h2.869
		v-1.9h-2.869V152.9h3.61v-1.899h-5.7V164.301z M104.638,156.701V152.9h0.95c0.367,0,0.637,0.108,0.808,0.323
		c0.171,0.216,0.256,0.563,0.256,1.045v1.026c0,0.507-0.104,0.867-0.313,1.083s-0.522,0.323-0.94,0.323H104.638z M102.547,164.301
		h2.09v-5.7h0.722c0.481,0,0.82,0.12,1.017,0.361s0.294,0.665,0.294,1.272v2.433c0,0.493,0.013,0.836,0.038,1.026
		c0.025,0.189,0.076,0.393,0.152,0.607h2.128c-0.102-0.229-0.165-0.459-0.19-0.693s-0.038-0.541-0.038-0.922v-2.337
		c0-0.785-0.104-1.412-0.313-1.881c-0.209-0.468-0.567-0.778-1.074-0.931v-0.038c0.912-0.368,1.368-1.241,1.368-2.622v-0.817
		c0-1.038-0.247-1.808-0.741-2.308c-0.494-0.501-1.279-0.751-2.356-0.751h-3.097V164.301z M97.969,162.591
		c-0.722,0-1.083-0.437-1.083-1.312v-7.258c0-0.873,0.361-1.311,1.083-1.311c0.722,0,1.083,0.438,1.083,1.311v7.258
		C99.052,162.154,98.691,162.591,97.969,162.591z M97.969,164.49c1.026,0,1.812-0.291,2.356-0.873
		c0.545-0.583,0.817-1.406,0.817-2.471v-6.992c0-1.063-0.272-1.887-0.817-2.47c-0.544-0.582-1.33-0.874-2.356-0.874
		c-1.026,0-1.812,0.292-2.356,0.874c-0.544,0.583-0.817,1.406-0.817,2.47v6.992c0,1.064,0.272,1.888,0.817,2.471
		C96.157,164.199,96.943,164.49,97.969,164.49z M89.742,164.301h2.09v-11.4h2.185v-1.899h-6.46v1.899h2.185V164.301z M83.757,164.49
		c1.026,0,1.808-0.291,2.346-0.873c0.539-0.583,0.808-1.419,0.808-2.508c0-0.836-0.165-1.564-0.494-2.186
		c-0.329-0.621-0.931-1.311-1.805-2.071c-0.684-0.595-1.156-1.102-1.416-1.52c-0.26-0.419-0.39-0.868-0.39-1.349
		c0-0.85,0.348-1.273,1.045-1.273c0.342,0,0.602,0.104,0.779,0.313c0.177,0.209,0.266,0.542,0.266,0.997v0.684h1.976v-0.551
		c0-1.076-0.256-1.902-0.77-2.479c-0.513-0.576-1.27-0.865-2.271-0.865c-1.013,0-1.786,0.289-2.318,0.865
		c-0.532,0.576-0.798,1.39-0.798,2.441c0,0.772,0.171,1.466,0.513,2.08c0.342,0.615,0.943,1.302,1.805,2.062
		c0.684,0.596,1.152,1.105,1.406,1.529c0.253,0.425,0.38,0.915,0.38,1.473c0,0.469-0.092,0.808-0.275,1.017
		c-0.184,0.209-0.453,0.313-0.808,0.313c-0.722,0-1.083-0.431-1.083-1.292v-0.912h-1.976v0.76c0,1.077,0.259,1.903,0.779,2.48
		C81.977,164.203,82.743,164.49,83.757,164.49z M72.718,164.301h2.09v-11.4h2.185v-1.899h-6.46v1.899h2.185V164.301z
		 M65.555,156.701V152.9h0.95c0.367,0,0.637,0.108,0.808,0.323c0.171,0.216,0.256,0.563,0.256,1.045v1.026
		c0,0.507-0.104,0.867-0.313,1.083s-0.522,0.323-0.94,0.323H65.555z M63.465,164.301h2.09v-5.7h0.722c0.481,0,0.82,0.12,1.017,0.361
		s0.294,0.665,0.294,1.272v2.433c0,0.493,0.013,0.836,0.038,1.026c0.025,0.189,0.076,0.393,0.152,0.607h2.128
		c-0.102-0.229-0.165-0.459-0.19-0.693s-0.038-0.541-0.038-0.922v-2.337c0-0.785-0.104-1.412-0.313-1.881
		c-0.209-0.468-0.567-0.778-1.074-0.931v-0.038c0.912-0.368,1.368-1.241,1.368-2.622v-0.817c0-1.038-0.247-1.808-0.741-2.308
		c-0.494-0.501-1.279-0.751-2.356-0.751h-3.097V164.301z M58.886,162.591c-0.722,0-1.083-0.437-1.083-1.312v-7.258
		c0-0.873,0.361-1.311,1.083-1.311c0.722,0,1.083,0.438,1.083,1.311v7.258C59.969,162.154,59.608,162.591,58.886,162.591z
		 M58.886,164.49c1.026,0,1.812-0.291,2.356-0.873c0.545-0.583,0.817-1.406,0.817-2.471v-6.992c0-1.063-0.272-1.887-0.817-2.47
		c-0.544-0.582-1.33-0.874-2.356-0.874c-1.026,0-1.812,0.292-2.356,0.874c-0.544,0.583-0.817,1.406-0.817,2.47v6.992
		c0,1.064,0.272,1.888,0.817,2.471C57.075,164.199,57.86,164.49,58.886,164.49z M50.622,156.986V152.9h0.988
		c0.342,0,0.599,0.096,0.77,0.285c0.171,0.19,0.256,0.514,0.256,0.969v1.578c0,0.455-0.085,0.778-0.256,0.969
		c-0.171,0.189-0.427,0.285-0.77,0.285H50.622z M48.531,164.301h2.09v-5.415h0.988c1.039,0,1.817-0.278,2.337-0.836
		s0.779-1.374,0.779-2.451v-1.312c0-1.076-0.26-1.893-0.779-2.45s-1.298-0.836-2.337-0.836h-3.078V164.301z M44.181,164.49
		c1.026,0,1.808-0.291,2.346-0.873c0.539-0.583,0.808-1.419,0.808-2.508c0-0.836-0.165-1.564-0.494-2.186
		c-0.329-0.621-0.931-1.311-1.805-2.071c-0.684-0.595-1.156-1.102-1.416-1.52c-0.26-0.419-0.39-0.868-0.39-1.349
		c0-0.85,0.348-1.273,1.045-1.273c0.342,0,0.602,0.104,0.779,0.313c0.177,0.209,0.266,0.542,0.266,0.997v0.684h1.976v-0.551
		c0-1.076-0.256-1.902-0.77-2.479c-0.513-0.576-1.27-0.865-2.271-0.865c-1.013,0-1.786,0.289-2.318,0.865
		c-0.532,0.576-0.798,1.39-0.798,2.441c0,0.772,0.171,1.466,0.513,2.08c0.342,0.615,0.943,1.302,1.805,2.062
		c0.684,0.596,1.152,1.105,1.406,1.529c0.253,0.425,0.38,0.915,0.38,1.473c0,0.469-0.092,0.808-0.275,1.017
		c-0.184,0.209-0.453,0.313-0.808,0.313c-0.722,0-1.083-0.431-1.083-1.292v-0.912h-1.976v0.76c0,1.077,0.259,1.903,0.779,2.48
		C42.401,164.203,43.167,164.49,44.181,164.49z"/>
</g>
<g>
	<path fill-rule="evenodd" clip-rule="evenodd" fill="#058C45" d="M34.868,114.654c0-0.468,0-0.932,0-1.399
		c0.7-1.781,2.014-2.46,3.904-2.35c1.718,0.099,3.449,0.02,5.251,0.02c0-0.387,0-0.691,0-0.996c0-12.523,0-25.043,0-37.565
		c0-1.367-0.004-1.354-1.254-1.827c-2.986-1.125-5.26-3.086-6.594-5.985c-0.595-1.295-0.879-2.731-1.307-4.104
		c0-1.399,0-2.796,0-4.194c32.216-0.001,64.43-0.003,96.644-0.004c0.173,0,0.348,0.018,0.453,0.021c0,1.556,0.123,3.062-0.04,4.534
		c-0.128,1.16-0.487,2.338-0.962,3.408c-1.387,3.132-3.753,5.277-7,6.389c-0.77,0.264-1.045,0.608-1.044,1.461
		c0.034,12.626,0.023,25.253,0.023,37.879c0,0.304,0,0.605,0,0.983c0.365,0,0.643,0,0.921,0c1.76,0.003,3.52-0.014,5.278,0.01
		c1.23,0.016,2.105,0.645,2.646,1.723c0.505,1.012,0.48,2.061-0.232,2.923c-0.473,0.569-1.183,0.942-1.787,1.404
		c-30.856,0-61.713,0-92.572,0C36.089,116.539,35.316,115.759,34.868,114.654z M83.451,60.645c-0.107,0.483-0.174,0.769-0.236,1.058
		c-1.174,5.471-5.682,9.367-11.188,9.614c-0.682,0.032-0.723,0.331-0.723,0.861c0.009,12.655,0.008,25.313,0.011,37.969
		c0,0.245,0.031,0.489,0.049,0.737c15.21,0,30.34,0,45.553,0c0-0.369,0-0.699,0-1.028c0-12.45,0-24.899,0-37.349
		c0-1.532-0.017-1.491-1.403-2.047c-3.63-1.452-6.03-4.067-7.188-7.803c-0.192-0.625-0.311-1.273-0.5-2.073
		c-1.527,6.695-5.373,10.729-12.265,10.7C88.788,71.256,85.001,67.244,83.451,60.645z M68.299,110.89c0-0.399,0-0.711,0-1.019
		c0-12.473,0-24.943,0-37.416c0-1.48-0.018-1.438-1.377-1.985c-3.854-1.555-6.323-4.349-7.36-8.384
		c-0.126-0.487-0.214-0.986-0.32-1.477c-0.175,0.195-0.226,0.387-0.259,0.58c-0.264,1.545-0.777,2.995-1.603,4.331
		c-1.575,2.539-3.789,4.272-6.618,5.196c-0.583,0.19-0.725,0.475-0.725,1.053c0.016,12.729,0.014,25.46,0.014,38.19
		c0,0.301,0,0.603,0,0.93C56.172,110.89,62.192,110.89,68.299,110.89z"/>
	<path fill-rule="evenodd" clip-rule="evenodd" fill="#058C45" d="M34.868,53.146c0-0.052,0-0.103,0-0.155
		c0.212-0.347,0.452-0.682,0.636-1.046c1.25-2.495,2.479-5,3.729-7.496c2.44-4.877,4.913-9.735,7.309-14.634
		c0.359-0.734,0.747-0.925,1.51-0.925c18.296,0.021,36.591,0.018,54.886,0.018c5.436,0,10.869,0.001,16.304-0.004
		c0.427,0,0.743,0.017,0.987,0.508c3.027,6.113,6.09,12.21,9.141,18.312c0.887,1.773,1.763,3.551,2.691,5.423
		C99.596,53.146,67.231,53.146,34.868,53.146z M103.218,46.884c-0.137-0.304-0.337-0.829-0.603-1.322
		c-1.273-2.358-2.565-4.71-3.855-7.063c-0.781-1.425-1.542-2.861-2.369-4.26c-0.479-0.81-1.238-1.001-1.988-0.63
		c-0.73,0.359-0.99,1.092-0.674,1.98c0.113,0.313,0.283,0.605,0.443,0.898c1.286,2.356,2.572,4.712,3.865,7.063
		c0.809,1.469,1.613,2.941,2.453,4.392c0.351,0.604,0.953,0.809,1.612,0.62C102.785,48.368,103.174,47.87,103.218,46.884z
		 M72.824,35.143c0.007-0.882-0.451-1.479-1.134-1.657c-0.726-0.188-1.417,0.173-1.818,0.975c-1.676,3.345-3.35,6.691-5.017,10.041
		c-0.366,0.738-0.751,1.475-1.025,2.248c-0.244,0.687,0.121,1.377,0.749,1.688c0.693,0.342,1.396,0.188,1.855-0.436
		c0.199-0.269,0.37-0.562,0.52-0.86c1.88-3.761,3.754-7.524,5.621-11.292C72.708,35.577,72.778,35.273,72.824,35.143z
		 M60.683,35.062c-0.081-0.86-0.409-1.386-1.128-1.568c-0.669-0.169-1.258,0.026-1.604,0.635c-0.487,0.85-0.926,1.731-1.364,2.608
		c-1.585,3.168-3.173,6.334-4.735,9.513c-0.473,0.96-0.208,1.816,0.589,2.197c0.84,0.398,1.628,0.109,2.109-0.845
		c1.945-3.855,3.872-7.718,5.796-11.581C60.514,35.679,60.602,35.298,60.683,35.062z M115.361,46.927
		c-0.049-0.145-0.113-0.451-0.248-0.723c-1.364-2.759-2.733-5.513-4.111-8.262c-0.637-1.27-1.265-2.547-1.959-3.785
		c-0.399-0.714-1.171-0.896-1.881-0.57c-0.692,0.315-1.004,1.028-0.756,1.815c0.124,0.392,0.299,0.771,0.483,1.138
		c1.047,2.107,2.104,4.21,3.158,6.313c0.812,1.617,1.619,3.238,2.442,4.851c0.385,0.752,1.001,1.042,1.716,0.854
		C114.898,48.378,115.359,47.792,115.361,46.927z M85.033,40.954c0-1.32,0-2.641-0.002-3.961c-0.001-0.646,0.023-1.295-0.014-1.94
		c-0.054-0.973-0.693-1.621-1.543-1.617c-0.844,0.003-1.459,0.659-1.535,1.635c-0.007,0.104-0.004,0.206-0.004,0.31
		c-0.002,3.755-0.003,7.508,0.003,11.261c0.001,0.306,0.021,0.631,0.121,0.915c0.239,0.677,0.743,1.069,1.47,1.048
		c0.69-0.021,1.172-0.41,1.379-1.065c0.099-0.313,0.117-0.66,0.118-0.993C85.038,44.681,85.031,42.817,85.033,40.954z"/>
	<path fill-rule="evenodd" clip-rule="evenodd" fill="#058C45" d="M117.652,19.753c0.789,0.435,1.564,0.852,1.982,1.743
		c0.884,1.878-0.396,4.149-2.463,4.3c-0.23,0.017-0.467,0.016-0.698,0.016c-21.993,0-43.986-0.005-65.98,0.009
		c-1.192,0.002-2.219-0.276-2.9-1.297c-1.093-1.637-0.514-3.641,1.261-4.512c0.156-0.077,0.306-0.173,0.457-0.259
		C72.093,19.753,94.873,19.753,117.652,19.753z"/>
	<path fill-rule="evenodd" clip-rule="evenodd" fill="#058C45" d="M34.868,114.654c0.449,1.104,1.221,1.885,2.328,2.33
		c-0.774,0-1.551,0-2.328,0C34.868,116.209,34.868,115.43,34.868,114.654z"/>
	<path fill-rule="evenodd" clip-rule="evenodd" fill="#058C45" d="M103.183,77.006c0.662,0.668,1.332,1.342,1.938,1.956
		c-5.705,5.695-11.401,11.383-17.136,17.102c-0.55-0.604-1.202-1.32-1.847-2.029C91.757,88.421,97.441,82.741,103.183,77.006z"/>
	<path fill-rule="evenodd" clip-rule="evenodd" fill="#058C45" d="M94.566,77.072c0.666,0.657,1.34,1.324,2.059,2.031
		c-0.143,0.166-0.28,0.348-0.438,0.503c-2.52,2.524-5.045,5.037-7.555,7.57c-0.359,0.361-0.591,0.471-0.986,0.033
		c-0.514-0.569-1.109-1.068-1.657-1.585C88.91,82.714,91.739,79.89,94.566,77.072z"/>
	<path fill-rule="evenodd" clip-rule="evenodd" fill="#058C45" d="M94.521,94.206c2.961-2.971,5.767-5.785,8.582-8.609
		c0.707,0.718,1.383,1.404,2.186,2.219c-1.064,1.02-2.149,2.046-3.213,3.096c-1.621,1.598-3.248,3.188-4.826,4.829
		c-0.455,0.468-0.699,0.412-1.101-0.024C95.662,95.188,95.096,94.734,94.521,94.206z"/>
	<path fill-rule="evenodd" clip-rule="evenodd" fill="#058C45" d="M62.243,98.7c-1.297,0.011-2.359-0.678-2.807-1.814
		c-0.482-1.221-0.154-2.446,0.806-3.393c0.256-0.252,0.45-0.694,0.458-1.052c0.046-1.859,0.049-3.726-0.001-5.584
		c-0.011-0.38-0.228-0.845-0.505-1.108c-1.219-1.153-1.309-3.11-0.133-4.308c1.19-1.212,3.223-1.182,4.38,0.067
		c1.106,1.186,0.979,3.159-0.215,4.251c-0.261,0.24-0.466,0.681-0.475,1.033c-0.046,1.913-0.044,3.829-0.001,5.74
		c0.007,0.33,0.212,0.733,0.456,0.966c0.885,0.84,1.245,2.112,0.835,3.256C64.607,97.962,63.56,98.693,62.243,98.7z"/>
</g>
</svg>
