<?xml version="1.0" encoding="utf-8"?>
<!-- Generator: Adobe Illustrator 16.0.0, SVG Export Plug-In . SVG Version: 6.00 Build 0)  -->
<!DOCTYPE svg PUBLIC "-//W3C//DTD SVG 1.1//EN" "http://www.w3.org/Graphics/SVG/1.1/DTD/svg11.dtd">
<svg version="1.1" id="Layer_1" xmlns="http://www.w3.org/2000/svg" xmlns:xlink="http://www.w3.org/1999/xlink" x="0px" y="0px"
	 width="163.5px" height="187.5px" viewBox="0 0 163.5 187.5" enable-background="new 0 0 163.5 187.5" xml:space="preserve">
<rect x="4" y="6" fill-rule="evenodd" clip-rule="evenodd" fill="#FFFFFF" stroke="#068C45" stroke-width="2" stroke-miterlimit="10" width="154" height="177"/>
<rect x="4" y="126" fill-rule="evenodd" clip-rule="evenodd" fill="#058C45" width="155" height="56"/>
<g>
	<path fill="#FFFFFF" d="M118.194,164.355c1.026,0,1.808-0.291,2.346-0.873c0.539-0.583,0.807-1.419,0.807-2.508
		c0-0.836-0.164-1.564-0.494-2.186c-0.329-0.621-0.931-1.311-1.805-2.071c-0.684-0.595-1.156-1.102-1.416-1.52
		c-0.26-0.419-0.39-0.868-0.39-1.349c0-0.85,0.348-1.273,1.045-1.273c0.342,0,0.602,0.104,0.779,0.313
		c0.177,0.209,0.266,0.542,0.266,0.997v0.684h1.976v-0.551c0-1.076-0.257-1.902-0.77-2.479c-0.513-0.576-1.27-0.865-2.271-0.865
		c-1.013,0-1.786,0.289-2.318,0.865c-0.532,0.576-0.798,1.39-0.798,2.441c0,0.772,0.171,1.466,0.513,2.08
		c0.342,0.615,0.943,1.302,1.805,2.062c0.684,0.596,1.152,1.105,1.406,1.529c0.253,0.425,0.38,0.915,0.38,1.473
		c0,0.469-0.092,0.808-0.275,1.017c-0.184,0.209-0.453,0.313-0.808,0.313c-0.722,0-1.083-0.431-1.083-1.292v-0.912h-1.976v0.76
		c0,1.077,0.259,1.903,0.779,2.48C116.415,164.068,117.181,164.355,118.194,164.355z M110.195,164.166h2.09v-11.4h2.185v-1.899
		h-6.46v1.899h2.185V164.166z M100.449,164.166h1.862v-9.709h0.038l2.508,9.709h2.147v-13.3h-1.862v7.961h-0.038l-2.033-7.961
		h-2.622V164.166z M93.552,164.166h5.7v-1.9h-3.61v-4.084h2.869v-1.9h-2.869v-3.516h3.61v-1.899h-5.7V164.166z M87.757,164.166
		h2.774l2.014-13.3h-1.919l-1.368,10.317H89.22l-1.368-10.317h-2.109L87.757,164.166z M79.397,164.166h5.7v-1.9h-3.61v-4.084h2.869
		v-1.9h-2.869v-3.516h3.61v-1.899h-5.7V164.166z M71.076,164.166h2.09v-11.4h2.185v-1.899h-6.46v1.899h2.185V164.166z
		 M63.913,156.566v-3.801h0.95c0.367,0,0.637,0.108,0.808,0.323c0.171,0.216,0.256,0.563,0.256,1.045v1.026
		c0,0.507-0.104,0.867-0.313,1.083s-0.522,0.323-0.94,0.323H63.913z M61.822,164.166h2.09v-5.7h0.722c0.481,0,0.82,0.12,1.017,0.361
		s0.294,0.665,0.294,1.272v2.433c0,0.493,0.013,0.836,0.038,1.026c0.025,0.189,0.076,0.393,0.152,0.607h2.128
		c-0.102-0.229-0.165-0.459-0.19-0.693s-0.038-0.541-0.038-0.922v-2.337c0-0.785-0.104-1.412-0.313-1.881
		c-0.209-0.468-0.567-0.778-1.074-0.931v-0.038c0.912-0.368,1.368-1.241,1.368-2.622v-0.817c0-1.038-0.247-1.808-0.741-2.308
		c-0.494-0.501-1.279-0.751-2.356-0.751h-3.097V164.166z M57.244,162.456c-0.722,0-1.083-0.437-1.083-1.312v-7.258
		c0-0.873,0.361-1.311,1.083-1.311c0.722,0,1.083,0.438,1.083,1.311v7.258C58.327,162.02,57.966,162.456,57.244,162.456z
		 M57.244,164.355c1.026,0,1.812-0.291,2.356-0.873c0.545-0.583,0.817-1.406,0.817-2.471v-6.992c0-1.063-0.272-1.887-0.817-2.47
		c-0.544-0.582-1.33-0.874-2.356-0.874c-1.026,0-1.812,0.292-2.356,0.874c-0.544,0.583-0.817,1.406-0.817,2.47v6.992
		c0,1.064,0.272,1.888,0.817,2.471C55.432,164.064,56.218,164.355,57.244,164.355z M48.979,156.852v-4.086h0.988
		c0.342,0,0.599,0.096,0.77,0.285c0.171,0.19,0.256,0.514,0.256,0.969v1.578c0,0.455-0.085,0.778-0.256,0.969
		c-0.171,0.189-0.427,0.285-0.77,0.285H48.979z M46.889,164.166h2.09v-5.415h0.988c1.039,0,1.817-0.278,2.337-0.836
		s0.779-1.374,0.779-2.451v-1.312c0-1.076-0.26-1.893-0.779-2.45s-1.298-0.836-2.337-0.836h-3.078V164.166z M42.538,164.355
		c1.026,0,1.808-0.291,2.346-0.873c0.539-0.583,0.808-1.419,0.808-2.508c0-0.836-0.165-1.564-0.494-2.186
		c-0.329-0.621-0.931-1.311-1.805-2.071c-0.684-0.595-1.156-1.102-1.416-1.52c-0.26-0.419-0.39-0.868-0.39-1.349
		c0-0.85,0.348-1.273,1.045-1.273c0.342,0,0.602,0.104,0.779,0.313c0.177,0.209,0.266,0.542,0.266,0.997v0.684h1.976v-0.551
		c0-1.076-0.256-1.902-0.77-2.479c-0.513-0.576-1.27-0.865-2.271-0.865c-1.013,0-1.786,0.289-2.318,0.865
		c-0.532,0.576-0.798,1.39-0.798,2.441c0,0.772,0.171,1.466,0.513,2.08c0.342,0.615,0.943,1.302,1.805,2.062
		c0.684,0.596,1.152,1.105,1.406,1.529c0.253,0.425,0.38,0.915,0.38,1.473c0,0.469-0.092,0.808-0.275,1.017
		c-0.184,0.209-0.453,0.313-0.808,0.313c-0.722,0-1.083-0.431-1.083-1.292v-0.912H39.46v0.76c0,1.077,0.259,1.903,0.779,2.48
		C40.758,164.068,41.524,164.355,42.538,164.355z"/>
</g>
<g>
	<g>
		<path fill-rule="evenodd" clip-rule="evenodd" fill="#058C45" d="M141.798,101.76c-0.212,0.873-0.345,1.772-0.646,2.611
			c-2.766,7.741-12.38,9.976-18.295,4.272c-5.06-4.879-4.174-13.513,1.772-17.264c6.234-3.934,14.222-1.121,16.601,5.863
			c0.26,0.76,0.382,1.566,0.567,2.351C141.798,100.314,141.798,101.038,141.798,101.76z M122.885,100.643
			c-0.096,4.135,3.352,7.734,7.508,7.838c4.338,0.105,7.939-3.257,8.045-7.51c0.108-4.401-3.256-7.919-7.688-8.038
			C126.527,92.82,122.986,96.292,122.885,100.643z"/>
		<path fill-rule="evenodd" clip-rule="evenodd" fill="#058C45" d="M86.314,99.594c0.244-0.937,0.391-1.911,0.746-2.804
			c1.584-3.971,4.498-6.391,8.731-7.055c4.521-0.711,8.827,1.393,11.177,5.321c0.027,0.044,0.038,0.099,0.079,0.211
			c-0.823,0.742-1.663,1.501-2.501,2.258c-1.135-2.409-3.107-4.026-5.904-4.492c-1.957-0.326-3.807,0.087-5.479,1.186
			c-3.387,2.226-4.453,6.757-2.524,10.285c1.726,3.156,6.847,5.811,11.541,2.401c0.39,0.39,0.746,0.828,1.184,1.164
			c0.436,0.336,0.951,0.567,1.48,0.871c-0.739,0.738-1.604,1.303-2.54,1.754c-6.545,3.156-14.2-0.572-15.747-7.666
			c-0.092-0.42-0.163-0.846-0.243-1.269C86.314,101.038,86.314,100.314,86.314,99.594z"/>
		<path fill-rule="evenodd" clip-rule="evenodd" fill="#058C45" d="M111.628,93.687c-1.312-0.825-2.573-1.597-3.81-2.406
			c-1.751-1.145-3.484-2.319-5.224-3.481c-2.138-1.429-2.616-3.993-1.711-6.136c0.58-1.377,1.536-2.431,2.794-3.219
			c3.883-2.435,7.76-4.877,11.653-7.294c2.511-1.558,5.312-0.894,6.911,1.597c0.186,0.29,0.34,0.603,0.551,0.87
			c1.012,1.286,1.171,2.722,0.902,4.298c-0.244,1.438-0.351,2.899-0.525,4.414c1.131,0.194,2.226,0.385,3.321,0.567
			c1.37,0.227,2.742,0.442,4.111,0.676c1.456,0.246,2.427,1.273,2.514,2.637c0.08,1.268-0.759,2.535-2.015,2.794
			c-0.662,0.136-1.396,0.042-2.078-0.064c-3.047-0.474-6.088-0.992-9.131-1.492c-1.613-0.266-2.592-1.488-2.5-3.132
			c0.012-0.206,0.02-0.414,0.034-0.734c-1.448,0.904-2.802,1.751-4.218,2.638c0.194,0.128,0.343,0.238,0.502,0.331
			c1.73,1.007,3.471,1.999,5.192,3.02c1.708,1.012,2.285,2.81,1.443,4.5c-0.182,0.365-0.45,0.701-0.733,0.996
			c-3.426,3.57-6.882,7.11-10.289,10.698c-2.066,2.178-5.178,1.16-5.826-1.242c-0.357-1.326,0.05-2.442,0.984-3.408
			c2.224-2.298,4.439-4.602,6.657-6.902C111.289,94.056,111.432,93.897,111.628,93.687z"/>
		<path fill-rule="evenodd" clip-rule="evenodd" fill="#058C45" d="M134.166,69.48c0.238,2.726-2.079,5.451-4.773,5.764
			c-3.366,0.389-6.064-2.073-6.311-4.973c-0.262-3.101,1.955-5.802,5.006-6.081C131.209,63.904,134.072,66.271,134.166,69.48z"/>
	</g>
	<g>
		<path fill-rule="evenodd" clip-rule="evenodd" fill="#058C45" d="M66.999,116.739c-2.031-0.471-4.063-0.94-6.095-1.408
			c-1.029-0.237-2.059-0.471-3.182-0.727c1.833-3.069,3.626-6.072,5.505-9.217c-0.816,0.29-1.483,0.568-2.176,0.759
			c-0.74,0.205-1.207,0.633-1.592,1.302c-1.413,2.447-2.885,4.859-4.339,7.283c-1.272,2.12-3.4,2.492-5.289,0.92
			c-2.271-1.891-4.542-3.78-6.8-5.687c-2.061-1.739-1.58-4.788,0.896-5.649c1.23-0.428,2.334-0.107,3.316,0.722
			c1.335,1.127,2.68,2.241,4.061,3.396c0.1-0.146,0.194-0.268,0.273-0.4c0.713-1.189,1.413-2.385,2.143-3.563
			c0.188-0.304,0.224-0.558,0.097-0.899c-1.346-3.625-2.67-7.258-4.016-10.884c-0.088-0.237-0.262-0.474-0.455-0.641
			c-2.203-1.888-4.405-3.775-6.636-5.63c-0.768-0.637-1.25-1.378-1.499-2.354c-0.863-3.4-1.789-6.783-2.677-10.177
			c-0.325-1.236,0.067-2.355,1.015-3.018c1.493-1.045,3.525-0.408,4.087,1.354c0.5,1.575,0.877,3.188,1.304,4.788
			c0.445,1.667,0.871,3.341,1.334,5.005c0.071,0.255,0.249,0.52,0.45,0.693c1.552,1.345,3.128,2.662,4.684,4.004
			c0.257,0.221,0.481,0.281,0.821,0.201c2.699-0.623,5.406-1.216,8.104-1.845c0.26-0.061,0.552-0.265,0.699-0.487
			c1.291-1.953,2.542-3.932,3.824-5.89c0.863-1.319,2.313-1.73,3.612-1.059c1.271,0.657,1.802,2.226,1.181,3.519
			c-0.116,0.242-0.259,0.473-0.406,0.699c-1.435,2.225-2.902,4.428-4.296,6.678c-0.659,1.06-1.547,1.597-2.761,1.722
			c-0.852,0.089-1.696,0.248-2.595,0.382c0.074,0.229,0.12,0.396,0.185,0.559c1.529,3.844,3.058,7.688,4.596,11.527
			c0.126,0.316,0.29,0.62,0.476,0.903c1.741,2.648,3.5,5.284,5.237,7.935c1.15,1.755,0.67,3.866-1.071,4.787
			c-0.297,0.158-0.621,0.265-0.932,0.396C67.72,116.739,67.359,116.739,66.999,116.739z"/>
		<path fill-rule="evenodd" clip-rule="evenodd" fill="#058C45" d="M54.564,61.377c0.975,0.212,1.904,0.519,2.651,1.229
			c1.326,1.258,1.841,2.801,1.421,4.563c-0.413,1.735-1.517,2.927-3.261,3.422c-2.113,0.601-4.278-0.252-5.337-2.053
			c-1.12-1.899-0.858-4.268,0.76-5.793c0.541-0.512,1.306-0.786,1.977-1.155c0.184-0.1,0.399-0.144,0.599-0.213
			C53.771,61.377,54.168,61.377,54.564,61.377z"/>
		<path fill-rule="evenodd" clip-rule="evenodd" fill="#058C45" d="M50.661,75.333c3.013-0.065,5.128,1.889,5.283,4.371
			c0.155,2.457-1.655,4.69-4.019,4.931c-0.204,0.021-0.472-0.041-0.626-0.168c-1.099-0.902-2.182-1.827-3.257-2.759
			c-0.137-0.119-0.245-0.31-0.296-0.487c-0.257-0.899-0.507-1.8-0.724-2.71c-0.048-0.202-0.01-0.472,0.088-0.656
			C47.974,76.212,49.37,75.409,50.661,75.333z"/>
	</g>
	<g>
		<path fill-rule="evenodd" clip-rule="evenodd" fill="#058C45" d="M137.728,54.641c-0.754,1.587-2.165,2.21-3.768,2.444
			c-1.903,0.279-3.583-0.249-5.024-1.572c-0.939-0.862-2.173-0.857-3.092,0.042c-2.18,2.132-6.027,2.106-8.171,0.03
			c-0.991-0.963-2.231-0.899-3.267,0.031c-2.386,2.146-5.609,2.152-8.006,0.02c-1.123-1.001-2.218-1.009-3.339-0.022
			c-2.429,2.133-5.593,2.144-8.009,0.03c-1.021-0.896-2.133-0.859-3.206,0.105c-2.413,2.17-5.937,2.188-8.265,0.018
			c-0.301-0.278-0.494-0.676-0.736-1.02c0-0.285,0-0.572,0-0.857c0.259-0.51,0.535-1.007,1.112-1.229
			c0.676-0.262,1.29-0.153,1.858,0.293c1.405,1.107,2.512,1.073,3.869-0.109c2.164-1.885,5.492-1.879,7.66,0.014
			c1.203,1.051,2.225,1.048,3.409-0.012c2.317-2.072,5.576-2.085,7.893-0.033c1.233,1.092,2.259,1.087,3.504-0.014
			c2.224-1.965,5.626-1.963,7.837,0.007c1.209,1.077,2.285,1.073,3.514-0.007c2.229-1.965,5.616-1.961,7.838,0.007
			c1.164,1.033,2.168,1.063,3.395,0.099c1.021-0.802,2.289-0.506,2.857,0.667c0.037,0.075,0.09,0.142,0.136,0.21
			C137.728,54.069,137.728,54.354,137.728,54.641z"/>
		<path fill-rule="evenodd" clip-rule="evenodd" fill="#058C45" d="M118.168,45.635c-1.006,0.962-1.959,1.876-2.923,2.78
			c-0.149,0.141-0.334,0.301-0.522,0.333c-1.595,0.288-3.044,0.883-4.311,1.978c-1.445-1.213-3.072-1.965-4.949-2.1
			c-1.843-0.129-3.574,0.254-5.228,1.115c3.49-3.332,6.979-6.664,10.542-10.064c-1.078-0.423-2.09-0.834-3.115-1.203
			c-0.146-0.053-0.375,0.059-0.543,0.141c-1.971,0.966-3.934,1.945-5.906,2.906c-1.057,0.516-2.129,0.202-2.633-0.739
			c-0.508-0.948-0.16-2.063,0.85-2.597c0.93-0.49,1.883-0.938,2.827-1.404c1.328-0.654,2.666-1.289,3.98-1.971
			c0.753-0.391,1.47-0.424,2.259-0.107c2.4,0.959,4.813,1.89,7.223,2.828c1.234,0.479,2.081,1.443,2.875,2.422
			c1.191,1.472,2.306,3.003,3.438,4.521c0.211,0.284,0.4,0.4,0.787,0.353c2.41-0.299,4.824-0.563,7.238-0.821
			c1.176-0.129,2.088,0.551,2.207,1.601c0.125,1.11-0.582,2.009-1.759,2.147c-2.907,0.345-5.818,0.658-8.728,0.988
			c-0.805,0.092-1.427-0.207-1.904-0.845C119.316,47.153,118.756,46.414,118.168,45.635z"/>
		<path fill-rule="evenodd" clip-rule="evenodd" fill="#058C45" d="M126.597,35.401c0.022,2.455-1.979,4.444-4.499,4.469
			c-2.44,0.025-4.437-1.978-4.482-4.498c-0.045-2.407,1.992-4.428,4.512-4.479C124.541,30.845,126.574,32.897,126.597,35.401z"/>
	</g>
	<g>
		<path fill-rule="evenodd" clip-rule="evenodd" fill="#058C45" d="M25.593,68.874c-0.766-0.322-1.434-0.751-1.721-1.59
			c-0.229-0.671-0.132-1.311,0.141-1.949c1.373-3.202,2.74-6.408,4.101-9.617c0.096-0.225,0.172-0.48,0.173-0.724
			c0.012-5.589,0.013-11.177,0.015-16.765c0-0.071-0.008-0.143-0.012-0.215c-0.047-0.026-0.094-0.055-0.141-0.08
			c-0.104,0.197-0.267,0.385-0.301,0.592c-0.361,2.193-0.694,4.39-1.049,6.583c-0.193,1.191-1.098,1.889-2.209,1.73
			c-1.032-0.147-1.75-1.078-1.588-2.216c0.377-2.646,0.806-5.285,1.226-7.926c0.093-0.584,0.443-1.012,0.93-1.342
			c0.974-0.657,1.949-1.313,2.904-1.996c0.202-0.145,0.381-0.383,0.467-0.615c0.569-1.54,1.927-2.573,3.582-2.616
			c2.277-0.06,4.556-0.087,6.835-0.103c0.397-0.004,0.668-0.131,0.942-0.408c2.019-2.047,4.04-4.094,6.094-6.105
			c0.342-0.336,0.817-0.621,1.28-0.733c0.799-0.195,1.575,0.239,1.962,0.937c0.401,0.723,0.329,1.583-0.264,2.211
			c-0.868,0.922-1.775,1.807-2.668,2.703c-1.454,1.463-2.918,2.914-4.359,4.389c-0.525,0.539-1.124,0.809-1.877,0.813
			c-0.718,0.007-1.435,0.073-2.201,0.116c0,0.214,0,0.39,0,0.566c0.001,4.015-0.003,8.029,0.015,12.044
			c0.002,0.321,0.107,0.678,0.266,0.959c0.842,1.496,1.699,2.983,2.586,4.452c0.682,1.128,0.605,2.165-0.175,3.215
			c-1.987,2.668-3.945,5.357-5.922,8.032c-0.914,1.237-2.423,1.525-3.494,0.644c-0.336-0.277-0.568-0.681-0.855-1.037
			c-0.567,1.325-1.178,2.655-1.707,4.016c-0.383,0.987-0.959,1.722-1.998,2.036C26.244,68.874,25.918,68.874,25.593,68.874z
			 M32.185,58.271c0.042,0.015,0.084,0.03,0.127,0.046c1.175-1.598,2.354-3.193,3.517-4.8c0.07-0.098,0.073-0.314,0.013-0.425
			c-0.41-0.742-0.839-1.473-1.276-2.199c-0.064-0.105-0.204-0.225-0.315-0.232c-0.387-0.03-0.776-0.013-1.148-0.013
			C32.868,53.254,33.568,55.878,32.185,58.271z"/>
		<path fill-rule="evenodd" clip-rule="evenodd" fill="#058C45" d="M55,13.315c1.188,0.271,2.224,0.777,3.001,1.769
			c1.467,1.874,1.126,4.63-0.797,6.195c-1.804,1.468-4.625,1.208-6.099-0.561c-2.274-2.729-0.875-6.648,2.613-7.323
			c0.068-0.014,0.131-0.054,0.196-0.08C54.277,13.315,54.639,13.315,55,13.315z"/>
		<path fill-rule="evenodd" clip-rule="evenodd" fill="#058C45" d="M68.188,20.827c1.952,0,3.903-0.002,5.855,0.002
			c1.271,0.002,1.831,0.627,1.664,1.876c-0.577,4.331-1.158,8.66-1.745,12.989c-0.157,1.152-0.628,1.553-1.809,1.554
			c-2.692,0.003-5.385,0.005-8.077,0c-1.187-0.003-1.648-0.445-1.803-1.625c-0.561-4.241-1.129-8.481-1.708-12.72
			c-0.2-1.467,0.299-2.074,1.768-2.076C64.285,20.825,66.236,20.827,68.188,20.827z M63.444,23.619
			c0.491,3.649,0.974,7.24,1.457,10.829c2.179,0,4.302,0,6.447,0c0.486-3.623,0.967-7.211,1.453-10.829
			C69.664,23.619,66.596,23.619,63.444,23.619z"/>
		<path fill-rule="evenodd" clip-rule="evenodd" fill="#058C45" d="M37.646,24.629c0.012,2.513-2.071,4.601-4.574,4.587
			c-2.5-0.013-4.544-2.057-4.555-4.553c-0.01-2.509,2.082-4.609,4.574-4.594C35.584,20.085,37.633,22.136,37.646,24.629z"/>
	</g>
</g>
</svg>
