<?xml version="1.0" encoding="utf-8"?>
<!-- Generator: Adobe Illustrator 16.0.0, SVG Export Plug-In . SVG Version: 6.00 Build 0)  -->
<!DOCTYPE svg PUBLIC "-//W3C//DTD SVG 1.1//EN" "http://www.w3.org/Graphics/SVG/1.1/DTD/svg11.dtd">
<svg version="1.1" id="Layer_1" xmlns="http://www.w3.org/2000/svg" xmlns:xlink="http://www.w3.org/1999/xlink" x="0px" y="0px"
	 width="163.5px" height="187.5px" viewBox="0 0 163.5 187.5" enable-background="new 0 0 163.5 187.5" xml:space="preserve">
<rect x="4" y="6" fill-rule="evenodd" clip-rule="evenodd" fill="#FFFFFF" stroke="#068C45" stroke-width="2" stroke-miterlimit="10" width="155" height="177"/>
<rect x="5" y="126" fill-rule="evenodd" clip-rule="evenodd" fill="#058C45" width="155" height="56"/>
<g>
	<path fill="#FFFFFF" d="M120.229,150.5h5.529v-1.9h-3.438V137.2h-2.09V150.5z M114.625,146.092l0.912-6.574h0.038l0.931,6.574
		H114.625z M112.06,150.5h1.938l0.38-2.604h2.375v-0.037l0.38,2.641h2.09l-2.166-13.3h-2.831L112.06,150.5z M104.498,150.5h1.862
		v-9.709h0.038l2.508,9.709h2.147v-13.3h-1.862v7.961h-0.038l-2.033-7.961h-2.622V150.5z M99.918,148.79
		c-0.722,0-1.083-0.437-1.083-1.312v-7.258c0-0.873,0.361-1.311,1.083-1.311c0.722,0,1.083,0.438,1.083,1.311v7.258
		C101.001,148.354,100.641,148.79,99.918,148.79z M99.918,150.689c1.026,0,1.812-0.291,2.356-0.873
		c0.545-0.583,0.817-1.406,0.817-2.471v-6.992c0-1.063-0.272-1.887-0.817-2.47c-0.544-0.582-1.33-0.874-2.356-0.874
		c-1.026,0-1.812,0.292-2.356,0.874c-0.544,0.583-0.817,1.406-0.817,2.47v6.992c0,1.064,0.272,1.888,0.817,2.471
		C98.107,150.398,98.893,150.689,99.918,150.689z M93.25,150.5h2.09v-13.3h-2.09V150.5z M88.899,150.689
		c1.026,0,1.808-0.291,2.346-0.873c0.539-0.583,0.808-1.419,0.808-2.508c0-0.836-0.165-1.564-0.494-2.186
		c-0.329-0.621-0.931-1.311-1.805-2.071c-0.684-0.595-1.156-1.102-1.416-1.52c-0.26-0.419-0.39-0.868-0.39-1.349
		c0-0.85,0.348-1.273,1.045-1.273c0.342,0,0.602,0.104,0.779,0.313c0.177,0.209,0.266,0.542,0.266,0.997v0.684h1.976v-0.551
		c0-1.076-0.256-1.902-0.77-2.479c-0.513-0.576-1.27-0.865-2.271-0.865c-1.013,0-1.786,0.289-2.318,0.865
		c-0.532,0.576-0.798,1.39-0.798,2.441c0,0.772,0.171,1.466,0.513,2.08c0.342,0.615,0.943,1.302,1.805,2.062
		c0.684,0.596,1.152,1.105,1.406,1.529c0.253,0.425,0.38,0.915,0.38,1.473c0,0.469-0.092,0.808-0.275,1.017
		c-0.184,0.209-0.453,0.313-0.808,0.313c-0.722,0-1.083-0.431-1.083-1.292v-0.912h-1.976v0.76c0,1.077,0.259,1.903,0.779,2.48
		C87.12,150.402,87.886,150.689,88.899,150.689z M81.832,150.689c1.026,0,1.808-0.291,2.346-0.873
		c0.539-0.583,0.808-1.419,0.808-2.508c0-0.836-0.165-1.564-0.494-2.186c-0.329-0.621-0.931-1.311-1.805-2.071
		c-0.684-0.595-1.156-1.102-1.416-1.52c-0.26-0.419-0.39-0.868-0.39-1.349c0-0.85,0.348-1.273,1.045-1.273
		c0.342,0,0.602,0.104,0.779,0.313c0.177,0.209,0.266,0.542,0.266,0.997v0.684h1.976v-0.551c0-1.076-0.256-1.902-0.77-2.479
		c-0.513-0.576-1.27-0.865-2.271-0.865c-1.013,0-1.786,0.289-2.318,0.865c-0.532,0.576-0.798,1.39-0.798,2.441
		c0,0.772,0.171,1.466,0.513,2.08c0.342,0.615,0.943,1.302,1.805,2.062c0.684,0.596,1.152,1.105,1.406,1.529
		c0.253,0.425,0.38,0.915,0.38,1.473c0,0.469-0.092,0.808-0.275,1.017c-0.184,0.209-0.453,0.313-0.808,0.313
		c-0.722,0-1.083-0.431-1.083-1.292v-0.912h-1.976v0.76c0,1.077,0.259,1.903,0.779,2.48
		C80.052,150.402,80.818,150.689,81.832,150.689z M72.179,150.5h5.7v-1.9h-3.61v-4.084h2.869v-1.9H74.27V139.1h3.61V137.2h-5.7
		V150.5z M65.644,150.5h2.09v-5.795h2.698v-1.9h-2.698V139.1h3.439V137.2h-5.529V150.5z M61.064,148.79
		c-0.722,0-1.083-0.437-1.083-1.312v-7.258c0-0.873,0.361-1.311,1.083-1.311c0.722,0,1.083,0.438,1.083,1.311v7.258
		C62.147,148.354,61.787,148.79,61.064,148.79z M61.064,150.689c1.026,0,1.812-0.291,2.356-0.873
		c0.545-0.583,0.817-1.406,0.817-2.471v-6.992c0-1.063-0.272-1.887-0.817-2.47c-0.544-0.582-1.33-0.874-2.356-0.874
		c-1.026,0-1.812,0.292-2.356,0.874c-0.544,0.583-0.817,1.406-0.817,2.47v6.992c0,1.064,0.272,1.888,0.817,2.471
		C59.253,150.398,60.039,150.689,61.064,150.689z M52.477,142.9V139.1h0.95c0.367,0,0.637,0.108,0.808,0.323
		c0.171,0.216,0.256,0.563,0.256,1.045v1.026c0,0.507-0.104,0.867-0.313,1.083s-0.522,0.323-0.94,0.323H52.477z M50.386,150.5h2.09
		v-5.7h0.722c0.481,0,0.82,0.12,1.017,0.361s0.294,0.665,0.294,1.272v2.433c0,0.493,0.013,0.836,0.038,1.026
		c0.025,0.189,0.076,0.393,0.152,0.607h2.128c-0.102-0.229-0.165-0.459-0.19-0.693s-0.038-0.541-0.038-0.922v-2.337
		c0-0.785-0.104-1.412-0.313-1.881c-0.209-0.468-0.567-0.778-1.074-0.931v-0.038c0.912-0.368,1.368-1.241,1.368-2.622v-0.817
		c0-1.038-0.247-1.808-0.741-2.308c-0.494-0.501-1.279-0.751-2.356-0.751h-3.097V150.5z M45.143,143.186V139.1h0.988
		c0.342,0,0.599,0.096,0.77,0.285c0.171,0.19,0.256,0.514,0.256,0.969v1.578c0,0.455-0.085,0.778-0.256,0.969
		c-0.171,0.189-0.427,0.285-0.77,0.285H45.143z M43.053,150.5h2.09v-5.415h0.988c1.039,0,1.817-0.278,2.337-0.836
		s0.779-1.374,0.779-2.451v-1.312c0-1.076-0.26-1.893-0.779-2.45s-1.298-0.836-2.337-0.836h-3.078V150.5z"/>
	<path fill="#FFFFFF" d="M125.246,169.49c1.025,0,1.808-0.291,2.346-0.875c0.539-0.582,0.808-1.418,0.808-2.508
		c0-0.836-0.165-1.564-0.494-2.185s-0.931-1.312-1.805-2.071c-0.685-0.596-1.156-1.102-1.415-1.52
		c-0.26-0.418-0.391-0.867-0.391-1.35c0-0.848,0.349-1.272,1.045-1.272c0.343,0,0.602,0.104,0.779,0.313s0.267,0.541,0.267,0.998
		v0.684h1.976v-0.551c0-1.077-0.256-1.903-0.77-2.48c-0.513-0.576-1.27-0.864-2.271-0.864c-1.013,0-1.786,0.288-2.317,0.864
		c-0.532,0.577-0.799,1.391-0.799,2.441c0,0.773,0.172,1.467,0.514,2.081s0.943,1.302,1.805,2.062
		c0.684,0.596,1.152,1.105,1.406,1.529c0.253,0.425,0.38,0.916,0.38,1.473c0,0.469-0.093,0.808-0.275,1.017
		c-0.185,0.209-0.453,0.313-0.808,0.313c-0.723,0-1.083-0.431-1.083-1.292v-0.912h-1.976v0.761c0,1.076,0.259,1.902,0.778,2.479
		S124.232,169.49,125.246,169.49z M116.961,161.699V157.9h0.95c0.367,0,0.637,0.107,0.808,0.322
		c0.171,0.216,0.256,0.564,0.256,1.045v1.026c0,0.507-0.104,0.868-0.313,1.083s-0.522,0.322-0.94,0.322H116.961z M114.871,169.3
		h2.09v-5.7h0.722c0.481,0,0.82,0.121,1.017,0.361s0.294,0.665,0.294,1.273v2.432c0,0.494,0.013,0.836,0.038,1.025
		c0.025,0.19,0.076,0.393,0.152,0.608h2.128c-0.102-0.228-0.165-0.459-0.19-0.693s-0.038-0.542-0.038-0.922v-2.337
		c0-0.785-0.104-1.412-0.313-1.881s-0.567-0.779-1.074-0.932v-0.037c0.912-0.367,1.368-1.242,1.368-2.622v-0.817
		c0-1.038-0.247-1.808-0.741-2.309c-0.494-0.5-1.279-0.75-2.356-0.75h-3.097V169.3z M107.975,169.3h5.7V167.4h-3.61v-4.086h2.869
		v-1.899h-2.869V157.9h3.61V156h-5.7V169.3z M102.408,169.3h2.09v-5.662l2.527-7.638h-2.033l-1.425,4.883h-0.038L102.104,156H99.88
		l2.527,7.638V169.3z M95.758,164.892l0.912-6.573h0.038l0.931,6.573H95.758z M93.193,169.3h1.938l0.38-2.603h2.375v-0.039
		l0.38,2.642h2.09L98.19,156h-2.831L93.193,169.3z M87.132,169.3h5.529V167.4h-3.439V156h-2.09V169.3z M81.888,161.984V157.9h0.988
		c0.342,0,0.599,0.094,0.77,0.284s0.256,0.513,0.256,0.97v1.576c0,0.457-0.085,0.779-0.256,0.969
		c-0.171,0.19-0.427,0.285-0.77,0.285H81.888z M79.798,169.3h2.09v-5.415h0.988c1.039,0,1.817-0.278,2.337-0.836
		c0.52-0.557,0.779-1.374,0.779-2.451v-1.311c0-1.076-0.26-1.894-0.779-2.451c-0.52-0.557-1.298-0.836-2.337-0.836h-3.078V169.3z
		 M71.477,169.3h2.09V157.9h2.185V156h-6.46v1.9h2.185V169.3z M64.313,161.699V157.9h0.95c0.367,0,0.637,0.107,0.808,0.322
		c0.171,0.216,0.256,0.564,0.256,1.045v1.026c0,0.507-0.104,0.868-0.313,1.083s-0.522,0.322-0.94,0.322H64.313z M62.223,169.3h2.09
		v-5.7h0.722c0.481,0,0.82,0.121,1.017,0.361s0.294,0.665,0.294,1.273v2.432c0,0.494,0.013,0.836,0.038,1.025
		c0.025,0.19,0.076,0.393,0.152,0.608h2.128c-0.102-0.228-0.165-0.459-0.19-0.693s-0.038-0.542-0.038-0.922v-2.337
		c0-0.785-0.104-1.412-0.313-1.881s-0.567-0.779-1.074-0.932v-0.037c0.912-0.367,1.368-1.242,1.368-2.622v-0.817
		c0-1.038-0.247-1.808-0.741-2.309c-0.494-0.5-1.279-0.75-2.356-0.75h-3.097V169.3z M57.645,167.59
		c-0.722,0-1.083-0.438-1.083-1.311v-7.258c0-0.875,0.361-1.312,1.083-1.312c0.722,0,1.083,0.437,1.083,1.312v7.258
		C58.728,167.152,58.367,167.59,57.645,167.59z M57.645,169.49c1.026,0,1.812-0.291,2.356-0.875
		c0.545-0.582,0.817-1.405,0.817-2.469v-6.992c0-1.064-0.272-1.888-0.817-2.471c-0.544-0.582-1.33-0.874-2.356-0.874
		c-1.026,0-1.812,0.292-2.356,0.874c-0.544,0.583-0.817,1.406-0.817,2.471v6.992c0,1.063,0.272,1.887,0.817,2.469
		C55.833,169.199,56.619,169.49,57.645,169.49z M49.38,161.984V157.9h0.988c0.342,0,0.599,0.094,0.77,0.284s0.256,0.513,0.256,0.97
		v1.576c0,0.457-0.085,0.779-0.256,0.969c-0.171,0.19-0.427,0.285-0.77,0.285H49.38z M47.29,169.3h2.09v-5.415h0.988
		c1.039,0,1.817-0.278,2.337-0.836c0.52-0.557,0.779-1.374,0.779-2.451v-1.311c0-1.076-0.26-1.894-0.779-2.451
		c-0.52-0.557-1.298-0.836-2.337-0.836H47.29V169.3z M42.939,169.49c1.026,0,1.808-0.291,2.346-0.875
		c0.539-0.582,0.808-1.418,0.808-2.508c0-0.836-0.165-1.564-0.494-2.185c-0.329-0.62-0.931-1.312-1.805-2.071
		c-0.684-0.596-1.156-1.102-1.416-1.52c-0.26-0.418-0.39-0.867-0.39-1.35c0-0.848,0.348-1.272,1.045-1.272
		c0.342,0,0.602,0.104,0.779,0.313c0.177,0.209,0.266,0.541,0.266,0.998v0.684h1.976v-0.551c0-1.077-0.256-1.903-0.77-2.48
		c-0.513-0.576-1.27-0.864-2.271-0.864c-1.013,0-1.786,0.288-2.318,0.864c-0.532,0.577-0.798,1.391-0.798,2.441
		c0,0.773,0.171,1.467,0.513,2.081c0.342,0.614,0.943,1.302,1.805,2.062c0.684,0.596,1.152,1.105,1.406,1.529
		c0.253,0.425,0.38,0.916,0.38,1.473c0,0.469-0.092,0.808-0.275,1.017c-0.184,0.209-0.453,0.313-0.808,0.313
		c-0.722,0-1.083-0.431-1.083-1.292v-0.912h-1.976v0.761c0,1.076,0.259,1.902,0.779,2.479S41.925,169.49,42.939,169.49z"/>
</g>
<g>
	<path fill-rule="evenodd" clip-rule="evenodd" fill="#058C45" d="M103.186,14.731c2.419,1.188,2.908,2.386,2.055,4.99
		c-1.537,4.691-3.105,9.371-4.58,14.083c-0.42,1.334-1.15,2.185-2.432,2.719c-1.779,0.742-3.52,1.585-5.25,2.437
		c-0.274,0.135-0.588,0.549-0.588,0.833c-0.031,9.695-0.027,19.392-0.025,29.085c0,0.081,0.045,0.164,0.107,0.386
		c0.208-0.422,0.368-0.728,0.512-1.039c2.855-6.244,5.715-12.487,8.559-18.738c0.469-1.031,1.088-1.854,2.334-2.155
		c0.104,0.223,0.227,0.438,0.309,0.668c1.092,3.047,2.168,6.099,3.273,9.142c0.193,0.534,0.165,0.914-0.201,1.409
		c-1.385,1.878-1.057,4.505,0.674,6.044c1.711,1.521,4.295,1.541,6.016,0.045c1.78-1.546,2.15-4.122,0.768-6.027
		c-0.408-0.566-0.41-0.981-0.187-1.589c1.072-2.914,2.094-5.847,3.134-8.773c0.107-0.3,0.231-0.597,0.352-0.909
		c1.337,0.257,1.95,1.179,2.442,2.26c2.884,6.338,5.776,12.675,8.668,19.011c0.462,1.012,0.938,2.017,1.379,3.037
		c0.775,1.794,0.184,3.583-1.413,4.354c-1.635,0.79-3.48,0.117-4.332-1.687c-1.453-3.075-2.842-6.18-4.259-9.27
		c-0.146-0.324-0.302-0.64-0.659-0.952c0,0.363,0,0.726,0,1.087c0,12.052,0.001,24.106-0.004,36.159
		c0,0.488-0.014,0.983-0.085,1.467c-0.292,1.945-1.948,3.326-3.827,3.218c-1.951-0.114-3.422-1.567-3.533-3.538
		c-0.047-0.85-0.026-1.705-0.026-2.555c-0.002-6.223-0.001-12.444-0.001-18.668c0-0.387,0-0.775,0-1.227c-0.918,0-1.752,0-2.758,0
		c0,0.356,0,0.729,0,1.103c0,6.78,0.004,13.562-0.008,20.34c-0.001,0.618-0.027,1.255-0.176,1.851
		c-0.407,1.641-2.092,2.807-3.771,2.688c-1.85-0.13-3.289-1.481-3.471-3.282c-0.048-0.487-0.05-0.98-0.051-1.471
		c-0.006-12.021-0.009-24.039-0.012-36.061c0-0.375,0-0.749-0.225-1.159c-0.754,1.654-1.51,3.31-2.265,4.964
		c-0.733,1.606-1.464,3.215-2.2,4.82c-1.088,2.378-2.543,2.972-5.067,1.987c0,0.386,0,0.734,0,1.082
		c0,3.996,0.029,7.992-0.012,11.988c-0.027,2.807-2.534,4.591-5.044,3.663c-1.536-0.567-2.41-1.905-2.414-3.779
		c-0.008-6.912-0.002-13.822-0.003-20.732c0-0.389,0-0.773,0-1.226c-0.929,0-1.765,0-2.755,0c0,0.362,0,0.742,0,1.119
		c0,6.779,0.002,13.56-0.006,20.34c0,0.521-0.018,1.054-0.123,1.562c-0.385,1.88-2.004,3.061-3.952,2.928
		c-1.825-0.127-3.327-1.596-3.359-3.477c-0.061-3.567-0.03-7.139-0.034-10.709c-0.003-3.044-0.001-6.087-0.001-9.13
		c-0.102-0.01-0.198-0.045-0.221-0.018c-1.577,1.878-4.435,1.316-5.479-1.111c-1.342-3.123-2.813-6.192-4.228-9.285
		c-0.12-0.261-0.239-0.522-0.574-0.767c0,0.335,0,0.668,0,1.003c0,12.118,0.003,24.236-0.004,36.354
		c-0.001,0.62,0.001,1.259-0.134,1.856c-0.387,1.707-1.985,2.833-3.801,2.758c-1.729-0.072-3.169-1.349-3.435-3.08
		c-0.079-0.514-0.099-1.043-0.1-1.564c-0.007-6.683-0.004-13.365-0.004-20.046c0-0.39,0-0.778,0-1.252c-0.922,0-1.779,0-2.759,0
		c0,0.415,0,0.798,0,1.182c0,6.779,0.004,13.561-0.005,20.341c-0.002,0.585-0.005,1.192-0.151,1.752
		c-0.448,1.71-2.039,2.774-3.869,2.663c-1.671-0.103-3.066-1.367-3.343-3.071c-0.083-0.512-0.104-1.041-0.104-1.563
		c-0.008-12.021-0.01-24.041-0.011-36.061c0-0.387,0-0.775-0.171-1.226c-0.152,0.298-0.315,0.59-0.454,0.895
		c-1.388,3.032-2.761,6.071-4.158,9.102c-0.873,1.89-2.514,2.668-4.202,2.031c-1.542-0.581-2.388-2.248-1.894-3.825
		c0.205-0.651,0.512-1.273,0.796-1.897c3.171-6.963,6.35-13.923,9.521-20.887c0.478-1.051,1.095-1.932,2.424-2.136
		c0.797,2.225,1.59,4.436,2.381,6.646c0.198,0.555,0.387,1.111,0.594,1.663c0.463,1.235,0.844,2.289-0.068,3.688
		c-1.172,1.799-0.301,4.292,1.477,5.546c1.788,1.258,4.312,1.047,5.859-0.493c1.522-1.516,1.804-3.99,0.557-5.766
		c-0.411-0.584-0.449-1.022-0.21-1.672c1.053-2.853,2.042-5.729,3.057-8.595c0.12-0.335,0.262-0.659,0.405-1.021
		c1.243,0.206,1.878,1.009,2.345,2.034c2.141,4.704,4.292,9.403,6.438,14.1c0.992,2.173,1.979,4.346,2.971,6.517
		c0.115,0.25,0.258,0.489,0.552,0.693c0-0.278,0-0.557,0-0.834c0-7.958-0.009-15.917,0.016-23.876
		c0.002-0.718-0.183-1.107-0.871-1.405c-1.891-0.815-3.737-1.733-5.613-2.586c-0.832-0.377-1.349-0.97-1.632-1.838
		c-1.648-5.068-3.332-10.123-4.975-15.191c-0.686-2.116,0.027-3.449,2.299-4.472c0.459,0,0.917,0,1.376,0
		c1.418,0.564,2.145,1.645,2.583,3.088c1,3.279,2.273,6.484,3.125,9.799c0.647,2.519,1.828,4.264,4.371,5.035
		c0.407,0.123,0.831,0.637,0.991,1.065c1.257,3.398,2.44,6.828,3.677,10.235c0.19,0.522,0.13,0.869-0.208,1.324
		c-1.404,1.883-1.138,4.491,0.557,6.056c1.691,1.565,4.351,1.606,6.093,0.096c1.802-1.559,2.127-4.127,0.707-6.105
		c-0.338-0.47-0.352-0.824-0.166-1.331c0.928-2.547,1.984-5.065,2.678-7.677c0.658-2.48,1.93-4.142,4.402-4.925
		c0.424-0.133,0.861-0.692,1.016-1.149c1.406-4.144,2.789-8.297,4.091-12.478c0.45-1.448,1.19-2.515,2.636-3.033
		C102.269,14.731,102.728,14.731,103.186,14.731z"/>
	<path fill-rule="evenodd" clip-rule="evenodd" fill="#058C45" d="M42.069,115.349c0.001-3.176,0.001-6.353,0.003-9.527
		c0.001-2.374,0.714-3.077,3.121-3.077c7.661-0.001,15.321,0,22.982,0c0.384,0,0.77,0,1.296,0c0-1.395-0.002-2.692,0-3.99
		c0.005-2.391,0.709-3.096,3.107-3.096c7.366,0,14.731-0.001,22.099,0c2.232,0,2.99,0.769,2.991,3.016
		c0.004,2.945,0.001,5.891,0.001,8.992c0.423,0,0.799,0,1.176,0c7.727,0,15.453-0.001,23.179,0c2.288,0.001,3.021,0.717,3.019,2.972
		c-0.003,1.571-0.027,3.141-0.043,4.711C97.356,115.349,69.713,115.349,42.069,115.349z"/>
	<path fill-rule="evenodd" clip-rule="evenodd" fill="#058C45" d="M110.932,31.182c3.998-0.03,7.324,3.263,7.341,7.266
		c0.016,3.97-3.345,7.33-7.317,7.317c-3.969-0.015-7.201-3.235-7.271-7.245C103.613,34.538,106.9,31.209,110.932,31.182z"/>
	<path fill-rule="evenodd" clip-rule="evenodd" fill="#058C45" d="M55.011,39.953c-4.085-0.163-7.14-3.549-6.972-7.492
		c0.194-4.521,3.827-7.221,7.528-7.034c4.181,0.208,7.282,3.649,7.011,7.543C62.29,37.123,58.915,40.239,55.011,39.953z"/>
	<path fill-rule="evenodd" clip-rule="evenodd" fill="#058C45" d="M106.862,47.213c2.812,0,5.446,0,8.19,0
		c-0.198,0.594-0.363,1.115-0.545,1.629c-0.836,2.37-1.691,4.731-2.506,7.107c-0.178,0.52-0.42,0.702-0.982,0.673
		c-0.531-0.026-0.879-0.053-1.088-0.67C108.953,53.055,107.91,50.179,106.862,47.213z"/>
	<path fill-rule="evenodd" clip-rule="evenodd" fill="#058C45" d="M59.412,41.479c-1.09,3.07-2.132,6.056-3.238,9.016
		c-0.078,0.207-0.629,0.311-0.964,0.321c-0.258,0.009-0.692-0.14-0.761-0.323c-1.096-2.964-2.145-5.943-3.238-9.014
		C53.977,41.479,56.611,41.479,59.412,41.479z"/>
	<path fill-rule="evenodd" clip-rule="evenodd" fill="#058C45" d="M76.221,25.181c0.028-4.022,3.394-7.354,7.342-7.263
		c4.004,0.092,7.227,3.342,7.233,7.296c0.007,3.994-3.319,7.313-7.317,7.3C79.46,32.5,76.192,29.197,76.221,25.181z"/>
	<path fill-rule="evenodd" clip-rule="evenodd" fill="#058C45" d="M79.386,33.99c2.778,0,5.417,0,8.146,0
		c-0.077,0.295-0.124,0.538-0.206,0.771c-0.934,2.646-1.877,5.288-2.803,7.937c-0.161,0.461-0.305,0.779-0.927,0.743
		c-0.584-0.033-0.917-0.114-1.133-0.751C81.49,39.822,80.449,36.976,79.386,33.99z"/>
</g>
</svg>
