<?xml version="1.0" encoding="utf-8"?>
<!-- Generator: Adobe Illustrator 16.0.0, SVG Export Plug-In . SVG Version: 6.00 Build 0)  -->
<!DOCTYPE svg PUBLIC "-//W3C//DTD SVG 1.1//EN" "http://www.w3.org/Graphics/SVG/1.1/DTD/svg11.dtd">
<svg version="1.1" id="Layer_1" xmlns="http://www.w3.org/2000/svg" xmlns:xlink="http://www.w3.org/1999/xlink" x="0px" y="0px"
	 width="163.5px" height="187.5px" viewBox="0 0 163.5 187.5" enable-background="new 0 0 163.5 187.5" xml:space="preserve">
<rect x="5" y="7" fill-rule="evenodd" clip-rule="evenodd" fill="#FFFFFF" stroke="#068C45" stroke-width="2" stroke-miterlimit="10" width="154" height="177"/>
<rect x="6" y="127" fill-rule="evenodd" clip-rule="evenodd" fill="#058C45" width="154" height="56"/>
<g>
	<path fill="#FFFFFF" d="M117.915,163.023c1.026,0,1.808-0.291,2.346-0.875c0.539-0.582,0.808-1.418,0.808-2.508
		c0-0.836-0.165-1.564-0.494-2.185c-0.329-0.62-0.931-1.312-1.805-2.071c-0.684-0.596-1.156-1.102-1.416-1.52
		c-0.26-0.418-0.39-0.867-0.39-1.35c0-0.848,0.348-1.272,1.045-1.272c0.342,0,0.602,0.104,0.779,0.313
		c0.177,0.209,0.266,0.541,0.266,0.998v0.684h1.976v-0.551c0-1.077-0.256-1.903-0.77-2.48c-0.513-0.576-1.27-0.864-2.271-0.864
		c-1.013,0-1.786,0.288-2.318,0.864c-0.532,0.577-0.798,1.391-0.798,2.441c0,0.773,0.171,1.467,0.513,2.081
		c0.342,0.614,0.943,1.302,1.805,2.062c0.684,0.596,1.152,1.105,1.406,1.529c0.253,0.425,0.38,0.916,0.38,1.473
		c0,0.469-0.092,0.808-0.275,1.017c-0.184,0.209-0.453,0.313-0.808,0.313c-0.722,0-1.083-0.431-1.083-1.292v-0.912h-1.976v0.761
		c0,1.076,0.259,1.902,0.779,2.479S116.901,163.023,117.915,163.023z M109.63,155.232v-3.799h0.95c0.367,0,0.637,0.107,0.808,0.322
		c0.171,0.216,0.256,0.564,0.256,1.045v1.026c0,0.507-0.104,0.868-0.313,1.083s-0.522,0.322-0.94,0.322H109.63z M107.54,162.833
		h2.09v-5.7h0.722c0.481,0,0.82,0.121,1.017,0.361s0.294,0.665,0.294,1.273v2.432c0,0.494,0.013,0.836,0.038,1.025
		c0.025,0.19,0.076,0.393,0.152,0.608h2.128c-0.102-0.228-0.165-0.459-0.19-0.693s-0.038-0.542-0.038-0.922v-2.337
		c0-0.785-0.104-1.412-0.313-1.881s-0.567-0.779-1.074-0.932v-0.037c0.912-0.367,1.368-1.242,1.368-2.622v-0.817
		c0-1.038-0.247-1.808-0.741-2.309c-0.494-0.5-1.279-0.75-2.356-0.75h-3.097V162.833z M102.942,163.023
		c1.013,0,1.786-0.289,2.318-0.865c0.532-0.576,0.798-1.402,0.798-2.479v-10.146h-2.014v10.298c0,0.456-0.092,0.786-0.275,0.987
		c-0.184,0.203-0.446,0.305-0.789,0.305c-0.342,0-0.605-0.102-0.789-0.305c-0.184-0.201-0.275-0.531-0.275-0.987v-10.298h-2.09
		v10.146c0,1.076,0.266,1.902,0.798,2.479C101.157,162.734,101.929,163.023,102.942,163.023z M95.324,161.123
		c-0.722,0-1.083-0.438-1.083-1.311v-7.258c0-0.875,0.361-1.312,1.083-1.312c0.722,0,1.083,0.437,1.083,1.312v7.258
		C96.407,160.686,96.046,161.123,95.324,161.123z M95.324,163.023c1.026,0,1.812-0.291,2.356-0.875
		c0.545-0.582,0.817-1.405,0.817-2.469v-6.992c0-1.064-0.272-1.888-0.817-2.471c-0.544-0.582-1.33-0.874-2.356-0.874
		c-1.026,0-1.812,0.292-2.356,0.874c-0.544,0.583-0.817,1.406-0.817,2.471v6.992c0,1.063,0.272,1.887,0.817,2.469
		C93.512,162.732,94.298,163.023,95.324,163.023z M87.097,162.833h2.09v-11.399h2.185v-1.9h-6.46v1.9h2.185V162.833z
		 M77.141,162.833h2.09v-11.399h2.185v-1.9h-6.46v1.9h2.185V162.833z M69.978,155.232v-3.799h0.95c0.367,0,0.637,0.107,0.808,0.322
		c0.171,0.216,0.256,0.564,0.256,1.045v1.026c0,0.507-0.104,0.868-0.313,1.083s-0.522,0.322-0.94,0.322H69.978z M67.888,162.833
		h2.09v-5.7H70.7c0.481,0,0.82,0.121,1.017,0.361s0.294,0.665,0.294,1.273v2.432c0,0.494,0.013,0.836,0.038,1.025
		c0.025,0.19,0.076,0.393,0.152,0.608h2.128c-0.102-0.228-0.165-0.459-0.19-0.693s-0.038-0.542-0.038-0.922v-2.337
		c0-0.785-0.104-1.412-0.313-1.881s-0.567-0.779-1.074-0.932v-0.037c0.912-0.367,1.368-1.242,1.368-2.622v-0.817
		c0-1.038-0.247-1.808-0.741-2.309c-0.494-0.5-1.279-0.75-2.356-0.75h-3.097V162.833z M63.309,161.123
		c-0.722,0-1.083-0.438-1.083-1.311v-7.258c0-0.875,0.361-1.312,1.083-1.312c0.722,0,1.083,0.437,1.083,1.312v7.258
		C64.392,160.686,64.031,161.123,63.309,161.123z M63.309,163.023c1.026,0,1.812-0.291,2.356-0.875
		c0.545-0.582,0.817-1.405,0.817-2.469v-6.992c0-1.064-0.272-1.888-0.817-2.471c-0.544-0.582-1.33-0.874-2.356-0.874
		c-1.026,0-1.812,0.292-2.356,0.874c-0.544,0.583-0.817,1.406-0.817,2.471v6.992c0,1.063,0.272,1.887,0.817,2.469
		C61.498,162.732,62.283,163.023,63.309,163.023z M55.044,155.518v-4.084h0.988c0.342,0,0.599,0.094,0.77,0.284
		s0.256,0.513,0.256,0.97v1.576c0,0.457-0.085,0.779-0.256,0.969c-0.171,0.19-0.427,0.285-0.77,0.285H55.044z M52.954,162.833h2.09
		v-5.415h0.988c1.039,0,1.817-0.278,2.337-0.836c0.52-0.557,0.779-1.374,0.779-2.451v-1.311c0-1.076-0.26-1.894-0.779-2.451
		c-0.52-0.557-1.298-0.836-2.337-0.836h-3.078V162.833z M48.604,163.023c1.026,0,1.808-0.291,2.346-0.875
		c0.539-0.582,0.808-1.418,0.808-2.508c0-0.836-0.165-1.564-0.494-2.185c-0.329-0.62-0.931-1.312-1.805-2.071
		c-0.684-0.596-1.156-1.102-1.416-1.52c-0.26-0.418-0.39-0.867-0.39-1.35c0-0.848,0.348-1.272,1.045-1.272
		c0.342,0,0.602,0.104,0.779,0.313c0.177,0.209,0.266,0.541,0.266,0.998v0.684h1.976v-0.551c0-1.077-0.256-1.903-0.77-2.48
		c-0.513-0.576-1.27-0.864-2.271-0.864c-1.013,0-1.786,0.288-2.318,0.864c-0.532,0.577-0.798,1.391-0.798,2.441
		c0,0.773,0.171,1.467,0.513,2.081c0.342,0.614,0.943,1.302,1.805,2.062c0.684,0.596,1.152,1.105,1.406,1.529
		c0.253,0.425,0.38,0.916,0.38,1.473c0,0.469-0.092,0.808-0.275,1.017c-0.184,0.209-0.453,0.313-0.808,0.313
		c-0.722,0-1.083-0.431-1.083-1.292v-0.912h-1.976v0.761c0,1.076,0.259,1.902,0.779,2.479S47.59,163.023,48.604,163.023z"/>
</g>
<g>
	<path fill-rule="evenodd" clip-rule="evenodd" fill="#058C45" d="M154.036,86.798c-1.601-2.188-5.157-2.962-9.493-3.027
		c-6.486-0.099-12.274-0.992-17.918-2.114c-6.166-1.224-12.829-1.658-20.233-0.812c-6.765,0.774-13.04,2.527-18.813,5.169
		c-3.356,1.539-6.56,3.19-9.868,4.767c-0.525,0.251-1.243,0.469-1.859,0.54c-7.842,0.903-14.758,3.089-20.835,6.585
		c-4.397,2.529-9.378,4.438-15.198,5.199c-9.587,1.255-17.521,4.35-24.27,8.778c-1.262,0.828-2.4,1.707-3.596,2.563
		c0.01,0.05,94.789-18.08,142.17-27.194C154.094,87.101,154.064,86.948,154.036,86.798z"/>
	<path fill-rule="evenodd" clip-rule="evenodd" fill="#058C45" d="M29.463,111.633c24.485-4.71,48.97-9.421,73.455-14.132
		c-0.191,0.09-0.375,0.224-0.578,0.262c-4.516,0.879-9.034,1.746-13.553,2.615c-19.539,3.759-39.076,7.518-58.615,11.269
		C29.945,111.69,29.699,111.64,29.463,111.633z"/>
	<g>
		<path fill-rule="evenodd" clip-rule="evenodd" fill="#058C45" d="M28.689,66.903c0.219,0.008,0.438,0.006,0.656,0.025
			c1.459,0.122,2.584,1.256,2.714,2.729c0.124,1.409-0.806,2.727-2.182,3.093c-1.394,0.371-2.864-0.291-3.45-1.555
			c-0.632-1.364-0.244-2.88,0.952-3.731c0.121-0.086,0.237-0.18,0.355-0.271C28.053,67.098,28.371,67,28.689,66.903z"/>
		<path fill-rule="evenodd" clip-rule="evenodd" fill="#058C45" d="M38.629,75.493c0.055-0.003,0.069,0,0.083-0.004
			c0.359-0.083,0.776-0.316,1.061-0.206c0.293,0.112,0.459,0.559,0.676,0.862c1.268,1.782,2.534,3.564,3.802,5.345
			c0.071,0.102,0.146,0.198,0.239,0.321c2.065-1.187,4.224-1.451,6.468-0.615c1.733,0.646,3.039,1.807,3.905,3.438
			c1.708,3.221,0.725,7.261-2.26,9.366c-3.04,2.146-7.149,1.684-9.665-1.079c-2.482-2.726-2.689-7.299,0.542-10.361
			c-0.257-0.362-0.518-0.731-0.8-1.129c-0.079,0.125-0.139,0.213-0.191,0.306c-1.577,2.883-3.156,5.767-4.723,8.654
			c-0.088,0.16-0.13,0.397-0.086,0.57c0.211,0.848-0.036,1.647-0.692,2.109c-0.676,0.477-1.49,0.462-2.213-0.036
			c-0.066-0.046-0.133-0.091-0.193-0.132c0.3,4.848-1.647,8.062-6.638,8.803c-3.124,0.464-6.174-1.523-7.401-4.471
			c-1.218-2.927-0.356-6.357,2.094-8.408c2.401-2.011,6.213-2.457,9.332-0.054c0.185-0.189,0.384-0.377,0.559-0.585
			c0.059-0.069,0.056-0.192,0.076-0.291c0.004-0.023-0.024-0.051-0.028-0.077c-0.159-1.054-0.739-1.521-1.833-1.629
			c-1.387-0.137-2.754-0.48-4.128-0.735c-1.579-0.295-2.456-1.532-2.187-3.12c0.36-2.129,0.784-4.25,1.097-6.386
			c0.267-1.818,1.959-2.831,3.804-2.042c1.019,0.437,2.03,0.896,3.027,1.38c0.412,0.2,0.794,0.23,1.235,0.131
			c1.041-0.233,2.096-0.402,3.133-0.648C37.541,74.577,38.17,74.774,38.629,75.493z M44.602,84.134
			c-2.086,1.875-2.226,5.314-0.354,7.465c1.959,2.251,5.354,2.525,7.629,0.616c2.273-1.909,2.615-5.282,0.767-7.581
			c-2.018-2.511-5.338-2.452-7.042-1.25c0.093,0.136,0.185,0.271,0.28,0.406c0.811,1.139,1.625,2.276,2.431,3.418
			c0.262,0.371,0.224,0.748-0.075,0.958c-0.307,0.213-0.642,0.144-0.903-0.198c-0.185-0.242-0.356-0.494-0.533-0.742
			C46.074,86.203,45.346,85.178,44.602,84.134z M30.63,90.149c-1.88-1.615-4.953-1.516-6.917,0.2
			c-2.018,1.761-2.448,4.801-0.998,7.031c1.5,2.302,4.415,3.163,6.875,2.03c2.256-1.04,3.694-3.819,3.048-5.944
			c-1.099,0.335-2.196,0.675-3.299,1.002c-0.243,0.07-0.388,0.164-0.459,0.44c-0.164,0.631-0.607,1.024-1.244,1.147
			c-0.705,0.133-1.285-0.108-1.694-0.708c-0.37-0.543-0.376-1.262-0.004-1.801c0.409-0.594,0.98-0.826,1.696-0.721
			c0.135,0.02,0.333,0.035,0.41-0.04C28.917,91.919,29.771,91.032,30.63,90.149z M40.818,78.816
			c-0.44-0.619-0.888-1.197-1.276-1.814c-0.207-0.328-0.42-0.4-0.74-0.231c-0.118,0.063-0.216,0.159-0.329,0.229
			c-0.333,0.205-0.647,0.502-1.011,0.586c-1.361,0.322-2.74,0.57-4.11,0.854c-0.491,0.103-0.954,0.086-1.415-0.146
			c-0.525-0.263-1.07-0.487-1.641-0.744c-0.274,1.57-0.54,3.094-0.811,4.646c0.178,0.037,0.326,0.069,0.473,0.097
			c1.375,0.257,2.751,0.506,4.125,0.772c0.305,0.06,0.598,0.18,0.964,0.293C36.914,81.888,38.847,80.367,40.818,78.816z
			 M41.534,79.882c-0.036,0.011-0.068,0.012-0.087,0.028c-1.958,1.535-3.917,3.069-5.864,4.618c-0.086,0.069-0.119,0.293-0.08,0.415
			c0.205,0.631,0.437,1.255,0.664,1.88c0.271,0.744,0.548,1.486,0.85,2.304c0.109-0.187,0.174-0.288,0.232-0.396
			c1.476-2.696,2.943-5.398,4.434-8.086C41.876,80.297,41.805,80.092,41.534,79.882z M31.565,90.97
			c-0.707,0.729-1.345,1.384-2.049,2.109c0.996-0.304,1.883-0.573,2.819-0.859C32.07,91.791,31.833,91.405,31.565,90.97z
			 M33.147,89.388c-0.303,0.286-0.16,0.633,0.352,0.989C33.383,90.049,33.273,89.743,33.147,89.388z"/>
		<path fill-rule="evenodd" clip-rule="evenodd" fill="#058C45" d="M31.565,90.97c0.269,0.436,0.505,0.821,0.77,1.25
			c-0.936,0.286-1.823,0.556-2.819,0.859C30.22,92.354,30.858,91.698,31.565,90.97z"/>
		<path fill-rule="evenodd" clip-rule="evenodd" fill="#058C45" d="M33.147,89.388c0.126,0.355,0.236,0.661,0.352,0.989
			C32.987,90.021,32.844,89.674,33.147,89.388z"/>
	</g>
	<g>
		<path fill-rule="evenodd" clip-rule="evenodd" fill="#058C45" d="M72.371,51.557c0.219,0.008,0.438,0.006,0.656,0.025
			c1.459,0.122,2.584,1.256,2.714,2.73c0.124,1.409-0.806,2.727-2.182,3.093c-1.394,0.371-2.864-0.291-3.45-1.555
			c-0.632-1.364-0.244-2.881,0.952-3.732c0.121-0.086,0.237-0.18,0.355-0.271C71.734,51.751,72.052,51.653,72.371,51.557z"/>
		<path fill-rule="evenodd" clip-rule="evenodd" fill="#058C45" d="M82.311,60.147c0.055-0.003,0.069,0,0.082-0.004
			c0.359-0.083,0.777-0.316,1.062-0.206c0.293,0.112,0.46,0.559,0.677,0.862c1.268,1.782,2.533,3.564,3.802,5.345
			c0.071,0.102,0.146,0.198,0.239,0.321c2.064-1.187,4.223-1.451,6.468-0.615c1.733,0.646,3.039,1.807,3.905,3.438
			c1.707,3.221,0.725,7.261-2.26,9.366c-3.041,2.146-7.149,1.684-9.666-1.079c-2.481-2.726-2.688-7.299,0.542-10.36
			c-0.257-0.362-0.518-0.731-0.8-1.129c-0.078,0.125-0.139,0.213-0.191,0.306c-1.576,2.882-3.156,5.766-4.722,8.653
			c-0.088,0.16-0.13,0.397-0.086,0.57c0.211,0.848-0.036,1.647-0.692,2.109c-0.676,0.477-1.49,0.462-2.213-0.036
			c-0.066-0.046-0.133-0.091-0.193-0.132c0.3,4.848-1.647,8.062-6.638,8.803c-3.124,0.464-6.174-1.523-7.401-4.471
			c-1.218-2.927-0.356-6.357,2.094-8.408c2.401-2.011,6.213-2.457,9.332-0.054c0.185-0.189,0.384-0.377,0.559-0.585
			c0.059-0.069,0.056-0.192,0.076-0.291c0.004-0.023-0.024-0.051-0.028-0.077c-0.159-1.054-0.739-1.521-1.833-1.629
			c-1.387-0.137-2.754-0.48-4.128-0.735c-1.579-0.295-2.456-1.531-2.187-3.119c0.36-2.129,0.784-4.25,1.097-6.386
			c0.267-1.818,1.959-2.831,3.804-2.042c1.019,0.437,2.03,0.896,3.027,1.38c0.412,0.2,0.794,0.23,1.235,0.131
			c1.041-0.233,2.096-0.402,3.133-0.648C81.222,59.231,81.852,59.429,82.311,60.147z M88.283,68.787
			c-2.086,1.875-2.227,5.314-0.354,7.465c1.959,2.251,5.354,2.525,7.629,0.616c2.273-1.909,2.615-5.282,0.768-7.581
			c-2.018-2.51-5.338-2.451-7.042-1.249c0.093,0.136,0.185,0.271,0.28,0.406c0.811,1.138,1.625,2.275,2.432,3.417
			c0.262,0.371,0.223,0.748-0.076,0.958c-0.307,0.213-0.642,0.144-0.902-0.198c-0.186-0.242-0.356-0.494-0.533-0.742
			C89.756,70.856,89.027,69.831,88.283,68.787z M74.312,74.803c-1.88-1.615-4.953-1.516-6.917,0.2
			c-2.018,1.761-2.448,4.801-0.998,7.031c1.5,2.302,4.415,3.163,6.875,2.03c2.256-1.04,3.694-3.819,3.048-5.944
			c-1.099,0.335-2.196,0.675-3.299,1.002c-0.243,0.07-0.388,0.164-0.459,0.44c-0.164,0.631-0.607,1.024-1.244,1.147
			c-0.705,0.133-1.285-0.108-1.694-0.708c-0.37-0.543-0.376-1.262-0.004-1.801c0.409-0.594,0.98-0.826,1.696-0.721
			c0.135,0.02,0.333,0.035,0.41-0.04C72.598,76.572,73.452,75.686,74.312,74.803z M84.499,63.471
			c-0.44-0.619-0.888-1.197-1.276-1.814c-0.207-0.328-0.42-0.4-0.739-0.231c-0.118,0.063-0.216,0.159-0.329,0.229
			c-0.333,0.205-0.647,0.502-1.011,0.586c-1.361,0.322-2.74,0.57-4.11,0.854c-0.491,0.103-0.954,0.086-1.415-0.146
			c-0.525-0.263-1.07-0.487-1.641-0.744c-0.274,1.57-0.54,3.094-0.811,4.646c0.178,0.037,0.326,0.069,0.473,0.097
			c1.375,0.257,2.751,0.506,4.125,0.772c0.305,0.06,0.598,0.18,0.964,0.293C80.595,66.542,82.527,65.021,84.499,63.471z
			 M85.215,64.536c-0.035,0.011-0.067,0.012-0.086,0.028c-1.959,1.535-3.917,3.069-5.864,4.617c-0.086,0.069-0.119,0.293-0.08,0.415
			c0.205,0.631,0.437,1.255,0.664,1.88c0.271,0.744,0.548,1.486,0.85,2.304c0.109-0.187,0.174-0.288,0.232-0.396
			c1.476-2.696,2.943-5.397,4.433-8.085C85.557,64.951,85.486,64.746,85.215,64.536z M75.246,75.623
			c-0.707,0.729-1.345,1.384-2.049,2.109c0.996-0.304,1.883-0.573,2.819-0.859C75.751,76.444,75.515,76.059,75.246,75.623z
			 M76.828,74.041c-0.303,0.286-0.16,0.633,0.352,0.989C77.064,74.702,76.955,74.396,76.828,74.041z"/>
		<path fill-rule="evenodd" clip-rule="evenodd" fill="#058C45" d="M75.246,75.623c0.269,0.436,0.505,0.821,0.77,1.25
			c-0.936,0.286-1.823,0.556-2.819,0.859C73.901,77.007,74.54,76.352,75.246,75.623z"/>
		<path fill-rule="evenodd" clip-rule="evenodd" fill="#058C45" d="M76.828,74.041c0.126,0.355,0.236,0.661,0.352,0.989
			C76.668,74.674,76.525,74.327,76.828,74.041z"/>
	</g>
	<g>
		<path fill-rule="evenodd" clip-rule="evenodd" fill="#058C45" d="M128.412,43.697c0.188,0.111,0.383,0.215,0.564,0.336
			c1.225,0.803,1.672,2.335,1.084,3.693c-0.563,1.298-2.009,2.013-3.393,1.679c-1.402-0.338-2.379-1.621-2.291-3.012
			c0.094-1.5,1.158-2.648,2.615-2.827c0.147-0.018,0.294-0.045,0.441-0.069C127.76,43.565,128.086,43.631,128.412,43.697z"/>
		<path fill-rule="evenodd" clip-rule="evenodd" fill="#058C45" d="M133.054,55.988c0.05,0.023,0.062,0.033,0.074,0.036
			c0.355,0.098,0.833,0.092,1.031,0.324c0.204,0.238,0.138,0.71,0.183,1.08c0.266,2.171,0.529,4.342,0.795,6.512
			c0.014,0.123,0.034,0.244,0.057,0.396c2.381-0.058,4.404,0.738,5.979,2.543c1.216,1.394,1.81,3.036,1.793,4.884
			c-0.034,3.645-2.823,6.728-6.452,7.155c-3.695,0.438-7.086-1.928-7.98-5.556c-0.883-3.579,1.115-7.697,5.415-8.85
			c-0.054-0.44-0.106-0.89-0.165-1.373c-0.129,0.072-0.224,0.121-0.313,0.178c-2.761,1.782-5.523,3.564-8.276,5.354
			c-0.154,0.1-0.305,0.287-0.349,0.461c-0.218,0.846-0.817,1.431-1.614,1.523c-0.822,0.097-1.529-0.304-1.928-1.087
			c-0.037-0.072-0.074-0.144-0.107-0.208c-2.047,4.404-5.291,6.302-10.031,4.573c-2.967-1.081-4.701-4.282-4.375-7.457
			c0.324-3.153,2.717-5.759,5.849-6.393c3.069-0.623,6.634,0.802,8.229,4.401c0.253-0.079,0.517-0.148,0.771-0.248
			c0.084-0.033,0.141-0.143,0.205-0.22c0.015-0.019,0.004-0.056,0.012-0.081c0.363-1.002,0.076-1.69-0.834-2.306
			c-1.154-0.781-2.191-1.735-3.279-2.615c-1.246-1.012-1.428-2.517-0.435-3.785c1.331-1.699,2.716-3.362,4.009-5.09
			c1.102-1.472,3.072-1.555,4.317,0.019c0.688,0.869,1.356,1.755,2.003,2.656c0.268,0.372,0.589,0.581,1.023,0.704
			c1.026,0.29,2.035,0.646,3.064,0.924C132.533,54.664,132.992,55.138,133.054,55.988z M134.184,66.431
			c-2.727,0.654-4.489,3.609-3.869,6.393c0.649,2.913,3.503,4.772,6.413,4.179c2.908-0.595,4.817-3.396,4.288-6.298
			c-0.576-3.168-3.523-4.7-5.594-4.455c0.018,0.164,0.033,0.327,0.053,0.49c0.17,1.388,0.343,2.774,0.508,4.163
			c0.053,0.451-0.16,0.764-0.523,0.807c-0.371,0.04-0.633-0.181-0.699-0.605c-0.047-0.301-0.077-0.604-0.114-0.906
			C134.492,68.951,134.341,67.703,134.184,66.431z M119.035,65.058c-0.883-2.315-3.631-3.693-6.176-3.121
			c-2.613,0.586-4.44,3.053-4.229,5.705c0.221,2.737,2.373,4.885,5.076,5.062c2.479,0.161,5.068-1.596,5.513-3.771
			c-1.126-0.229-2.253-0.453-3.378-0.691c-0.246-0.054-0.418-0.041-0.613,0.168c-0.445,0.476-1.021,0.61-1.641,0.415
			c-0.684-0.22-1.077-0.707-1.151-1.429c-0.065-0.653,0.271-1.289,0.854-1.585c0.643-0.327,1.256-0.26,1.834,0.175
			c0.11,0.081,0.277,0.189,0.381,0.16C116.686,65.797,117.858,65.424,119.035,65.058z M133.393,59.952
			c-0.091-0.754-0.209-1.475-0.256-2.203c-0.025-0.387-0.179-0.552-0.54-0.556c-0.134-0.001-0.266,0.037-0.398,0.044
			c-0.391,0.021-0.808,0.133-1.168,0.033c-1.351-0.366-2.681-0.806-4.021-1.21c-0.48-0.144-0.879-0.379-1.174-0.802
			c-0.337-0.481-0.709-0.939-1.088-1.437c-0.99,1.249-1.949,2.462-2.928,3.697c0.14,0.117,0.254,0.216,0.37,0.311
			c1.087,0.881,2.177,1.756,3.258,2.646c0.239,0.197,0.439,0.442,0.708,0.717C128.497,60.791,130.921,60.376,133.393,59.952z
			 M133.516,61.23c-0.037-0.007-0.066-0.021-0.091-0.017c-2.452,0.416-4.905,0.831-7.356,1.265c-0.107,0.02-0.244,0.2-0.268,0.326
			c-0.121,0.652-0.215,1.312-0.313,1.97c-0.116,0.783-0.227,1.567-0.352,2.43c0.186-0.111,0.29-0.17,0.393-0.237
			c2.582-1.666,5.16-3.342,7.752-4.994C133.617,61.759,133.652,61.545,133.516,61.23z M119.465,66.225
			c-0.968,0.304-1.842,0.575-2.807,0.877c1.021,0.208,1.93,0.395,2.889,0.589C119.518,67.188,119.494,66.735,119.465,66.225z
			 M121.61,65.588c-0.403,0.107-0.442,0.48-0.162,1.038C121.502,66.282,121.553,65.961,121.61,65.588z"/>
		<path fill-rule="evenodd" clip-rule="evenodd" fill="#058C45" d="M119.465,66.225c0.029,0.511,0.053,0.963,0.082,1.466
			c-0.959-0.194-1.868-0.381-2.889-0.589C117.623,66.8,118.497,66.528,119.465,66.225z"/>
		<path fill-rule="evenodd" clip-rule="evenodd" fill="#058C45" d="M121.61,65.588c-0.058,0.373-0.108,0.694-0.162,1.038
			C121.168,66.068,121.207,65.695,121.61,65.588z"/>
	</g>
	<path fill-rule="evenodd" clip-rule="evenodd" fill="#058C45" d="M12.453,114.283L6,117h154V87.098c0,0-2.109-0.831-5.377-0.203
		S28.906,106.182,12.453,114.283z"/>
</g>
</svg>
