<?xml version="1.0" encoding="utf-8"?>
<!-- Generator: Adobe Illustrator 16.0.0, SVG Export Plug-In . SVG Version: 6.00 Build 0)  -->
<!DOCTYPE svg PUBLIC "-//W3C//DTD SVG 1.1//EN" "http://www.w3.org/Graphics/SVG/1.1/DTD/svg11.dtd">
<svg version="1.1" id="Layer_1" xmlns="http://www.w3.org/2000/svg" xmlns:xlink="http://www.w3.org/1999/xlink" x="0px" y="0px"
	 width="163.5px" height="187.5px" viewBox="0 0 163.5 187.5" enable-background="new 0 0 163.5 187.5" xml:space="preserve">
<rect x="4" y="6" fill-rule="evenodd" clip-rule="evenodd" fill="#FFFFFF" stroke="#068C45" stroke-width="2" stroke-miterlimit="10" width="155" height="177"/>
<rect x="5" y="126" fill-rule="evenodd" clip-rule="evenodd" fill="#058C45" width="155" height="56"/>
<g>
	<path fill="#FFFFFF" d="M109.663,149.54c-0.317,0-0.564-0.095-0.741-0.285s-0.266-0.507-0.266-0.95v-1.349
		c0-0.608,0.107-1.042,0.323-1.302c0.215-0.26,0.563-0.389,1.045-0.389h0.798v3.077C110.708,149.141,110.321,149.54,109.663,149.54z
		 M108.883,151.439c0.443,0,0.814-0.102,1.112-0.303c0.297-0.203,0.561-0.514,0.788-0.932h0.038c0.025,0.418,0.088,0.767,0.19,1.045
		h2.09c-0.102-0.229-0.165-0.459-0.19-0.693c-0.026-0.234-0.038-0.541-0.038-0.922v-4.369h0.589v-1.9h-0.589v-1.482h-2.052v1.482
		h-0.817c-0.418,0-0.731-0.107-0.94-0.323s-0.313-0.576-0.313-1.083v-0.816c0-0.457,0.092-0.785,0.275-0.988
		s0.447-0.305,0.789-0.305h2.356v-1.899h-2.394c-1.039,0-1.818,0.278-2.337,0.836c-0.52,0.558-0.779,1.374-0.779,2.45v0.248
		c0,0.709,0.117,1.289,0.351,1.738s0.599,0.775,1.093,0.979v0.037c-0.545,0.217-0.938,0.559-1.178,1.027s-0.361,1.051-0.361,1.748
		v1.387c0,0.988,0.196,1.741,0.589,2.261S108.124,151.439,108.883,151.439z M99.308,151.439c1.026,0,1.808-0.291,2.346-0.873
		c0.539-0.583,0.808-1.419,0.808-2.508c0-0.836-0.165-1.564-0.494-2.186c-0.329-0.621-0.931-1.311-1.805-2.071
		c-0.684-0.595-1.156-1.102-1.416-1.52c-0.26-0.419-0.39-0.868-0.39-1.349c0-0.85,0.348-1.273,1.045-1.273
		c0.342,0,0.602,0.104,0.779,0.313c0.177,0.209,0.266,0.542,0.266,0.997v0.684h1.976v-0.551c0-1.076-0.256-1.902-0.77-2.479
		c-0.513-0.576-1.27-0.865-2.271-0.865c-1.013,0-1.786,0.289-2.318,0.865c-0.532,0.576-0.798,1.39-0.798,2.441
		c0,0.772,0.171,1.466,0.513,2.08c0.342,0.615,0.943,1.302,1.805,2.062c0.684,0.596,1.152,1.105,1.406,1.529
		c0.253,0.425,0.38,0.915,0.38,1.473c0,0.469-0.092,0.808-0.275,1.017c-0.184,0.209-0.453,0.313-0.808,0.313
		c-0.722,0-1.083-0.431-1.083-1.292v-0.912H96.23v0.76c0,1.077,0.259,1.903,0.779,2.48
		C97.528,151.152,98.294,151.439,99.308,151.439z M90.055,151.25h5.529v-1.9h-3.439V137.95h-2.09V151.25z M85.476,149.54
		c-0.722,0-1.083-0.437-1.083-1.312v-7.258c0-0.873,0.361-1.311,1.083-1.311c0.722,0,1.083,0.438,1.083,1.311v7.258
		C86.559,149.104,86.198,149.54,85.476,149.54z M85.476,151.439c1.026,0,1.812-0.291,2.356-0.873
		c0.545-0.583,0.817-1.406,0.817-2.471v-6.992c0-1.063-0.272-1.887-0.817-2.47c-0.544-0.582-1.33-0.874-2.356-0.874
		c-1.026,0-1.812,0.292-2.356,0.874c-0.544,0.583-0.817,1.406-0.817,2.47v6.992c0,1.064,0.272,1.888,0.817,2.471
		C83.665,151.148,84.45,151.439,85.476,151.439z M77.876,149.54c-0.722,0-1.083-0.437-1.083-1.312v-7.258
		c0-0.873,0.361-1.311,1.083-1.311c0.722,0,1.083,0.438,1.083,1.311v7.258C78.959,149.104,78.598,149.54,77.876,149.54z
		 M77.876,151.439c1.026,0,1.812-0.291,2.356-0.873c0.545-0.583,0.817-1.406,0.817-2.471v-6.992c0-1.063-0.272-1.887-0.817-2.47
		c-0.544-0.582-1.33-0.874-2.356-0.874c-1.026,0-1.812,0.292-2.356,0.874c-0.544,0.583-0.817,1.406-0.817,2.47v6.992
		c0,1.064,0.272,1.888,0.817,2.471C76.064,151.148,76.85,151.439,77.876,151.439z M66.875,151.25h2.09v-5.984h2.242v5.984h2.09
		v-13.3h-2.09v5.415h-2.242v-5.415h-2.09V151.25z M62.543,151.439c1,0,1.764-0.285,2.29-0.854c0.525-0.569,0.788-1.374,0.788-2.413
		v-1.881h-1.976v2.033c0,0.811-0.349,1.216-1.045,1.216c-0.696,0-1.045-0.405-1.045-1.216v-7.43c0-0.822,0.349-1.234,1.045-1.234
		c0.697,0,1.045,0.412,1.045,1.234v1.539h1.976v-1.406c0-1.037-0.263-1.842-0.788-2.412c-0.526-0.57-1.289-0.855-2.29-0.855
		c-1.001,0-1.764,0.285-2.29,0.855c-0.526,0.57-0.789,1.375-0.789,2.412v7.145c0,1.039,0.263,1.844,0.789,2.413
		C60.779,151.154,61.542,151.439,62.543,151.439z M55.248,151.439c1.026,0,1.808-0.291,2.346-0.873
		c0.539-0.583,0.808-1.419,0.808-2.508c0-0.836-0.165-1.564-0.494-2.186c-0.329-0.621-0.931-1.311-1.805-2.071
		c-0.684-0.595-1.156-1.102-1.416-1.52c-0.26-0.419-0.39-0.868-0.39-1.349c0-0.85,0.348-1.273,1.045-1.273
		c0.342,0,0.602,0.104,0.779,0.313c0.177,0.209,0.266,0.542,0.266,0.997v0.684h1.976v-0.551c0-1.076-0.256-1.902-0.77-2.479
		c-0.513-0.576-1.27-0.865-2.271-0.865c-1.013,0-1.786,0.289-2.318,0.865c-0.532,0.576-0.798,1.39-0.798,2.441
		c0,0.772,0.171,1.466,0.513,2.08c0.342,0.615,0.943,1.302,1.805,2.062c0.684,0.596,1.152,1.105,1.406,1.529
		c0.253,0.425,0.38,0.915,0.38,1.473c0,0.469-0.092,0.808-0.275,1.017c-0.184,0.209-0.453,0.313-0.808,0.313
		c-0.722,0-1.083-0.431-1.083-1.292v-0.912h-1.976v0.76c0,1.077,0.259,1.903,0.779,2.48
		C53.468,151.152,54.234,151.439,55.248,151.439z"/>
	<path fill="#FFFFFF" d="M117.471,170.24c1.026,0,1.808-0.291,2.346-0.875c0.539-0.582,0.808-1.418,0.808-2.508
		c0-0.836-0.165-1.564-0.494-2.185c-0.329-0.62-0.931-1.312-1.805-2.071c-0.684-0.596-1.156-1.102-1.416-1.52
		c-0.26-0.418-0.39-0.867-0.39-1.35c0-0.848,0.348-1.272,1.045-1.272c0.342,0,0.602,0.104,0.779,0.313
		c0.177,0.209,0.266,0.541,0.266,0.998v0.684h1.976v-0.551c0-1.077-0.256-1.903-0.77-2.48c-0.513-0.576-1.27-0.864-2.271-0.864
		c-1.013,0-1.786,0.288-2.318,0.864c-0.532,0.577-0.798,1.391-0.798,2.441c0,0.773,0.171,1.467,0.513,2.081
		c0.342,0.614,0.943,1.302,1.805,2.062c0.684,0.596,1.152,1.105,1.406,1.529c0.253,0.425,0.38,0.916,0.38,1.473
		c0,0.469-0.092,0.808-0.275,1.017c-0.184,0.209-0.453,0.313-0.808,0.313c-0.722,0-1.083-0.431-1.083-1.292v-0.912h-1.976v0.761
		c0,1.076,0.259,1.902,0.779,2.479S116.458,170.24,117.471,170.24z M107.819,170.05h5.7v-1.899h-3.61v-4.086h2.869v-1.899h-2.869
		v-3.515h3.61v-1.9h-5.7V170.05z M104.171,170.05h2.09v-13.3h-2.09V170.05z M98.89,170.05h2.09V158.65h2.185v-1.9h-6.46v1.9h2.185
		V170.05z M93.607,170.05h2.09v-13.3h-2.09V170.05z M89.257,170.24c1.026,0,1.808-0.291,2.346-0.875
		c0.539-0.582,0.808-1.418,0.808-2.508c0-0.836-0.165-1.564-0.494-2.185c-0.329-0.62-0.931-1.312-1.805-2.071
		c-0.684-0.596-1.156-1.102-1.416-1.52c-0.26-0.418-0.39-0.867-0.39-1.35c0-0.848,0.348-1.272,1.045-1.272
		c0.342,0,0.602,0.104,0.779,0.313c0.177,0.209,0.266,0.541,0.266,0.998v0.684h1.976v-0.551c0-1.077-0.256-1.903-0.77-2.48
		c-0.513-0.576-1.27-0.864-2.271-0.864c-1.013,0-1.786,0.288-2.318,0.864c-0.532,0.577-0.798,1.391-0.798,2.441
		c0,0.773,0.171,1.467,0.513,2.081c0.342,0.614,0.943,1.302,1.805,2.062c0.684,0.596,1.152,1.105,1.406,1.529
		c0.253,0.425,0.38,0.916,0.38,1.473c0,0.469-0.092,0.808-0.275,1.017c-0.184,0.209-0.453,0.313-0.808,0.313
		c-0.722,0-1.083-0.431-1.083-1.292v-0.912h-1.976v0.761c0,1.076,0.259,1.902,0.779,2.479S88.243,170.24,89.257,170.24z
		 M80.973,162.449v-3.799h0.95c0.367,0,0.637,0.107,0.808,0.322c0.171,0.216,0.256,0.564,0.256,1.045v1.026
		c0,0.507-0.104,0.868-0.313,1.083s-0.522,0.322-0.94,0.322H80.973z M78.882,170.05h2.09v-5.7h0.722c0.481,0,0.82,0.121,1.017,0.361
		s0.294,0.665,0.294,1.273v2.432c0,0.494,0.013,0.836,0.038,1.025c0.025,0.19,0.076,0.393,0.152,0.608h2.128
		c-0.102-0.228-0.165-0.459-0.19-0.693s-0.038-0.542-0.038-0.922v-2.337c0-0.785-0.104-1.412-0.313-1.881s-0.567-0.779-1.074-0.932
		v-0.037c0.912-0.367,1.368-1.242,1.368-2.622v-0.817c0-1.038-0.247-1.808-0.741-2.309c-0.494-0.5-1.279-0.75-2.356-0.75h-3.097
		V170.05z M71.986,170.05h5.7v-1.899h-3.61v-4.086h2.869v-1.899h-2.869v-3.515h3.61v-1.9h-5.7V170.05z M66.191,170.05h2.774
		l2.014-13.3H69.06l-1.368,10.316h-0.038l-1.368-10.316h-2.109L66.191,170.05z M61.08,170.05h2.09v-13.3h-2.09V170.05z
		 M52.967,170.05h1.862v-9.709h0.038l2.508,9.709h2.147v-13.3h-1.862v7.961h-0.038l-2.033-7.961h-2.622V170.05z M48.37,170.24
		c1.013,0,1.786-0.289,2.318-0.865c0.532-0.576,0.798-1.402,0.798-2.479V156.75h-2.014v10.298c0,0.456-0.092,0.786-0.275,0.987
		c-0.184,0.203-0.446,0.305-0.789,0.305c-0.342,0-0.605-0.102-0.789-0.305c-0.184-0.201-0.275-0.531-0.275-0.987V156.75h-2.09
		v10.146c0,1.076,0.266,1.902,0.798,2.479C46.584,169.951,47.356,170.24,48.37,170.24z"/>
</g>
<g>
	<path fill-rule="evenodd" clip-rule="evenodd" fill="#058C45" d="M28.959,117.004c0-1.295,0-2.697,0-4.145
		c0.543,0.04,0.776-0.338,1.083-0.684c0.216-0.243,0.608-0.37,0.945-0.455c0.318-0.079,0.667-0.023,1.001-0.05
		c0.426-0.035,0.686-0.276,0.713-0.705c0.026-0.417,0.011-0.837,0.011-1.256c0.003-11.736,0.006-23.473,0.006-35.211
		c0-0.484-0.063-0.972-0.041-1.455c0.038-0.833,0.407-1.076,1.226-0.922c0.39,0.072,0.797,0.071,1.197,0.072
		c7.712,0.008,15.425,0.019,23.138,0.004c0.624,0,1.247-0.18,1.87-0.281c0.131-0.022,0.258-0.104,0.387-0.104
		c1.155,0.004,2.071-0.595,2.966-1.207c0.466-0.318,0.892-0.708,1.287-1.114c1.355-1.389,2.668-2.82,4.036-4.197
		c1.344-1.354,2.744-2.652,4.104-3.991c0.716-0.704,1.389-1.45,2.099-2.161c1.125-1.123,2.275-2.221,3.395-3.351
		c1.202-1.213,2.394-2.438,3.566-3.679c0.836-0.887,1.294-0.868,2.083,0.041c0.635,0.732,1.338,1.406,2.021,2.096
		c2.18,2.2,4.362,4.396,6.546,6.592c2.608,2.623,5.237,5.227,7.82,7.874c0.94,0.964,1.922,1.862,3.058,2.583
		c0.248,0.156,0.536,0.267,0.82,0.34c0.322,0.082,0.691,0.029,0.988,0.156c1.255,0.536,2.567,0.401,3.869,0.401
		c6.908,0.002,13.816,0.004,20.725-0.003c0.751-0.002,1.503-0.054,2.254-0.1c0.609-0.037,0.944,0.195,0.975,0.807
		c0.031,0.633-0.018,1.271-0.018,1.906c-0.001,11.568,0,23.138-0.002,34.707c0,0.402-0.029,0.806-0.012,1.206
		c0.028,0.619,0.273,0.869,0.888,0.951c0.149,0.02,0.305,0.045,0.45,0.023c0.783-0.117,1.342,0.209,1.828,0.803
		c0.318,0.389,0.477,0.788,0.472,1.281c-0.007,0.787,0.006,1.575,0.017,2.362c0.016,1.257-0.781,2.098-1.989,2.098
		c-5.802-0.004-11.603-0.01-17.403-0.01c-11.921-0.002-23.842,0-35.763-0.001c-10.63-0.001-21.259-0.008-31.889-0.008
		c-6.187,0-12.374,0.006-18.561,0.018c-0.577,0.001-1.033-0.155-1.388-0.646C29.576,117.371,29.287,117.244,28.959,117.004z
		 M84.224,69.633c0.03,0,0.062,0,0.091,0c0,1.274,0.006,2.548-0.001,3.821c-0.005,1.014-0.524,1.564-1.53,1.594
		c-0.988,0.029-1.978-0.013-2.963,0.043c-1.423,0.082-1.777-0.215-1.808-1.645c-0.018-0.837,0.442-1.323,1.288-1.326
		c0.35-0.002,0.7,0.074,1.051,0.081c0.743,0.014,1.115-0.32,1.206-1.058c0.021-0.166,0.031-0.334,0.032-0.502
		c0.009-1.607,0.012-3.217,0.024-4.826c0.007-0.895-0.314-1.148-1.192-1.105c-1.056,0.049-1.792,0.737-2.583,1.252
		c-1.97,1.283-3.135,3.26-3.682,5.446c-0.47,1.881-0.567,3.896,0.529,5.714c0.085,0.141,0.137,0.306,0.186,0.465
		c0.291,0.955,0.914,1.713,1.559,2.425c1.045,1.156,2.321,1.976,3.805,2.526c1.351,0.502,2.706,0.656,4.092,0.387
		c0.698-0.136,1.4-0.382,2.027-0.717c0.875-0.469,1.736-1,2.506-1.625c1.035-0.842,1.734-1.957,2.324-3.169
		c0.631-1.294,0.895-2.647,0.824-4.035c-0.076-1.552-0.311-3.105-1.24-4.44c-0.602-0.861-1.102-1.805-2.021-2.406
		c-0.6-0.391-1.219-0.77-1.748-1.246c-0.541-0.484-1.139-0.607-1.81-0.557c-0.687,0.052-0.961,0.356-0.962,1.033
		C84.223,67.053,84.224,68.343,84.224,69.633z M77.35,104.765c-0.003,0-0.006,0-0.01,0c0,1.86,0.016,3.721-0.006,5.58
		c-0.013,1.018,0.242,1.346,1.272,1.352c2.916,0.015,5.832,0.016,8.747,0.005c0.971-0.004,1.272-0.42,1.261-1.392
		c-0.039-3.484-0.018-6.97-0.065-10.453c-0.023-1.695-0.274-3.326-1.409-4.729c-1.109-1.371-2.512-2.041-4.234-1.969
		c-0.77,0.032-1.614,0.146-2.28,0.498c-2.208,1.163-3.253,3.094-3.272,5.578C77.339,101.078,77.35,102.922,77.35,104.765z
		 M106.026,86.224c-0.003,0-0.005,0-0.009,0c0-0.42,0-0.838,0-1.256c0-0.436,0.014-0.872-0.002-1.307
		c-0.041-1.069-0.516-1.516-1.573-1.51c-1.44,0.006-2.88,0.01-4.319,0.008c-1.414-0.003-1.928,0.52-1.922,1.949
		c0.006,1.473,0.004,2.947-0.002,4.42c-0.004,1.242,0.398,1.684,1.633,1.699c1.574,0.02,3.148,0.018,4.722,0.006
		c1-0.009,1.464-0.496,1.472-1.499C106.031,87.897,106.026,87.06,106.026,86.224z M123.367,86.172c-0.012,0-0.023,0-0.036,0
		c0-0.938,0.03-1.878-0.009-2.813c-0.033-0.789-0.391-1.178-1.09-1.188c-1.674-0.025-3.352-0.037-5.025,0.003
		c-1.039,0.024-1.52,0.466-1.541,1.41c-0.039,1.79-0.039,3.583-0.007,5.375c0.017,0.886,0.354,1.177,1.243,1.247
		c0.232,0.019,0.469,0.016,0.703,0.016c1.357,0.004,2.715-0.026,4.07,0.02c1.186,0.04,1.68-0.371,1.69-1.557
		C123.373,87.847,123.367,87.009,123.367,86.172z M106.019,100.696c0.003,0,0.005,0,0.007,0c0-0.838,0.008-1.676-0.002-2.514
		c-0.012-1.002-0.442-1.467-1.428-1.478c-1.643-0.017-3.285-0.015-4.926,0.009c-1.008,0.014-1.459,0.49-1.465,1.508
		c-0.011,1.59-0.01,3.181-0.002,4.771c0.008,1.202,0.525,1.714,1.721,1.718c1.508,0.007,3.016,0.007,4.524,0.009
		c1.083,0.001,1.552-0.457,1.567-1.56C106.029,102.339,106.019,101.518,106.019,100.696z M123.367,100.665c-0.002,0-0.004,0-0.005,0
		c0-0.871,0.024-1.743-0.007-2.613c-0.036-1.017-0.557-1.447-1.562-1.365c-0.216,0.018-0.435,0.018-0.652,0.019
		c-1.323,0.003-2.647-0.017-3.97,0.009c-1.073,0.021-1.531,0.462-1.541,1.497c-0.016,1.658-0.008,3.316,0.022,4.974
		c0.019,1.063,0.409,1.44,1.46,1.512c0.184,0.013,0.367,0.013,0.552,0.015c1.44,0.012,2.88,0.021,4.319,0.035
		c0.639,0.006,1.068-0.268,1.242-0.882c0.096-0.332,0.125-0.69,0.135-1.039C123.381,102.105,123.367,101.386,123.367,100.665z
		 M42.595,86.242c0.004,0,0.008,0,0.013,0c0,0.218,0,0.436,0,0.653c-0.002,0.721-0.034,1.443-0.001,2.162
		c0.043,0.955,0.444,1.271,1.397,1.187c0.233-0.021,0.468-0.021,0.703-0.021c1.425-0.004,2.851,0.012,4.275-0.014
		c0.876-0.016,1.215-0.317,1.23-1.179c0.032-1.843,0.035-3.688-0.006-5.53c-0.021-0.96-0.333-1.223-1.29-1.321
		c-0.133-0.013-0.268-0.013-0.401-0.013c-1.475-0.003-2.95,0.005-4.426-0.01c-1.161-0.012-1.458,0.245-1.489,1.42
		C42.577,84.465,42.595,85.354,42.595,86.242z M59.998,86.219c0,0,0.001,0,0.001,0c0,0.921-0.018,1.844,0.005,2.765
		c0.021,0.875,0.452,1.293,1.267,1.286c1.591-0.015,3.182-0.03,4.772-0.048c1.315-0.015,1.654-0.371,1.649-1.695
		c-0.006-1.475-0.009-2.948,0-4.423c0.009-1.536-0.384-1.94-1.923-1.94c-1.422-0.001-2.844,0.004-4.266-0.006
		c-1.111-0.007-1.474,0.32-1.501,1.448C59.981,84.476,59.998,85.348,59.998,86.219z M50.23,100.604c0.004,0,0.009,0,0.014,0
		c0-0.905,0.013-1.811-0.004-2.715c-0.015-0.777-0.371-1.129-1.14-1.175c-0.201-0.013-0.402-0.009-0.604-0.009
		c-1.442-0.001-2.889,0.068-4.325-0.021c-1.463-0.092-1.574,0.498-1.578,1.512c-0.004,0.938,0.002,1.877,0.014,2.814
		c0.011,0.904-0.005,1.812,0.064,2.712c0.05,0.648,0.375,0.949,1.019,0.958c1.86,0.026,3.721,0.013,5.582,0.003
		c0.463-0.003,0.752-0.276,0.846-0.719c0.065-0.31,0.102-0.63,0.108-0.945C50.24,102.215,50.23,101.409,50.23,100.604z
		 M67.684,100.653c0,0,0.001,0,0.002,0c0-0.637-0.001-1.273,0-1.909c0-0.083,0.007-0.167,0.012-0.251
		c0.094-1.371-0.264-1.764-1.625-1.787c-0.134-0.002-0.268,0.001-0.402,0c-1.472-0.016-2.944-0.029-4.417-0.049
		c-0.776-0.012-1.232,0.377-1.245,1.191c-0.026,1.808-0.032,3.616,0.004,5.423c0.02,1.011,0.426,1.406,1.427,1.424
		c1.589,0.028,3.181,0.026,4.77-0.006c1.077-0.021,1.435-0.398,1.466-1.476C67.704,102.361,67.684,101.507,67.684,100.653z"/>
	<path fill-rule="evenodd" clip-rule="evenodd" fill="#058C45" d="M28.952,67.108c0-0.443,0-0.877,0-1.352
		c0.557,0.012,0.776-0.365,1.021-0.791c0.332-0.576,0.754-1.102,1.15-1.639c1.023-1.389,2.048-2.774,3.083-4.154
		c1.533-2.045,3.087-4.076,4.611-6.128c1.116-1.503,2.176-3.047,3.304-4.54c0.75-0.994,1.666-1.622,3.043-1.611
		c7.16,0.053,14.32,0.027,21.48,0.046c0.782,0.002,1.348-0.286,1.888-0.848c1.359-1.411,2.786-2.757,4.171-4.144
		c1.398-1.396,2.774-2.816,4.17-4.215c1.088-1.091,2.193-2.164,3.289-3.246c0.357-0.354,0.746-0.686,1.046-1.083
		c0.188-0.249,0.335-0.603,0.337-0.909c0.019-5.164,0.012-10.329,0.01-15.494c0-0.449-0.056-0.906,0.006-1.348
		c0.099-0.705,0.48-1.061,1.187-1.171c0.922-0.144,1.729,0.004,2.541,0.599c1.338,0.979,2.859,1.412,4.583,1.199
		c1.343-0.166,2.555-0.695,3.749-1.193c1.998-0.832,3.934-0.783,5.92-0.148c0.492,0.158,0.967,0.377,1.445,0.575
		c0.46,0.19,0.73,0.533,0.747,1.036c0.016,0.5,0.001,1.002,0.001,1.502c0,2.566-0.005,5.132,0.004,7.697
		c0,0.4,0.086,0.8,0.086,1.199c0.002,0.703-0.389,0.934-1.022,0.618c-0.489-0.243-0.946-0.59-1.461-0.733
		c-1.628-0.453-3.284-0.344-4.931-0.074c-0.274,0.045-0.532,0.19-0.795,0.295c-0.418,0.166-0.828,0.355-1.254,0.502
		c-0.692,0.239-1.381,0.525-2.096,0.663c-1.629,0.312-3.15-0.055-4.557-0.923c-0.352-0.217-0.719-0.551-1.141-0.311
		c-0.441,0.251-0.342,0.756-0.336,1.186c0.018,1.356,0.096,2.715,0.049,4.068c-0.033,0.913,0.553,1.415,1.08,1.945
		c1.785,1.793,3.607,3.547,5.41,5.32c1.911,1.881,3.815,3.768,5.721,5.652c0.406,0.4,0.814,0.797,1.203,1.213
		c0.396,0.423,0.871,0.572,1.441,0.569c3.42-0.017,6.842-0.016,10.262-0.021c3.857-0.004,7.714,0.011,11.57-0.023
		c1.186-0.01,1.998,0.561,2.668,1.432c1.192,1.551,2.371,3.111,3.547,4.676c0.352,0.467,0.662,0.964,1.008,1.436
		c1.356,1.847,2.721,3.689,4.08,5.534c1.199,1.628,2.395,3.259,3.596,4.884c0.149,0.201,0.331,0.379,0.494,0.568
		c0.77,0.896,0.352,2.162-0.813,2.334c-0.602,0.09-1.227,0.019-1.841,0.019c-8.334,0.001-16.668,0.003-25.002,0.005
		c-0.386,0-0.785,0.061-1.153-0.02c-0.408-0.088-0.885-0.208-1.167-0.484c-2.183-2.129-4.321-4.304-6.481-6.456
		c-1.223-1.218-2.472-2.409-3.689-3.632c-1.738-1.745-3.451-3.516-5.188-5.262c-2.124-2.133-4.263-4.252-6.397-6.375
		c-0.402-0.4-0.816-0.791-1.227-1.182c-0.371-0.354-0.699-0.275-1.041,0.07c-1.199,1.216-2.412,2.417-3.617,3.627
		c-2.411,2.42-4.824,4.837-7.226,7.266c-0.8,0.809-1.554,1.665-2.357,2.471c-1.017,1.02-2.075,1.996-3.092,3.016
		c-1.443,1.447-2.854,2.928-4.301,4.371c-0.746,0.746-1.495,1.504-2.335,2.132c-0.404,0.302-1.024,0.437-1.547,0.439
		c-6.237,0.028-12.475,0.017-18.713,0.015c-2.549,0-5.098-0.023-7.646,0.018c-0.726,0.012-1.393,0.023-1.971-0.5
		C29.425,67.178,29.188,67.177,28.952,67.108z"/>
</g>
</svg>
